<?xml version="1.0" encoding="utf-8" standalone="no"?>
<!DOCTYPE svg PUBLIC "-//W3C//DTD SVG 1.1//EN"
  "http://www.w3.org/Graphics/SVG/1.1/DTD/svg11.dtd">
<!-- Created with matplotlib (http://matplotlib.org/) -->
<svg height="345pt" version="1.1" viewBox="0 0 460 345" width="460pt" xmlns="http://www.w3.org/2000/svg" xmlns:xlink="http://www.w3.org/1999/xlink">
 <defs>
  <style type="text/css">
*{stroke-linecap:butt;stroke-linejoin:round;}
  </style>
 </defs>
 <g id="figure_1">
  <g id="patch_1">
   <path d="M 0 345.6 
L 460.8 345.6 
L 460.8 0 
L 0 0 
z
" style="fill:#ffffff;"/>
  </g>
  <g id="axes_1">
   <g id="patch_2">
    <path d="M 57.6 307.584 
L 414.72 307.584 
L 414.72 41.472 
L 57.6 41.472 
z
" style="fill:#ffffff;"/>
   </g>
   <g id="matplotlib.axis_1">
    <g id="xtick_1">
     <g id="line2d_1">
      <path clip-path="url(#pdadc19f57b)" d="M 57.6 307.584 
L 57.6 41.472 
" style="fill:none;stroke:#b0b0b0;stroke-linecap:square;stroke-width:0.8;"/>
     </g>
     <g id="line2d_2">
      <defs>
       <path d="M 0 0 
L 0 3.5 
" id="ma12d2232a3" style="stroke:#000000;stroke-width:0.8;"/>
      </defs>
      <g>
       <use style="stroke:#000000;stroke-width:0.8;" x="57.6" xlink:href="#ma12d2232a3" y="307.584"/>
      </g>
     </g>
     <g id="text_1">
      <!-- −4 -->
      <defs>
       <path d="M 10.59375 35.5 
L 73.1875 35.5 
L 73.1875 27.203125 
L 10.59375 27.203125 
z
" id="DejaVuSans-2212"/>
       <path d="M 37.796875 64.3125 
L 12.890625 25.390625 
L 37.796875 25.390625 
z
M 35.203125 72.90625 
L 47.609375 72.90625 
L 47.609375 25.390625 
L 58.015625 25.390625 
L 58.015625 17.1875 
L 47.609375 17.1875 
L 47.609375 0 
L 37.796875 0 
L 37.796875 17.1875 
L 4.890625 17.1875 
L 4.890625 26.703125 
z
" id="DejaVuSans-34"/>
      </defs>
      <g transform="translate(50.228906 322.182437)scale(0.1 -0.1)">
       <use xlink:href="#DejaVuSans-2212"/>
       <use x="83.789062" xlink:href="#DejaVuSans-34"/>
      </g>
     </g>
    </g>
    <g id="xtick_2">
     <g id="line2d_3">
      <path clip-path="url(#pdadc19f57b)" d="M 101.779794 307.584 
L 101.779794 41.472 
" style="fill:none;stroke:#b0b0b0;stroke-linecap:square;stroke-width:0.8;"/>
     </g>
     <g id="line2d_4">
      <g>
       <use style="stroke:#000000;stroke-width:0.8;" x="101.779794" xlink:href="#ma12d2232a3" y="307.584"/>
      </g>
     </g>
     <g id="text_2">
      <!-- −2 -->
      <defs>
       <path d="M 19.1875 8.296875 
L 53.609375 8.296875 
L 53.609375 0 
L 7.328125 0 
L 7.328125 8.296875 
Q 12.9375 14.109375 22.625 23.890625 
Q 32.328125 33.6875 34.8125 36.53125 
Q 39.546875 41.84375 41.421875 45.53125 
Q 43.3125 49.21875 43.3125 52.78125 
Q 43.3125 58.59375 39.234375 62.25 
Q 35.15625 65.921875 28.609375 65.921875 
Q 23.96875 65.921875 18.8125 64.3125 
Q 13.671875 62.703125 7.8125 59.421875 
L 7.8125 69.390625 
Q 13.765625 71.78125 18.9375 73 
Q 24.125 74.21875 28.421875 74.21875 
Q 39.75 74.21875 46.484375 68.546875 
Q 53.21875 62.890625 53.21875 53.421875 
Q 53.21875 48.921875 51.53125 44.890625 
Q 49.859375 40.875 45.40625 35.40625 
Q 44.1875 33.984375 37.640625 27.21875 
Q 31.109375 20.453125 19.1875 8.296875 
" id="DejaVuSans-32"/>
      </defs>
      <g transform="translate(94.4087 322.182437)scale(0.1 -0.1)">
       <use xlink:href="#DejaVuSans-2212"/>
       <use x="83.789062" xlink:href="#DejaVuSans-32"/>
      </g>
     </g>
    </g>
    <g id="xtick_3">
     <g id="line2d_5">
      <path clip-path="url(#pdadc19f57b)" d="M 145.959588 307.584 
L 145.959588 41.472 
" style="fill:none;stroke:#b0b0b0;stroke-linecap:square;stroke-width:0.8;"/>
     </g>
     <g id="line2d_6">
      <g>
       <use style="stroke:#000000;stroke-width:0.8;" x="145.959588" xlink:href="#ma12d2232a3" y="307.584"/>
      </g>
     </g>
     <g id="text_3">
      <!-- 0 -->
      <defs>
       <path d="M 31.78125 66.40625 
Q 24.171875 66.40625 20.328125 58.90625 
Q 16.5 51.421875 16.5 36.375 
Q 16.5 21.390625 20.328125 13.890625 
Q 24.171875 6.390625 31.78125 6.390625 
Q 39.453125 6.390625 43.28125 13.890625 
Q 47.125 21.390625 47.125 36.375 
Q 47.125 51.421875 43.28125 58.90625 
Q 39.453125 66.40625 31.78125 66.40625 
M 31.78125 74.21875 
Q 44.046875 74.21875 50.515625 64.515625 
Q 56.984375 54.828125 56.984375 36.375 
Q 56.984375 17.96875 50.515625 8.265625 
Q 44.046875 -1.421875 31.78125 -1.421875 
Q 19.53125 -1.421875 13.0625 8.265625 
Q 6.59375 17.96875 6.59375 36.375 
Q 6.59375 54.828125 13.0625 64.515625 
Q 19.53125 74.21875 31.78125 74.21875 
" id="DejaVuSans-30"/>
      </defs>
      <g transform="translate(142.778338 322.182437)scale(0.1 -0.1)">
       <use xlink:href="#DejaVuSans-30"/>
      </g>
     </g>
    </g>
    <g id="xtick_4">
     <g id="line2d_7">
      <path clip-path="url(#pdadc19f57b)" d="M 190.139381 307.584 
L 190.139381 41.472 
" style="fill:none;stroke:#b0b0b0;stroke-linecap:square;stroke-width:0.8;"/>
     </g>
     <g id="line2d_8">
      <g>
       <use style="stroke:#000000;stroke-width:0.8;" x="190.139381" xlink:href="#ma12d2232a3" y="307.584"/>
      </g>
     </g>
     <g id="text_4">
      <!-- 2 -->
      <g transform="translate(186.958131 322.182437)scale(0.1 -0.1)">
       <use xlink:href="#DejaVuSans-32"/>
      </g>
     </g>
    </g>
    <g id="xtick_5">
     <g id="line2d_9">
      <path clip-path="url(#pdadc19f57b)" d="M 234.319175 307.584 
L 234.319175 41.472 
" style="fill:none;stroke:#b0b0b0;stroke-linecap:square;stroke-width:0.8;"/>
     </g>
     <g id="line2d_10">
      <g>
       <use style="stroke:#000000;stroke-width:0.8;" x="234.319175" xlink:href="#ma12d2232a3" y="307.584"/>
      </g>
     </g>
     <g id="text_5">
      <!-- 4 -->
      <g transform="translate(231.137925 322.182437)scale(0.1 -0.1)">
       <use xlink:href="#DejaVuSans-34"/>
      </g>
     </g>
    </g>
    <g id="xtick_6">
     <g id="line2d_11">
      <path clip-path="url(#pdadc19f57b)" d="M 278.498969 307.584 
L 278.498969 41.472 
" style="fill:none;stroke:#b0b0b0;stroke-linecap:square;stroke-width:0.8;"/>
     </g>
     <g id="line2d_12">
      <g>
       <use style="stroke:#000000;stroke-width:0.8;" x="278.498969" xlink:href="#ma12d2232a3" y="307.584"/>
      </g>
     </g>
     <g id="text_6">
      <!-- 6 -->
      <defs>
       <path d="M 33.015625 40.375 
Q 26.375 40.375 22.484375 35.828125 
Q 18.609375 31.296875 18.609375 23.390625 
Q 18.609375 15.53125 22.484375 10.953125 
Q 26.375 6.390625 33.015625 6.390625 
Q 39.65625 6.390625 43.53125 10.953125 
Q 47.40625 15.53125 47.40625 23.390625 
Q 47.40625 31.296875 43.53125 35.828125 
Q 39.65625 40.375 33.015625 40.375 
M 52.59375 71.296875 
L 52.59375 62.3125 
Q 48.875 64.0625 45.09375 64.984375 
Q 41.3125 65.921875 37.59375 65.921875 
Q 27.828125 65.921875 22.671875 59.328125 
Q 17.53125 52.734375 16.796875 39.40625 
Q 19.671875 43.65625 24.015625 45.921875 
Q 28.375 48.1875 33.59375 48.1875 
Q 44.578125 48.1875 50.953125 41.515625 
Q 57.328125 34.859375 57.328125 23.390625 
Q 57.328125 12.15625 50.6875 5.359375 
Q 44.046875 -1.421875 33.015625 -1.421875 
Q 20.359375 -1.421875 13.671875 8.265625 
Q 6.984375 17.96875 6.984375 36.375 
Q 6.984375 53.65625 15.1875 63.9375 
Q 23.390625 74.21875 37.203125 74.21875 
Q 40.921875 74.21875 44.703125 73.484375 
Q 48.484375 72.75 52.59375 71.296875 
" id="DejaVuSans-36"/>
      </defs>
      <g transform="translate(275.317719 322.182437)scale(0.1 -0.1)">
       <use xlink:href="#DejaVuSans-36"/>
      </g>
     </g>
    </g>
    <g id="xtick_7">
     <g id="line2d_13">
      <path clip-path="url(#pdadc19f57b)" d="M 322.678763 307.584 
L 322.678763 41.472 
" style="fill:none;stroke:#b0b0b0;stroke-linecap:square;stroke-width:0.8;"/>
     </g>
     <g id="line2d_14">
      <g>
       <use style="stroke:#000000;stroke-width:0.8;" x="322.678763" xlink:href="#ma12d2232a3" y="307.584"/>
      </g>
     </g>
     <g id="text_7">
      <!-- 8 -->
      <defs>
       <path d="M 31.78125 34.625 
Q 24.75 34.625 20.71875 30.859375 
Q 16.703125 27.09375 16.703125 20.515625 
Q 16.703125 13.921875 20.71875 10.15625 
Q 24.75 6.390625 31.78125 6.390625 
Q 38.8125 6.390625 42.859375 10.171875 
Q 46.921875 13.96875 46.921875 20.515625 
Q 46.921875 27.09375 42.890625 30.859375 
Q 38.875 34.625 31.78125 34.625 
M 21.921875 38.8125 
Q 15.578125 40.375 12.03125 44.71875 
Q 8.5 49.078125 8.5 55.328125 
Q 8.5 64.0625 14.71875 69.140625 
Q 20.953125 74.21875 31.78125 74.21875 
Q 42.671875 74.21875 48.875 69.140625 
Q 55.078125 64.0625 55.078125 55.328125 
Q 55.078125 49.078125 51.53125 44.71875 
Q 48 40.375 41.703125 38.8125 
Q 48.828125 37.15625 52.796875 32.3125 
Q 56.78125 27.484375 56.78125 20.515625 
Q 56.78125 9.90625 50.3125 4.234375 
Q 43.84375 -1.421875 31.78125 -1.421875 
Q 19.734375 -1.421875 13.25 4.234375 
Q 6.78125 9.90625 6.78125 20.515625 
Q 6.78125 27.484375 10.78125 32.3125 
Q 14.796875 37.15625 21.921875 38.8125 
M 18.3125 54.390625 
Q 18.3125 48.734375 21.84375 45.5625 
Q 25.390625 42.390625 31.78125 42.390625 
Q 38.140625 42.390625 41.71875 45.5625 
Q 45.3125 48.734375 45.3125 54.390625 
Q 45.3125 60.0625 41.71875 63.234375 
Q 38.140625 66.40625 31.78125 66.40625 
Q 25.390625 66.40625 21.84375 63.234375 
Q 18.3125 60.0625 18.3125 54.390625 
" id="DejaVuSans-38"/>
      </defs>
      <g transform="translate(319.497513 322.182437)scale(0.1 -0.1)">
       <use xlink:href="#DejaVuSans-38"/>
      </g>
     </g>
    </g>
    <g id="xtick_8">
     <g id="line2d_15">
      <path clip-path="url(#pdadc19f57b)" d="M 366.858557 307.584 
L 366.858557 41.472 
" style="fill:none;stroke:#b0b0b0;stroke-linecap:square;stroke-width:0.8;"/>
     </g>
     <g id="line2d_16">
      <g>
       <use style="stroke:#000000;stroke-width:0.8;" x="366.858557" xlink:href="#ma12d2232a3" y="307.584"/>
      </g>
     </g>
     <g id="text_8">
      <!-- 10 -->
      <defs>
       <path d="M 12.40625 8.296875 
L 28.515625 8.296875 
L 28.515625 63.921875 
L 10.984375 60.40625 
L 10.984375 69.390625 
L 28.421875 72.90625 
L 38.28125 72.90625 
L 38.28125 8.296875 
L 54.390625 8.296875 
L 54.390625 0 
L 12.40625 0 
z
" id="DejaVuSans-31"/>
      </defs>
      <g transform="translate(360.496057 322.182437)scale(0.1 -0.1)">
       <use xlink:href="#DejaVuSans-31"/>
       <use x="63.623047" xlink:href="#DejaVuSans-30"/>
      </g>
     </g>
    </g>
    <g id="xtick_9">
     <g id="line2d_17">
      <path clip-path="url(#pdadc19f57b)" d="M 411.038351 307.584 
L 411.038351 41.472 
" style="fill:none;stroke:#b0b0b0;stroke-linecap:square;stroke-width:0.8;"/>
     </g>
     <g id="line2d_18">
      <g>
       <use style="stroke:#000000;stroke-width:0.8;" x="411.038351" xlink:href="#ma12d2232a3" y="307.584"/>
      </g>
     </g>
     <g id="text_9">
      <!-- 12 -->
      <g transform="translate(404.675851 322.182437)scale(0.1 -0.1)">
       <use xlink:href="#DejaVuSans-31"/>
       <use x="63.623047" xlink:href="#DejaVuSans-32"/>
      </g>
     </g>
    </g>
    <g id="text_10">
     <!-- Time (months) -->
     <defs>
      <path d="M -0.296875 72.90625 
L 61.375 72.90625 
L 61.375 64.59375 
L 35.5 64.59375 
L 35.5 0 
L 25.59375 0 
L 25.59375 64.59375 
L -0.296875 64.59375 
z
" id="DejaVuSans-54"/>
      <path d="M 9.421875 54.6875 
L 18.40625 54.6875 
L 18.40625 0 
L 9.421875 0 
z
M 9.421875 75.984375 
L 18.40625 75.984375 
L 18.40625 64.59375 
L 9.421875 64.59375 
z
" id="DejaVuSans-69"/>
      <path d="M 52 44.1875 
Q 55.375 50.25 60.0625 53.125 
Q 64.75 56 71.09375 56 
Q 79.640625 56 84.28125 50.015625 
Q 88.921875 44.046875 88.921875 33.015625 
L 88.921875 0 
L 79.890625 0 
L 79.890625 32.71875 
Q 79.890625 40.578125 77.09375 44.375 
Q 74.3125 48.1875 68.609375 48.1875 
Q 61.625 48.1875 57.5625 43.546875 
Q 53.515625 38.921875 53.515625 30.90625 
L 53.515625 0 
L 44.484375 0 
L 44.484375 32.71875 
Q 44.484375 40.625 41.703125 44.40625 
Q 38.921875 48.1875 33.109375 48.1875 
Q 26.21875 48.1875 22.15625 43.53125 
Q 18.109375 38.875 18.109375 30.90625 
L 18.109375 0 
L 9.078125 0 
L 9.078125 54.6875 
L 18.109375 54.6875 
L 18.109375 46.1875 
Q 21.1875 51.21875 25.484375 53.609375 
Q 29.78125 56 35.6875 56 
Q 41.65625 56 45.828125 52.96875 
Q 50 49.953125 52 44.1875 
" id="DejaVuSans-6d"/>
      <path d="M 56.203125 29.59375 
L 56.203125 25.203125 
L 14.890625 25.203125 
Q 15.484375 15.921875 20.484375 11.0625 
Q 25.484375 6.203125 34.421875 6.203125 
Q 39.59375 6.203125 44.453125 7.46875 
Q 49.3125 8.734375 54.109375 11.28125 
L 54.109375 2.78125 
Q 49.265625 0.734375 44.1875 -0.34375 
Q 39.109375 -1.421875 33.890625 -1.421875 
Q 20.796875 -1.421875 13.15625 6.1875 
Q 5.515625 13.8125 5.515625 26.8125 
Q 5.515625 40.234375 12.765625 48.109375 
Q 20.015625 56 32.328125 56 
Q 43.359375 56 49.78125 48.890625 
Q 56.203125 41.796875 56.203125 29.59375 
M 47.21875 32.234375 
Q 47.125 39.59375 43.09375 43.984375 
Q 39.0625 48.390625 32.421875 48.390625 
Q 24.90625 48.390625 20.390625 44.140625 
Q 15.875 39.890625 15.1875 32.171875 
z
" id="DejaVuSans-65"/>
      <path id="DejaVuSans-20"/>
      <path d="M 31 75.875 
Q 24.46875 64.65625 21.28125 53.65625 
Q 18.109375 42.671875 18.109375 31.390625 
Q 18.109375 20.125 21.3125 9.0625 
Q 24.515625 -2 31 -13.1875 
L 23.1875 -13.1875 
Q 15.875 -1.703125 12.234375 9.375 
Q 8.59375 20.453125 8.59375 31.390625 
Q 8.59375 42.28125 12.203125 53.3125 
Q 15.828125 64.359375 23.1875 75.875 
z
" id="DejaVuSans-28"/>
      <path d="M 30.609375 48.390625 
Q 23.390625 48.390625 19.1875 42.75 
Q 14.984375 37.109375 14.984375 27.296875 
Q 14.984375 17.484375 19.15625 11.84375 
Q 23.34375 6.203125 30.609375 6.203125 
Q 37.796875 6.203125 41.984375 11.859375 
Q 46.1875 17.53125 46.1875 27.296875 
Q 46.1875 37.015625 41.984375 42.703125 
Q 37.796875 48.390625 30.609375 48.390625 
M 30.609375 56 
Q 42.328125 56 49.015625 48.375 
Q 55.71875 40.765625 55.71875 27.296875 
Q 55.71875 13.875 49.015625 6.21875 
Q 42.328125 -1.421875 30.609375 -1.421875 
Q 18.84375 -1.421875 12.171875 6.21875 
Q 5.515625 13.875 5.515625 27.296875 
Q 5.515625 40.765625 12.171875 48.375 
Q 18.84375 56 30.609375 56 
" id="DejaVuSans-6f"/>
      <path d="M 54.890625 33.015625 
L 54.890625 0 
L 45.90625 0 
L 45.90625 32.71875 
Q 45.90625 40.484375 42.875 44.328125 
Q 39.84375 48.1875 33.796875 48.1875 
Q 26.515625 48.1875 22.3125 43.546875 
Q 18.109375 38.921875 18.109375 30.90625 
L 18.109375 0 
L 9.078125 0 
L 9.078125 54.6875 
L 18.109375 54.6875 
L 18.109375 46.1875 
Q 21.34375 51.125 25.703125 53.5625 
Q 30.078125 56 35.796875 56 
Q 45.21875 56 50.046875 50.171875 
Q 54.890625 44.34375 54.890625 33.015625 
" id="DejaVuSans-6e"/>
      <path d="M 18.3125 70.21875 
L 18.3125 54.6875 
L 36.8125 54.6875 
L 36.8125 47.703125 
L 18.3125 47.703125 
L 18.3125 18.015625 
Q 18.3125 11.328125 20.140625 9.421875 
Q 21.96875 7.515625 27.59375 7.515625 
L 36.8125 7.515625 
L 36.8125 0 
L 27.59375 0 
Q 17.1875 0 13.234375 3.875 
Q 9.28125 7.765625 9.28125 18.015625 
L 9.28125 47.703125 
L 2.6875 47.703125 
L 2.6875 54.6875 
L 9.28125 54.6875 
L 9.28125 70.21875 
z
" id="DejaVuSans-74"/>
      <path d="M 54.890625 33.015625 
L 54.890625 0 
L 45.90625 0 
L 45.90625 32.71875 
Q 45.90625 40.484375 42.875 44.328125 
Q 39.84375 48.1875 33.796875 48.1875 
Q 26.515625 48.1875 22.3125 43.546875 
Q 18.109375 38.921875 18.109375 30.90625 
L 18.109375 0 
L 9.078125 0 
L 9.078125 75.984375 
L 18.109375 75.984375 
L 18.109375 46.1875 
Q 21.34375 51.125 25.703125 53.5625 
Q 30.078125 56 35.796875 56 
Q 45.21875 56 50.046875 50.171875 
Q 54.890625 44.34375 54.890625 33.015625 
" id="DejaVuSans-68"/>
      <path d="M 44.28125 53.078125 
L 44.28125 44.578125 
Q 40.484375 46.53125 36.375 47.5 
Q 32.28125 48.484375 27.875 48.484375 
Q 21.1875 48.484375 17.84375 46.4375 
Q 14.5 44.390625 14.5 40.28125 
Q 14.5 37.15625 16.890625 35.375 
Q 19.28125 33.59375 26.515625 31.984375 
L 29.59375 31.296875 
Q 39.15625 29.25 43.1875 25.515625 
Q 47.21875 21.78125 47.21875 15.09375 
Q 47.21875 7.46875 41.1875 3.015625 
Q 35.15625 -1.421875 24.609375 -1.421875 
Q 20.21875 -1.421875 15.453125 -0.5625 
Q 10.6875 0.296875 5.421875 2 
L 5.421875 11.28125 
Q 10.40625 8.6875 15.234375 7.390625 
Q 20.0625 6.109375 24.8125 6.109375 
Q 31.15625 6.109375 34.5625 8.28125 
Q 37.984375 10.453125 37.984375 14.40625 
Q 37.984375 18.0625 35.515625 20.015625 
Q 33.0625 21.96875 24.703125 23.78125 
L 21.578125 24.515625 
Q 13.234375 26.265625 9.515625 29.90625 
Q 5.8125 33.546875 5.8125 39.890625 
Q 5.8125 47.609375 11.28125 51.796875 
Q 16.75 56 26.8125 56 
Q 31.78125 56 36.171875 55.265625 
Q 40.578125 54.546875 44.28125 53.078125 
" id="DejaVuSans-73"/>
      <path d="M 8.015625 75.875 
L 15.828125 75.875 
Q 23.140625 64.359375 26.78125 53.3125 
Q 30.421875 42.28125 30.421875 31.390625 
Q 30.421875 20.453125 26.78125 9.375 
Q 23.140625 -1.703125 15.828125 -13.1875 
L 8.015625 -13.1875 
Q 14.5 -2 17.703125 9.0625 
Q 20.90625 20.125 20.90625 31.390625 
Q 20.90625 42.671875 17.703125 53.65625 
Q 14.5 64.65625 8.015625 75.875 
" id="DejaVuSans-29"/>
     </defs>
     <g transform="translate(199.449844 335.860562)scale(0.1 -0.1)">
      <use xlink:href="#DejaVuSans-54"/>
      <use x="61.037109" xlink:href="#DejaVuSans-69"/>
      <use x="88.820312" xlink:href="#DejaVuSans-6d"/>
      <use x="186.232422" xlink:href="#DejaVuSans-65"/>
      <use x="247.755859" xlink:href="#DejaVuSans-20"/>
      <use x="279.542969" xlink:href="#DejaVuSans-28"/>
      <use x="318.556641" xlink:href="#DejaVuSans-6d"/>
      <use x="415.96875" xlink:href="#DejaVuSans-6f"/>
      <use x="477.150391" xlink:href="#DejaVuSans-6e"/>
      <use x="540.529297" xlink:href="#DejaVuSans-74"/>
      <use x="579.738281" xlink:href="#DejaVuSans-68"/>
      <use x="643.117188" xlink:href="#DejaVuSans-73"/>
      <use x="695.216797" xlink:href="#DejaVuSans-29"/>
     </g>
    </g>
   </g>
   <g id="matplotlib.axis_2">
    <g id="ytick_1">
     <g id="line2d_19">
      <path clip-path="url(#pdadc19f57b)" d="M 57.6 307.584 
L 414.72 307.584 
" style="fill:none;stroke:#b0b0b0;stroke-linecap:square;stroke-width:0.8;"/>
     </g>
     <g id="line2d_20">
      <defs>
       <path d="M 0 0 
L -3.5 0 
" id="m7b8efd9960" style="stroke:#000000;stroke-width:0.8;"/>
      </defs>
      <g>
       <use style="stroke:#000000;stroke-width:0.8;" x="57.6" xlink:href="#m7b8efd9960" y="307.584"/>
      </g>
     </g>
     <g id="text_11">
      <!-- 0.0 -->
      <defs>
       <path d="M 10.6875 12.40625 
L 21 12.40625 
L 21 0 
L 10.6875 0 
z
" id="DejaVuSans-2e"/>
      </defs>
      <g transform="translate(34.696875 311.383219)scale(0.1 -0.1)">
       <use xlink:href="#DejaVuSans-30"/>
       <use x="63.623047" xlink:href="#DejaVuSans-2e"/>
       <use x="95.410156" xlink:href="#DejaVuSans-30"/>
      </g>
     </g>
    </g>
    <g id="ytick_2">
     <g id="line2d_21">
      <path clip-path="url(#pdadc19f57b)" d="M 57.6 254.3616 
L 414.72 254.3616 
" style="fill:none;stroke:#b0b0b0;stroke-linecap:square;stroke-width:0.8;"/>
     </g>
     <g id="line2d_22">
      <g>
       <use style="stroke:#000000;stroke-width:0.8;" x="57.6" xlink:href="#m7b8efd9960" y="254.3616"/>
      </g>
     </g>
     <g id="text_12">
      <!-- 0.2 -->
      <g transform="translate(34.696875 258.160819)scale(0.1 -0.1)">
       <use xlink:href="#DejaVuSans-30"/>
       <use x="63.623047" xlink:href="#DejaVuSans-2e"/>
       <use x="95.410156" xlink:href="#DejaVuSans-32"/>
      </g>
     </g>
    </g>
    <g id="ytick_3">
     <g id="line2d_23">
      <path clip-path="url(#pdadc19f57b)" d="M 57.6 201.1392 
L 414.72 201.1392 
" style="fill:none;stroke:#b0b0b0;stroke-linecap:square;stroke-width:0.8;"/>
     </g>
     <g id="line2d_24">
      <g>
       <use style="stroke:#000000;stroke-width:0.8;" x="57.6" xlink:href="#m7b8efd9960" y="201.1392"/>
      </g>
     </g>
     <g id="text_13">
      <!-- 0.4 -->
      <g transform="translate(34.696875 204.938419)scale(0.1 -0.1)">
       <use xlink:href="#DejaVuSans-30"/>
       <use x="63.623047" xlink:href="#DejaVuSans-2e"/>
       <use x="95.410156" xlink:href="#DejaVuSans-34"/>
      </g>
     </g>
    </g>
    <g id="ytick_4">
     <g id="line2d_25">
      <path clip-path="url(#pdadc19f57b)" d="M 57.6 147.9168 
L 414.72 147.9168 
" style="fill:none;stroke:#b0b0b0;stroke-linecap:square;stroke-width:0.8;"/>
     </g>
     <g id="line2d_26">
      <g>
       <use style="stroke:#000000;stroke-width:0.8;" x="57.6" xlink:href="#m7b8efd9960" y="147.9168"/>
      </g>
     </g>
     <g id="text_14">
      <!-- 0.6 -->
      <g transform="translate(34.696875 151.716019)scale(0.1 -0.1)">
       <use xlink:href="#DejaVuSans-30"/>
       <use x="63.623047" xlink:href="#DejaVuSans-2e"/>
       <use x="95.410156" xlink:href="#DejaVuSans-36"/>
      </g>
     </g>
    </g>
    <g id="ytick_5">
     <g id="line2d_27">
      <path clip-path="url(#pdadc19f57b)" d="M 57.6 94.6944 
L 414.72 94.6944 
" style="fill:none;stroke:#b0b0b0;stroke-linecap:square;stroke-width:0.8;"/>
     </g>
     <g id="line2d_28">
      <g>
       <use style="stroke:#000000;stroke-width:0.8;" x="57.6" xlink:href="#m7b8efd9960" y="94.6944"/>
      </g>
     </g>
     <g id="text_15">
      <!-- 0.8 -->
      <g transform="translate(34.696875 98.493619)scale(0.1 -0.1)">
       <use xlink:href="#DejaVuSans-30"/>
       <use x="63.623047" xlink:href="#DejaVuSans-2e"/>
       <use x="95.410156" xlink:href="#DejaVuSans-38"/>
      </g>
     </g>
    </g>
    <g id="ytick_6">
     <g id="line2d_29">
      <path clip-path="url(#pdadc19f57b)" d="M 57.6 41.472 
L 414.72 41.472 
" style="fill:none;stroke:#b0b0b0;stroke-linecap:square;stroke-width:0.8;"/>
     </g>
     <g id="line2d_30">
      <g>
       <use style="stroke:#000000;stroke-width:0.8;" x="57.6" xlink:href="#m7b8efd9960" y="41.472"/>
      </g>
     </g>
     <g id="text_16">
      <!-- 1.0 -->
      <g transform="translate(34.696875 45.271219)scale(0.1 -0.1)">
       <use xlink:href="#DejaVuSans-31"/>
       <use x="63.623047" xlink:href="#DejaVuSans-2e"/>
       <use x="95.410156" xlink:href="#DejaVuSans-30"/>
      </g>
     </g>
    </g>
    <g id="text_17">
     <!-- Prevalence (fraction of population) -->
     <defs>
      <path d="M 19.671875 64.796875 
L 19.671875 37.40625 
L 32.078125 37.40625 
Q 38.96875 37.40625 42.71875 40.96875 
Q 46.484375 44.53125 46.484375 51.125 
Q 46.484375 57.671875 42.71875 61.234375 
Q 38.96875 64.796875 32.078125 64.796875 
z
M 9.8125 72.90625 
L 32.078125 72.90625 
Q 44.34375 72.90625 50.609375 67.359375 
Q 56.890625 61.8125 56.890625 51.125 
Q 56.890625 40.328125 50.609375 34.8125 
Q 44.34375 29.296875 32.078125 29.296875 
L 19.671875 29.296875 
L 19.671875 0 
L 9.8125 0 
z
" id="DejaVuSans-50"/>
      <path d="M 41.109375 46.296875 
Q 39.59375 47.171875 37.8125 47.578125 
Q 36.03125 48 33.890625 48 
Q 26.265625 48 22.1875 43.046875 
Q 18.109375 38.09375 18.109375 28.8125 
L 18.109375 0 
L 9.078125 0 
L 9.078125 54.6875 
L 18.109375 54.6875 
L 18.109375 46.1875 
Q 20.953125 51.171875 25.484375 53.578125 
Q 30.03125 56 36.53125 56 
Q 37.453125 56 38.578125 55.875 
Q 39.703125 55.765625 41.0625 55.515625 
z
" id="DejaVuSans-72"/>
      <path d="M 2.984375 54.6875 
L 12.5 54.6875 
L 29.59375 8.796875 
L 46.6875 54.6875 
L 56.203125 54.6875 
L 35.6875 0 
L 23.484375 0 
z
" id="DejaVuSans-76"/>
      <path d="M 34.28125 27.484375 
Q 23.390625 27.484375 19.1875 25 
Q 14.984375 22.515625 14.984375 16.5 
Q 14.984375 11.71875 18.140625 8.90625 
Q 21.296875 6.109375 26.703125 6.109375 
Q 34.1875 6.109375 38.703125 11.40625 
Q 43.21875 16.703125 43.21875 25.484375 
L 43.21875 27.484375 
z
M 52.203125 31.203125 
L 52.203125 0 
L 43.21875 0 
L 43.21875 8.296875 
Q 40.140625 3.328125 35.546875 0.953125 
Q 30.953125 -1.421875 24.3125 -1.421875 
Q 15.921875 -1.421875 10.953125 3.296875 
Q 6 8.015625 6 15.921875 
Q 6 25.140625 12.171875 29.828125 
Q 18.359375 34.515625 30.609375 34.515625 
L 43.21875 34.515625 
L 43.21875 35.40625 
Q 43.21875 41.609375 39.140625 45 
Q 35.0625 48.390625 27.6875 48.390625 
Q 23 48.390625 18.546875 47.265625 
Q 14.109375 46.140625 10.015625 43.890625 
L 10.015625 52.203125 
Q 14.9375 54.109375 19.578125 55.046875 
Q 24.21875 56 28.609375 56 
Q 40.484375 56 46.34375 49.84375 
Q 52.203125 43.703125 52.203125 31.203125 
" id="DejaVuSans-61"/>
      <path d="M 9.421875 75.984375 
L 18.40625 75.984375 
L 18.40625 0 
L 9.421875 0 
z
" id="DejaVuSans-6c"/>
      <path d="M 48.78125 52.59375 
L 48.78125 44.1875 
Q 44.96875 46.296875 41.140625 47.34375 
Q 37.3125 48.390625 33.40625 48.390625 
Q 24.65625 48.390625 19.8125 42.84375 
Q 14.984375 37.3125 14.984375 27.296875 
Q 14.984375 17.28125 19.8125 11.734375 
Q 24.65625 6.203125 33.40625 6.203125 
Q 37.3125 6.203125 41.140625 7.25 
Q 44.96875 8.296875 48.78125 10.40625 
L 48.78125 2.09375 
Q 45.015625 0.34375 40.984375 -0.53125 
Q 36.96875 -1.421875 32.421875 -1.421875 
Q 20.0625 -1.421875 12.78125 6.34375 
Q 5.515625 14.109375 5.515625 27.296875 
Q 5.515625 40.671875 12.859375 48.328125 
Q 20.21875 56 33.015625 56 
Q 37.15625 56 41.109375 55.140625 
Q 45.0625 54.296875 48.78125 52.59375 
" id="DejaVuSans-63"/>
      <path d="M 37.109375 75.984375 
L 37.109375 68.5 
L 28.515625 68.5 
Q 23.6875 68.5 21.796875 66.546875 
Q 19.921875 64.59375 19.921875 59.515625 
L 19.921875 54.6875 
L 34.71875 54.6875 
L 34.71875 47.703125 
L 19.921875 47.703125 
L 19.921875 0 
L 10.890625 0 
L 10.890625 47.703125 
L 2.296875 47.703125 
L 2.296875 54.6875 
L 10.890625 54.6875 
L 10.890625 58.5 
Q 10.890625 67.625 15.140625 71.796875 
Q 19.390625 75.984375 28.609375 75.984375 
z
" id="DejaVuSans-66"/>
      <path d="M 18.109375 8.203125 
L 18.109375 -20.796875 
L 9.078125 -20.796875 
L 9.078125 54.6875 
L 18.109375 54.6875 
L 18.109375 46.390625 
Q 20.953125 51.265625 25.265625 53.625 
Q 29.59375 56 35.59375 56 
Q 45.5625 56 51.78125 48.09375 
Q 58.015625 40.1875 58.015625 27.296875 
Q 58.015625 14.40625 51.78125 6.484375 
Q 45.5625 -1.421875 35.59375 -1.421875 
Q 29.59375 -1.421875 25.265625 0.953125 
Q 20.953125 3.328125 18.109375 8.203125 
M 48.6875 27.296875 
Q 48.6875 37.203125 44.609375 42.84375 
Q 40.53125 48.484375 33.40625 48.484375 
Q 26.265625 48.484375 22.1875 42.84375 
Q 18.109375 37.203125 18.109375 27.296875 
Q 18.109375 17.390625 22.1875 11.75 
Q 26.265625 6.109375 33.40625 6.109375 
Q 40.53125 6.109375 44.609375 11.75 
Q 48.6875 17.390625 48.6875 27.296875 
" id="DejaVuSans-70"/>
      <path d="M 8.5 21.578125 
L 8.5 54.6875 
L 17.484375 54.6875 
L 17.484375 21.921875 
Q 17.484375 14.15625 20.5 10.265625 
Q 23.53125 6.390625 29.59375 6.390625 
Q 36.859375 6.390625 41.078125 11.03125 
Q 45.3125 15.671875 45.3125 23.6875 
L 45.3125 54.6875 
L 54.296875 54.6875 
L 54.296875 0 
L 45.3125 0 
L 45.3125 8.40625 
Q 42.046875 3.421875 37.71875 1 
Q 33.40625 -1.421875 27.6875 -1.421875 
Q 18.265625 -1.421875 13.375 4.4375 
Q 8.5 10.296875 8.5 21.578125 
M 31.109375 56 
z
" id="DejaVuSans-75"/>
     </defs>
     <g transform="translate(28.617187 261.457688)rotate(-90)scale(0.1 -0.1)">
      <use xlink:href="#DejaVuSans-50"/>
      <use x="60.287109" xlink:href="#DejaVuSans-72"/>
      <use x="101.369141" xlink:href="#DejaVuSans-65"/>
      <use x="162.892578" xlink:href="#DejaVuSans-76"/>
      <use x="222.072266" xlink:href="#DejaVuSans-61"/>
      <use x="283.351562" xlink:href="#DejaVuSans-6c"/>
      <use x="311.134766" xlink:href="#DejaVuSans-65"/>
      <use x="372.658203" xlink:href="#DejaVuSans-6e"/>
      <use x="436.037109" xlink:href="#DejaVuSans-63"/>
      <use x="491.017578" xlink:href="#DejaVuSans-65"/>
      <use x="552.541016" xlink:href="#DejaVuSans-20"/>
      <use x="584.328125" xlink:href="#DejaVuSans-28"/>
      <use x="623.341797" xlink:href="#DejaVuSans-66"/>
      <use x="658.546875" xlink:href="#DejaVuSans-72"/>
      <use x="699.660156" xlink:href="#DejaVuSans-61"/>
      <use x="760.939453" xlink:href="#DejaVuSans-63"/>
      <use x="815.919922" xlink:href="#DejaVuSans-74"/>
      <use x="855.128906" xlink:href="#DejaVuSans-69"/>
      <use x="882.912109" xlink:href="#DejaVuSans-6f"/>
      <use x="944.09375" xlink:href="#DejaVuSans-6e"/>
      <use x="1007.472656" xlink:href="#DejaVuSans-20"/>
      <use x="1039.259766" xlink:href="#DejaVuSans-6f"/>
      <use x="1100.441406" xlink:href="#DejaVuSans-66"/>
      <use x="1135.646484" xlink:href="#DejaVuSans-20"/>
      <use x="1167.433594" xlink:href="#DejaVuSans-70"/>
      <use x="1230.910156" xlink:href="#DejaVuSans-6f"/>
      <use x="1292.091797" xlink:href="#DejaVuSans-70"/>
      <use x="1355.568359" xlink:href="#DejaVuSans-75"/>
      <use x="1418.947266" xlink:href="#DejaVuSans-6c"/>
      <use x="1446.730469" xlink:href="#DejaVuSans-61"/>
      <use x="1508.009766" xlink:href="#DejaVuSans-74"/>
      <use x="1547.21875" xlink:href="#DejaVuSans-69"/>
      <use x="1575.001953" xlink:href="#DejaVuSans-6f"/>
      <use x="1636.183594" xlink:href="#DejaVuSans-6e"/>
      <use x="1699.5625" xlink:href="#DejaVuSans-29"/>
     </g>
    </g>
   </g>
   <g id="line2d_31">
    <path clip-path="url(#pdadc19f57b)" d="M -1 187.8336 
L 145.223258 187.8336 
L 145.959588 216.108 
L 413.98367 216.108 
L 413.98367 216.108 
" style="fill:none;stroke:#1f77b4;stroke-linecap:square;stroke-width:1.5;"/>
   </g>
   <g id="line2d_32">
    <path clip-path="url(#pdadc19f57b)" d="M -1 113.307061 
L -0.570062 111.792096 
L 0.166268 109.929312 
L 1.638928 108.133056 
L 2.375258 108.299376 
L 3.111588 108.798336 
L 3.847918 110.261952 
L 4.584247 111.193344 
L 5.320577 112.49064 
L 6.056907 114.087312 
L 6.793237 114.453216 
L 7.529567 115.717248 
L 8.265897 116.016624 
L 9.002227 116.515584 
L 9.738557 116.848224 
L 10.474887 117.64656 
L 11.211216 116.415792 
L 11.947546 115.783776 
L 12.683876 114.32016 
L 13.420206 113.122656 
L 14.156536 111.65904 
L 14.892866 109.596672 
L 15.629196 108.033264 
L 17.838186 105.638256 
L 18.574515 107.00208 
L 19.310845 107.401248 
L 20.047175 108.99792 
L 20.783505 109.729728 
L 21.519835 109.762992 
L 22.256165 110.927232 
L 22.992495 111.459456 
L 23.728825 111.792096 
L 24.465155 111.891888 
L 25.201485 113.15592 
L 25.937814 112.49064 
L 26.674144 111.65904 
L 28.146804 109.530144 
L 28.883134 108.864864 
L 29.619464 107.50104 
L 30.355794 107.035344 
L 31.092124 106.137216 
L 31.828454 104.873184 
L 32.564784 104.573808 
L 33.301113 104.939712 
L 34.037443 105.5052 
L 35.510103 107.1684 
L 36.246433 107.1684 
L 36.982763 107.866944 
L 37.719093 108.066528 
L 38.455423 108 
L 39.191753 108.465696 
L 39.928082 108.532224 
L 40.664412 108.399168 
L 41.400742 108.532224 
L 42.137072 106.769232 
L 42.873402 105.83784 
L 43.609732 105.804576 
L 44.346062 105.039504 
L 45.082392 103.908528 
L 45.818722 104.074848 
L 47.291381 103.842 
L 48.027711 104.374224 
L 48.764041 104.108112 
L 49.500371 104.374224 
L 50.236701 105.571728 
L 50.973031 105.804576 
L 51.709361 105.538464 
L 52.445691 105.970896 
L 53.182021 107.135136 
L 53.918351 107.866944 
L 54.65468 107.50104 
L 55.39101 106.935552 
L 56.12734 107.600832 
L 56.86367 107.567568 
L 57.6 106.103952 
L 58.33633 105.604992 
L 59.07266 105.33888 
L 59.80899 104.207904 
L 60.54532 103.67568 
L 61.281649 103.34304 
L 63.490639 103.34304 
L 64.226969 103.642416 
L 64.963299 104.6736 
L 65.699629 104.972976 
L 66.435959 105.704784 
L 67.172289 106.00416 
L 67.908619 106.602912 
L 68.644948 106.702704 
L 69.381278 106.00416 
L 70.853938 104.972976 
L 71.590268 105.00624 
L 72.326598 104.773392 
L 73.062928 104.939712 
L 73.799258 104.274432 
L 74.535588 104.074848 
L 75.271918 104.207904 
L 76.008247 103.409568 
L 76.744577 103.34304 
L 77.480907 102.444912 
L 78.217237 103.17672 
L 78.953567 102.943872 
L 79.689897 103.875264 
L 80.426227 104.108112 
L 81.898887 106.070688 
L 82.635216 106.270272 
L 83.371546 107.700624 
L 84.844206 106.636176 
L 85.580536 106.802496 
L 86.316866 106.00416 
L 87.053196 105.438672 
L 87.789526 105.937632 
L 88.525856 105.871104 
L 89.262186 105.471936 
L 89.998515 105.438672 
L 90.734845 105.139296 
L 92.207505 104.108112 
L 92.943835 103.975056 
L 93.680165 104.207904 
L 94.416495 103.309776 
L 95.152825 103.143456 
L 95.889155 104.440752 
L 96.625485 105.072768 
L 97.361814 105.471936 
L 98.098144 105.738048 
L 98.834474 105.272352 
L 99.570804 105.205824 
L 101.043464 104.740128 
L 101.779794 104.141376 
L 102.516124 104.17464 
L 103.252454 103.542624 
L 103.988784 103.276512 
L 104.725113 103.34304 
L 105.461443 102.711024 
L 106.197773 102.711024 
L 106.934103 102.51144 
L 108.406763 100.548864 
L 109.143093 101.214144 
L 110.615753 101.380464 
L 112.088412 102.278592 
L 112.824742 102.212064 
L 113.561072 102.67776 
L 115.033732 102.311856 
L 115.770062 102.378384 
L 116.506392 102.644496 
L 117.242722 102.444912 
L 117.979052 102.910608 
L 118.715381 102.112272 
L 119.451711 102.212064 
L 120.188041 101.114352 
L 120.924371 101.713104 
L 121.660701 101.313936 
L 122.397031 101.446992 
L 123.133361 100.648656 
L 123.869691 100.981296 
L 124.606021 100.814976 
L 125.342351 100.482336 
L 126.07868 101.247408 
L 126.81501 101.779632 
L 127.55134 102.01248 
L 128.28767 101.580048 
L 129.024 103.043664 
L 129.76033 102.67776 
L 130.49666 102.644496 
L 131.23299 103.276512 
L 131.96932 102.245328 
L 133.441979 101.480256 
L 134.178309 101.67984 
L 134.914639 101.3472 
L 135.650969 101.380464 
L 136.387299 101.613312 
L 137.123629 101.413728 
L 138.596289 100.5156 
L 139.332619 100.615392 
L 140.068948 100.049904 
L 141.541608 101.01456 
L 142.277938 101.114352 
L 143.014268 101.746368 
L 143.750598 102.84408 
L 144.486928 103.34304 
L 145.223258 102.943872 
L 145.959588 105.17256 
L 147.432247 108.532224 
L 148.168577 109.6632 
L 148.904907 110.16216 
L 149.641237 108 
L 150.377567 106.303536 
L 151.113897 105.871104 
L 151.850227 106.50312 
L 152.586557 112.091472 
L 157.004536 150.677712 
L 159.213526 167.176656 
L 160.686186 177.488496 
L 162.158845 188.465616 
L 162.895175 192.523824 
L 163.631505 195.48432 
L 164.367835 196.448976 
L 165.104165 196.116336 
L 165.840495 196.1496 
L 166.576825 194.386608 
L 167.313155 186.602832 
L 168.049485 181.147536 
L 168.785814 177.987456 
L 170.258474 173.563344 
L 170.994804 179.35128 
L 173.203794 189.929232 
L 174.676454 194.15376 
L 175.412784 195.683904 
L 176.149113 197.779536 
L 176.885443 198.97704 
L 177.621773 199.442736 
L 178.358103 200.839824 
L 179.094433 201.9708 
L 179.830763 201.704688 
L 180.567093 201.205728 
L 181.303423 199.742112 
L 182.039753 196.947936 
L 182.776082 191.592432 
L 183.512412 187.800336 
L 184.248742 185.305536 
L 184.985072 182.17872 
L 186.457732 179.417808 
L 187.194062 179.750448 
L 187.930392 180.216144 
L 188.666722 182.67768 
L 189.403052 183.076848 
L 190.139381 185.638176 
L 190.875711 186.369984 
L 191.612041 187.933392 
L 193.821031 190.428192 
L 194.557361 190.561248 
L 195.293691 190.893888 
L 196.030021 190.461456 
L 196.766351 189.629856 
L 198.23901 185.638176 
L 198.97534 183.775392 
L 199.71167 182.478096 
L 200.448 181.84608 
L 201.18433 181.51344 
L 203.39332 181.147536 
L 204.129649 180.981216 
L 204.865979 181.147536 
L 205.602309 181.945872 
L 206.338639 182.478096 
L 207.811299 185.072688 
L 208.547629 185.272272 
L 209.283959 185.205744 
L 210.020289 186.137136 
L 210.756619 186.070608 
L 211.492948 184.939632 
L 212.229278 184.939632 
L 212.965608 183.642336 
L 213.701938 181.879344 
L 214.438268 181.380384 
L 215.174598 181.081008 
L 215.910928 180.01656 
L 218.119918 181.380384 
L 218.856247 180.582048 
L 219.592577 180.01656 
L 220.328907 180.315936 
L 221.065237 179.983296 
L 221.801567 181.114272 
L 222.537897 181.081008 
L 223.274227 181.579968 
L 224.010557 182.478096 
L 224.746887 183.941712 
L 225.483216 184.773312 
L 226.219546 185.405328 
L 226.955876 185.305536 
L 227.692206 185.67144 
L 228.428536 183.17664 
L 229.164866 182.211984 
L 229.901196 182.378304 
L 230.637526 181.081008 
L 231.373856 179.417808 
L 232.110186 179.68392 
L 232.846515 178.35336 
L 233.582845 178.18704 
L 234.319175 177.721344 
L 235.055505 177.388704 
L 235.791835 176.756688 
L 236.528165 176.789952 
L 238.737155 175.392864 
L 239.473485 176.02488 
L 240.209814 176.989536 
L 240.946144 177.555024 
L 241.682474 177.787872 
L 243.155134 178.752528 
L 243.891464 178.552944 
L 244.627794 177.654816 
L 245.364124 178.752528 
L 246.836784 179.5176 
L 247.573113 180.3492 
L 248.309443 180.881424 
L 249.045773 178.985376 
L 249.782103 178.253568 
L 251.254763 178.686 
L 251.991093 177.555024 
L 252.727423 178.552944 
L 253.463753 178.386624 
L 254.936412 176.290992 
L 255.672742 175.52592 
L 256.409072 175.226544 
L 257.145402 174.062304 
L 257.881732 175.52592 
L 258.618062 175.559184 
L 259.354392 174.295152 
L 260.090722 174.927168 
L 260.827052 175.925088 
L 261.563381 175.226544 
L 262.299711 176.457312 
L 263.036041 178.286832 
L 263.772371 176.457312 
L 265.245031 176.290992 
L 265.981361 176.557104 
L 266.717691 175.3596 
L 268.190351 178.819056 
L 268.92668 177.588288 
L 269.66301 176.058144 
L 270.39934 176.756688 
L 271.872 177.155856 
L 274.08099 177.421968 
L 274.81732 178.053984 
L 275.553649 177.787872 
L 276.289979 177.155856 
L 277.026309 176.723424 
L 277.762639 177.954192 
L 278.498969 178.253568 
L 279.235299 177.455232 
L 279.971629 177.388704 
L 280.707959 178.120512 
L 281.444289 177.68808 
L 282.180619 178.120512 
L 282.916948 178.419888 
L 283.653278 178.35336 
L 284.389608 177.954192 
L 285.125938 178.053984 
L 285.862268 176.35752 
L 286.598598 175.19328 
L 287.334928 174.993696 
L 288.071258 175.226544 
L 289.543918 174.661056 
L 290.280247 175.85856 
L 291.016577 175.792032 
L 291.752907 175.19328 
L 292.489237 174.893904 
L 293.225567 175.459392 
L 293.961897 174.927168 
L 294.698227 175.293072 
L 295.434557 174.927168 
L 296.170887 174.394944 
L 296.907216 175.259808 
L 297.643546 177.255648 
L 298.379876 177.056064 
L 299.116206 177.122592 
L 299.852536 177.821136 
L 301.325196 176.923008 
L 302.061526 176.989536 
L 302.797856 181.247328 
L 303.534186 183.84192 
L 304.270515 185.904288 
L 305.743175 189.363744 
L 306.479505 186.868944 
L 307.952165 183.908448 
L 308.688495 183.276432 
L 309.424825 183.742128 
L 310.161155 182.378304 
L 310.897485 181.812816 
L 311.633814 182.777472 
L 312.370144 182.977056 
L 313.106474 183.34296 
L 313.842804 185.272272 
L 314.579134 186.037344 
L 316.788124 187.33464 
L 317.524454 187.800336 
L 318.260784 190.128816 
L 318.997113 191.559168 
L 319.733443 192.723408 
L 320.469773 192.590352 
L 321.206103 193.555008 
L 321.942433 193.288896 
L 322.678763 193.954176 
L 323.415093 194.918832 
L 324.151423 195.284736 
L 324.887753 195.48432 
L 325.624082 195.118416 
L 326.360412 194.586192 
L 327.096742 194.952096 
L 327.833072 194.918832 
L 328.569402 195.850224 
L 329.305732 195.750432 
L 330.042062 196.083072 
L 330.778392 195.783696 
L 331.514722 195.617376 
L 332.251052 194.952096 
L 332.987381 195.98328 
L 333.723711 195.850224 
L 334.460041 195.916752 
L 335.196371 196.182864 
L 335.932701 196.216128 
L 336.669031 196.016544 
L 337.405361 196.382448 
L 338.141691 195.417792 
L 338.878021 197.347104 
L 339.614351 197.546688 
L 340.35068 197.579952 
L 341.08701 198.843984 
L 341.82334 200.673504 
L 342.55967 200.507184 
L 344.03233 200.706768 
L 344.76866 200.274336 
L 345.50499 200.64024 
L 346.24132 200.673504 
L 346.977649 201.006144 
L 347.713979 194.552928 
L 348.450309 191.026944 
L 349.186639 188.99784 
L 349.922969 187.900128 
L 350.659299 187.068528 
L 351.395629 192.357504 
L 352.131959 196.249392 
L 352.868289 198.14544 
L 353.604619 197.713008 
L 354.340948 198.245232 
L 355.077278 198.278496 
L 355.813608 198.97704 
L 356.549938 200.274336 
L 357.286268 200.507184 
L 358.758928 200.008224 
L 360.231588 198.345024 
L 361.704247 198.078912 
L 363.176907 191.725488 
L 363.913237 188.399088 
L 364.649567 187.401168 
L 365.385897 185.538384 
L 366.122227 185.538384 
L 366.858557 186.902208 
L 367.594887 187.800336 
L 368.331216 187.966656 
L 369.067546 189.064368 
L 369.803876 189.629856 
L 370.540206 188.598672 
L 371.276536 188.465616 
L 372.749196 189.530064 
L 373.485526 189.16416 
L 374.221856 190.794096 
L 375.694515 190.694304 
L 377.167175 189.16416 
L 378.639835 186.33672 
L 379.376165 185.604912 
L 380.112495 183.276432 
L 380.848825 182.977056 
L 381.585155 181.67976 
L 383.057814 182.17872 
L 383.794144 182.943792 
L 384.530474 183.409488 
L 385.266804 183.276432 
L 386.003134 183.276432 
L 386.739464 182.611152 
L 387.475794 182.378304 
L 388.212124 182.478096 
L 388.948454 183.110112 
L 389.684784 184.274352 
L 390.421113 184.740048 
L 391.157443 185.871024 
L 391.893773 185.571648 
L 392.630103 188.33256 
L 394.102763 191.925072 
L 394.839093 191.958336 
L 395.575423 192.98952 
L 397.784412 185.139216 
L 398.520742 185.50512 
L 399.257072 185.00616 
L 399.993402 185.937552 
L 400.729732 185.970816 
L 401.466062 186.436512 
L 402.202392 186.1704 
L 402.938722 187.16832 
L 403.675052 186.868944 
L 404.411381 187.8336 
L 405.147711 187.8336 
L 405.884041 187.534224 
L 406.620371 187.767072 
L 407.356701 188.898048 
L 408.829361 194.187024 
L 409.565691 195.48432 
L 410.302021 197.746272 
L 411.038351 199.376208 
L 411.77468 198.577872 
L 412.51101 197.114256 
L 413.24734 197.247312 
L 413.98367 196.48224 
L 413.98367 196.48224 
" style="fill:none;stroke:#ff7f0e;stroke-linecap:square;stroke-width:1.5;"/>
   </g>
   <g id="line2d_33">
    <defs>
     <path d="M 0 1.5 
C 0.397805 1.5 0.77937 1.341951 1.06066 1.06066 
C 1.341951 0.77937 1.5 0.397805 1.5 0 
C 1.5 -0.397805 1.341951 -0.77937 1.06066 -1.06066 
C 0.77937 -1.341951 0.397805 -1.5 0 -1.5 
C -0.397805 -1.5 -0.77937 -1.341951 -1.06066 -1.06066 
C -1.341951 -0.77937 -1.5 -0.397805 -1.5 0 
C -1.5 0.397805 -1.341951 0.77937 -1.06066 1.06066 
C -0.77937 1.341951 -0.397805 1.5 0 1.5 
z
" id="m8ace5a1260" style="stroke:#2ca02c;"/>
    </defs>
    <g clip-path="url(#pdadc19f57b)">
     <use style="fill:#2ca02c;stroke:#2ca02c;" x="145.959588" xlink:href="#m8ace5a1260" y="174.528"/>
    </g>
   </g>
   <g id="line2d_34">
    <defs>
     <path d="M 0 1.5 
C 0.397805 1.5 0.77937 1.341951 1.06066 1.06066 
C 1.341951 0.77937 1.5 0.397805 1.5 0 
C 1.5 -0.397805 1.341951 -0.77937 1.06066 -1.06066 
C 0.77937 -1.341951 0.397805 -1.5 0 -1.5 
C -0.397805 -1.5 -0.77937 -1.341951 -1.06066 -1.06066 
C -1.341951 -0.77937 -1.5 -0.397805 -1.5 0 
C -1.5 0.397805 -1.341951 0.77937 -1.06066 1.06066 
C -0.77937 1.341951 -0.397805 1.5 0 1.5 
z
" id="m1e33210088" style="stroke:#d62728;"/>
    </defs>
    <g clip-path="url(#pdadc19f57b)">
     <use style="fill:#d62728;stroke:#d62728;" x="145.959588" xlink:href="#m1e33210088" y="147.9168"/>
    </g>
   </g>
   <g id="line2d_35">
    <defs>
     <path d="M 0 1.5 
C 0.397805 1.5 0.77937 1.341951 1.06066 1.06066 
C 1.341951 0.77937 1.5 0.397805 1.5 0 
C 1.5 -0.397805 1.341951 -0.77937 1.06066 -1.06066 
C 0.77937 -1.341951 0.397805 -1.5 0 -1.5 
C -0.397805 -1.5 -0.77937 -1.341951 -1.06066 -1.06066 
C -1.341951 -0.77937 -1.5 -0.397805 -1.5 0 
C -1.5 0.397805 -1.341951 0.77937 -1.06066 1.06066 
C -0.77937 1.341951 -0.397805 1.5 0 1.5 
z
" id="mfa5aa0e2a5" style="stroke:#9467bd;"/>
    </defs>
    <g clip-path="url(#pdadc19f57b)">
     <use style="fill:#9467bd;stroke:#9467bd;" x="145.959588" xlink:href="#mfa5aa0e2a5" y="121.3056"/>
    </g>
   </g>
   <g id="line2d_36">
    <defs>
     <path d="M 0 1.5 
C 0.397805 1.5 0.77937 1.341951 1.06066 1.06066 
C 1.341951 0.77937 1.5 0.397805 1.5 0 
C 1.5 -0.397805 1.341951 -0.77937 1.06066 -1.06066 
C 0.77937 -1.341951 0.397805 -1.5 0 -1.5 
C -0.397805 -1.5 -0.77937 -1.341951 -1.06066 -1.06066 
C -1.341951 -0.77937 -1.5 -0.397805 -1.5 0 
C -1.5 0.397805 -1.341951 0.77937 -1.06066 1.06066 
C -0.77937 1.341951 -0.397805 1.5 0 1.5 
z
" id="m46ea93e072" style="stroke:#8c564b;"/>
    </defs>
    <g clip-path="url(#pdadc19f57b)">
     <use style="fill:#8c564b;stroke:#8c564b;" x="167.313155" xlink:href="#m46ea93e072" y="94.6944"/>
    </g>
   </g>
   <g id="line2d_37">
    <defs>
     <path d="M 0 1.5 
C 0.397805 1.5 0.77937 1.341951 1.06066 1.06066 
C 1.341951 0.77937 1.5 0.397805 1.5 0 
C 1.5 -0.397805 1.341951 -0.77937 1.06066 -1.06066 
C 0.77937 -1.341951 0.397805 -1.5 0 -1.5 
C -0.397805 -1.5 -0.77937 -1.341951 -1.06066 -1.06066 
C -1.341951 -0.77937 -1.5 -0.397805 -1.5 0 
C -1.5 0.397805 -1.341951 0.77937 -1.06066 1.06066 
C -0.77937 1.341951 -0.397805 1.5 0 1.5 
z
" id="me5f0bdf5ea" style="stroke:#e377c2;"/>
    </defs>
    <g clip-path="url(#pdadc19f57b)">
     <use style="fill:#e377c2;stroke:#e377c2;" x="302.797856" xlink:href="#me5f0bdf5ea" y="94.6944"/>
    </g>
   </g>
   <g id="line2d_38">
    <defs>
     <path d="M 0 1.5 
C 0.397805 1.5 0.77937 1.341951 1.06066 1.06066 
C 1.341951 0.77937 1.5 0.397805 1.5 0 
C 1.5 -0.397805 1.341951 -0.77937 1.06066 -1.06066 
C 0.77937 -1.341951 0.397805 -1.5 0 -1.5 
C -0.397805 -1.5 -0.77937 -1.341951 -1.06066 -1.06066 
C -1.341951 -0.77937 -1.5 -0.397805 -1.5 0 
C -1.5 0.397805 -1.341951 0.77937 -1.06066 1.06066 
C -0.77937 1.341951 -0.397805 1.5 0 1.5 
z
" id="m5449dc74cb" style="stroke:#7f7f7f;"/>
    </defs>
    <g clip-path="url(#pdadc19f57b)">
     <use style="fill:#7f7f7f;stroke:#7f7f7f;" x="347.713979" xlink:href="#m5449dc74cb" y="94.6944"/>
    </g>
   </g>
   <g id="line2d_39">
    <defs>
     <path d="M 0 1.5 
C 0.397805 1.5 0.77937 1.341951 1.06066 1.06066 
C 1.341951 0.77937 1.5 0.397805 1.5 0 
C 1.5 -0.397805 1.341951 -0.77937 1.06066 -1.06066 
C 0.77937 -1.341951 0.397805 -1.5 0 -1.5 
C -0.397805 -1.5 -0.77937 -1.341951 -1.06066 -1.06066 
C -1.341951 -0.77937 -1.5 -0.397805 -1.5 0 
C -1.5 0.397805 -1.341951 0.77937 -1.06066 1.06066 
C -0.77937 1.341951 -0.397805 1.5 0 1.5 
z
" id="mffb826bcd6" style="stroke:#bcbd22;"/>
    </defs>
    <g clip-path="url(#pdadc19f57b)">
     <use style="fill:#bcbd22;stroke:#bcbd22;" x="392.630103" xlink:href="#mffb826bcd6" y="94.6944"/>
    </g>
   </g>
   <g id="patch_3">
    <path d="M 57.6 307.584 
L 57.6 41.472 
" style="fill:none;stroke:#000000;stroke-linecap:square;stroke-linejoin:miter;stroke-width:0.8;"/>
   </g>
   <g id="patch_4">
    <path d="M 414.72 307.584 
L 414.72 41.472 
" style="fill:none;stroke:#000000;stroke-linecap:square;stroke-linejoin:miter;stroke-width:0.8;"/>
   </g>
   <g id="patch_5">
    <path d="M 57.6 307.584 
L 414.72 307.584 
" style="fill:none;stroke:#000000;stroke-linecap:square;stroke-linejoin:miter;stroke-width:0.8;"/>
   </g>
   <g id="patch_6">
    <path d="M 57.6 41.472 
L 414.72 41.472 
" style="fill:none;stroke:#000000;stroke-linecap:square;stroke-linejoin:miter;stroke-width:0.8;"/>
   </g>
   <g id="text_18">
    <!-- t_pzq: 2016-02-01 -->
    <defs>
     <path d="M 50.984375 -16.609375 
L 50.984375 -23.578125 
L -0.984375 -23.578125 
L -0.984375 -16.609375 
z
" id="DejaVuSans-5f"/>
     <path d="M 5.515625 54.6875 
L 48.1875 54.6875 
L 48.1875 46.484375 
L 14.40625 7.171875 
L 48.1875 7.171875 
L 48.1875 0 
L 4.296875 0 
L 4.296875 8.203125 
L 38.09375 47.515625 
L 5.515625 47.515625 
z
" id="DejaVuSans-7a"/>
     <path d="M 14.796875 27.296875 
Q 14.796875 17.390625 18.875 11.75 
Q 22.953125 6.109375 30.078125 6.109375 
Q 37.203125 6.109375 41.296875 11.75 
Q 45.40625 17.390625 45.40625 27.296875 
Q 45.40625 37.203125 41.296875 42.84375 
Q 37.203125 48.484375 30.078125 48.484375 
Q 22.953125 48.484375 18.875 42.84375 
Q 14.796875 37.203125 14.796875 27.296875 
M 45.40625 8.203125 
Q 42.578125 3.328125 38.25 0.953125 
Q 33.9375 -1.421875 27.875 -1.421875 
Q 17.96875 -1.421875 11.734375 6.484375 
Q 5.515625 14.40625 5.515625 27.296875 
Q 5.515625 40.1875 11.734375 48.09375 
Q 17.96875 56 27.875 56 
Q 33.9375 56 38.25 53.625 
Q 42.578125 51.265625 45.40625 46.390625 
L 45.40625 54.6875 
L 54.390625 54.6875 
L 54.390625 -20.796875 
L 45.40625 -20.796875 
z
" id="DejaVuSans-71"/>
     <path d="M 11.71875 12.40625 
L 22.015625 12.40625 
L 22.015625 0 
L 11.71875 0 
z
M 11.71875 51.703125 
L 22.015625 51.703125 
L 22.015625 39.3125 
L 11.71875 39.3125 
z
" id="DejaVuSans-3a"/>
     <path d="M 4.890625 31.390625 
L 31.203125 31.390625 
L 31.203125 23.390625 
L 4.890625 23.390625 
z
" id="DejaVuSans-2d"/>
    </defs>
    <g transform="translate(151.207646 237.074341)rotate(-45)scale(0.1 -0.1)">
     <use xlink:href="#DejaVuSans-74"/>
     <use x="39.208984" xlink:href="#DejaVuSans-5f"/>
     <use x="89.208984" xlink:href="#DejaVuSans-70"/>
     <use x="152.685547" xlink:href="#DejaVuSans-7a"/>
     <use x="205.175781" xlink:href="#DejaVuSans-71"/>
     <use x="268.652344" xlink:href="#DejaVuSans-3a"/>
     <use x="302.34375" xlink:href="#DejaVuSans-20"/>
     <use x="334.130859" xlink:href="#DejaVuSans-32"/>
     <use x="397.753906" xlink:href="#DejaVuSans-30"/>
     <use x="461.376953" xlink:href="#DejaVuSans-31"/>
     <use x="525" xlink:href="#DejaVuSans-36"/>
     <use x="588.623047" xlink:href="#DejaVuSans-2d"/>
     <use x="624.707031" xlink:href="#DejaVuSans-30"/>
     <use x="688.330078" xlink:href="#DejaVuSans-32"/>
     <use x="751.953125" xlink:href="#DejaVuSans-2d"/>
     <use x="788.037109" xlink:href="#DejaVuSans-30"/>
     <use x="851.660156" xlink:href="#DejaVuSans-31"/>
    </g>
   </g>
   <g id="text_19">
    <!-- t_net: 2016-02-01 -->
    <g transform="translate(151.207646 209.378174)rotate(-45)scale(0.1 -0.1)">
     <use xlink:href="#DejaVuSans-74"/>
     <use x="39.208984" xlink:href="#DejaVuSans-5f"/>
     <use x="89.208984" xlink:href="#DejaVuSans-6e"/>
     <use x="152.587891" xlink:href="#DejaVuSans-65"/>
     <use x="214.111328" xlink:href="#DejaVuSans-74"/>
     <use x="253.320312" xlink:href="#DejaVuSans-3a"/>
     <use x="287.011719" xlink:href="#DejaVuSans-20"/>
     <use x="318.798828" xlink:href="#DejaVuSans-32"/>
     <use x="382.421875" xlink:href="#DejaVuSans-30"/>
     <use x="446.044922" xlink:href="#DejaVuSans-31"/>
     <use x="509.667969" xlink:href="#DejaVuSans-36"/>
     <use x="573.291016" xlink:href="#DejaVuSans-2d"/>
     <use x="609.375" xlink:href="#DejaVuSans-30"/>
     <use x="672.998047" xlink:href="#DejaVuSans-32"/>
     <use x="736.621094" xlink:href="#DejaVuSans-2d"/>
     <use x="772.705078" xlink:href="#DejaVuSans-30"/>
     <use x="836.328125" xlink:href="#DejaVuSans-31"/>
    </g>
   </g>
   <g id="text_20">
    <!-- t_spray: 2016-02-01 -->
    <defs>
     <path d="M 32.171875 -5.078125 
Q 28.375 -14.84375 24.75 -17.8125 
Q 21.140625 -20.796875 15.09375 -20.796875 
L 7.90625 -20.796875 
L 7.90625 -13.28125 
L 13.1875 -13.28125 
Q 16.890625 -13.28125 18.9375 -11.515625 
Q 21 -9.765625 23.484375 -3.21875 
L 25.09375 0.875 
L 2.984375 54.6875 
L 12.5 54.6875 
L 29.59375 11.921875 
L 46.6875 54.6875 
L 56.203125 54.6875 
z
" id="DejaVuSans-79"/>
    </defs>
    <g transform="translate(151.207646 190.752861)rotate(-45)scale(0.1 -0.1)">
     <use xlink:href="#DejaVuSans-74"/>
     <use x="39.208984" xlink:href="#DejaVuSans-5f"/>
     <use x="89.208984" xlink:href="#DejaVuSans-73"/>
     <use x="141.308594" xlink:href="#DejaVuSans-70"/>
     <use x="204.785156" xlink:href="#DejaVuSans-72"/>
     <use x="245.898438" xlink:href="#DejaVuSans-61"/>
     <use x="307.177734" xlink:href="#DejaVuSans-79"/>
     <use x="366.248047" xlink:href="#DejaVuSans-3a"/>
     <use x="399.939453" xlink:href="#DejaVuSans-20"/>
     <use x="431.726562" xlink:href="#DejaVuSans-32"/>
     <use x="495.349609" xlink:href="#DejaVuSans-30"/>
     <use x="558.972656" xlink:href="#DejaVuSans-31"/>
     <use x="622.595703" xlink:href="#DejaVuSans-36"/>
     <use x="686.21875" xlink:href="#DejaVuSans-2d"/>
     <use x="722.302734" xlink:href="#DejaVuSans-30"/>
     <use x="785.925781" xlink:href="#DejaVuSans-32"/>
     <use x="849.548828" xlink:href="#DejaVuSans-2d"/>
     <use x="885.632812" xlink:href="#DejaVuSans-30"/>
     <use x="949.255859" xlink:href="#DejaVuSans-31"/>
    </g>
   </g>
   <g id="text_21">
    <!-- t_seas_start: 2016-03-01 -->
    <defs>
     <path d="M 40.578125 39.3125 
Q 47.65625 37.796875 51.625 33 
Q 55.609375 28.21875 55.609375 21.1875 
Q 55.609375 10.40625 48.1875 4.484375 
Q 40.765625 -1.421875 27.09375 -1.421875 
Q 22.515625 -1.421875 17.65625 -0.515625 
Q 12.796875 0.390625 7.625 2.203125 
L 7.625 11.71875 
Q 11.71875 9.328125 16.59375 8.109375 
Q 21.484375 6.890625 26.8125 6.890625 
Q 36.078125 6.890625 40.9375 10.546875 
Q 45.796875 14.203125 45.796875 21.1875 
Q 45.796875 27.640625 41.28125 31.265625 
Q 36.765625 34.90625 28.71875 34.90625 
L 20.21875 34.90625 
L 20.21875 43.015625 
L 29.109375 43.015625 
Q 36.375 43.015625 40.234375 45.921875 
Q 44.09375 48.828125 44.09375 54.296875 
Q 44.09375 59.90625 40.109375 62.90625 
Q 36.140625 65.921875 28.71875 65.921875 
Q 24.65625 65.921875 20.015625 65.03125 
Q 15.375 64.15625 9.8125 62.3125 
L 9.8125 71.09375 
Q 15.4375 72.65625 20.34375 73.4375 
Q 25.25 74.21875 29.59375 74.21875 
Q 40.828125 74.21875 47.359375 69.109375 
Q 53.90625 64.015625 53.90625 55.328125 
Q 53.90625 49.265625 50.4375 45.09375 
Q 46.96875 40.921875 40.578125 39.3125 
" id="DejaVuSans-33"/>
    </defs>
    <g transform="translate(172.561213 180.606201)rotate(-45)scale(0.1 -0.1)">
     <use xlink:href="#DejaVuSans-74"/>
     <use x="39.208984" xlink:href="#DejaVuSans-5f"/>
     <use x="89.208984" xlink:href="#DejaVuSans-73"/>
     <use x="141.308594" xlink:href="#DejaVuSans-65"/>
     <use x="202.832031" xlink:href="#DejaVuSans-61"/>
     <use x="264.111328" xlink:href="#DejaVuSans-73"/>
     <use x="316.210938" xlink:href="#DejaVuSans-5f"/>
     <use x="366.210938" xlink:href="#DejaVuSans-73"/>
     <use x="418.310547" xlink:href="#DejaVuSans-74"/>
     <use x="457.519531" xlink:href="#DejaVuSans-61"/>
     <use x="518.798828" xlink:href="#DejaVuSans-72"/>
     <use x="559.912109" xlink:href="#DejaVuSans-74"/>
     <use x="599.121094" xlink:href="#DejaVuSans-3a"/>
     <use x="632.8125" xlink:href="#DejaVuSans-20"/>
     <use x="664.599609" xlink:href="#DejaVuSans-32"/>
     <use x="728.222656" xlink:href="#DejaVuSans-30"/>
     <use x="791.845703" xlink:href="#DejaVuSans-31"/>
     <use x="855.46875" xlink:href="#DejaVuSans-36"/>
     <use x="919.091797" xlink:href="#DejaVuSans-2d"/>
     <use x="955.175781" xlink:href="#DejaVuSans-30"/>
     <use x="1018.798828" xlink:href="#DejaVuSans-33"/>
     <use x="1082.421875" xlink:href="#DejaVuSans-2d"/>
     <use x="1118.505859" xlink:href="#DejaVuSans-30"/>
     <use x="1182.128906" xlink:href="#DejaVuSans-31"/>
    </g>
   </g>
   <g id="text_22">
    <!-- t_seas_end: 2016-09-01 -->
    <defs>
     <path d="M 45.40625 46.390625 
L 45.40625 75.984375 
L 54.390625 75.984375 
L 54.390625 0 
L 45.40625 0 
L 45.40625 8.203125 
Q 42.578125 3.328125 38.25 0.953125 
Q 33.9375 -1.421875 27.875 -1.421875 
Q 17.96875 -1.421875 11.734375 6.484375 
Q 5.515625 14.40625 5.515625 27.296875 
Q 5.515625 40.1875 11.734375 48.09375 
Q 17.96875 56 27.875 56 
Q 33.9375 56 38.25 53.625 
Q 42.578125 51.265625 45.40625 46.390625 
M 14.796875 27.296875 
Q 14.796875 17.390625 18.875 11.75 
Q 22.953125 6.109375 30.078125 6.109375 
Q 37.203125 6.109375 41.296875 11.75 
Q 45.40625 17.390625 45.40625 27.296875 
Q 45.40625 37.203125 41.296875 42.84375 
Q 37.203125 48.484375 30.078125 48.484375 
Q 22.953125 48.484375 18.875 42.84375 
Q 14.796875 37.203125 14.796875 27.296875 
" id="DejaVuSans-64"/>
     <path d="M 10.984375 1.515625 
L 10.984375 10.5 
Q 14.703125 8.734375 18.5 7.8125 
Q 22.3125 6.890625 25.984375 6.890625 
Q 35.75 6.890625 40.890625 13.453125 
Q 46.046875 20.015625 46.78125 33.40625 
Q 43.953125 29.203125 39.59375 26.953125 
Q 35.25 24.703125 29.984375 24.703125 
Q 19.046875 24.703125 12.671875 31.3125 
Q 6.296875 37.9375 6.296875 49.421875 
Q 6.296875 60.640625 12.9375 67.421875 
Q 19.578125 74.21875 30.609375 74.21875 
Q 43.265625 74.21875 49.921875 64.515625 
Q 56.59375 54.828125 56.59375 36.375 
Q 56.59375 19.140625 48.40625 8.859375 
Q 40.234375 -1.421875 26.421875 -1.421875 
Q 22.703125 -1.421875 18.890625 -0.6875 
Q 15.09375 0.046875 10.984375 1.515625 
M 30.609375 32.421875 
Q 37.25 32.421875 41.125 36.953125 
Q 45.015625 41.5 45.015625 49.421875 
Q 45.015625 57.28125 41.125 61.84375 
Q 37.25 66.40625 30.609375 66.40625 
Q 23.96875 66.40625 20.09375 61.84375 
Q 16.21875 57.28125 16.21875 49.421875 
Q 16.21875 41.5 20.09375 36.953125 
Q 23.96875 32.421875 30.609375 32.421875 
" id="DejaVuSans-39"/>
    </defs>
    <g transform="translate(297.125814 177.407862)rotate(-45)scale(0.1 -0.1)">
     <use xlink:href="#DejaVuSans-74"/>
     <use x="39.208984" xlink:href="#DejaVuSans-5f"/>
     <use x="89.208984" xlink:href="#DejaVuSans-73"/>
     <use x="141.308594" xlink:href="#DejaVuSans-65"/>
     <use x="202.832031" xlink:href="#DejaVuSans-61"/>
     <use x="264.111328" xlink:href="#DejaVuSans-73"/>
     <use x="316.210938" xlink:href="#DejaVuSans-5f"/>
     <use x="366.210938" xlink:href="#DejaVuSans-65"/>
     <use x="427.734375" xlink:href="#DejaVuSans-6e"/>
     <use x="491.113281" xlink:href="#DejaVuSans-64"/>
     <use x="554.589844" xlink:href="#DejaVuSans-3a"/>
     <use x="588.28125" xlink:href="#DejaVuSans-20"/>
     <use x="620.068359" xlink:href="#DejaVuSans-32"/>
     <use x="683.691406" xlink:href="#DejaVuSans-30"/>
     <use x="747.314453" xlink:href="#DejaVuSans-31"/>
     <use x="810.9375" xlink:href="#DejaVuSans-36"/>
     <use x="874.560547" xlink:href="#DejaVuSans-2d"/>
     <use x="910.644531" xlink:href="#DejaVuSans-30"/>
     <use x="974.267578" xlink:href="#DejaVuSans-39"/>
     <use x="1037.890625" xlink:href="#DejaVuSans-2d"/>
     <use x="1073.974609" xlink:href="#DejaVuSans-30"/>
     <use x="1137.597656" xlink:href="#DejaVuSans-31"/>
    </g>
   </g>
   <g id="text_23">
    <!-- t_seas_start: 2016-11-01 -->
    <g transform="translate(352.962038 180.606201)rotate(-45)scale(0.1 -0.1)">
     <use xlink:href="#DejaVuSans-74"/>
     <use x="39.208984" xlink:href="#DejaVuSans-5f"/>
     <use x="89.208984" xlink:href="#DejaVuSans-73"/>
     <use x="141.308594" xlink:href="#DejaVuSans-65"/>
     <use x="202.832031" xlink:href="#DejaVuSans-61"/>
     <use x="264.111328" xlink:href="#DejaVuSans-73"/>
     <use x="316.210938" xlink:href="#DejaVuSans-5f"/>
     <use x="366.210938" xlink:href="#DejaVuSans-73"/>
     <use x="418.310547" xlink:href="#DejaVuSans-74"/>
     <use x="457.519531" xlink:href="#DejaVuSans-61"/>
     <use x="518.798828" xlink:href="#DejaVuSans-72"/>
     <use x="559.912109" xlink:href="#DejaVuSans-74"/>
     <use x="599.121094" xlink:href="#DejaVuSans-3a"/>
     <use x="632.8125" xlink:href="#DejaVuSans-20"/>
     <use x="664.599609" xlink:href="#DejaVuSans-32"/>
     <use x="728.222656" xlink:href="#DejaVuSans-30"/>
     <use x="791.845703" xlink:href="#DejaVuSans-31"/>
     <use x="855.46875" xlink:href="#DejaVuSans-36"/>
     <use x="919.091797" xlink:href="#DejaVuSans-2d"/>
     <use x="955.175781" xlink:href="#DejaVuSans-31"/>
     <use x="1018.798828" xlink:href="#DejaVuSans-31"/>
     <use x="1082.421875" xlink:href="#DejaVuSans-2d"/>
     <use x="1118.505859" xlink:href="#DejaVuSans-30"/>
     <use x="1182.128906" xlink:href="#DejaVuSans-31"/>
    </g>
   </g>
   <g id="text_24">
    <!-- t_seas_end: 2017-01-01 -->
    <defs>
     <path d="M 8.203125 72.90625 
L 55.078125 72.90625 
L 55.078125 68.703125 
L 28.609375 0 
L 18.3125 0 
L 43.21875 64.59375 
L 8.203125 64.59375 
z
" id="DejaVuSans-37"/>
    </defs>
    <g transform="translate(386.958061 177.407862)rotate(-45)scale(0.1 -0.1)">
     <use xlink:href="#DejaVuSans-74"/>
     <use x="39.208984" xlink:href="#DejaVuSans-5f"/>
     <use x="89.208984" xlink:href="#DejaVuSans-73"/>
     <use x="141.308594" xlink:href="#DejaVuSans-65"/>
     <use x="202.832031" xlink:href="#DejaVuSans-61"/>
     <use x="264.111328" xlink:href="#DejaVuSans-73"/>
     <use x="316.210938" xlink:href="#DejaVuSans-5f"/>
     <use x="366.210938" xlink:href="#DejaVuSans-65"/>
     <use x="427.734375" xlink:href="#DejaVuSans-6e"/>
     <use x="491.113281" xlink:href="#DejaVuSans-64"/>
     <use x="554.589844" xlink:href="#DejaVuSans-3a"/>
     <use x="588.28125" xlink:href="#DejaVuSans-20"/>
     <use x="620.068359" xlink:href="#DejaVuSans-32"/>
     <use x="683.691406" xlink:href="#DejaVuSans-30"/>
     <use x="747.314453" xlink:href="#DejaVuSans-31"/>
     <use x="810.9375" xlink:href="#DejaVuSans-37"/>
     <use x="874.560547" xlink:href="#DejaVuSans-2d"/>
     <use x="910.644531" xlink:href="#DejaVuSans-30"/>
     <use x="974.267578" xlink:href="#DejaVuSans-31"/>
     <use x="1037.890625" xlink:href="#DejaVuSans-2d"/>
     <use x="1073.974609" xlink:href="#DejaVuSans-30"/>
     <use x="1137.597656" xlink:href="#DejaVuSans-31"/>
    </g>
   </g>
   <g id="text_25">
    <!-- Disease Prevalence vs. Time (months) for All, with Integration -->
    <defs>
     <path d="M 19.671875 64.796875 
L 19.671875 8.109375 
L 31.59375 8.109375 
Q 46.6875 8.109375 53.6875 14.9375 
Q 60.6875 21.78125 60.6875 36.53125 
Q 60.6875 51.171875 53.6875 57.984375 
Q 46.6875 64.796875 31.59375 64.796875 
z
M 9.8125 72.90625 
L 30.078125 72.90625 
Q 51.265625 72.90625 61.171875 64.09375 
Q 71.09375 55.28125 71.09375 36.53125 
Q 71.09375 17.671875 61.125 8.828125 
Q 51.171875 0 30.078125 0 
L 9.8125 0 
z
" id="DejaVuSans-44"/>
     <path d="M 34.1875 63.1875 
L 20.796875 26.90625 
L 47.609375 26.90625 
z
M 28.609375 72.90625 
L 39.796875 72.90625 
L 67.578125 0 
L 57.328125 0 
L 50.6875 18.703125 
L 17.828125 18.703125 
L 11.1875 0 
L 0.78125 0 
z
" id="DejaVuSans-41"/>
     <path d="M 11.71875 12.40625 
L 22.015625 12.40625 
L 22.015625 4 
L 14.015625 -11.625 
L 7.71875 -11.625 
L 11.71875 4 
z
" id="DejaVuSans-2c"/>
     <path d="M 4.203125 54.6875 
L 13.1875 54.6875 
L 24.421875 12.015625 
L 35.59375 54.6875 
L 46.1875 54.6875 
L 57.421875 12.015625 
L 68.609375 54.6875 
L 77.59375 54.6875 
L 63.28125 0 
L 52.6875 0 
L 40.921875 44.828125 
L 29.109375 0 
L 18.5 0 
z
" id="DejaVuSans-77"/>
     <path d="M 9.8125 72.90625 
L 19.671875 72.90625 
L 19.671875 0 
L 9.8125 0 
z
" id="DejaVuSans-49"/>
     <path d="M 45.40625 27.984375 
Q 45.40625 37.75 41.375 43.109375 
Q 37.359375 48.484375 30.078125 48.484375 
Q 22.859375 48.484375 18.828125 43.109375 
Q 14.796875 37.75 14.796875 27.984375 
Q 14.796875 18.265625 18.828125 12.890625 
Q 22.859375 7.515625 30.078125 7.515625 
Q 37.359375 7.515625 41.375 12.890625 
Q 45.40625 18.265625 45.40625 27.984375 
M 54.390625 6.78125 
Q 54.390625 -7.171875 48.1875 -13.984375 
Q 42 -20.796875 29.203125 -20.796875 
Q 24.46875 -20.796875 20.265625 -20.09375 
Q 16.0625 -19.390625 12.109375 -17.921875 
L 12.109375 -9.1875 
Q 16.0625 -11.328125 19.921875 -12.34375 
Q 23.78125 -13.375 27.78125 -13.375 
Q 36.625 -13.375 41.015625 -8.765625 
Q 45.40625 -4.15625 45.40625 5.171875 
L 45.40625 9.625 
Q 42.625 4.78125 38.28125 2.390625 
Q 33.9375 0 27.875 0 
Q 17.828125 0 11.671875 7.65625 
Q 5.515625 15.328125 5.515625 27.984375 
Q 5.515625 40.671875 11.671875 48.328125 
Q 17.828125 56 27.875 56 
Q 33.9375 56 38.28125 53.609375 
Q 42.625 51.21875 45.40625 46.390625 
L 45.40625 54.6875 
L 54.390625 54.6875 
z
" id="DejaVuSans-67"/>
    </defs>
    <g transform="translate(50.038125 35.472)scale(0.12 -0.12)">
     <use xlink:href="#DejaVuSans-44"/>
     <use x="77.001953" xlink:href="#DejaVuSans-69"/>
     <use x="104.785156" xlink:href="#DejaVuSans-73"/>
     <use x="156.884766" xlink:href="#DejaVuSans-65"/>
     <use x="218.408203" xlink:href="#DejaVuSans-61"/>
     <use x="279.6875" xlink:href="#DejaVuSans-73"/>
     <use x="331.787109" xlink:href="#DejaVuSans-65"/>
     <use x="393.310547" xlink:href="#DejaVuSans-20"/>
     <use x="425.097656" xlink:href="#DejaVuSans-50"/>
     <use x="485.384766" xlink:href="#DejaVuSans-72"/>
     <use x="526.466797" xlink:href="#DejaVuSans-65"/>
     <use x="587.990234" xlink:href="#DejaVuSans-76"/>
     <use x="647.169922" xlink:href="#DejaVuSans-61"/>
     <use x="708.449219" xlink:href="#DejaVuSans-6c"/>
     <use x="736.232422" xlink:href="#DejaVuSans-65"/>
     <use x="797.755859" xlink:href="#DejaVuSans-6e"/>
     <use x="861.134766" xlink:href="#DejaVuSans-63"/>
     <use x="916.115234" xlink:href="#DejaVuSans-65"/>
     <use x="977.638672" xlink:href="#DejaVuSans-20"/>
     <use x="1009.425781" xlink:href="#DejaVuSans-76"/>
     <use x="1068.605469" xlink:href="#DejaVuSans-73"/>
     <use x="1120.705078" xlink:href="#DejaVuSans-2e"/>
     <use x="1152.492188" xlink:href="#DejaVuSans-20"/>
     <use x="1184.279297" xlink:href="#DejaVuSans-54"/>
     <use x="1245.316406" xlink:href="#DejaVuSans-69"/>
     <use x="1273.099609" xlink:href="#DejaVuSans-6d"/>
     <use x="1370.511719" xlink:href="#DejaVuSans-65"/>
     <use x="1432.035156" xlink:href="#DejaVuSans-20"/>
     <use x="1463.822266" xlink:href="#DejaVuSans-28"/>
     <use x="1502.835938" xlink:href="#DejaVuSans-6d"/>
     <use x="1600.248047" xlink:href="#DejaVuSans-6f"/>
     <use x="1661.429688" xlink:href="#DejaVuSans-6e"/>
     <use x="1724.808594" xlink:href="#DejaVuSans-74"/>
     <use x="1764.017578" xlink:href="#DejaVuSans-68"/>
     <use x="1827.396484" xlink:href="#DejaVuSans-73"/>
     <use x="1879.496094" xlink:href="#DejaVuSans-29"/>
     <use x="1918.509766" xlink:href="#DejaVuSans-20"/>
     <use x="1950.296875" xlink:href="#DejaVuSans-66"/>
     <use x="1985.501953" xlink:href="#DejaVuSans-6f"/>
     <use x="2046.683594" xlink:href="#DejaVuSans-72"/>
     <use x="2087.796875" xlink:href="#DejaVuSans-20"/>
     <use x="2119.583984" xlink:href="#DejaVuSans-41"/>
     <use x="2187.992188" xlink:href="#DejaVuSans-6c"/>
     <use x="2215.775391" xlink:href="#DejaVuSans-6c"/>
     <use x="2243.558594" xlink:href="#DejaVuSans-2c"/>
     <use x="2275.345703" xlink:href="#DejaVuSans-20"/>
     <use x="2307.132812" xlink:href="#DejaVuSans-77"/>
     <use x="2388.919922" xlink:href="#DejaVuSans-69"/>
     <use x="2416.703125" xlink:href="#DejaVuSans-74"/>
     <use x="2455.912109" xlink:href="#DejaVuSans-68"/>
     <use x="2519.291016" xlink:href="#DejaVuSans-20"/>
     <use x="2551.078125" xlink:href="#DejaVuSans-49"/>
     <use x="2580.570312" xlink:href="#DejaVuSans-6e"/>
     <use x="2643.949219" xlink:href="#DejaVuSans-74"/>
     <use x="2683.158203" xlink:href="#DejaVuSans-65"/>
     <use x="2744.681641" xlink:href="#DejaVuSans-67"/>
     <use x="2808.158203" xlink:href="#DejaVuSans-72"/>
     <use x="2849.271484" xlink:href="#DejaVuSans-61"/>
     <use x="2910.550781" xlink:href="#DejaVuSans-74"/>
     <use x="2949.759766" xlink:href="#DejaVuSans-69"/>
     <use x="2977.542969" xlink:href="#DejaVuSans-6f"/>
     <use x="3038.724609" xlink:href="#DejaVuSans-6e"/>
    </g>
   </g>
   <g id="legend_1">
    <g id="patch_7">
     <path d="M 296.337188 78.82825 
L 407.72 78.82825 
Q 409.72 78.82825 409.72 76.82825 
L 409.72 48.472 
Q 409.72 46.472 407.72 46.472 
L 296.337188 46.472 
Q 294.337188 46.472 294.337188 48.472 
L 294.337188 76.82825 
Q 294.337188 78.82825 296.337188 78.82825 
z
" style="fill:#ffffff;opacity:0.8;stroke:#cccccc;stroke-linejoin:miter;"/>
    </g>
    <g id="line2d_40">
     <path d="M 298.337188 54.570437 
L 318.337188 54.570437 
" style="fill:none;stroke:#1f77b4;stroke-linecap:square;stroke-width:1.5;"/>
    </g>
    <g id="line2d_41"/>
    <g id="text_26">
     <!-- Schistosomiasis -->
     <defs>
      <path d="M 53.515625 70.515625 
L 53.515625 60.890625 
Q 47.90625 63.578125 42.921875 64.890625 
Q 37.9375 66.21875 33.296875 66.21875 
Q 25.25 66.21875 20.875 63.09375 
Q 16.5 59.96875 16.5 54.203125 
Q 16.5 49.359375 19.40625 46.890625 
Q 22.3125 44.4375 30.421875 42.921875 
L 36.375 41.703125 
Q 47.40625 39.59375 52.65625 34.296875 
Q 57.90625 29 57.90625 20.125 
Q 57.90625 9.515625 50.796875 4.046875 
Q 43.703125 -1.421875 29.984375 -1.421875 
Q 24.8125 -1.421875 18.96875 -0.25 
Q 13.140625 0.921875 6.890625 3.21875 
L 6.890625 13.375 
Q 12.890625 10.015625 18.65625 8.296875 
Q 24.421875 6.59375 29.984375 6.59375 
Q 38.421875 6.59375 43.015625 9.90625 
Q 47.609375 13.234375 47.609375 19.390625 
Q 47.609375 24.75 44.3125 27.78125 
Q 41.015625 30.8125 33.5 32.328125 
L 27.484375 33.5 
Q 16.453125 35.6875 11.515625 40.375 
Q 6.59375 45.0625 6.59375 53.421875 
Q 6.59375 63.09375 13.40625 68.65625 
Q 20.21875 74.21875 32.171875 74.21875 
Q 37.3125 74.21875 42.625 73.28125 
Q 47.953125 72.359375 53.515625 70.515625 
" id="DejaVuSans-53"/>
     </defs>
     <g transform="translate(326.337188 58.070437)scale(0.1 -0.1)">
      <use xlink:href="#DejaVuSans-53"/>
      <use x="63.476562" xlink:href="#DejaVuSans-63"/>
      <use x="118.457031" xlink:href="#DejaVuSans-68"/>
      <use x="181.835938" xlink:href="#DejaVuSans-69"/>
      <use x="209.619141" xlink:href="#DejaVuSans-73"/>
      <use x="261.71875" xlink:href="#DejaVuSans-74"/>
      <use x="300.927734" xlink:href="#DejaVuSans-6f"/>
      <use x="362.109375" xlink:href="#DejaVuSans-73"/>
      <use x="414.208984" xlink:href="#DejaVuSans-6f"/>
      <use x="475.390625" xlink:href="#DejaVuSans-6d"/>
      <use x="572.802734" xlink:href="#DejaVuSans-69"/>
      <use x="600.585938" xlink:href="#DejaVuSans-61"/>
      <use x="661.865234" xlink:href="#DejaVuSans-73"/>
      <use x="713.964844" xlink:href="#DejaVuSans-69"/>
      <use x="741.748047" xlink:href="#DejaVuSans-73"/>
     </g>
    </g>
    <g id="line2d_42">
     <path d="M 298.337188 69.248562 
L 318.337188 69.248562 
" style="fill:none;stroke:#ff7f0e;stroke-linecap:square;stroke-width:1.5;"/>
    </g>
    <g id="line2d_43"/>
    <g id="text_27">
     <!-- Malaria -->
     <defs>
      <path d="M 9.8125 72.90625 
L 24.515625 72.90625 
L 43.109375 23.296875 
L 61.8125 72.90625 
L 76.515625 72.90625 
L 76.515625 0 
L 66.890625 0 
L 66.890625 64.015625 
L 48.09375 14.015625 
L 38.1875 14.015625 
L 19.390625 64.015625 
L 19.390625 0 
L 9.8125 0 
z
" id="DejaVuSans-4d"/>
     </defs>
     <g transform="translate(326.337188 72.748562)scale(0.1 -0.1)">
      <use xlink:href="#DejaVuSans-4d"/>
      <use x="86.279297" xlink:href="#DejaVuSans-61"/>
      <use x="147.558594" xlink:href="#DejaVuSans-6c"/>
      <use x="175.341797" xlink:href="#DejaVuSans-61"/>
      <use x="236.621094" xlink:href="#DejaVuSans-72"/>
      <use x="277.734375" xlink:href="#DejaVuSans-69"/>
      <use x="305.517578" xlink:href="#DejaVuSans-61"/>
     </g>
    </g>
   </g>
  </g>
 </g>
 <defs>
  <clipPath id="pdadc19f57b">
   <rect height="266.112" width="357.12" x="57.6" y="41.472"/>
  </clipPath>
 </defs>
</svg>
