<?xml version="1.0" encoding="utf-8" standalone="no"?>
<!DOCTYPE svg PUBLIC "-//W3C//DTD SVG 1.1//EN"
  "http://www.w3.org/Graphics/SVG/1.1/DTD/svg11.dtd">
<!-- Created with matplotlib (http://matplotlib.org/) -->
<svg height="345pt" version="1.1" viewBox="0 0 460 345" width="460pt" xmlns="http://www.w3.org/2000/svg" xmlns:xlink="http://www.w3.org/1999/xlink">
 <defs>
  <style type="text/css">
*{stroke-linecap:butt;stroke-linejoin:round;}
  </style>
 </defs>
 <g id="figure_1">
  <g id="patch_1">
   <path d="M 0 345.6 
L 460.8 345.6 
L 460.8 0 
L 0 0 
z
" style="fill:#ffffff;"/>
  </g>
  <g id="axes_1">
   <g id="patch_2">
    <path d="M 57.6 307.584 
L 414.72 307.584 
L 414.72 41.472 
L 57.6 41.472 
z
" style="fill:#ffffff;"/>
   </g>
   <g id="matplotlib.axis_1">
    <g id="xtick_1">
     <g id="line2d_1">
      <path clip-path="url(#pdafdc487e0)" d="M 57.6 307.584 
L 57.6 41.472 
" style="fill:none;stroke:#b0b0b0;stroke-linecap:square;stroke-width:0.8;"/>
     </g>
     <g id="line2d_2">
      <defs>
       <path d="M 0 0 
L 0 3.5 
" id="ma6078ffdac" style="stroke:#000000;stroke-width:0.8;"/>
      </defs>
      <g>
       <use style="stroke:#000000;stroke-width:0.8;" x="57.6" xlink:href="#ma6078ffdac" y="307.584"/>
      </g>
     </g>
     <g id="text_1">
      <!-- −4 -->
      <defs>
       <path d="M 10.59375 35.5 
L 73.1875 35.5 
L 73.1875 27.203125 
L 10.59375 27.203125 
z
" id="DejaVuSans-2212"/>
       <path d="M 37.796875 64.3125 
L 12.890625 25.390625 
L 37.796875 25.390625 
z
M 35.203125 72.90625 
L 47.609375 72.90625 
L 47.609375 25.390625 
L 58.015625 25.390625 
L 58.015625 17.1875 
L 47.609375 17.1875 
L 47.609375 0 
L 37.796875 0 
L 37.796875 17.1875 
L 4.890625 17.1875 
L 4.890625 26.703125 
z
" id="DejaVuSans-34"/>
      </defs>
      <g transform="translate(50.228906 322.182437)scale(0.1 -0.1)">
       <use xlink:href="#DejaVuSans-2212"/>
       <use x="83.789062" xlink:href="#DejaVuSans-34"/>
      </g>
     </g>
    </g>
    <g id="xtick_2">
     <g id="line2d_3">
      <path clip-path="url(#pdafdc487e0)" d="M 82.808471 307.584 
L 82.808471 41.472 
" style="fill:none;stroke:#b0b0b0;stroke-linecap:square;stroke-width:0.8;"/>
     </g>
     <g id="line2d_4">
      <g>
       <use style="stroke:#000000;stroke-width:0.8;" x="82.808471" xlink:href="#ma6078ffdac" y="307.584"/>
      </g>
     </g>
     <g id="text_2">
      <!-- −2 -->
      <defs>
       <path d="M 19.1875 8.296875 
L 53.609375 8.296875 
L 53.609375 0 
L 7.328125 0 
L 7.328125 8.296875 
Q 12.9375 14.109375 22.625 23.890625 
Q 32.328125 33.6875 34.8125 36.53125 
Q 39.546875 41.84375 41.421875 45.53125 
Q 43.3125 49.21875 43.3125 52.78125 
Q 43.3125 58.59375 39.234375 62.25 
Q 35.15625 65.921875 28.609375 65.921875 
Q 23.96875 65.921875 18.8125 64.3125 
Q 13.671875 62.703125 7.8125 59.421875 
L 7.8125 69.390625 
Q 13.765625 71.78125 18.9375 73 
Q 24.125 74.21875 28.421875 74.21875 
Q 39.75 74.21875 46.484375 68.546875 
Q 53.21875 62.890625 53.21875 53.421875 
Q 53.21875 48.921875 51.53125 44.890625 
Q 49.859375 40.875 45.40625 35.40625 
Q 44.1875 33.984375 37.640625 27.21875 
Q 31.109375 20.453125 19.1875 8.296875 
z
" id="DejaVuSans-32"/>
      </defs>
      <g transform="translate(75.437377 322.182437)scale(0.1 -0.1)">
       <use xlink:href="#DejaVuSans-2212"/>
       <use x="83.789062" xlink:href="#DejaVuSans-32"/>
      </g>
     </g>
    </g>
    <g id="xtick_3">
     <g id="line2d_5">
      <path clip-path="url(#pdafdc487e0)" d="M 108.016941 307.584 
L 108.016941 41.472 
" style="fill:none;stroke:#b0b0b0;stroke-linecap:square;stroke-width:0.8;"/>
     </g>
     <g id="line2d_6">
      <g>
       <use style="stroke:#000000;stroke-width:0.8;" x="108.016941" xlink:href="#ma6078ffdac" y="307.584"/>
      </g>
     </g>
     <g id="text_3">
      <!-- 0 -->
      <defs>
       <path d="M 31.78125 66.40625 
Q 24.171875 66.40625 20.328125 58.90625 
Q 16.5 51.421875 16.5 36.375 
Q 16.5 21.390625 20.328125 13.890625 
Q 24.171875 6.390625 31.78125 6.390625 
Q 39.453125 6.390625 43.28125 13.890625 
Q 47.125 21.390625 47.125 36.375 
Q 47.125 51.421875 43.28125 58.90625 
Q 39.453125 66.40625 31.78125 66.40625 
z
M 31.78125 74.21875 
Q 44.046875 74.21875 50.515625 64.515625 
Q 56.984375 54.828125 56.984375 36.375 
Q 56.984375 17.96875 50.515625 8.265625 
Q 44.046875 -1.421875 31.78125 -1.421875 
Q 19.53125 -1.421875 13.0625 8.265625 
Q 6.59375 17.96875 6.59375 36.375 
Q 6.59375 54.828125 13.0625 64.515625 
Q 19.53125 74.21875 31.78125 74.21875 
z
" id="DejaVuSans-30"/>
      </defs>
      <g transform="translate(104.835691 322.182437)scale(0.1 -0.1)">
       <use xlink:href="#DejaVuSans-30"/>
      </g>
     </g>
    </g>
    <g id="xtick_4">
     <g id="line2d_7">
      <path clip-path="url(#pdafdc487e0)" d="M 133.225412 307.584 
L 133.225412 41.472 
" style="fill:none;stroke:#b0b0b0;stroke-linecap:square;stroke-width:0.8;"/>
     </g>
     <g id="line2d_8">
      <g>
       <use style="stroke:#000000;stroke-width:0.8;" x="133.225412" xlink:href="#ma6078ffdac" y="307.584"/>
      </g>
     </g>
     <g id="text_4">
      <!-- 2 -->
      <g transform="translate(130.044162 322.182437)scale(0.1 -0.1)">
       <use xlink:href="#DejaVuSans-32"/>
      </g>
     </g>
    </g>
    <g id="xtick_5">
     <g id="line2d_9">
      <path clip-path="url(#pdafdc487e0)" d="M 158.433882 307.584 
L 158.433882 41.472 
" style="fill:none;stroke:#b0b0b0;stroke-linecap:square;stroke-width:0.8;"/>
     </g>
     <g id="line2d_10">
      <g>
       <use style="stroke:#000000;stroke-width:0.8;" x="158.433882" xlink:href="#ma6078ffdac" y="307.584"/>
      </g>
     </g>
     <g id="text_5">
      <!-- 4 -->
      <g transform="translate(155.252632 322.182437)scale(0.1 -0.1)">
       <use xlink:href="#DejaVuSans-34"/>
      </g>
     </g>
    </g>
    <g id="xtick_6">
     <g id="line2d_11">
      <path clip-path="url(#pdafdc487e0)" d="M 183.642353 307.584 
L 183.642353 41.472 
" style="fill:none;stroke:#b0b0b0;stroke-linecap:square;stroke-width:0.8;"/>
     </g>
     <g id="line2d_12">
      <g>
       <use style="stroke:#000000;stroke-width:0.8;" x="183.642353" xlink:href="#ma6078ffdac" y="307.584"/>
      </g>
     </g>
     <g id="text_6">
      <!-- 6 -->
      <defs>
       <path d="M 33.015625 40.375 
Q 26.375 40.375 22.484375 35.828125 
Q 18.609375 31.296875 18.609375 23.390625 
Q 18.609375 15.53125 22.484375 10.953125 
Q 26.375 6.390625 33.015625 6.390625 
Q 39.65625 6.390625 43.53125 10.953125 
Q 47.40625 15.53125 47.40625 23.390625 
Q 47.40625 31.296875 43.53125 35.828125 
Q 39.65625 40.375 33.015625 40.375 
z
M 52.59375 71.296875 
L 52.59375 62.3125 
Q 48.875 64.0625 45.09375 64.984375 
Q 41.3125 65.921875 37.59375 65.921875 
Q 27.828125 65.921875 22.671875 59.328125 
Q 17.53125 52.734375 16.796875 39.40625 
Q 19.671875 43.65625 24.015625 45.921875 
Q 28.375 48.1875 33.59375 48.1875 
Q 44.578125 48.1875 50.953125 41.515625 
Q 57.328125 34.859375 57.328125 23.390625 
Q 57.328125 12.15625 50.6875 5.359375 
Q 44.046875 -1.421875 33.015625 -1.421875 
Q 20.359375 -1.421875 13.671875 8.265625 
Q 6.984375 17.96875 6.984375 36.375 
Q 6.984375 53.65625 15.1875 63.9375 
Q 23.390625 74.21875 37.203125 74.21875 
Q 40.921875 74.21875 44.703125 73.484375 
Q 48.484375 72.75 52.59375 71.296875 
z
" id="DejaVuSans-36"/>
      </defs>
      <g transform="translate(180.461103 322.182437)scale(0.1 -0.1)">
       <use xlink:href="#DejaVuSans-36"/>
      </g>
     </g>
    </g>
    <g id="xtick_7">
     <g id="line2d_13">
      <path clip-path="url(#pdafdc487e0)" d="M 208.850824 307.584 
L 208.850824 41.472 
" style="fill:none;stroke:#b0b0b0;stroke-linecap:square;stroke-width:0.8;"/>
     </g>
     <g id="line2d_14">
      <g>
       <use style="stroke:#000000;stroke-width:0.8;" x="208.850824" xlink:href="#ma6078ffdac" y="307.584"/>
      </g>
     </g>
     <g id="text_7">
      <!-- 8 -->
      <defs>
       <path d="M 31.78125 34.625 
Q 24.75 34.625 20.71875 30.859375 
Q 16.703125 27.09375 16.703125 20.515625 
Q 16.703125 13.921875 20.71875 10.15625 
Q 24.75 6.390625 31.78125 6.390625 
Q 38.8125 6.390625 42.859375 10.171875 
Q 46.921875 13.96875 46.921875 20.515625 
Q 46.921875 27.09375 42.890625 30.859375 
Q 38.875 34.625 31.78125 34.625 
z
M 21.921875 38.8125 
Q 15.578125 40.375 12.03125 44.71875 
Q 8.5 49.078125 8.5 55.328125 
Q 8.5 64.0625 14.71875 69.140625 
Q 20.953125 74.21875 31.78125 74.21875 
Q 42.671875 74.21875 48.875 69.140625 
Q 55.078125 64.0625 55.078125 55.328125 
Q 55.078125 49.078125 51.53125 44.71875 
Q 48 40.375 41.703125 38.8125 
Q 48.828125 37.15625 52.796875 32.3125 
Q 56.78125 27.484375 56.78125 20.515625 
Q 56.78125 9.90625 50.3125 4.234375 
Q 43.84375 -1.421875 31.78125 -1.421875 
Q 19.734375 -1.421875 13.25 4.234375 
Q 6.78125 9.90625 6.78125 20.515625 
Q 6.78125 27.484375 10.78125 32.3125 
Q 14.796875 37.15625 21.921875 38.8125 
z
M 18.3125 54.390625 
Q 18.3125 48.734375 21.84375 45.5625 
Q 25.390625 42.390625 31.78125 42.390625 
Q 38.140625 42.390625 41.71875 45.5625 
Q 45.3125 48.734375 45.3125 54.390625 
Q 45.3125 60.0625 41.71875 63.234375 
Q 38.140625 66.40625 31.78125 66.40625 
Q 25.390625 66.40625 21.84375 63.234375 
Q 18.3125 60.0625 18.3125 54.390625 
z
" id="DejaVuSans-38"/>
      </defs>
      <g transform="translate(205.669574 322.182437)scale(0.1 -0.1)">
       <use xlink:href="#DejaVuSans-38"/>
      </g>
     </g>
    </g>
    <g id="xtick_8">
     <g id="line2d_15">
      <path clip-path="url(#pdafdc487e0)" d="M 234.059294 307.584 
L 234.059294 41.472 
" style="fill:none;stroke:#b0b0b0;stroke-linecap:square;stroke-width:0.8;"/>
     </g>
     <g id="line2d_16">
      <g>
       <use style="stroke:#000000;stroke-width:0.8;" x="234.059294" xlink:href="#ma6078ffdac" y="307.584"/>
      </g>
     </g>
     <g id="text_8">
      <!-- 10 -->
      <defs>
       <path d="M 12.40625 8.296875 
L 28.515625 8.296875 
L 28.515625 63.921875 
L 10.984375 60.40625 
L 10.984375 69.390625 
L 28.421875 72.90625 
L 38.28125 72.90625 
L 38.28125 8.296875 
L 54.390625 8.296875 
L 54.390625 0 
L 12.40625 0 
z
" id="DejaVuSans-31"/>
      </defs>
      <g transform="translate(227.696794 322.182437)scale(0.1 -0.1)">
       <use xlink:href="#DejaVuSans-31"/>
       <use x="63.623047" xlink:href="#DejaVuSans-30"/>
      </g>
     </g>
    </g>
    <g id="xtick_9">
     <g id="line2d_17">
      <path clip-path="url(#pdafdc487e0)" d="M 259.267765 307.584 
L 259.267765 41.472 
" style="fill:none;stroke:#b0b0b0;stroke-linecap:square;stroke-width:0.8;"/>
     </g>
     <g id="line2d_18">
      <g>
       <use style="stroke:#000000;stroke-width:0.8;" x="259.267765" xlink:href="#ma6078ffdac" y="307.584"/>
      </g>
     </g>
     <g id="text_9">
      <!-- 12 -->
      <g transform="translate(252.905265 322.182437)scale(0.1 -0.1)">
       <use xlink:href="#DejaVuSans-31"/>
       <use x="63.623047" xlink:href="#DejaVuSans-32"/>
      </g>
     </g>
    </g>
    <g id="xtick_10">
     <g id="line2d_19">
      <path clip-path="url(#pdafdc487e0)" d="M 284.476235 307.584 
L 284.476235 41.472 
" style="fill:none;stroke:#b0b0b0;stroke-linecap:square;stroke-width:0.8;"/>
     </g>
     <g id="line2d_20">
      <g>
       <use style="stroke:#000000;stroke-width:0.8;" x="284.476235" xlink:href="#ma6078ffdac" y="307.584"/>
      </g>
     </g>
     <g id="text_10">
      <!-- 14 -->
      <g transform="translate(278.113735 322.182437)scale(0.1 -0.1)">
       <use xlink:href="#DejaVuSans-31"/>
       <use x="63.623047" xlink:href="#DejaVuSans-34"/>
      </g>
     </g>
    </g>
    <g id="xtick_11">
     <g id="line2d_21">
      <path clip-path="url(#pdafdc487e0)" d="M 309.684706 307.584 
L 309.684706 41.472 
" style="fill:none;stroke:#b0b0b0;stroke-linecap:square;stroke-width:0.8;"/>
     </g>
     <g id="line2d_22">
      <g>
       <use style="stroke:#000000;stroke-width:0.8;" x="309.684706" xlink:href="#ma6078ffdac" y="307.584"/>
      </g>
     </g>
     <g id="text_11">
      <!-- 16 -->
      <g transform="translate(303.322206 322.182437)scale(0.1 -0.1)">
       <use xlink:href="#DejaVuSans-31"/>
       <use x="63.623047" xlink:href="#DejaVuSans-36"/>
      </g>
     </g>
    </g>
    <g id="xtick_12">
     <g id="line2d_23">
      <path clip-path="url(#pdafdc487e0)" d="M 334.893176 307.584 
L 334.893176 41.472 
" style="fill:none;stroke:#b0b0b0;stroke-linecap:square;stroke-width:0.8;"/>
     </g>
     <g id="line2d_24">
      <g>
       <use style="stroke:#000000;stroke-width:0.8;" x="334.893176" xlink:href="#ma6078ffdac" y="307.584"/>
      </g>
     </g>
     <g id="text_12">
      <!-- 18 -->
      <g transform="translate(328.530676 322.182437)scale(0.1 -0.1)">
       <use xlink:href="#DejaVuSans-31"/>
       <use x="63.623047" xlink:href="#DejaVuSans-38"/>
      </g>
     </g>
    </g>
    <g id="xtick_13">
     <g id="line2d_25">
      <path clip-path="url(#pdafdc487e0)" d="M 360.101647 307.584 
L 360.101647 41.472 
" style="fill:none;stroke:#b0b0b0;stroke-linecap:square;stroke-width:0.8;"/>
     </g>
     <g id="line2d_26">
      <g>
       <use style="stroke:#000000;stroke-width:0.8;" x="360.101647" xlink:href="#ma6078ffdac" y="307.584"/>
      </g>
     </g>
     <g id="text_13">
      <!-- 20 -->
      <g transform="translate(353.739147 322.182437)scale(0.1 -0.1)">
       <use xlink:href="#DejaVuSans-32"/>
       <use x="63.623047" xlink:href="#DejaVuSans-30"/>
      </g>
     </g>
    </g>
    <g id="xtick_14">
     <g id="line2d_27">
      <path clip-path="url(#pdafdc487e0)" d="M 385.310118 307.584 
L 385.310118 41.472 
" style="fill:none;stroke:#b0b0b0;stroke-linecap:square;stroke-width:0.8;"/>
     </g>
     <g id="line2d_28">
      <g>
       <use style="stroke:#000000;stroke-width:0.8;" x="385.310118" xlink:href="#ma6078ffdac" y="307.584"/>
      </g>
     </g>
     <g id="text_14">
      <!-- 22 -->
      <g transform="translate(378.947618 322.182437)scale(0.1 -0.1)">
       <use xlink:href="#DejaVuSans-32"/>
       <use x="63.623047" xlink:href="#DejaVuSans-32"/>
      </g>
     </g>
    </g>
    <g id="xtick_15">
     <g id="line2d_29">
      <path clip-path="url(#pdafdc487e0)" d="M 410.518588 307.584 
L 410.518588 41.472 
" style="fill:none;stroke:#b0b0b0;stroke-linecap:square;stroke-width:0.8;"/>
     </g>
     <g id="line2d_30">
      <g>
       <use style="stroke:#000000;stroke-width:0.8;" x="410.518588" xlink:href="#ma6078ffdac" y="307.584"/>
      </g>
     </g>
     <g id="text_15">
      <!-- 24 -->
      <g transform="translate(404.156088 322.182437)scale(0.1 -0.1)">
       <use xlink:href="#DejaVuSans-32"/>
       <use x="63.623047" xlink:href="#DejaVuSans-34"/>
      </g>
     </g>
    </g>
    <g id="text_16">
     <!-- Time (months) -->
     <defs>
      <path d="M -0.296875 72.90625 
L 61.375 72.90625 
L 61.375 64.59375 
L 35.5 64.59375 
L 35.5 0 
L 25.59375 0 
L 25.59375 64.59375 
L -0.296875 64.59375 
z
" id="DejaVuSans-54"/>
      <path d="M 9.421875 54.6875 
L 18.40625 54.6875 
L 18.40625 0 
L 9.421875 0 
z
M 9.421875 75.984375 
L 18.40625 75.984375 
L 18.40625 64.59375 
L 9.421875 64.59375 
z
" id="DejaVuSans-69"/>
      <path d="M 52 44.1875 
Q 55.375 50.25 60.0625 53.125 
Q 64.75 56 71.09375 56 
Q 79.640625 56 84.28125 50.015625 
Q 88.921875 44.046875 88.921875 33.015625 
L 88.921875 0 
L 79.890625 0 
L 79.890625 32.71875 
Q 79.890625 40.578125 77.09375 44.375 
Q 74.3125 48.1875 68.609375 48.1875 
Q 61.625 48.1875 57.5625 43.546875 
Q 53.515625 38.921875 53.515625 30.90625 
L 53.515625 0 
L 44.484375 0 
L 44.484375 32.71875 
Q 44.484375 40.625 41.703125 44.40625 
Q 38.921875 48.1875 33.109375 48.1875 
Q 26.21875 48.1875 22.15625 43.53125 
Q 18.109375 38.875 18.109375 30.90625 
L 18.109375 0 
L 9.078125 0 
L 9.078125 54.6875 
L 18.109375 54.6875 
L 18.109375 46.1875 
Q 21.1875 51.21875 25.484375 53.609375 
Q 29.78125 56 35.6875 56 
Q 41.65625 56 45.828125 52.96875 
Q 50 49.953125 52 44.1875 
z
" id="DejaVuSans-6d"/>
      <path d="M 56.203125 29.59375 
L 56.203125 25.203125 
L 14.890625 25.203125 
Q 15.484375 15.921875 20.484375 11.0625 
Q 25.484375 6.203125 34.421875 6.203125 
Q 39.59375 6.203125 44.453125 7.46875 
Q 49.3125 8.734375 54.109375 11.28125 
L 54.109375 2.78125 
Q 49.265625 0.734375 44.1875 -0.34375 
Q 39.109375 -1.421875 33.890625 -1.421875 
Q 20.796875 -1.421875 13.15625 6.1875 
Q 5.515625 13.8125 5.515625 26.8125 
Q 5.515625 40.234375 12.765625 48.109375 
Q 20.015625 56 32.328125 56 
Q 43.359375 56 49.78125 48.890625 
Q 56.203125 41.796875 56.203125 29.59375 
z
M 47.21875 32.234375 
Q 47.125 39.59375 43.09375 43.984375 
Q 39.0625 48.390625 32.421875 48.390625 
Q 24.90625 48.390625 20.390625 44.140625 
Q 15.875 39.890625 15.1875 32.171875 
z
" id="DejaVuSans-65"/>
      <path id="DejaVuSans-20"/>
      <path d="M 31 75.875 
Q 24.46875 64.65625 21.28125 53.65625 
Q 18.109375 42.671875 18.109375 31.390625 
Q 18.109375 20.125 21.3125 9.0625 
Q 24.515625 -2 31 -13.1875 
L 23.1875 -13.1875 
Q 15.875 -1.703125 12.234375 9.375 
Q 8.59375 20.453125 8.59375 31.390625 
Q 8.59375 42.28125 12.203125 53.3125 
Q 15.828125 64.359375 23.1875 75.875 
z
" id="DejaVuSans-28"/>
      <path d="M 30.609375 48.390625 
Q 23.390625 48.390625 19.1875 42.75 
Q 14.984375 37.109375 14.984375 27.296875 
Q 14.984375 17.484375 19.15625 11.84375 
Q 23.34375 6.203125 30.609375 6.203125 
Q 37.796875 6.203125 41.984375 11.859375 
Q 46.1875 17.53125 46.1875 27.296875 
Q 46.1875 37.015625 41.984375 42.703125 
Q 37.796875 48.390625 30.609375 48.390625 
z
M 30.609375 56 
Q 42.328125 56 49.015625 48.375 
Q 55.71875 40.765625 55.71875 27.296875 
Q 55.71875 13.875 49.015625 6.21875 
Q 42.328125 -1.421875 30.609375 -1.421875 
Q 18.84375 -1.421875 12.171875 6.21875 
Q 5.515625 13.875 5.515625 27.296875 
Q 5.515625 40.765625 12.171875 48.375 
Q 18.84375 56 30.609375 56 
z
" id="DejaVuSans-6f"/>
      <path d="M 54.890625 33.015625 
L 54.890625 0 
L 45.90625 0 
L 45.90625 32.71875 
Q 45.90625 40.484375 42.875 44.328125 
Q 39.84375 48.1875 33.796875 48.1875 
Q 26.515625 48.1875 22.3125 43.546875 
Q 18.109375 38.921875 18.109375 30.90625 
L 18.109375 0 
L 9.078125 0 
L 9.078125 54.6875 
L 18.109375 54.6875 
L 18.109375 46.1875 
Q 21.34375 51.125 25.703125 53.5625 
Q 30.078125 56 35.796875 56 
Q 45.21875 56 50.046875 50.171875 
Q 54.890625 44.34375 54.890625 33.015625 
z
" id="DejaVuSans-6e"/>
      <path d="M 18.3125 70.21875 
L 18.3125 54.6875 
L 36.8125 54.6875 
L 36.8125 47.703125 
L 18.3125 47.703125 
L 18.3125 18.015625 
Q 18.3125 11.328125 20.140625 9.421875 
Q 21.96875 7.515625 27.59375 7.515625 
L 36.8125 7.515625 
L 36.8125 0 
L 27.59375 0 
Q 17.1875 0 13.234375 3.875 
Q 9.28125 7.765625 9.28125 18.015625 
L 9.28125 47.703125 
L 2.6875 47.703125 
L 2.6875 54.6875 
L 9.28125 54.6875 
L 9.28125 70.21875 
z
" id="DejaVuSans-74"/>
      <path d="M 54.890625 33.015625 
L 54.890625 0 
L 45.90625 0 
L 45.90625 32.71875 
Q 45.90625 40.484375 42.875 44.328125 
Q 39.84375 48.1875 33.796875 48.1875 
Q 26.515625 48.1875 22.3125 43.546875 
Q 18.109375 38.921875 18.109375 30.90625 
L 18.109375 0 
L 9.078125 0 
L 9.078125 75.984375 
L 18.109375 75.984375 
L 18.109375 46.1875 
Q 21.34375 51.125 25.703125 53.5625 
Q 30.078125 56 35.796875 56 
Q 45.21875 56 50.046875 50.171875 
Q 54.890625 44.34375 54.890625 33.015625 
z
" id="DejaVuSans-68"/>
      <path d="M 44.28125 53.078125 
L 44.28125 44.578125 
Q 40.484375 46.53125 36.375 47.5 
Q 32.28125 48.484375 27.875 48.484375 
Q 21.1875 48.484375 17.84375 46.4375 
Q 14.5 44.390625 14.5 40.28125 
Q 14.5 37.15625 16.890625 35.375 
Q 19.28125 33.59375 26.515625 31.984375 
L 29.59375 31.296875 
Q 39.15625 29.25 43.1875 25.515625 
Q 47.21875 21.78125 47.21875 15.09375 
Q 47.21875 7.46875 41.1875 3.015625 
Q 35.15625 -1.421875 24.609375 -1.421875 
Q 20.21875 -1.421875 15.453125 -0.5625 
Q 10.6875 0.296875 5.421875 2 
L 5.421875 11.28125 
Q 10.40625 8.6875 15.234375 7.390625 
Q 20.0625 6.109375 24.8125 6.109375 
Q 31.15625 6.109375 34.5625 8.28125 
Q 37.984375 10.453125 37.984375 14.40625 
Q 37.984375 18.0625 35.515625 20.015625 
Q 33.0625 21.96875 24.703125 23.78125 
L 21.578125 24.515625 
Q 13.234375 26.265625 9.515625 29.90625 
Q 5.8125 33.546875 5.8125 39.890625 
Q 5.8125 47.609375 11.28125 51.796875 
Q 16.75 56 26.8125 56 
Q 31.78125 56 36.171875 55.265625 
Q 40.578125 54.546875 44.28125 53.078125 
z
" id="DejaVuSans-73"/>
      <path d="M 8.015625 75.875 
L 15.828125 75.875 
Q 23.140625 64.359375 26.78125 53.3125 
Q 30.421875 42.28125 30.421875 31.390625 
Q 30.421875 20.453125 26.78125 9.375 
Q 23.140625 -1.703125 15.828125 -13.1875 
L 8.015625 -13.1875 
Q 14.5 -2 17.703125 9.0625 
Q 20.90625 20.125 20.90625 31.390625 
Q 20.90625 42.671875 17.703125 53.65625 
Q 14.5 64.65625 8.015625 75.875 
z
" id="DejaVuSans-29"/>
     </defs>
     <g transform="translate(199.449844 335.860562)scale(0.1 -0.1)">
      <use xlink:href="#DejaVuSans-54"/>
      <use x="61.037109" xlink:href="#DejaVuSans-69"/>
      <use x="88.820312" xlink:href="#DejaVuSans-6d"/>
      <use x="186.232422" xlink:href="#DejaVuSans-65"/>
      <use x="247.755859" xlink:href="#DejaVuSans-20"/>
      <use x="279.542969" xlink:href="#DejaVuSans-28"/>
      <use x="318.556641" xlink:href="#DejaVuSans-6d"/>
      <use x="415.96875" xlink:href="#DejaVuSans-6f"/>
      <use x="477.150391" xlink:href="#DejaVuSans-6e"/>
      <use x="540.529297" xlink:href="#DejaVuSans-74"/>
      <use x="579.738281" xlink:href="#DejaVuSans-68"/>
      <use x="643.117188" xlink:href="#DejaVuSans-73"/>
      <use x="695.216797" xlink:href="#DejaVuSans-29"/>
     </g>
    </g>
   </g>
   <g id="matplotlib.axis_2">
    <g id="ytick_1">
     <g id="line2d_31">
      <path clip-path="url(#pdafdc487e0)" d="M 57.6 307.584 
L 414.72 307.584 
" style="fill:none;stroke:#b0b0b0;stroke-linecap:square;stroke-width:0.8;"/>
     </g>
     <g id="line2d_32">
      <defs>
       <path d="M 0 0 
L -3.5 0 
" id="mb5479135a8" style="stroke:#000000;stroke-width:0.8;"/>
      </defs>
      <g>
       <use style="stroke:#000000;stroke-width:0.8;" x="57.6" xlink:href="#mb5479135a8" y="307.584"/>
      </g>
     </g>
     <g id="text_17">
      <!-- 0.0 -->
      <defs>
       <path d="M 10.6875 12.40625 
L 21 12.40625 
L 21 0 
L 10.6875 0 
z
" id="DejaVuSans-2e"/>
      </defs>
      <g transform="translate(34.696875 311.383219)scale(0.1 -0.1)">
       <use xlink:href="#DejaVuSans-30"/>
       <use x="63.623047" xlink:href="#DejaVuSans-2e"/>
       <use x="95.410156" xlink:href="#DejaVuSans-30"/>
      </g>
     </g>
    </g>
    <g id="ytick_2">
     <g id="line2d_33">
      <path clip-path="url(#pdafdc487e0)" d="M 57.6 254.3616 
L 414.72 254.3616 
" style="fill:none;stroke:#b0b0b0;stroke-linecap:square;stroke-width:0.8;"/>
     </g>
     <g id="line2d_34">
      <g>
       <use style="stroke:#000000;stroke-width:0.8;" x="57.6" xlink:href="#mb5479135a8" y="254.3616"/>
      </g>
     </g>
     <g id="text_18">
      <!-- 0.2 -->
      <g transform="translate(34.696875 258.160819)scale(0.1 -0.1)">
       <use xlink:href="#DejaVuSans-30"/>
       <use x="63.623047" xlink:href="#DejaVuSans-2e"/>
       <use x="95.410156" xlink:href="#DejaVuSans-32"/>
      </g>
     </g>
    </g>
    <g id="ytick_3">
     <g id="line2d_35">
      <path clip-path="url(#pdafdc487e0)" d="M 57.6 201.1392 
L 414.72 201.1392 
" style="fill:none;stroke:#b0b0b0;stroke-linecap:square;stroke-width:0.8;"/>
     </g>
     <g id="line2d_36">
      <g>
       <use style="stroke:#000000;stroke-width:0.8;" x="57.6" xlink:href="#mb5479135a8" y="201.1392"/>
      </g>
     </g>
     <g id="text_19">
      <!-- 0.4 -->
      <g transform="translate(34.696875 204.938419)scale(0.1 -0.1)">
       <use xlink:href="#DejaVuSans-30"/>
       <use x="63.623047" xlink:href="#DejaVuSans-2e"/>
       <use x="95.410156" xlink:href="#DejaVuSans-34"/>
      </g>
     </g>
    </g>
    <g id="ytick_4">
     <g id="line2d_37">
      <path clip-path="url(#pdafdc487e0)" d="M 57.6 147.9168 
L 414.72 147.9168 
" style="fill:none;stroke:#b0b0b0;stroke-linecap:square;stroke-width:0.8;"/>
     </g>
     <g id="line2d_38">
      <g>
       <use style="stroke:#000000;stroke-width:0.8;" x="57.6" xlink:href="#mb5479135a8" y="147.9168"/>
      </g>
     </g>
     <g id="text_20">
      <!-- 0.6 -->
      <g transform="translate(34.696875 151.716019)scale(0.1 -0.1)">
       <use xlink:href="#DejaVuSans-30"/>
       <use x="63.623047" xlink:href="#DejaVuSans-2e"/>
       <use x="95.410156" xlink:href="#DejaVuSans-36"/>
      </g>
     </g>
    </g>
    <g id="ytick_5">
     <g id="line2d_39">
      <path clip-path="url(#pdafdc487e0)" d="M 57.6 94.6944 
L 414.72 94.6944 
" style="fill:none;stroke:#b0b0b0;stroke-linecap:square;stroke-width:0.8;"/>
     </g>
     <g id="line2d_40">
      <g>
       <use style="stroke:#000000;stroke-width:0.8;" x="57.6" xlink:href="#mb5479135a8" y="94.6944"/>
      </g>
     </g>
     <g id="text_21">
      <!-- 0.8 -->
      <g transform="translate(34.696875 98.493619)scale(0.1 -0.1)">
       <use xlink:href="#DejaVuSans-30"/>
       <use x="63.623047" xlink:href="#DejaVuSans-2e"/>
       <use x="95.410156" xlink:href="#DejaVuSans-38"/>
      </g>
     </g>
    </g>
    <g id="ytick_6">
     <g id="line2d_41">
      <path clip-path="url(#pdafdc487e0)" d="M 57.6 41.472 
L 414.72 41.472 
" style="fill:none;stroke:#b0b0b0;stroke-linecap:square;stroke-width:0.8;"/>
     </g>
     <g id="line2d_42">
      <g>
       <use style="stroke:#000000;stroke-width:0.8;" x="57.6" xlink:href="#mb5479135a8" y="41.472"/>
      </g>
     </g>
     <g id="text_22">
      <!-- 1.0 -->
      <g transform="translate(34.696875 45.271219)scale(0.1 -0.1)">
       <use xlink:href="#DejaVuSans-31"/>
       <use x="63.623047" xlink:href="#DejaVuSans-2e"/>
       <use x="95.410156" xlink:href="#DejaVuSans-30"/>
      </g>
     </g>
    </g>
    <g id="text_23">
     <!-- Prevalence (fraction of population) -->
     <defs>
      <path d="M 19.671875 64.796875 
L 19.671875 37.40625 
L 32.078125 37.40625 
Q 38.96875 37.40625 42.71875 40.96875 
Q 46.484375 44.53125 46.484375 51.125 
Q 46.484375 57.671875 42.71875 61.234375 
Q 38.96875 64.796875 32.078125 64.796875 
z
M 9.8125 72.90625 
L 32.078125 72.90625 
Q 44.34375 72.90625 50.609375 67.359375 
Q 56.890625 61.8125 56.890625 51.125 
Q 56.890625 40.328125 50.609375 34.8125 
Q 44.34375 29.296875 32.078125 29.296875 
L 19.671875 29.296875 
L 19.671875 0 
L 9.8125 0 
z
" id="DejaVuSans-50"/>
      <path d="M 41.109375 46.296875 
Q 39.59375 47.171875 37.8125 47.578125 
Q 36.03125 48 33.890625 48 
Q 26.265625 48 22.1875 43.046875 
Q 18.109375 38.09375 18.109375 28.8125 
L 18.109375 0 
L 9.078125 0 
L 9.078125 54.6875 
L 18.109375 54.6875 
L 18.109375 46.1875 
Q 20.953125 51.171875 25.484375 53.578125 
Q 30.03125 56 36.53125 56 
Q 37.453125 56 38.578125 55.875 
Q 39.703125 55.765625 41.0625 55.515625 
z
" id="DejaVuSans-72"/>
      <path d="M 2.984375 54.6875 
L 12.5 54.6875 
L 29.59375 8.796875 
L 46.6875 54.6875 
L 56.203125 54.6875 
L 35.6875 0 
L 23.484375 0 
z
" id="DejaVuSans-76"/>
      <path d="M 34.28125 27.484375 
Q 23.390625 27.484375 19.1875 25 
Q 14.984375 22.515625 14.984375 16.5 
Q 14.984375 11.71875 18.140625 8.90625 
Q 21.296875 6.109375 26.703125 6.109375 
Q 34.1875 6.109375 38.703125 11.40625 
Q 43.21875 16.703125 43.21875 25.484375 
L 43.21875 27.484375 
z
M 52.203125 31.203125 
L 52.203125 0 
L 43.21875 0 
L 43.21875 8.296875 
Q 40.140625 3.328125 35.546875 0.953125 
Q 30.953125 -1.421875 24.3125 -1.421875 
Q 15.921875 -1.421875 10.953125 3.296875 
Q 6 8.015625 6 15.921875 
Q 6 25.140625 12.171875 29.828125 
Q 18.359375 34.515625 30.609375 34.515625 
L 43.21875 34.515625 
L 43.21875 35.40625 
Q 43.21875 41.609375 39.140625 45 
Q 35.0625 48.390625 27.6875 48.390625 
Q 23 48.390625 18.546875 47.265625 
Q 14.109375 46.140625 10.015625 43.890625 
L 10.015625 52.203125 
Q 14.9375 54.109375 19.578125 55.046875 
Q 24.21875 56 28.609375 56 
Q 40.484375 56 46.34375 49.84375 
Q 52.203125 43.703125 52.203125 31.203125 
z
" id="DejaVuSans-61"/>
      <path d="M 9.421875 75.984375 
L 18.40625 75.984375 
L 18.40625 0 
L 9.421875 0 
z
" id="DejaVuSans-6c"/>
      <path d="M 48.78125 52.59375 
L 48.78125 44.1875 
Q 44.96875 46.296875 41.140625 47.34375 
Q 37.3125 48.390625 33.40625 48.390625 
Q 24.65625 48.390625 19.8125 42.84375 
Q 14.984375 37.3125 14.984375 27.296875 
Q 14.984375 17.28125 19.8125 11.734375 
Q 24.65625 6.203125 33.40625 6.203125 
Q 37.3125 6.203125 41.140625 7.25 
Q 44.96875 8.296875 48.78125 10.40625 
L 48.78125 2.09375 
Q 45.015625 0.34375 40.984375 -0.53125 
Q 36.96875 -1.421875 32.421875 -1.421875 
Q 20.0625 -1.421875 12.78125 6.34375 
Q 5.515625 14.109375 5.515625 27.296875 
Q 5.515625 40.671875 12.859375 48.328125 
Q 20.21875 56 33.015625 56 
Q 37.15625 56 41.109375 55.140625 
Q 45.0625 54.296875 48.78125 52.59375 
z
" id="DejaVuSans-63"/>
      <path d="M 37.109375 75.984375 
L 37.109375 68.5 
L 28.515625 68.5 
Q 23.6875 68.5 21.796875 66.546875 
Q 19.921875 64.59375 19.921875 59.515625 
L 19.921875 54.6875 
L 34.71875 54.6875 
L 34.71875 47.703125 
L 19.921875 47.703125 
L 19.921875 0 
L 10.890625 0 
L 10.890625 47.703125 
L 2.296875 47.703125 
L 2.296875 54.6875 
L 10.890625 54.6875 
L 10.890625 58.5 
Q 10.890625 67.625 15.140625 71.796875 
Q 19.390625 75.984375 28.609375 75.984375 
z
" id="DejaVuSans-66"/>
      <path d="M 18.109375 8.203125 
L 18.109375 -20.796875 
L 9.078125 -20.796875 
L 9.078125 54.6875 
L 18.109375 54.6875 
L 18.109375 46.390625 
Q 20.953125 51.265625 25.265625 53.625 
Q 29.59375 56 35.59375 56 
Q 45.5625 56 51.78125 48.09375 
Q 58.015625 40.1875 58.015625 27.296875 
Q 58.015625 14.40625 51.78125 6.484375 
Q 45.5625 -1.421875 35.59375 -1.421875 
Q 29.59375 -1.421875 25.265625 0.953125 
Q 20.953125 3.328125 18.109375 8.203125 
z
M 48.6875 27.296875 
Q 48.6875 37.203125 44.609375 42.84375 
Q 40.53125 48.484375 33.40625 48.484375 
Q 26.265625 48.484375 22.1875 42.84375 
Q 18.109375 37.203125 18.109375 27.296875 
Q 18.109375 17.390625 22.1875 11.75 
Q 26.265625 6.109375 33.40625 6.109375 
Q 40.53125 6.109375 44.609375 11.75 
Q 48.6875 17.390625 48.6875 27.296875 
z
" id="DejaVuSans-70"/>
      <path d="M 8.5 21.578125 
L 8.5 54.6875 
L 17.484375 54.6875 
L 17.484375 21.921875 
Q 17.484375 14.15625 20.5 10.265625 
Q 23.53125 6.390625 29.59375 6.390625 
Q 36.859375 6.390625 41.078125 11.03125 
Q 45.3125 15.671875 45.3125 23.6875 
L 45.3125 54.6875 
L 54.296875 54.6875 
L 54.296875 0 
L 45.3125 0 
L 45.3125 8.40625 
Q 42.046875 3.421875 37.71875 1 
Q 33.40625 -1.421875 27.6875 -1.421875 
Q 18.265625 -1.421875 13.375 4.4375 
Q 8.5 10.296875 8.5 21.578125 
z
M 31.109375 56 
z
" id="DejaVuSans-75"/>
     </defs>
     <g transform="translate(28.617187 261.457688)rotate(-90)scale(0.1 -0.1)">
      <use xlink:href="#DejaVuSans-50"/>
      <use x="60.287109" xlink:href="#DejaVuSans-72"/>
      <use x="101.369141" xlink:href="#DejaVuSans-65"/>
      <use x="162.892578" xlink:href="#DejaVuSans-76"/>
      <use x="222.072266" xlink:href="#DejaVuSans-61"/>
      <use x="283.351562" xlink:href="#DejaVuSans-6c"/>
      <use x="311.134766" xlink:href="#DejaVuSans-65"/>
      <use x="372.658203" xlink:href="#DejaVuSans-6e"/>
      <use x="436.037109" xlink:href="#DejaVuSans-63"/>
      <use x="491.017578" xlink:href="#DejaVuSans-65"/>
      <use x="552.541016" xlink:href="#DejaVuSans-20"/>
      <use x="584.328125" xlink:href="#DejaVuSans-28"/>
      <use x="623.341797" xlink:href="#DejaVuSans-66"/>
      <use x="658.546875" xlink:href="#DejaVuSans-72"/>
      <use x="699.660156" xlink:href="#DejaVuSans-61"/>
      <use x="760.939453" xlink:href="#DejaVuSans-63"/>
      <use x="815.919922" xlink:href="#DejaVuSans-74"/>
      <use x="855.128906" xlink:href="#DejaVuSans-69"/>
      <use x="882.912109" xlink:href="#DejaVuSans-6f"/>
      <use x="944.09375" xlink:href="#DejaVuSans-6e"/>
      <use x="1007.472656" xlink:href="#DejaVuSans-20"/>
      <use x="1039.259766" xlink:href="#DejaVuSans-6f"/>
      <use x="1100.441406" xlink:href="#DejaVuSans-66"/>
      <use x="1135.646484" xlink:href="#DejaVuSans-20"/>
      <use x="1167.433594" xlink:href="#DejaVuSans-70"/>
      <use x="1230.910156" xlink:href="#DejaVuSans-6f"/>
      <use x="1292.091797" xlink:href="#DejaVuSans-70"/>
      <use x="1355.568359" xlink:href="#DejaVuSans-75"/>
      <use x="1418.947266" xlink:href="#DejaVuSans-6c"/>
      <use x="1446.730469" xlink:href="#DejaVuSans-61"/>
      <use x="1508.009766" xlink:href="#DejaVuSans-74"/>
      <use x="1547.21875" xlink:href="#DejaVuSans-69"/>
      <use x="1575.001953" xlink:href="#DejaVuSans-6f"/>
      <use x="1636.183594" xlink:href="#DejaVuSans-6e"/>
      <use x="1699.5625" xlink:href="#DejaVuSans-29"/>
     </g>
    </g>
   </g>
   <g id="line2d_43">
    <path clip-path="url(#pdafdc487e0)" d="M 57.179859 187.8336 
L 107.5968 187.8336 
L 108.016941 221.0976 
L 414.299859 221.0976 
L 414.299859 221.0976 
" style="fill:none;stroke:#1f77b4;stroke-linecap:square;stroke-width:1.5;"/>
   </g>
   <g id="line2d_44">
    <path clip-path="url(#pdafdc487e0)" d="M 57.179859 212.049792 
L 57.6 212.582016 
L 58.020141 212.049792 
L 58.440282 215.243136 
L 58.860424 213.912576 
L 59.280565 213.11424 
L 59.700706 211.78368 
L 60.120847 213.11424 
L 60.540988 209.388672 
L 60.961129 208.324224 
L 61.381271 208.058112 
L 61.801412 207.525888 
L 62.221553 206.195328 
L 62.641694 210.45312 
L 63.061835 211.251456 
L 63.481976 206.727552 
L 63.902118 205.13088 
L 64.322259 205.929216 
L 64.7424 204.864768 
L 65.162541 201.671424 
L 65.582682 204.864768 
L 66.002824 204.864768 
L 66.422965 206.727552 
L 66.843106 206.195328 
L 67.263247 208.324224 
L 67.683388 208.058112 
L 68.103529 209.388672 
L 68.523671 212.582016 
L 68.943812 212.582016 
L 69.363953 209.920896 
L 69.784094 210.187008 
L 70.624376 209.12256 
L 71.044518 211.517568 
L 71.8848 213.912576 
L 72.304941 212.049792 
L 72.725082 213.380352 
L 73.145224 210.985344 
L 73.565365 211.78368 
L 73.985506 210.45312 
L 74.825788 212.049792 
L 75.245929 209.388672 
L 75.666071 207.525888 
L 76.086212 208.324224 
L 76.506353 208.856448 
L 76.926494 206.195328 
L 77.346635 204.598656 
L 77.766776 205.13088 
L 78.186918 208.058112 
L 78.607059 209.920896 
L 79.0272 209.12256 
L 79.447341 212.315904 
L 79.867482 212.315904 
L 80.287624 211.78368 
L 80.707765 212.848128 
L 81.127906 216.839808 
L 81.548047 217.372032 
L 81.968188 217.372032 
L 82.808471 213.646464 
L 83.228612 208.590336 
L 83.648753 205.929216 
L 84.068894 206.195328 
L 84.489035 208.590336 
L 84.909176 207.525888 
L 85.329318 211.517568 
L 85.749459 211.517568 
L 86.1696 205.396992 
L 86.589741 206.195328 
L 87.430024 209.920896 
L 87.850165 209.388672 
L 88.270306 213.380352 
L 88.690447 213.646464 
L 89.110588 210.719232 
L 89.530729 211.251456 
L 89.950871 212.848128 
L 90.371012 213.646464 
L 90.791153 214.710912 
L 91.211294 217.638144 
L 91.631435 216.307584 
L 92.471718 211.517568 
L 92.891859 211.517568 
L 93.732141 213.646464 
L 94.152282 213.646464 
L 94.572424 215.243136 
L 94.992565 215.77536 
L 95.412706 214.710912 
L 95.832847 212.315904 
L 96.252988 212.049792 
L 96.673129 210.45312 
L 97.093271 212.049792 
L 97.513412 212.848128 
L 97.933553 214.178688 
L 98.353694 218.702592 
L 98.773835 219.234816 
L 99.193976 214.710912 
L 99.614118 217.904256 
L 100.4544 219.76704 
L 100.874541 216.041472 
L 101.294682 216.041472 
L 102.134965 209.12256 
L 102.555106 207.525888 
L 102.975247 207.792 
L 103.395388 205.663104 
L 103.815529 208.324224 
L 104.235671 209.654784 
L 104.655812 208.590336 
L 105.075953 212.315904 
L 105.496094 212.582016 
L 105.916235 209.654784 
L 106.336376 212.049792 
L 106.756518 212.582016 
L 107.176659 209.920896 
L 107.5968 212.582016 
L 108.437082 226.952064 
L 109.277365 240.523776 
L 109.697506 243.184896 
L 110.117647 241.056 
L 110.957929 238.39488 
L 111.378071 237.862656 
L 112.218353 238.927104 
L 112.638494 240.257664 
L 113.058635 238.128768 
L 113.478776 234.669312 
L 113.898918 233.604864 
L 114.319059 231.475968 
L 114.7392 230.145408 
L 115.159341 230.943744 
L 115.579482 232.008192 
L 116.419765 226.41984 
L 116.839906 226.952064 
L 117.260047 225.355392 
L 117.680188 225.355392 
L 118.100329 226.952064 
L 118.520471 224.823168 
L 118.940612 225.08928 
L 119.360753 222.42816 
L 119.780894 222.694272 
L 120.201035 221.895936 
L 120.621176 221.895936 
L 121.041318 220.831488 
L 121.461459 222.42816 
L 121.8816 221.895936 
L 122.301741 219.234816 
L 122.721882 220.831488 
L 123.142024 218.968704 
L 123.562165 218.968704 
L 123.982306 217.10592 
L 124.402447 216.041472 
L 124.822588 216.573696 
L 125.662871 219.234816 
L 126.503153 216.839808 
L 127.343435 211.251456 
L 127.763576 210.719232 
L 128.183718 212.848128 
L 128.603859 213.380352 
L 129.024 210.719232 
L 129.444141 211.517568 
L 129.864282 210.719232 
L 130.284424 211.251456 
L 130.704565 210.985344 
L 131.124706 212.049792 
L 131.544847 214.178688 
L 132.385129 213.11424 
L 133.225412 213.646464 
L 133.645553 212.315904 
L 134.065694 211.78368 
L 134.485835 212.315904 
L 135.326118 209.388672 
L 135.746259 209.654784 
L 136.1664 209.388672 
L 136.586541 210.45312 
L 137.006682 212.049792 
L 137.846965 210.985344 
L 138.267106 209.920896 
L 138.687247 210.187008 
L 139.107388 208.856448 
L 139.527529 209.654784 
L 139.947671 207.525888 
L 140.367812 208.590336 
L 140.787953 206.46144 
L 141.208094 207.259776 
L 141.628235 207.525888 
L 142.048376 209.12256 
L 142.468518 208.590336 
L 142.888659 210.719232 
L 144.149082 214.178688 
L 144.569224 213.11424 
L 144.989365 214.710912 
L 145.409506 214.4448 
L 145.829647 215.77536 
L 146.249788 214.4448 
L 146.669929 214.710912 
L 147.090071 213.380352 
L 147.510212 216.307584 
L 148.350494 210.985344 
L 148.770635 210.45312 
L 149.190776 209.12256 
L 149.610918 209.12256 
L 150.4512 211.517568 
L 150.871341 209.12256 
L 151.711624 213.11424 
L 152.551906 213.11424 
L 152.972047 211.517568 
L 153.392188 210.985344 
L 153.812329 209.388672 
L 154.232471 209.388672 
L 154.652612 205.929216 
L 155.072753 205.663104 
L 155.492894 206.46144 
L 155.913035 206.727552 
L 156.333176 205.396992 
L 156.753318 206.993664 
L 157.173459 207.525888 
L 157.5936 206.46144 
L 158.013741 206.46144 
L 158.433882 206.993664 
L 158.854024 205.396992 
L 159.274165 206.46144 
L 159.694306 205.663104 
L 160.534588 208.856448 
L 160.954729 209.388672 
L 161.374871 209.12256 
L 161.795012 208.324224 
L 162.215153 209.12256 
L 162.635294 209.12256 
L 163.055435 208.324224 
L 163.475576 206.727552 
L 163.895718 207.259776 
L 164.315859 206.195328 
L 165.156141 205.13088 
L 165.576282 204.864768 
L 165.996424 204.066432 
L 166.416565 204.066432 
L 166.836706 205.13088 
L 167.256847 205.396992 
L 167.676988 202.735872 
L 168.097129 204.598656 
L 168.517271 207.525888 
L 168.937412 204.598656 
L 169.357553 204.066432 
L 169.777694 207.259776 
L 170.197835 206.993664 
L 170.617976 204.598656 
L 171.038118 208.856448 
L 171.458259 210.719232 
L 171.8784 211.251456 
L 172.298541 210.985344 
L 172.718682 211.78368 
L 173.138824 209.12256 
L 173.558965 211.251456 
L 174.399247 208.590336 
L 174.819388 208.590336 
L 175.239529 208.058112 
L 176.079812 207.525888 
L 176.499953 206.46144 
L 176.920094 206.46144 
L 177.340235 205.929216 
L 177.760376 204.864768 
L 178.180518 205.663104 
L 178.600659 204.066432 
L 180.281224 212.049792 
L 180.701365 212.049792 
L 181.121506 209.654784 
L 181.541647 212.049792 
L 181.961788 212.315904 
L 182.381929 213.11424 
L 182.802071 209.654784 
L 183.222212 208.856448 
L 183.642353 208.324224 
L 184.062494 206.46144 
L 184.482635 206.195328 
L 184.902776 206.195328 
L 186.1632 209.12256 
L 186.583341 208.058112 
L 187.003482 208.324224 
L 187.423624 204.066432 
L 187.843765 205.929216 
L 188.263906 205.396992 
L 188.684047 206.46144 
L 189.104188 205.663104 
L 189.524329 206.727552 
L 189.944471 205.929216 
L 191.204894 209.388672 
L 191.625035 210.985344 
L 192.045176 210.45312 
L 192.465318 211.517568 
L 193.3056 209.12256 
L 193.725741 206.727552 
L 194.145882 207.525888 
L 194.566024 207.792 
L 194.986165 210.45312 
L 195.406306 209.388672 
L 195.826447 210.985344 
L 196.246588 210.985344 
L 196.666729 209.920896 
L 197.086871 206.993664 
L 197.507012 206.195328 
L 197.927153 204.332544 
L 198.347294 204.332544 
L 198.767435 203.268096 
L 199.187576 205.396992 
L 199.607718 203.534208 
L 200.027859 203.268096 
L 200.448 202.203648 
L 200.868141 201.671424 
L 201.288282 201.937536 
L 202.128565 204.332544 
L 202.548706 201.671424 
L 202.968847 202.203648 
L 203.388988 203.268096 
L 204.229271 203.268096 
L 204.649412 202.735872 
L 205.069553 201.937536 
L 205.489694 199.80864 
L 205.909835 201.405312 
L 206.329976 202.203648 
L 206.750118 204.066432 
L 207.170259 204.332544 
L 208.010541 205.929216 
L 208.850824 201.1392 
L 209.270965 202.46976 
L 210.111247 202.46976 
L 210.531388 203.534208 
L 210.951529 206.195328 
L 211.371671 207.792 
L 211.791812 207.792 
L 212.211953 208.324224 
L 212.632094 207.792 
L 213.052235 207.792 
L 213.472376 206.727552 
L 213.892518 208.590336 
L 214.312659 208.590336 
L 214.7328 207.525888 
L 215.152941 209.654784 
L 215.993224 211.78368 
L 216.413365 209.388672 
L 216.833506 208.324224 
L 217.253647 206.195328 
L 217.673788 205.13088 
L 218.093929 202.203648 
L 218.514071 201.1392 
L 218.934212 201.405312 
L 219.354353 202.203648 
L 219.774494 201.671424 
L 220.194635 201.405312 
L 220.614776 201.405312 
L 221.455059 203.80032 
L 221.8752 203.80032 
L 222.295341 203.534208 
L 222.715482 202.46976 
L 223.135624 203.001984 
L 223.975906 203.534208 
L 224.396047 203.268096 
L 224.816188 204.066432 
L 225.236329 203.534208 
L 225.656471 204.066432 
L 226.076612 202.203648 
L 226.496753 205.396992 
L 226.916894 203.80032 
L 227.337035 203.268096 
L 227.757176 202.46976 
L 228.177318 202.735872 
L 228.597459 200.873088 
L 229.0176 201.1392 
L 229.437741 201.671424 
L 229.857882 201.937536 
L 230.278024 201.937536 
L 231.118306 196.083072 
L 231.538447 196.349184 
L 231.958588 198.211968 
L 232.378729 199.010304 
L 232.798871 201.405312 
L 233.219012 205.396992 
L 233.639153 204.066432 
L 234.059294 205.663104 
L 234.479435 204.066432 
L 234.899576 204.598656 
L 235.319718 203.80032 
L 235.739859 203.268096 
L 236.16 201.937536 
L 236.580141 202.203648 
L 237.000282 201.1392 
L 237.420424 201.937536 
L 237.840565 202.203648 
L 238.260706 201.937536 
L 239.100988 203.001984 
L 239.521129 203.268096 
L 239.941271 203.001984 
L 240.361412 203.268096 
L 240.781553 205.396992 
L 241.201694 205.396992 
L 241.621835 203.80032 
L 242.041976 203.534208 
L 242.462118 204.332544 
L 242.882259 202.46976 
L 243.722541 204.332544 
L 244.142682 204.332544 
L 244.562824 203.268096 
L 244.982965 204.332544 
L 245.403106 204.066432 
L 245.823247 203.001984 
L 246.243388 201.405312 
L 246.663529 200.606976 
L 247.083671 200.074752 
L 247.503812 200.074752 
L 247.923953 200.606976 
L 248.344094 204.864768 
L 248.764235 204.598656 
L 249.184376 204.598656 
L 249.604518 203.268096 
L 250.024659 200.074752 
L 250.4448 199.542528 
L 250.864941 199.542528 
L 251.285082 201.937536 
L 251.705224 201.937536 
L 252.965647 208.856448 
L 253.385788 208.856448 
L 253.805929 208.324224 
L 254.226071 209.920896 
L 254.646212 206.993664 
L 255.066353 206.993664 
L 255.486494 208.856448 
L 255.906635 209.12256 
L 256.326776 209.12256 
L 256.746918 210.45312 
L 257.167059 209.388672 
L 257.5872 206.46144 
L 258.007341 207.259776 
L 258.427482 208.856448 
L 258.847624 203.80032 
L 259.267765 202.203648 
L 259.687906 202.46976 
L 260.108047 201.1392 
L 260.528188 197.945856 
L 260.948329 200.873088 
L 261.368471 202.735872 
L 261.788612 203.80032 
L 262.208753 204.066432 
L 262.628894 207.792 
L 263.049035 205.929216 
L 263.469176 207.525888 
L 263.889318 208.590336 
L 264.309459 210.45312 
L 264.7296 211.517568 
L 265.149741 213.380352 
L 265.569882 212.848128 
L 265.990024 212.049792 
L 266.410165 209.388672 
L 266.830306 213.380352 
L 267.670588 213.380352 
L 268.090729 214.4448 
L 268.510871 214.977024 
L 268.931012 214.710912 
L 269.351153 215.77536 
L 269.771294 213.11424 
L 270.191435 212.315904 
L 270.611576 210.985344 
L 271.031718 209.12256 
L 271.451859 208.856448 
L 271.872 209.654784 
L 272.292141 207.259776 
L 272.712282 207.259776 
L 273.132424 207.792 
L 273.972706 208.324224 
L 274.392847 207.792 
L 274.812988 209.654784 
L 275.233129 208.856448 
L 276.073412 208.324224 
L 276.493553 205.929216 
L 276.913694 205.663104 
L 277.333835 205.929216 
L 277.753976 206.993664 
L 278.174118 208.590336 
L 278.594259 210.985344 
L 279.434541 208.856448 
L 279.854682 209.388672 
L 280.694965 207.792 
L 281.115106 205.663104 
L 281.535247 206.993664 
L 281.955388 205.13088 
L 282.375529 206.46144 
L 282.795671 206.727552 
L 283.215812 208.324224 
L 283.635953 207.525888 
L 284.056094 207.792 
L 284.476235 204.332544 
L 284.896376 205.13088 
L 285.316518 205.663104 
L 285.736659 205.929216 
L 286.1568 205.396992 
L 286.576941 208.590336 
L 286.997082 206.195328 
L 287.417224 204.598656 
L 287.837365 204.066432 
L 288.257506 200.340864 
L 288.677647 199.542528 
L 289.097788 197.679744 
L 289.517929 198.47808 
L 289.938071 197.14752 
L 290.358212 196.615296 
L 290.778353 198.47808 
L 291.198494 198.744192 
L 291.618635 196.083072 
L 292.458918 197.14752 
L 292.879059 199.010304 
L 293.2992 199.80864 
L 293.719341 199.80864 
L 294.139482 201.671424 
L 294.559624 202.203648 
L 295.399906 202.203648 
L 295.820047 201.937536 
L 296.240188 200.074752 
L 296.660329 199.80864 
L 297.080471 199.010304 
L 297.920753 201.405312 
L 298.340894 203.268096 
L 298.761035 204.332544 
L 299.181176 207.792 
L 299.601318 205.929216 
L 300.021459 205.929216 
L 300.4416 207.259776 
L 300.861741 205.13088 
L 301.281882 204.332544 
L 301.702024 207.259776 
L 302.122165 205.663104 
L 302.542306 206.46144 
L 302.962447 205.396992 
L 303.382588 208.058112 
L 304.222871 205.663104 
L 304.643012 205.663104 
L 305.063153 204.332544 
L 305.483294 204.332544 
L 305.903435 203.80032 
L 306.323576 206.195328 
L 306.743718 205.13088 
L 307.163859 205.396992 
L 307.584 204.066432 
L 308.004141 204.598656 
L 308.424282 203.534208 
L 308.844424 204.864768 
L 309.684706 204.332544 
L 310.104847 204.864768 
L 310.524988 202.735872 
L 310.945129 203.001984 
L 311.365271 200.606976 
L 311.785412 200.074752 
L 312.205553 199.010304 
L 312.625694 199.542528 
L 313.045835 198.744192 
L 313.465976 201.1392 
L 313.886118 200.606976 
L 314.306259 200.873088 
L 314.7264 203.80032 
L 315.146541 202.735872 
L 315.566682 202.203648 
L 315.986824 201.937536 
L 316.406965 204.332544 
L 316.827106 205.13088 
L 317.247247 205.396992 
L 317.667388 207.259776 
L 318.507671 213.646464 
L 318.927812 213.380352 
L 319.347953 212.315904 
L 319.768094 212.848128 
L 320.188235 212.315904 
L 320.608376 213.380352 
L 321.028518 212.315904 
L 321.448659 213.646464 
L 321.8688 215.509248 
L 322.288941 212.315904 
L 322.709082 210.187008 
L 323.129224 209.920896 
L 323.549365 210.719232 
L 323.969506 211.251456 
L 324.809788 210.719232 
L 325.229929 208.324224 
L 325.650071 207.525888 
L 326.070212 207.525888 
L 326.490353 206.993664 
L 326.910494 205.663104 
L 327.330635 206.46144 
L 327.750776 207.792 
L 328.170918 203.534208 
L 328.591059 203.268096 
L 329.0112 204.332544 
L 329.431341 203.80032 
L 329.851482 204.332544 
L 330.271624 206.46144 
L 330.691765 206.46144 
L 331.111906 204.864768 
L 331.532047 205.13088 
L 331.952188 205.13088 
L 332.372329 205.929216 
L 332.792471 204.864768 
L 333.212612 206.727552 
L 333.632753 206.993664 
L 334.052894 204.598656 
L 334.473035 205.663104 
L 334.893176 207.259776 
L 335.313318 206.727552 
L 336.573741 202.46976 
L 336.993882 202.735872 
L 337.414024 203.268096 
L 337.834165 203.268096 
L 338.254306 202.735872 
L 338.674447 203.001984 
L 339.514729 205.929216 
L 339.934871 205.929216 
L 340.355012 204.066432 
L 340.775153 203.268096 
L 341.195294 203.534208 
L 341.615435 203.268096 
L 342.035576 204.066432 
L 342.455718 203.80032 
L 342.875859 204.066432 
L 343.296 202.203648 
L 343.716141 202.203648 
L 344.136282 200.873088 
L 344.556424 201.671424 
L 344.976565 205.13088 
L 345.396706 205.929216 
L 346.236988 209.12256 
L 346.657129 209.920896 
L 347.077271 209.920896 
L 347.497412 210.45312 
L 347.917553 212.049792 
L 348.337694 212.049792 
L 349.177976 210.45312 
L 349.598118 207.792 
L 350.018259 208.058112 
L 350.4384 209.12256 
L 351.278682 202.735872 
L 351.698824 201.671424 
L 352.118965 199.80864 
L 352.539106 199.276416 
L 352.959247 199.80864 
L 353.379388 202.735872 
L 353.799529 204.598656 
L 354.219671 203.80032 
L 354.639812 203.268096 
L 355.059953 203.80032 
L 355.900235 201.937536 
L 356.320376 203.268096 
L 356.740518 202.203648 
L 357.160659 199.80864 
L 357.5808 199.276416 
L 358.000941 199.010304 
L 358.421082 198.47808 
L 358.841224 200.606976 
L 359.681506 202.46976 
L 360.101647 201.671424 
L 360.521788 202.735872 
L 360.941929 201.937536 
L 361.362071 203.534208 
L 361.782212 204.066432 
L 362.202353 204.332544 
L 362.622494 205.396992 
L 363.462776 204.332544 
L 363.882918 202.203648 
L 364.303059 202.203648 
L 364.7232 203.001984 
L 365.143341 204.864768 
L 365.563482 201.671424 
L 365.983624 200.873088 
L 366.403765 200.606976 
L 366.823906 199.542528 
L 367.244047 197.945856 
L 367.664188 199.542528 
L 368.084329 204.066432 
L 368.504471 202.735872 
L 368.924612 202.46976 
L 369.344753 201.671424 
L 369.764894 203.80032 
L 370.185035 202.46976 
L 370.605176 203.001984 
L 371.025318 204.598656 
L 371.445459 204.332544 
L 371.8656 203.001984 
L 372.705882 202.46976 
L 373.126024 201.1392 
L 373.546165 201.937536 
L 373.966306 203.001984 
L 374.386447 201.405312 
L 374.806588 201.671424 
L 375.646871 203.268096 
L 376.067012 202.46976 
L 376.907294 203.001984 
L 377.327435 204.864768 
L 377.747576 202.735872 
L 378.167718 202.46976 
L 378.587859 202.46976 
L 379.008 201.405312 
L 379.428141 201.1392 
L 379.848282 204.066432 
L 380.268424 202.735872 
L 380.688565 203.268096 
L 381.528847 207.792 
L 381.948988 204.864768 
L 382.789271 205.396992 
L 383.209412 203.001984 
L 383.629553 203.80032 
L 384.049694 204.864768 
L 384.469835 204.066432 
L 384.889976 204.864768 
L 385.310118 205.396992 
L 385.730259 204.332544 
L 386.570541 203.268096 
L 386.990682 201.1392 
L 387.410824 200.873088 
L 387.830965 197.679744 
L 388.251106 198.47808 
L 388.671247 198.744192 
L 389.091388 200.074752 
L 389.511529 198.47808 
L 389.931671 199.80864 
L 390.351812 200.606976 
L 390.771953 200.340864 
L 391.192094 200.873088 
L 391.612235 201.937536 
L 392.032376 202.203648 
L 392.452518 202.735872 
L 392.872659 203.001984 
L 393.2928 204.598656 
L 393.712941 204.598656 
L 394.133082 207.259776 
L 394.553224 206.46144 
L 394.973365 206.727552 
L 395.393506 206.727552 
L 395.813647 204.598656 
L 396.233788 204.332544 
L 396.653929 204.864768 
L 397.074071 205.663104 
L 397.494212 205.663104 
L 397.914353 204.864768 
L 398.334494 203.80032 
L 398.754635 203.80032 
L 399.174776 204.066432 
L 399.594918 205.396992 
L 400.015059 204.864768 
L 400.4352 205.929216 
L 400.855341 205.663104 
L 401.275482 203.534208 
L 401.695624 204.332544 
L 402.115765 204.864768 
L 402.535906 205.929216 
L 403.376188 203.534208 
L 403.796329 205.929216 
L 404.216471 205.13088 
L 404.636612 205.663104 
L 405.056753 203.80032 
L 405.476894 203.268096 
L 405.897035 199.80864 
L 406.317176 200.340864 
L 406.737318 199.276416 
L 407.5776 203.001984 
L 407.997741 203.001984 
L 408.417882 201.671424 
L 408.838024 201.937536 
L 409.258165 201.937536 
L 409.678306 199.010304 
L 410.098447 197.679744 
L 410.518588 197.945856 
L 410.938729 199.010304 
L 411.358871 199.276416 
L 411.779012 200.074752 
L 412.199153 199.80864 
L 412.619294 199.80864 
L 413.039435 197.679744 
L 413.459576 200.606976 
L 414.299859 204.332544 
L 414.299859 204.332544 
" style="fill:none;stroke:#ff7f0e;stroke-linecap:square;stroke-width:1.5;"/>
   </g>
   <g id="line2d_45">
    <defs>
     <path d="M 0 1.5 
C 0.397805 1.5 0.77937 1.341951 1.06066 1.06066 
C 1.341951 0.77937 1.5 0.397805 1.5 0 
C 1.5 -0.397805 1.341951 -0.77937 1.06066 -1.06066 
C 0.77937 -1.341951 0.397805 -1.5 0 -1.5 
C -0.397805 -1.5 -0.77937 -1.341951 -1.06066 -1.06066 
C -1.341951 -0.77937 -1.5 -0.397805 -1.5 0 
C -1.5 0.397805 -1.341951 0.77937 -1.06066 1.06066 
C -0.77937 1.341951 -0.397805 1.5 0 1.5 
z
" id="m796cca8f22" style="stroke:#2ca02c;"/>
    </defs>
    <g clip-path="url(#pdafdc487e0)">
     <use style="fill:#2ca02c;stroke:#2ca02c;" x="108.016941" xlink:href="#m796cca8f22" y="174.528"/>
    </g>
   </g>
   <g id="line2d_46">
    <defs>
     <path d="M 0 1.5 
C 0.397805 1.5 0.77937 1.341951 1.06066 1.06066 
C 1.341951 0.77937 1.5 0.397805 1.5 0 
C 1.5 -0.397805 1.341951 -0.77937 1.06066 -1.06066 
C 0.77937 -1.341951 0.397805 -1.5 0 -1.5 
C -0.397805 -1.5 -0.77937 -1.341951 -1.06066 -1.06066 
C -1.341951 -0.77937 -1.5 -0.397805 -1.5 0 
C -1.5 0.397805 -1.341951 0.77937 -1.06066 1.06066 
C -0.77937 1.341951 -0.397805 1.5 0 1.5 
z
" id="m95392f58d2" style="stroke:#d62728;"/>
    </defs>
    <g clip-path="url(#pdafdc487e0)">
     <use style="fill:#d62728;stroke:#d62728;" x="108.016941" xlink:href="#m95392f58d2" y="147.9168"/>
    </g>
   </g>
   <g id="line2d_47">
    <defs>
     <path d="M 0 1.5 
C 0.397805 1.5 0.77937 1.341951 1.06066 1.06066 
C 1.341951 0.77937 1.5 0.397805 1.5 0 
C 1.5 -0.397805 1.341951 -0.77937 1.06066 -1.06066 
C 0.77937 -1.341951 0.397805 -1.5 0 -1.5 
C -0.397805 -1.5 -0.77937 -1.341951 -1.06066 -1.06066 
C -1.341951 -0.77937 -1.5 -0.397805 -1.5 0 
C -1.5 0.397805 -1.341951 0.77937 -1.06066 1.06066 
C -0.77937 1.341951 -0.397805 1.5 0 1.5 
z
" id="mfa64b6f5e5" style="stroke:#9467bd;"/>
    </defs>
    <g clip-path="url(#pdafdc487e0)">
     <use style="fill:#9467bd;stroke:#9467bd;" x="108.016941" xlink:href="#mfa64b6f5e5" y="121.3056"/>
    </g>
   </g>
   <g id="patch_3">
    <path d="M 57.6 307.584 
L 57.6 41.472 
" style="fill:none;stroke:#000000;stroke-linecap:square;stroke-linejoin:miter;stroke-width:0.8;"/>
   </g>
   <g id="patch_4">
    <path d="M 414.72 307.584 
L 414.72 41.472 
" style="fill:none;stroke:#000000;stroke-linecap:square;stroke-linejoin:miter;stroke-width:0.8;"/>
   </g>
   <g id="patch_5">
    <path d="M 57.6 307.584 
L 414.72 307.584 
" style="fill:none;stroke:#000000;stroke-linecap:square;stroke-linejoin:miter;stroke-width:0.8;"/>
   </g>
   <g id="patch_6">
    <path d="M 57.6 41.472 
L 414.72 41.472 
" style="fill:none;stroke:#000000;stroke-linecap:square;stroke-linejoin:miter;stroke-width:0.8;"/>
   </g>
   <g id="text_24">
    <!-- t_pzq: 2016-04-01 -->
    <defs>
     <path d="M 50.984375 -16.609375 
L 50.984375 -23.578125 
L -0.984375 -23.578125 
L -0.984375 -16.609375 
z
" id="DejaVuSans-5f"/>
     <path d="M 5.515625 54.6875 
L 48.1875 54.6875 
L 48.1875 46.484375 
L 14.40625 7.171875 
L 48.1875 7.171875 
L 48.1875 0 
L 4.296875 0 
L 4.296875 8.203125 
L 38.09375 47.515625 
L 5.515625 47.515625 
z
" id="DejaVuSans-7a"/>
     <path d="M 14.796875 27.296875 
Q 14.796875 17.390625 18.875 11.75 
Q 22.953125 6.109375 30.078125 6.109375 
Q 37.203125 6.109375 41.296875 11.75 
Q 45.40625 17.390625 45.40625 27.296875 
Q 45.40625 37.203125 41.296875 42.84375 
Q 37.203125 48.484375 30.078125 48.484375 
Q 22.953125 48.484375 18.875 42.84375 
Q 14.796875 37.203125 14.796875 27.296875 
z
M 45.40625 8.203125 
Q 42.578125 3.328125 38.25 0.953125 
Q 33.9375 -1.421875 27.875 -1.421875 
Q 17.96875 -1.421875 11.734375 6.484375 
Q 5.515625 14.40625 5.515625 27.296875 
Q 5.515625 40.1875 11.734375 48.09375 
Q 17.96875 56 27.875 56 
Q 33.9375 56 38.25 53.625 
Q 42.578125 51.265625 45.40625 46.390625 
L 45.40625 54.6875 
L 54.390625 54.6875 
L 54.390625 -20.796875 
L 45.40625 -20.796875 
z
" id="DejaVuSans-71"/>
     <path d="M 11.71875 12.40625 
L 22.015625 12.40625 
L 22.015625 0 
L 11.71875 0 
z
M 11.71875 51.703125 
L 22.015625 51.703125 
L 22.015625 39.3125 
L 11.71875 39.3125 
z
" id="DejaVuSans-3a"/>
     <path d="M 4.890625 31.390625 
L 31.203125 31.390625 
L 31.203125 23.390625 
L 4.890625 23.390625 
z
" id="DejaVuSans-2d"/>
    </defs>
    <g transform="translate(113.264999 237.074341)rotate(-45)scale(0.1 -0.1)">
     <use xlink:href="#DejaVuSans-74"/>
     <use x="39.208984" xlink:href="#DejaVuSans-5f"/>
     <use x="89.208984" xlink:href="#DejaVuSans-70"/>
     <use x="152.685547" xlink:href="#DejaVuSans-7a"/>
     <use x="205.175781" xlink:href="#DejaVuSans-71"/>
     <use x="268.652344" xlink:href="#DejaVuSans-3a"/>
     <use x="302.34375" xlink:href="#DejaVuSans-20"/>
     <use x="334.130859" xlink:href="#DejaVuSans-32"/>
     <use x="397.753906" xlink:href="#DejaVuSans-30"/>
     <use x="461.376953" xlink:href="#DejaVuSans-31"/>
     <use x="525" xlink:href="#DejaVuSans-36"/>
     <use x="588.623047" xlink:href="#DejaVuSans-2d"/>
     <use x="624.707031" xlink:href="#DejaVuSans-30"/>
     <use x="688.330078" xlink:href="#DejaVuSans-34"/>
     <use x="751.953125" xlink:href="#DejaVuSans-2d"/>
     <use x="788.037109" xlink:href="#DejaVuSans-30"/>
     <use x="851.660156" xlink:href="#DejaVuSans-31"/>
    </g>
   </g>
   <g id="text_25">
    <!-- t_net: 2016-04-01 -->
    <g transform="translate(113.264999 209.378174)rotate(-45)scale(0.1 -0.1)">
     <use xlink:href="#DejaVuSans-74"/>
     <use x="39.208984" xlink:href="#DejaVuSans-5f"/>
     <use x="89.208984" xlink:href="#DejaVuSans-6e"/>
     <use x="152.587891" xlink:href="#DejaVuSans-65"/>
     <use x="214.111328" xlink:href="#DejaVuSans-74"/>
     <use x="253.320312" xlink:href="#DejaVuSans-3a"/>
     <use x="287.011719" xlink:href="#DejaVuSans-20"/>
     <use x="318.798828" xlink:href="#DejaVuSans-32"/>
     <use x="382.421875" xlink:href="#DejaVuSans-30"/>
     <use x="446.044922" xlink:href="#DejaVuSans-31"/>
     <use x="509.667969" xlink:href="#DejaVuSans-36"/>
     <use x="573.291016" xlink:href="#DejaVuSans-2d"/>
     <use x="609.375" xlink:href="#DejaVuSans-30"/>
     <use x="672.998047" xlink:href="#DejaVuSans-34"/>
     <use x="736.621094" xlink:href="#DejaVuSans-2d"/>
     <use x="772.705078" xlink:href="#DejaVuSans-30"/>
     <use x="836.328125" xlink:href="#DejaVuSans-31"/>
    </g>
   </g>
   <g id="text_26">
    <!-- t_spray: 2016-04-01 -->
    <defs>
     <path d="M 32.171875 -5.078125 
Q 28.375 -14.84375 24.75 -17.8125 
Q 21.140625 -20.796875 15.09375 -20.796875 
L 7.90625 -20.796875 
L 7.90625 -13.28125 
L 13.1875 -13.28125 
Q 16.890625 -13.28125 18.9375 -11.515625 
Q 21 -9.765625 23.484375 -3.21875 
L 25.09375 0.875 
L 2.984375 54.6875 
L 12.5 54.6875 
L 29.59375 11.921875 
L 46.6875 54.6875 
L 56.203125 54.6875 
z
" id="DejaVuSans-79"/>
    </defs>
    <g transform="translate(113.264999 190.752861)rotate(-45)scale(0.1 -0.1)">
     <use xlink:href="#DejaVuSans-74"/>
     <use x="39.208984" xlink:href="#DejaVuSans-5f"/>
     <use x="89.208984" xlink:href="#DejaVuSans-73"/>
     <use x="141.308594" xlink:href="#DejaVuSans-70"/>
     <use x="204.785156" xlink:href="#DejaVuSans-72"/>
     <use x="245.898438" xlink:href="#DejaVuSans-61"/>
     <use x="307.177734" xlink:href="#DejaVuSans-79"/>
     <use x="366.248047" xlink:href="#DejaVuSans-3a"/>
     <use x="399.939453" xlink:href="#DejaVuSans-20"/>
     <use x="431.726562" xlink:href="#DejaVuSans-32"/>
     <use x="495.349609" xlink:href="#DejaVuSans-30"/>
     <use x="558.972656" xlink:href="#DejaVuSans-31"/>
     <use x="622.595703" xlink:href="#DejaVuSans-36"/>
     <use x="686.21875" xlink:href="#DejaVuSans-2d"/>
     <use x="722.302734" xlink:href="#DejaVuSans-30"/>
     <use x="785.925781" xlink:href="#DejaVuSans-34"/>
     <use x="849.548828" xlink:href="#DejaVuSans-2d"/>
     <use x="885.632812" xlink:href="#DejaVuSans-30"/>
     <use x="949.255859" xlink:href="#DejaVuSans-31"/>
    </g>
   </g>
   <g id="text_27">
    <!-- Disease Prevalence vs. Time (months) for All, with Integration -->
    <defs>
     <path d="M 19.671875 64.796875 
L 19.671875 8.109375 
L 31.59375 8.109375 
Q 46.6875 8.109375 53.6875 14.9375 
Q 60.6875 21.78125 60.6875 36.53125 
Q 60.6875 51.171875 53.6875 57.984375 
Q 46.6875 64.796875 31.59375 64.796875 
z
M 9.8125 72.90625 
L 30.078125 72.90625 
Q 51.265625 72.90625 61.171875 64.09375 
Q 71.09375 55.28125 71.09375 36.53125 
Q 71.09375 17.671875 61.125 8.828125 
Q 51.171875 0 30.078125 0 
L 9.8125 0 
z
" id="DejaVuSans-44"/>
     <path d="M 34.1875 63.1875 
L 20.796875 26.90625 
L 47.609375 26.90625 
z
M 28.609375 72.90625 
L 39.796875 72.90625 
L 67.578125 0 
L 57.328125 0 
L 50.6875 18.703125 
L 17.828125 18.703125 
L 11.1875 0 
L 0.78125 0 
z
" id="DejaVuSans-41"/>
     <path d="M 11.71875 12.40625 
L 22.015625 12.40625 
L 22.015625 4 
L 14.015625 -11.625 
L 7.71875 -11.625 
L 11.71875 4 
z
" id="DejaVuSans-2c"/>
     <path d="M 4.203125 54.6875 
L 13.1875 54.6875 
L 24.421875 12.015625 
L 35.59375 54.6875 
L 46.1875 54.6875 
L 57.421875 12.015625 
L 68.609375 54.6875 
L 77.59375 54.6875 
L 63.28125 0 
L 52.6875 0 
L 40.921875 44.828125 
L 29.109375 0 
L 18.5 0 
z
" id="DejaVuSans-77"/>
     <path d="M 9.8125 72.90625 
L 19.671875 72.90625 
L 19.671875 0 
L 9.8125 0 
z
" id="DejaVuSans-49"/>
     <path d="M 45.40625 27.984375 
Q 45.40625 37.75 41.375 43.109375 
Q 37.359375 48.484375 30.078125 48.484375 
Q 22.859375 48.484375 18.828125 43.109375 
Q 14.796875 37.75 14.796875 27.984375 
Q 14.796875 18.265625 18.828125 12.890625 
Q 22.859375 7.515625 30.078125 7.515625 
Q 37.359375 7.515625 41.375 12.890625 
Q 45.40625 18.265625 45.40625 27.984375 
z
M 54.390625 6.78125 
Q 54.390625 -7.171875 48.1875 -13.984375 
Q 42 -20.796875 29.203125 -20.796875 
Q 24.46875 -20.796875 20.265625 -20.09375 
Q 16.0625 -19.390625 12.109375 -17.921875 
L 12.109375 -9.1875 
Q 16.0625 -11.328125 19.921875 -12.34375 
Q 23.78125 -13.375 27.78125 -13.375 
Q 36.625 -13.375 41.015625 -8.765625 
Q 45.40625 -4.15625 45.40625 5.171875 
L 45.40625 9.625 
Q 42.625 4.78125 38.28125 2.390625 
Q 33.9375 0 27.875 0 
Q 17.828125 0 11.671875 7.65625 
Q 5.515625 15.328125 5.515625 27.984375 
Q 5.515625 40.671875 11.671875 48.328125 
Q 17.828125 56 27.875 56 
Q 33.9375 56 38.28125 53.609375 
Q 42.625 51.21875 45.40625 46.390625 
L 45.40625 54.6875 
L 54.390625 54.6875 
z
" id="DejaVuSans-67"/>
    </defs>
    <g transform="translate(50.038125 35.472)scale(0.12 -0.12)">
     <use xlink:href="#DejaVuSans-44"/>
     <use x="77.001953" xlink:href="#DejaVuSans-69"/>
     <use x="104.785156" xlink:href="#DejaVuSans-73"/>
     <use x="156.884766" xlink:href="#DejaVuSans-65"/>
     <use x="218.408203" xlink:href="#DejaVuSans-61"/>
     <use x="279.6875" xlink:href="#DejaVuSans-73"/>
     <use x="331.787109" xlink:href="#DejaVuSans-65"/>
     <use x="393.310547" xlink:href="#DejaVuSans-20"/>
     <use x="425.097656" xlink:href="#DejaVuSans-50"/>
     <use x="485.384766" xlink:href="#DejaVuSans-72"/>
     <use x="526.466797" xlink:href="#DejaVuSans-65"/>
     <use x="587.990234" xlink:href="#DejaVuSans-76"/>
     <use x="647.169922" xlink:href="#DejaVuSans-61"/>
     <use x="708.449219" xlink:href="#DejaVuSans-6c"/>
     <use x="736.232422" xlink:href="#DejaVuSans-65"/>
     <use x="797.755859" xlink:href="#DejaVuSans-6e"/>
     <use x="861.134766" xlink:href="#DejaVuSans-63"/>
     <use x="916.115234" xlink:href="#DejaVuSans-65"/>
     <use x="977.638672" xlink:href="#DejaVuSans-20"/>
     <use x="1009.425781" xlink:href="#DejaVuSans-76"/>
     <use x="1068.605469" xlink:href="#DejaVuSans-73"/>
     <use x="1120.705078" xlink:href="#DejaVuSans-2e"/>
     <use x="1152.492188" xlink:href="#DejaVuSans-20"/>
     <use x="1184.279297" xlink:href="#DejaVuSans-54"/>
     <use x="1245.316406" xlink:href="#DejaVuSans-69"/>
     <use x="1273.099609" xlink:href="#DejaVuSans-6d"/>
     <use x="1370.511719" xlink:href="#DejaVuSans-65"/>
     <use x="1432.035156" xlink:href="#DejaVuSans-20"/>
     <use x="1463.822266" xlink:href="#DejaVuSans-28"/>
     <use x="1502.835938" xlink:href="#DejaVuSans-6d"/>
     <use x="1600.248047" xlink:href="#DejaVuSans-6f"/>
     <use x="1661.429688" xlink:href="#DejaVuSans-6e"/>
     <use x="1724.808594" xlink:href="#DejaVuSans-74"/>
     <use x="1764.017578" xlink:href="#DejaVuSans-68"/>
     <use x="1827.396484" xlink:href="#DejaVuSans-73"/>
     <use x="1879.496094" xlink:href="#DejaVuSans-29"/>
     <use x="1918.509766" xlink:href="#DejaVuSans-20"/>
     <use x="1950.296875" xlink:href="#DejaVuSans-66"/>
     <use x="1985.501953" xlink:href="#DejaVuSans-6f"/>
     <use x="2046.683594" xlink:href="#DejaVuSans-72"/>
     <use x="2087.796875" xlink:href="#DejaVuSans-20"/>
     <use x="2119.583984" xlink:href="#DejaVuSans-41"/>
     <use x="2187.992188" xlink:href="#DejaVuSans-6c"/>
     <use x="2215.775391" xlink:href="#DejaVuSans-6c"/>
     <use x="2243.558594" xlink:href="#DejaVuSans-2c"/>
     <use x="2275.345703" xlink:href="#DejaVuSans-20"/>
     <use x="2307.132812" xlink:href="#DejaVuSans-77"/>
     <use x="2388.919922" xlink:href="#DejaVuSans-69"/>
     <use x="2416.703125" xlink:href="#DejaVuSans-74"/>
     <use x="2455.912109" xlink:href="#DejaVuSans-68"/>
     <use x="2519.291016" xlink:href="#DejaVuSans-20"/>
     <use x="2551.078125" xlink:href="#DejaVuSans-49"/>
     <use x="2580.570312" xlink:href="#DejaVuSans-6e"/>
     <use x="2643.949219" xlink:href="#DejaVuSans-74"/>
     <use x="2683.158203" xlink:href="#DejaVuSans-65"/>
     <use x="2744.681641" xlink:href="#DejaVuSans-67"/>
     <use x="2808.158203" xlink:href="#DejaVuSans-72"/>
     <use x="2849.271484" xlink:href="#DejaVuSans-61"/>
     <use x="2910.550781" xlink:href="#DejaVuSans-74"/>
     <use x="2949.759766" xlink:href="#DejaVuSans-69"/>
     <use x="2977.542969" xlink:href="#DejaVuSans-6f"/>
     <use x="3038.724609" xlink:href="#DejaVuSans-6e"/>
    </g>
   </g>
   <g id="legend_1">
    <g id="patch_7">
     <path d="M 296.337188 78.82825 
L 407.72 78.82825 
Q 409.72 78.82825 409.72 76.82825 
L 409.72 48.472 
Q 409.72 46.472 407.72 46.472 
L 296.337188 46.472 
Q 294.337188 46.472 294.337188 48.472 
L 294.337188 76.82825 
Q 294.337188 78.82825 296.337188 78.82825 
z
" style="fill:#ffffff;opacity:0.8;stroke:#cccccc;stroke-linejoin:miter;"/>
    </g>
    <g id="line2d_48">
     <path d="M 298.337188 54.570437 
L 318.337188 54.570437 
" style="fill:none;stroke:#1f77b4;stroke-linecap:square;stroke-width:1.5;"/>
    </g>
    <g id="line2d_49"/>
    <g id="text_28">
     <!-- Schistosomiasis -->
     <defs>
      <path d="M 53.515625 70.515625 
L 53.515625 60.890625 
Q 47.90625 63.578125 42.921875 64.890625 
Q 37.9375 66.21875 33.296875 66.21875 
Q 25.25 66.21875 20.875 63.09375 
Q 16.5 59.96875 16.5 54.203125 
Q 16.5 49.359375 19.40625 46.890625 
Q 22.3125 44.4375 30.421875 42.921875 
L 36.375 41.703125 
Q 47.40625 39.59375 52.65625 34.296875 
Q 57.90625 29 57.90625 20.125 
Q 57.90625 9.515625 50.796875 4.046875 
Q 43.703125 -1.421875 29.984375 -1.421875 
Q 24.8125 -1.421875 18.96875 -0.25 
Q 13.140625 0.921875 6.890625 3.21875 
L 6.890625 13.375 
Q 12.890625 10.015625 18.65625 8.296875 
Q 24.421875 6.59375 29.984375 6.59375 
Q 38.421875 6.59375 43.015625 9.90625 
Q 47.609375 13.234375 47.609375 19.390625 
Q 47.609375 24.75 44.3125 27.78125 
Q 41.015625 30.8125 33.5 32.328125 
L 27.484375 33.5 
Q 16.453125 35.6875 11.515625 40.375 
Q 6.59375 45.0625 6.59375 53.421875 
Q 6.59375 63.09375 13.40625 68.65625 
Q 20.21875 74.21875 32.171875 74.21875 
Q 37.3125 74.21875 42.625 73.28125 
Q 47.953125 72.359375 53.515625 70.515625 
z
" id="DejaVuSans-53"/>
     </defs>
     <g transform="translate(326.337188 58.070437)scale(0.1 -0.1)">
      <use xlink:href="#DejaVuSans-53"/>
      <use x="63.476562" xlink:href="#DejaVuSans-63"/>
      <use x="118.457031" xlink:href="#DejaVuSans-68"/>
      <use x="181.835938" xlink:href="#DejaVuSans-69"/>
      <use x="209.619141" xlink:href="#DejaVuSans-73"/>
      <use x="261.71875" xlink:href="#DejaVuSans-74"/>
      <use x="300.927734" xlink:href="#DejaVuSans-6f"/>
      <use x="362.109375" xlink:href="#DejaVuSans-73"/>
      <use x="414.208984" xlink:href="#DejaVuSans-6f"/>
      <use x="475.390625" xlink:href="#DejaVuSans-6d"/>
      <use x="572.802734" xlink:href="#DejaVuSans-69"/>
      <use x="600.585938" xlink:href="#DejaVuSans-61"/>
      <use x="661.865234" xlink:href="#DejaVuSans-73"/>
      <use x="713.964844" xlink:href="#DejaVuSans-69"/>
      <use x="741.748047" xlink:href="#DejaVuSans-73"/>
     </g>
    </g>
    <g id="line2d_50">
     <path d="M 298.337188 69.248562 
L 318.337188 69.248562 
" style="fill:none;stroke:#ff7f0e;stroke-linecap:square;stroke-width:1.5;"/>
    </g>
    <g id="line2d_51"/>
    <g id="text_29">
     <!-- Malaria -->
     <defs>
      <path d="M 9.8125 72.90625 
L 24.515625 72.90625 
L 43.109375 23.296875 
L 61.8125 72.90625 
L 76.515625 72.90625 
L 76.515625 0 
L 66.890625 0 
L 66.890625 64.015625 
L 48.09375 14.015625 
L 38.1875 14.015625 
L 19.390625 64.015625 
L 19.390625 0 
L 9.8125 0 
z
" id="DejaVuSans-4d"/>
     </defs>
     <g transform="translate(326.337188 72.748562)scale(0.1 -0.1)">
      <use xlink:href="#DejaVuSans-4d"/>
      <use x="86.279297" xlink:href="#DejaVuSans-61"/>
      <use x="147.558594" xlink:href="#DejaVuSans-6c"/>
      <use x="175.341797" xlink:href="#DejaVuSans-61"/>
      <use x="236.621094" xlink:href="#DejaVuSans-72"/>
      <use x="277.734375" xlink:href="#DejaVuSans-69"/>
      <use x="305.517578" xlink:href="#DejaVuSans-61"/>
     </g>
    </g>
   </g>
  </g>
 </g>
 <defs>
  <clipPath id="pdafdc487e0">
   <rect height="266.112" width="357.12" x="57.6" y="41.472"/>
  </clipPath>
 </defs>
</svg>
