<?xml version="1.0" encoding="utf-8"?>
<!-- Generator: Adobe Illustrator 21.0.1, SVG Export Plug-In . SVG Version: 6.00 Build 0)  -->
<svg version="1.1" id="Layer_1" xmlns="http://www.w3.org/2000/svg" xmlns:xlink="http://www.w3.org/1999/xlink" x="0px" y="0px"
	 viewBox="0 0 460 345" style="enable-background:new 0 0 460 345;" xml:space="preserve">
<style type="text/css">
	.st0{fill:#FFFFFF;}
	.st1{clip-path:url(#SVGID_2_);fill:none;stroke:#B0B0B0;stroke-width:0.8;stroke-linecap:square;stroke-linejoin:round;}
	.st2{stroke:#000000;stroke-width:0.8;stroke-linejoin:round;}
	.st3{clip-path:url(#SVGID_4_);fill:none;stroke:#B0B0B0;stroke-width:0.8;stroke-linecap:square;stroke-linejoin:round;}
	.st4{clip-path:url(#SVGID_6_);fill:none;stroke:#B0B0B0;stroke-width:0.8;stroke-linecap:square;stroke-linejoin:round;}
	.st5{clip-path:url(#SVGID_8_);fill:none;stroke:#B0B0B0;stroke-width:0.8;stroke-linecap:square;stroke-linejoin:round;}
	.st6{clip-path:url(#SVGID_10_);fill:none;stroke:#B0B0B0;stroke-width:0.8;stroke-linecap:square;stroke-linejoin:round;}
	.st7{clip-path:url(#SVGID_12_);fill:none;stroke:#B0B0B0;stroke-width:0.8;stroke-linecap:square;stroke-linejoin:round;}
	.st8{clip-path:url(#SVGID_14_);fill:none;stroke:#B0B0B0;stroke-width:0.8;stroke-linecap:square;stroke-linejoin:round;}
	.st9{clip-path:url(#SVGID_16_);fill:none;stroke:#B0B0B0;stroke-width:0.8;stroke-linecap:square;stroke-linejoin:round;}
	.st10{clip-path:url(#SVGID_18_);fill:none;stroke:#B0B0B0;stroke-width:0.8;stroke-linecap:square;stroke-linejoin:round;}
	.st11{clip-path:url(#SVGID_20_);fill:none;stroke:#B0B0B0;stroke-width:0.8;stroke-linecap:square;stroke-linejoin:round;}
	.st12{clip-path:url(#SVGID_22_);fill:none;stroke:#B0B0B0;stroke-width:0.8;stroke-linecap:square;stroke-linejoin:round;}
	.st13{clip-path:url(#SVGID_24_);fill:none;stroke:#B0B0B0;stroke-width:0.8;stroke-linecap:square;stroke-linejoin:round;}
	.st14{clip-path:url(#SVGID_26_);fill:none;stroke:#B0B0B0;stroke-width:0.8;stroke-linecap:square;stroke-linejoin:round;}
	.st15{clip-path:url(#SVGID_28_);fill:none;stroke:#B0B0B0;stroke-width:0.8;stroke-linecap:square;stroke-linejoin:round;}
	.st16{clip-path:url(#SVGID_30_);fill:none;stroke:#B0B0B0;stroke-width:0.8;stroke-linecap:square;stroke-linejoin:round;}
	.st17{clip-path:url(#SVGID_32_);fill:none;stroke:#1F77B4;stroke-width:1.5;stroke-linecap:square;stroke-linejoin:round;}
	.st18{clip-path:url(#SVGID_34_);fill:none;stroke:#FF7F0E;stroke-width:1.5;stroke-linecap:square;stroke-linejoin:round;}
	.st19{clip-path:url(#SVGID_36_);}
	.st20{fill:#2CA02C;stroke:#2CA02C;stroke-linejoin:round;}
	.st21{clip-path:url(#SVGID_38_);}
	.st22{fill:#D62728;stroke:#D62728;stroke-linejoin:round;}
	.st23{clip-path:url(#SVGID_40_);}
	.st24{fill:#9467BD;stroke:#9467BD;stroke-linejoin:round;}
	.st25{fill:none;stroke:#000000;stroke-width:0.8;stroke-linecap:square;}
	.st26{opacity:0.8;fill:#FFFFFF;stroke:#CCCCCC;enable-background:new    ;}
	.st27{fill:none;stroke:#1F77B4;stroke-width:1.5;stroke-linecap:square;stroke-linejoin:round;}
	.st28{fill:none;stroke:#FF7F0E;stroke-width:1.5;stroke-linecap:square;stroke-linejoin:round;}
</style>
<g id="patch_1">
	<path class="st0" d="M1.8,344.6h460.8V-1H1.8V344.6z"/>
</g>
<g id="patch_2">
	<path class="st0" d="M59.4,306.6h357.1V40.5H59.4V306.6z"/>
</g>
<g id="matplotlib.axis_1">
	<g id="xtick_1">
		<g id="line2d_1">
			<g>
				<defs>
					<rect id="SVGID_1_" x="59.4" y="40.5" width="357.1" height="266.1"/>
				</defs>
				<clipPath id="SVGID_2_">
					<use xlink:href="#SVGID_1_"  style="overflow:visible;"/>
				</clipPath>
				<path class="st1" d="M59.4,306.6V40.5"/>
			</g>
		</g>
		<g id="line2d_2">
			<g>
				<g>
					<path id="m2d0eb1733e" class="st2" d="M59.4,306.6v3.5"/>
				</g>
			</g>
		</g>
		<g id="text_1">
			<g transform="translate(50.228906 322.182437)scale(0.1 -0.1)">
				<g>
					<path id="DejaVuSans-2212" d="M28.7,45.2h62.6v-8.3H28.7V45.2z"/>
				</g>
				<g>
					<path id="DejaVuSans-34" d="M139.7,74l-24.9-38.9h24.9V74z M137.1,82.6h12.4V35.1h10.4v-8.2h-10.4V9.7h-9.8v17.2h-32.9v9.5
						L137.1,82.6z"/>
				</g>
			</g>
		</g>
	</g>
	<g id="xtick_2">
		<g id="line2d_3">
			<g>
				<defs>
					<rect id="SVGID_3_" x="59.4" y="40.5" width="357.1" height="266.1"/>
				</defs>
				<clipPath id="SVGID_4_">
					<use xlink:href="#SVGID_3_"  style="overflow:visible;"/>
				</clipPath>
				<path class="st3" d="M103.6,306.6V40.5"/>
			</g>
		</g>
		<g id="line2d_4">
			<g>
				<g>
					<path id="m2d0eb1733e_1_" class="st2" d="M103.6,306.6v3.5"/>
				</g>
			</g>
		</g>
		<g id="text_2">
			<g transform="translate(94.4087 322.182437)scale(0.1 -0.1)">
				<g>
					<path id="DejaVuSans-2212_1_" d="M28.7,45.2h62.6v-8.3H28.7V45.2z"/>
				</g>
				<g>
					<path id="DejaVuSans-32" d="M121.1,18h34.4V9.7h-46.3V18c3.7,3.9,8.8,9.1,15.3,15.6c6.5,6.5,10.5,10.7,12.2,12.6
						c3.2,3.5,5.4,6.5,6.6,9c1.3,2.5,1.9,4.9,1.9,7.3c0,3.9-1.4,7-4.1,9.5c-2.7,2.4-6.3,3.7-10.6,3.7c-3.1,0-6.4-0.5-9.8-1.6
						c-3.4-1.1-7.1-2.7-11-4.9v10c4,1.6,7.7,2.8,11.1,3.6c3.5,0.8,6.6,1.2,9.5,1.2c7.6,0,13.6-1.9,18.1-5.7
						c4.5-3.8,6.7-8.8,6.7-15.1c0-3-0.6-5.8-1.7-8.5c-1.1-2.7-3.2-5.8-6.1-9.5c-0.8-0.9-3.4-3.7-7.8-8.2
						C135.2,32.4,129.1,26.1,121.1,18"/>
				</g>
			</g>
		</g>
	</g>
	<g id="xtick_3">
		<g id="line2d_5">
			<g>
				<defs>
					<rect id="SVGID_5_" x="59.4" y="40.5" width="357.1" height="266.1"/>
				</defs>
				<clipPath id="SVGID_6_">
					<use xlink:href="#SVGID_5_"  style="overflow:visible;"/>
				</clipPath>
				<path class="st4" d="M147.8,306.6V40.5"/>
			</g>
		</g>
		<g id="line2d_6">
			<g>
				<g>
					<path id="m2d0eb1733e_2_" class="st2" d="M147.8,306.6v3.5"/>
				</g>
			</g>
		</g>
		<g id="text_3">
			<g transform="translate(142.778338 322.182437)scale(0.1 -0.1)">
				<g>
					<path id="DejaVuSans-30" d="M49.9,76.1c-5.1,0-8.9-2.5-11.5-7.5c-2.6-5-3.8-12.5-3.8-22.5c0-10,1.3-17.5,3.8-22.5
						c2.6-5,6.4-7.5,11.5-7.5c5.1,0,8.9,2.5,11.5,7.5c2.6,5,3.8,12.5,3.8,22.5c0,10-1.3,17.5-3.8,22.5C58.9,73.6,55,76.1,49.9,76.1
						 M49.9,83.9c8.2,0,14.4-3.2,18.7-9.7c4.3-6.5,6.5-15.8,6.5-28.1c0-12.3-2.2-21.6-6.5-28.1c-4.3-6.5-10.6-9.7-18.7-9.7
						c-8.2,0-14.4,3.2-18.7,9.7c-4.3,6.5-6.5,15.8-6.5,28.1c0,12.3,2.2,21.7,6.5,28.1C35.5,80.7,41.7,83.9,49.9,83.9"/>
				</g>
			</g>
		</g>
	</g>
	<g id="xtick_4">
		<g id="line2d_7">
			<g>
				<defs>
					<rect id="SVGID_7_" x="59.4" y="40.5" width="357.1" height="266.1"/>
				</defs>
				<clipPath id="SVGID_8_">
					<use xlink:href="#SVGID_7_"  style="overflow:visible;"/>
				</clipPath>
				<path class="st5" d="M192,306.6V40.5"/>
			</g>
		</g>
		<g id="line2d_8">
			<g>
				<g>
					<path id="m2d0eb1733e_3_" class="st2" d="M192,306.6v3.5"/>
				</g>
			</g>
		</g>
		<g id="text_4">
			<g transform="translate(186.958131 322.182437)scale(0.1 -0.1)">
				<g>
					<path id="DejaVuSans-32_1_" d="M37.3,18h34.4V9.7H25.5V18c3.7,3.9,8.8,9.1,15.3,15.6c6.5,6.5,10.5,10.7,12.2,12.6
						c3.2,3.5,5.4,6.5,6.6,9c1.3,2.5,1.9,4.9,1.9,7.3c0,3.9-1.4,7-4.1,9.5c-2.7,2.4-6.3,3.7-10.6,3.7c-3.1,0-6.4-0.5-9.8-1.6
						c-3.4-1.1-7.1-2.7-11-4.9v10c4,1.6,7.7,2.8,11.1,3.6c3.5,0.8,6.6,1.2,9.5,1.2c7.6,0,13.6-1.9,18.1-5.7
						c4.5-3.8,6.7-8.8,6.7-15.1c0-3-0.6-5.8-1.7-8.5c-1.1-2.7-3.2-5.8-6.1-9.5c-0.8-0.9-3.4-3.7-7.8-8.2
						C51.4,32.4,45.3,26.1,37.3,18"/>
				</g>
			</g>
		</g>
	</g>
	<g id="xtick_5">
		<g id="line2d_9">
			<g>
				<defs>
					<rect id="SVGID_9_" x="59.4" y="40.5" width="357.1" height="266.1"/>
				</defs>
				<clipPath id="SVGID_10_">
					<use xlink:href="#SVGID_9_"  style="overflow:visible;"/>
				</clipPath>
				<path class="st6" d="M236.1,306.6V40.5"/>
			</g>
		</g>
		<g id="line2d_10">
			<g>
				<g>
					<path id="m2d0eb1733e_4_" class="st2" d="M236.1,306.6v3.5"/>
				</g>
			</g>
		</g>
		<g id="text_5">
			<g transform="translate(231.137925 322.182437)scale(0.1 -0.1)">
				<g>
					<path id="DejaVuSans-34_1_" d="M55.9,74L31,35.1h24.9V74z M53.3,82.6h12.4V35.1h10.4v-8.2H65.7V9.7h-9.8v17.2H23v9.5L53.3,82.6
						z"/>
				</g>
			</g>
		</g>
	</g>
	<g id="xtick_6">
		<g id="line2d_11">
			<g>
				<defs>
					<rect id="SVGID_11_" x="59.4" y="40.5" width="357.1" height="266.1"/>
				</defs>
				<clipPath id="SVGID_12_">
					<use xlink:href="#SVGID_11_"  style="overflow:visible;"/>
				</clipPath>
				<path class="st7" d="M280.3,306.6V40.5"/>
			</g>
		</g>
		<g id="line2d_12">
			<g>
				<g>
					<path id="m2d0eb1733e_5_" class="st2" d="M280.3,306.6v3.5"/>
				</g>
			</g>
		</g>
		<g id="text_6">
			<g transform="translate(275.317719 322.182437)scale(0.1 -0.1)">
				<g>
					<path id="DejaVuSans-36" d="M51.1,50.1c-4.4,0-7.9-1.5-10.5-4.5c-2.6-3-3.9-7.2-3.9-12.4c0-5.2,1.3-9.4,3.9-12.4
						c2.6-3,6.1-4.6,10.5-4.6s7.9,1.5,10.5,4.6c2.6,3.1,3.9,7.2,3.9,12.4c0,5.3-1.3,9.4-3.9,12.4C59.1,48.6,55.6,50.1,51.1,50.1
						 M70.7,81v-9c-2.5,1.2-5,2.1-7.5,2.7c-2.5,0.6-5,0.9-7.5,0.9c-6.5,0-11.5-2.2-14.9-6.6c-3.4-4.4-5.4-11-5.9-19.9
						c1.9,2.8,4.3,5,7.2,6.5c2.9,1.5,6.1,2.3,9.6,2.3c7.3,0,13.1-2.2,17.4-6.7c4.3-4.4,6.4-10.5,6.4-18.1c0-7.5-2.2-13.5-6.6-18
						c-4.4-4.5-10.3-6.8-17.7-6.8c-8.4,0-14.9,3.2-19.3,9.7c-4.5,6.5-6.7,15.8-6.7,28.1c0,11.5,2.7,20.7,8.2,27.6
						c5.5,6.9,12.8,10.3,22,10.3c2.5,0,5-0.2,7.5-0.7C65.4,82.7,68,82,70.7,81"/>
				</g>
			</g>
		</g>
	</g>
	<g id="xtick_7">
		<g id="line2d_13">
			<g>
				<defs>
					<rect id="SVGID_13_" x="59.4" y="40.5" width="357.1" height="266.1"/>
				</defs>
				<clipPath id="SVGID_14_">
					<use xlink:href="#SVGID_13_"  style="overflow:visible;"/>
				</clipPath>
				<path class="st8" d="M324.5,306.6V40.5"/>
			</g>
		</g>
		<g id="line2d_14">
			<g>
				<g>
					<path id="m2d0eb1733e_6_" class="st2" d="M324.5,306.6v3.5"/>
				</g>
			</g>
		</g>
		<g id="text_7">
			<g transform="translate(319.497513 322.182437)scale(0.1 -0.1)">
				<g>
					<path id="DejaVuSans-38" d="M49.9,44.3c-4.7,0-8.4-1.3-11.1-3.8c-2.7-2.5-4-6-4-10.3c0-4.4,1.3-7.8,4-10.4
						c2.7-2.5,6.4-3.8,11.1-3.8s8.4,1.3,11.1,3.8c2.7,2.5,4.1,6,4.1,10.3c0,4.4-1.3,7.8-4,10.3C58.3,43.1,54.6,44.3,49.9,44.3
						 M40.1,48.5c-4.2,1-7.5,3-9.9,5.9c-2.4,2.9-3.5,6.4-3.5,10.6c0,5.8,2.1,10.4,6.2,13.8c4.2,3.4,9.8,5.1,17.1,5.1
						c7.3,0,13-1.7,17.1-5.1s6.2-8,6.2-13.8c0-4.2-1.2-7.7-3.5-10.6c-2.4-2.9-5.6-4.9-9.8-5.9c4.8-1.1,8.4-3.3,11.1-6.5
						c2.7-3.2,4-7.2,4-11.8c0-7.1-2.2-12.5-6.5-16.3C64.1,10.2,58,8.3,49.9,8.3c-8,0-14.2,1.9-18.5,5.7c-4.3,3.8-6.5,9.2-6.5,16.3
						c0,4.6,1.3,8.6,4,11.8C31.6,45.3,35.3,47.4,40.1,48.5 M36.4,64.1c0-3.8,1.2-6.7,3.5-8.8c2.4-2.1,5.7-3.2,9.9-3.2
						c4.2,0,7.6,1.1,9.9,3.2c2.4,2.1,3.6,5.1,3.6,8.8c0,3.8-1.2,6.7-3.6,8.8c-2.4,2.1-5.7,3.2-9.9,3.2c-4.3,0-7.6-1.1-9.9-3.2
						C37.6,70.8,36.4,67.9,36.4,64.1"/>
				</g>
			</g>
		</g>
	</g>
	<g id="xtick_8">
		<g id="line2d_15">
			<g>
				<defs>
					<rect id="SVGID_15_" x="59.4" y="40.5" width="357.1" height="266.1"/>
				</defs>
				<clipPath id="SVGID_16_">
					<use xlink:href="#SVGID_15_"  style="overflow:visible;"/>
				</clipPath>
				<path class="st9" d="M368.7,306.6V40.5"/>
			</g>
		</g>
		<g id="line2d_16">
			<g>
				<g>
					<path id="m2d0eb1733e_7_" class="st2" d="M368.7,306.6v3.5"/>
				</g>
			</g>
		</g>
		<g id="text_8">
			<g transform="translate(360.496057 322.182437)scale(0.1 -0.1)">
				<g>
					<path id="DejaVuSans-31" d="M30.5,18h16.1v55.6l-17.5-3.5v9l17.4,3.5h9.9V18h16.1V9.7h-42V18z"/>
				</g>
				<g>
					<path id="DejaVuSans-30_1_" d="M113.5,76.1c-5.1,0-8.9-2.5-11.5-7.5c-2.6-5-3.8-12.5-3.8-22.5c0-10,1.3-17.5,3.8-22.5
						c2.6-5,6.4-7.5,11.5-7.5c5.1,0,8.9,2.5,11.5,7.5c2.6,5,3.8,12.5,3.8,22.5c0,10-1.3,17.5-3.8,22.5
						C122.5,73.6,118.7,76.1,113.5,76.1 M113.5,83.9c8.2,0,14.4-3.2,18.7-9.7c4.3-6.5,6.5-15.8,6.5-28.1c0-12.3-2.2-21.6-6.5-28.1
						c-4.3-6.5-10.6-9.7-18.7-9.7c-8.2,0-14.4,3.2-18.7,9.7c-4.3,6.5-6.5,15.8-6.5,28.1c0,12.3,2.2,21.7,6.5,28.1
						C99.1,80.7,105.4,83.9,113.5,83.9"/>
				</g>
			</g>
		</g>
	</g>
	<g id="xtick_9">
		<g id="line2d_17">
			<g>
				<defs>
					<rect id="SVGID_17_" x="59.4" y="40.5" width="357.1" height="266.1"/>
				</defs>
				<clipPath id="SVGID_18_">
					<use xlink:href="#SVGID_17_"  style="overflow:visible;"/>
				</clipPath>
				<path class="st10" d="M412.9,306.6V40.5"/>
			</g>
		</g>
		<g id="line2d_18">
			<g>
				<g>
					<path id="m2d0eb1733e_8_" class="st2" d="M412.9,306.6v3.5"/>
				</g>
			</g>
		</g>
		<g id="text_9">
			<g transform="translate(404.675851 322.182437)scale(0.1 -0.1)">
				<g>
					<path id="DejaVuSans-31_1_" d="M30.5,18h16.1v55.6l-17.5-3.5v9l17.4,3.5h9.9V18h16.1V9.7h-42V18z"/>
				</g>
				<g>
					<path id="DejaVuSans-32_2_" d="M100.9,18h34.4V9.7H89.1V18c3.7,3.9,8.8,9.1,15.3,15.6c6.5,6.5,10.5,10.7,12.2,12.6
						c3.2,3.5,5.4,6.5,6.6,9c1.3,2.5,1.9,4.9,1.9,7.3c0,3.9-1.4,7-4.1,9.5c-2.7,2.4-6.3,3.7-10.6,3.7c-3.1,0-6.4-0.5-9.8-1.6
						c-3.4-1.1-7.1-2.7-11-4.9v10c4,1.6,7.7,2.8,11.1,3.6c3.5,0.8,6.6,1.2,9.5,1.2c7.6,0,13.6-1.9,18.1-5.7
						c4.5-3.8,6.7-8.8,6.7-15.1c0-3-0.6-5.8-1.7-8.5c-1.1-2.7-3.2-5.8-6.1-9.5c-0.8-0.9-3.4-3.7-7.8-8.2
						C115,32.4,108.9,26.1,100.9,18"/>
				</g>
			</g>
		</g>
	</g>
	<g id="text_10">
		<g transform="translate(199.449844 335.860562)scale(0.1 -0.1)">
			<g>
				<path id="DejaVuSans-54" d="M17.8,82.6h61.7v-8.3H53.6V9.7h-9.9v64.6H17.8V82.6z"/>
			</g>
			<g>
				<path id="DejaVuSans-69" d="M88.6,64.4h9V9.7h-9V64.4z M88.6,85.7h9V74.3h-9V85.7z"/>
			</g>
			<g>
				<path id="DejaVuSans-6d" d="M159,53.9c2.3,4,4.9,7,8.1,8.9c3.1,1.9,6.8,2.9,11,2.9c5.7,0,10.1-2,13.2-6c3.1-4,4.6-9.6,4.6-17
					v-33h-9v32.7c0,5.2-0.9,9.1-2.8,11.7c-1.9,2.5-4.7,3.8-8.5,3.8c-4.7,0-8.3-1.5-11-4.6c-2.7-3.1-4-7.3-4-12.6V9.7h-9v32.7
					c0,5.3-0.9,9.2-2.8,11.7c-1.9,2.5-4.7,3.8-8.6,3.8c-4.6,0-8.2-1.6-11-4.7c-2.7-3.1-4-7.3-4-12.6V9.7h-9v54.7h9v-8.5
					c2.1,3.4,4.5,5.8,7.4,7.4c2.9,1.6,6.3,2.4,10.2,2.4c4,0,7.4-1,10.1-3C155.6,60.7,157.6,57.7,159,53.9"/>
			</g>
			<g>
				<path id="DejaVuSans-65" d="M260.6,39.3v-4.4h-41.3c0.4-6.2,2.3-10.9,5.6-14.1c3.3-3.2,8-4.9,13.9-4.9c3.4,0,6.8,0.4,10,1.3
					s6.5,2.1,9.7,3.8v-8.5c-3.2-1.4-6.5-2.4-9.9-3.1s-6.8-1.1-10.3-1.1c-8.7,0-15.6,2.5-20.7,7.6c-5.1,5.1-7.6,12-7.6,20.6
					c0,8.9,2.4,16,7.3,21.3c4.8,5.3,11.4,7.9,19.6,7.9c7.4,0,13.2-2.4,17.5-7.1C258.4,53.9,260.6,47.4,260.6,39.3 M251.6,41.9
					c-0.1,4.9-1.4,8.8-4.1,11.8c-2.7,2.9-6.2,4.4-10.7,4.4c-5,0-9-1.4-12-4.3c-3-2.8-4.7-6.8-5.2-12L251.6,41.9z"/>
			</g>
			<g>
				<path id="DejaVuSans-20" d="M265.9,9.7"/>
			</g>
			<g>
				<path id="DejaVuSans-28" d="M328.7,85.6c-4.4-7.5-7.6-14.9-9.7-22.2c-2.1-7.3-3.2-14.7-3.2-22.3c0-7.5,1.1-15,3.2-22.3
					c2.1-7.4,5.4-14.8,9.7-22.3h-7.8c-4.9,7.7-8.5,15.2-11,22.6c-2.4,7.4-3.6,14.7-3.6,22c0,7.3,1.2,14.6,3.6,21.9
					c2.4,7.4,6.1,14.9,11,22.6H328.7z"/>
			</g>
			<g>
				<path id="DejaVuSans-6d_1_" d="M388.7,53.9c2.3,4,4.9,7,8.1,8.9c3.1,1.9,6.8,2.9,11,2.9c5.7,0,10.1-2,13.2-6
					c3.1-4,4.6-9.6,4.6-17v-33h-9v32.7c0,5.2-0.9,9.1-2.8,11.7c-1.9,2.5-4.7,3.8-8.5,3.8c-4.7,0-8.3-1.5-11-4.6
					c-2.7-3.1-4-7.3-4-12.6V9.7h-9v32.7c0,5.3-0.9,9.2-2.8,11.7c-1.9,2.5-4.7,3.8-8.6,3.8c-4.6,0-8.2-1.6-11-4.7
					c-2.7-3.1-4-7.3-4-12.6V9.7h-9v54.7h9v-8.5c2.1,3.4,4.5,5.8,7.4,7.4c2.9,1.6,6.3,2.4,10.2,2.4c4,0,7.4-1,10.1-3
					C385.3,60.7,387.4,57.7,388.7,53.9"/>
			</g>
			<g>
				<path id="DejaVuSans-6f" d="M464.7,58.1c-4.8,0-8.6-1.9-11.4-5.6c-2.8-3.8-4.2-8.9-4.2-15.5s1.4-11.7,4.2-15.5
					c2.8-3.8,6.6-5.6,11.5-5.6c4.8,0,8.6,1.9,11.4,5.7c2.8,3.8,4.2,8.9,4.2,15.4c0,6.5-1.4,11.6-4.2,15.4
					C473.3,56.2,469.5,58.1,464.7,58.1 M464.7,65.7c7.8,0,13.9-2.5,18.4-7.6c4.5-5.1,6.7-12.1,6.7-21.1c0-8.9-2.2-16-6.7-21.1
					c-4.5-5.1-10.6-7.6-18.4-7.6c-7.8,0-14,2.5-18.4,7.6c-4.4,5.1-6.7,12.1-6.7,21.1c0,9,2.2,16,6.7,21.1
					C450.7,63.2,456.9,65.7,464.7,65.7"/>
			</g>
			<g>
				<path id="DejaVuSans-6e" d="M550.2,42.7v-33h-9v32.7c0,5.2-1,9-3,11.6c-2,2.6-5,3.9-9.1,3.9c-4.9,0-8.7-1.5-11.5-4.6
					c-2.8-3.1-4.2-7.3-4.2-12.6V9.7h-9v54.7h9v-8.5c2.2,3.3,4.7,5.8,7.6,7.4c2.9,1.6,6.3,2.4,10.1,2.4c6.3,0,11-1.9,14.3-5.8
					C548.6,56,550.2,50.3,550.2,42.7"/>
			</g>
			<g>
				<path id="DejaVuSans-74" d="M577,79.9V64.4h18.5v-7H577V27.7c0-4.5,0.6-7.3,1.8-8.6c1.2-1.3,3.7-1.9,7.5-1.9h9.2V9.7h-9.2
					c-6.9,0-11.7,1.3-14.4,3.9c-2.6,2.6-4,7.3-4,14.1v29.7h-6.6v7h6.6v15.5H577z"/>
			</g>
			<g>
				<path id="DejaVuSans-68" d="M652.8,42.7v-33h-9v32.7c0,5.2-1,9-3,11.6c-2,2.6-5,3.9-9.1,3.9c-4.9,0-8.7-1.5-11.5-4.6
					c-2.8-3.1-4.2-7.3-4.2-12.6V9.7h-9v76h9V55.9c2.2,3.3,4.7,5.8,7.6,7.4c2.9,1.6,6.3,2.4,10.1,2.4c6.3,0,11-1.9,14.3-5.8
					C651.1,56,652.8,50.3,652.8,42.7"/>
			</g>
			<g>
				<path id="DejaVuSans-73" d="M705.5,62.8v-8.5c-2.5,1.3-5.2,2.3-7.9,2.9c-2.7,0.7-5.6,1-8.5,1c-4.5,0-7.8-0.7-10-2
					c-2.2-1.4-3.3-3.4-3.3-6.2c0-2.1,0.8-3.7,2.4-4.9s4.8-2.3,9.6-3.4l3.1-0.7c6.4-1.4,10.9-3.3,13.6-5.8c2.7-2.5,4-6,4-10.4
					c0-5.1-2-9.1-6-12.1c-4-3-9.5-4.4-16.6-4.4c-2.9,0-6,0.3-9.2,0.9c-3.2,0.6-6.5,1.4-10,2.6V21c3.3-1.7,6.6-3,9.8-3.9
					c3.2-0.9,6.4-1.3,9.6-1.3c4.2,0,7.5,0.7,9.8,2.2c2.3,1.4,3.4,3.5,3.4,6.1c0,2.4-0.8,4.3-2.5,5.6c-1.6,1.3-5.2,2.6-10.8,3.8
					l-3.1,0.7c-5.6,1.2-9.6,3-12.1,5.4c-2.5,2.4-3.7,5.8-3.7,10c0,5.1,1.8,9.1,5.5,11.9c3.6,2.8,8.8,4.2,15.5,4.2
					c3.3,0,6.4-0.2,9.4-0.7C700.4,64.5,703.1,63.8,705.5,62.8"/>
			</g>
			<g>
				<path id="DejaVuSans-29" d="M721.4,85.6h7.8c4.9-7.7,8.5-15.2,11-22.6c2.4-7.4,3.6-14.7,3.6-21.9c0-7.3-1.2-14.6-3.6-22
					c-2.4-7.4-6.1-14.9-11-22.6h-7.8c4.3,7.5,7.6,14.9,9.7,22.3c2.1,7.4,3.2,14.8,3.2,22.3c0,7.5-1.1,14.9-3.2,22.3
					C728.9,70.7,725.7,78.1,721.4,85.6"/>
			</g>
		</g>
	</g>
</g>
<g id="matplotlib.axis_2">
	<g id="ytick_1">
		<g id="line2d_19">
			<g>
				<defs>
					<rect id="SVGID_19_" x="59.4" y="40.5" width="357.1" height="266.1"/>
				</defs>
				<clipPath id="SVGID_20_">
					<use xlink:href="#SVGID_19_"  style="overflow:visible;"/>
				</clipPath>
				<path class="st11" d="M59.4,306.6h357.1"/>
			</g>
		</g>
		<g id="line2d_20">
			<g>
				<g>
					<path id="mf7a8a82859" class="st2" d="M59.4,306.6h-3.5"/>
				</g>
			</g>
		</g>
		<g id="text_11">
			<g transform="translate(34.696875 311.383219)scale(0.1 -0.1)">
				<g>
					<path id="DejaVuSans-30_2_" d="M49.9,76.1c-5.1,0-8.9-2.5-11.5-7.5c-2.6-5-3.8-12.5-3.8-22.5c0-10,1.3-17.5,3.8-22.5
						c2.6-5,6.4-7.5,11.5-7.5c5.1,0,8.9,2.5,11.5,7.5c2.6,5,3.8,12.5,3.8,22.5c0,10-1.3,17.5-3.8,22.5C58.9,73.6,55,76.1,49.9,76.1
						 M49.9,83.9c8.2,0,14.4-3.2,18.7-9.7c4.3-6.5,6.5-15.8,6.5-28.1c0-12.3-2.2-21.6-6.5-28.1c-4.3-6.5-10.6-9.7-18.7-9.7
						c-8.2,0-14.4,3.2-18.7,9.7c-4.3,6.5-6.5,15.8-6.5,28.1c0,12.3,2.2,21.7,6.5,28.1C35.5,80.7,41.7,83.9,49.9,83.9"/>
				</g>
				<g>
					<path id="DejaVuSans-2e" d="M92.4,22.1h10.3V9.7H92.4V22.1z"/>
				</g>
				<g>
					<path id="DejaVuSans-30_3_" d="M145.3,76.1c-5.1,0-8.9-2.5-11.5-7.5c-2.6-5-3.8-12.5-3.8-22.5c0-10,1.3-17.5,3.8-22.5
						c2.6-5,6.4-7.5,11.5-7.5c5.1,0,8.9,2.5,11.5,7.5c2.6,5,3.8,12.5,3.8,22.5c0,10-1.3,17.5-3.8,22.5
						C154.3,73.6,150.4,76.1,145.3,76.1 M145.3,83.9c8.2,0,14.4-3.2,18.7-9.7c4.3-6.5,6.5-15.8,6.5-28.1c0-12.3-2.2-21.6-6.5-28.1
						c-4.3-6.5-10.6-9.7-18.7-9.7c-8.2,0-14.4,3.2-18.7,9.7c-4.3,6.5-6.5,15.8-6.5,28.1c0,12.3,2.2,21.7,6.5,28.1
						C130.9,80.7,137.2,83.9,145.3,83.9"/>
				</g>
			</g>
		</g>
	</g>
	<g id="ytick_2">
		<g id="line2d_21">
			<g>
				<defs>
					<rect id="SVGID_21_" x="59.4" y="40.5" width="357.1" height="266.1"/>
				</defs>
				<clipPath id="SVGID_22_">
					<use xlink:href="#SVGID_21_"  style="overflow:visible;"/>
				</clipPath>
				<path class="st12" d="M59.4,253.4h357.1"/>
			</g>
		</g>
		<g id="line2d_22">
			<g>
				<g>
					<path id="mf7a8a82859_1_" class="st2" d="M59.4,253.4h-3.5"/>
				</g>
			</g>
		</g>
		<g id="text_12">
			<g transform="translate(34.696875 258.160819)scale(0.1 -0.1)">
				<g>
					<path id="DejaVuSans-30_4_" d="M49.9,76.1c-5.1,0-8.9-2.5-11.5-7.5c-2.6-5-3.8-12.5-3.8-22.5c0-10,1.3-17.5,3.8-22.5
						c2.6-5,6.4-7.5,11.5-7.5c5.1,0,8.9,2.5,11.5,7.5c2.6,5,3.8,12.5,3.8,22.5c0,10-1.3,17.5-3.8,22.5C58.9,73.6,55,76.1,49.9,76.1
						 M49.9,83.9c8.2,0,14.4-3.2,18.7-9.7c4.3-6.5,6.5-15.8,6.5-28.1c0-12.3-2.2-21.6-6.5-28.1c-4.3-6.5-10.6-9.7-18.7-9.7
						c-8.2,0-14.4,3.2-18.7,9.7c-4.3,6.5-6.5,15.8-6.5,28.1c0,12.3,2.2,21.7,6.5,28.1C35.5,80.7,41.7,83.9,49.9,83.9"/>
				</g>
				<g>
					<path id="DejaVuSans-2e_1_" d="M92.4,22.1h10.3V9.7H92.4V22.1z"/>
				</g>
				<g>
					<path id="DejaVuSans-32_3_" d="M132.7,18h34.4V9.7h-46.3V18c3.7,3.9,8.8,9.1,15.3,15.6c6.5,6.5,10.5,10.7,12.2,12.6
						c3.2,3.5,5.4,6.5,6.6,9c1.3,2.5,1.9,4.9,1.9,7.3c0,3.9-1.4,7-4.1,9.5c-2.7,2.4-6.3,3.7-10.6,3.7c-3.1,0-6.4-0.5-9.8-1.6
						c-3.4-1.1-7.1-2.7-11-4.9v10c4,1.6,7.7,2.8,11.1,3.6c3.5,0.8,6.6,1.2,9.5,1.2c7.6,0,13.6-1.9,18.1-5.7
						c4.5-3.8,6.7-8.8,6.7-15.1c0-3-0.6-5.8-1.7-8.5c-1.1-2.7-3.2-5.8-6.1-9.5c-0.8-0.9-3.4-3.7-7.8-8.2
						C146.8,32.4,140.7,26.1,132.7,18"/>
				</g>
			</g>
		</g>
	</g>
	<g id="ytick_3">
		<g id="line2d_23">
			<g>
				<defs>
					<rect id="SVGID_23_" x="59.4" y="40.5" width="357.1" height="266.1"/>
				</defs>
				<clipPath id="SVGID_24_">
					<use xlink:href="#SVGID_23_"  style="overflow:visible;"/>
				</clipPath>
				<path class="st13" d="M59.4,200.2h357.1"/>
			</g>
		</g>
		<g id="line2d_24">
			<g>
				<g>
					<path id="mf7a8a82859_2_" class="st2" d="M59.4,200.2h-3.5"/>
				</g>
			</g>
		</g>
		<g id="text_13">
			<g transform="translate(34.696875 204.938419)scale(0.1 -0.1)">
				<g>
					<path id="DejaVuSans-30_5_" d="M49.9,76.1c-5.1,0-8.9-2.5-11.5-7.5c-2.6-5-3.8-12.5-3.8-22.5c0-10,1.3-17.5,3.8-22.5
						c2.6-5,6.4-7.5,11.5-7.5c5.1,0,8.9,2.5,11.5,7.5c2.6,5,3.8,12.5,3.8,22.5c0,10-1.3,17.5-3.8,22.5C58.9,73.6,55,76.1,49.9,76.1
						 M49.9,83.9c8.2,0,14.4-3.2,18.7-9.7c4.3-6.5,6.5-15.8,6.5-28.1c0-12.3-2.2-21.6-6.5-28.1c-4.3-6.5-10.6-9.7-18.7-9.7
						c-8.2,0-14.4,3.2-18.7,9.7c-4.3,6.5-6.5,15.8-6.5,28.1c0,12.3,2.2,21.7,6.5,28.1C35.5,80.7,41.7,83.9,49.9,83.9"/>
				</g>
				<g>
					<path id="DejaVuSans-2e_2_" d="M92.4,22.1h10.3V9.7H92.4V22.1z"/>
				</g>
				<g>
					<path id="DejaVuSans-34_2_" d="M151.3,74l-24.9-38.9h24.9V74z M148.7,82.6h12.4V35.1h10.4v-8.2h-10.4V9.7h-9.8v17.2h-32.9v9.5
						L148.7,82.6z"/>
				</g>
			</g>
		</g>
	</g>
	<g id="ytick_4">
		<g id="line2d_25">
			<g>
				<defs>
					<rect id="SVGID_25_" x="59.4" y="40.5" width="357.1" height="266.1"/>
				</defs>
				<clipPath id="SVGID_26_">
					<use xlink:href="#SVGID_25_"  style="overflow:visible;"/>
				</clipPath>
				<path class="st14" d="M59.4,146.9h357.1"/>
			</g>
		</g>
		<g id="line2d_26">
			<g>
				<g>
					<path id="mf7a8a82859_3_" class="st2" d="M59.4,146.9h-3.5"/>
				</g>
			</g>
		</g>
		<g id="text_14">
			<g transform="translate(34.696875 151.716019)scale(0.1 -0.1)">
				<g>
					<path id="DejaVuSans-30_6_" d="M49.9,76.1c-5.1,0-8.9-2.5-11.5-7.5c-2.6-5-3.8-12.5-3.8-22.5c0-10,1.3-17.5,3.8-22.5
						c2.6-5,6.4-7.5,11.5-7.5c5.1,0,8.9,2.5,11.5,7.5c2.6,5,3.8,12.5,3.8,22.5c0,10-1.3,17.5-3.8,22.5C58.9,73.6,55,76.1,49.9,76.1
						 M49.9,83.9c8.2,0,14.4-3.2,18.7-9.7c4.3-6.5,6.5-15.8,6.5-28.1c0-12.3-2.2-21.6-6.5-28.1c-4.3-6.5-10.6-9.7-18.7-9.7
						c-8.2,0-14.4,3.2-18.7,9.7c-4.3,6.5-6.5,15.8-6.5,28.1c0,12.3,2.2,21.7,6.5,28.1C35.5,80.7,41.7,83.9,49.9,83.9"/>
				</g>
				<g>
					<path id="DejaVuSans-2e_3_" d="M92.4,22.1h10.3V9.7H92.4V22.1z"/>
				</g>
				<g>
					<path id="DejaVuSans-36_1_" d="M146.6,50.1c-4.4,0-7.9-1.5-10.5-4.5c-2.6-3-3.9-7.2-3.9-12.4c0-5.2,1.3-9.4,3.9-12.4
						c2.6-3,6.1-4.6,10.5-4.6s7.9,1.5,10.5,4.6c2.6,3.1,3.9,7.2,3.9,12.4c0,5.3-1.3,9.4-3.9,12.4C154.5,48.6,151,50.1,146.6,50.1
						 M166.1,81v-9c-2.5,1.2-5,2.1-7.5,2.7c-2.5,0.6-5,0.9-7.5,0.9c-6.5,0-11.5-2.2-14.9-6.6c-3.4-4.4-5.4-11-5.9-19.9
						c1.9,2.8,4.3,5,7.2,6.5c2.9,1.5,6.1,2.3,9.6,2.3c7.3,0,13.1-2.2,17.4-6.7c4.3-4.4,6.4-10.5,6.4-18.1c0-7.5-2.2-13.5-6.6-18
						c-4.4-4.5-10.3-6.8-17.7-6.8c-8.4,0-14.9,3.2-19.3,9.7c-4.5,6.5-6.7,15.8-6.7,28.1c0,11.5,2.7,20.7,8.2,27.6
						c5.5,6.9,12.8,10.3,22,10.3c2.5,0,5-0.2,7.5-0.7S163.4,82,166.1,81"/>
				</g>
			</g>
		</g>
	</g>
	<g id="ytick_5">
		<g id="line2d_27">
			<g>
				<defs>
					<rect id="SVGID_27_" x="59.4" y="40.5" width="357.1" height="266.1"/>
				</defs>
				<clipPath id="SVGID_28_">
					<use xlink:href="#SVGID_27_"  style="overflow:visible;"/>
				</clipPath>
				<path class="st15" d="M59.4,93.7h357.1"/>
			</g>
		</g>
		<g id="line2d_28">
			<g>
				<g>
					<path id="mf7a8a82859_4_" class="st2" d="M59.4,93.7h-3.5"/>
				</g>
			</g>
		</g>
		<g id="text_15">
			<g transform="translate(34.696875 98.493619)scale(0.1 -0.1)">
				<g>
					<path id="DejaVuSans-30_7_" d="M49.9,76.1c-5.1,0-8.9-2.5-11.5-7.5c-2.6-5-3.8-12.5-3.8-22.5c0-10,1.3-17.5,3.8-22.5
						c2.6-5,6.4-7.5,11.5-7.5c5.1,0,8.9,2.5,11.5,7.5c2.6,5,3.8,12.5,3.8,22.5c0,10-1.3,17.5-3.8,22.5C58.9,73.6,55,76.1,49.9,76.1
						 M49.9,83.9c8.2,0,14.4-3.2,18.7-9.7c4.3-6.5,6.5-15.8,6.5-28.1c0-12.3-2.2-21.6-6.5-28.1c-4.3-6.5-10.6-9.7-18.7-9.7
						c-8.2,0-14.4,3.2-18.7,9.7c-4.3,6.5-6.5,15.8-6.5,28.1c0,12.3,2.2,21.7,6.5,28.1C35.5,80.7,41.7,83.9,49.9,83.9"/>
				</g>
				<g>
					<path id="DejaVuSans-2e_4_" d="M92.4,22.1h10.3V9.7H92.4V22.1z"/>
				</g>
				<g>
					<path id="DejaVuSans-38_1_" d="M145.3,44.3c-4.7,0-8.4-1.3-11.1-3.8c-2.7-2.5-4-6-4-10.3c0-4.4,1.3-7.8,4-10.4
						c2.7-2.5,6.4-3.8,11.1-3.8s8.4,1.3,11.1,3.8c2.7,2.5,4.1,6,4.1,10.3c0,4.4-1.3,7.8-4,10.3C153.8,43.1,150.1,44.3,145.3,44.3
						 M135.5,48.5c-4.2,1-7.5,3-9.9,5.9c-2.4,2.9-3.5,6.4-3.5,10.6c0,5.8,2.1,10.4,6.2,13.8c4.2,3.4,9.8,5.1,17.1,5.1
						c7.3,0,13-1.7,17.1-5.1s6.2-8,6.2-13.8c0-4.2-1.2-7.7-3.5-10.6c-2.4-2.9-5.6-4.9-9.8-5.9c4.8-1.1,8.4-3.3,11.1-6.5
						c2.7-3.2,4-7.2,4-11.8c0-7.1-2.2-12.5-6.5-16.3c-4.3-3.8-10.5-5.7-18.5-5.7c-8,0-14.2,1.9-18.5,5.7c-4.3,3.8-6.5,9.2-6.5,16.3
						c0,4.6,1.3,8.6,4,11.8C127,45.3,130.7,47.4,135.5,48.5 M131.9,64.1c0-3.8,1.2-6.7,3.5-8.8c2.4-2.1,5.7-3.2,9.9-3.2
						c4.2,0,7.6,1.1,9.9,3.2c2.4,2.1,3.6,5.1,3.6,8.8c0,3.8-1.2,6.7-3.6,8.8c-2.4,2.1-5.7,3.2-9.9,3.2c-4.3,0-7.6-1.1-9.9-3.2
						C133,70.8,131.9,67.9,131.9,64.1"/>
				</g>
			</g>
		</g>
	</g>
	<g id="ytick_6">
		<g id="line2d_29">
			<g>
				<defs>
					<rect id="SVGID_29_" x="59.4" y="40.5" width="357.1" height="266.1"/>
				</defs>
				<clipPath id="SVGID_30_">
					<use xlink:href="#SVGID_29_"  style="overflow:visible;"/>
				</clipPath>
				<path class="st16" d="M59.4,40.5h357.1"/>
			</g>
		</g>
		<g id="line2d_30">
			<g>
				<g>
					<path id="mf7a8a82859_5_" class="st2" d="M59.4,40.5h-3.5"/>
				</g>
			</g>
		</g>
		<g id="text_16">
			<g transform="translate(34.696875 45.271219)scale(0.1 -0.1)">
				<g>
					<path id="DejaVuSans-31_2_" d="M30.5,18h16.1v55.6l-17.5-3.5v9l17.4,3.5h9.9V18h16.1V9.7h-42V18z"/>
				</g>
				<g>
					<path id="DejaVuSans-2e_5_" d="M92.4,22.1h10.3V9.7H92.4V22.1z"/>
				</g>
				<g>
					<path id="DejaVuSans-30_8_" d="M145.3,76.1c-5.1,0-8.9-2.5-11.5-7.5c-2.6-5-3.8-12.5-3.8-22.5c0-10,1.3-17.5,3.8-22.5
						c2.6-5,6.4-7.5,11.5-7.5c5.1,0,8.9,2.5,11.5,7.5c2.6,5,3.8,12.5,3.8,22.5c0,10-1.3,17.5-3.8,22.5
						C154.3,73.6,150.4,76.1,145.3,76.1 M145.3,83.9c8.2,0,14.4-3.2,18.7-9.7c4.3-6.5,6.5-15.8,6.5-28.1c0-12.3-2.2-21.6-6.5-28.1
						c-4.3-6.5-10.6-9.7-18.7-9.7c-8.2,0-14.4,3.2-18.7,9.7c-4.3,6.5-6.5,15.8-6.5,28.1c0,12.3,2.2,21.7,6.5,28.1
						C130.9,80.7,137.2,83.9,145.3,83.9"/>
				</g>
			</g>
		</g>
	</g>
	<g id="text_17">
		<g transform="translate(28.617187 261.457688)rotate(-90)scale(0.1 -0.1)">
			<g>
				<path id="DejaVuSans-50" d="M29.4,46.7V19.3h12.4c4.6,0,8.1,1.2,10.6,3.6c2.5,2.4,3.8,5.8,3.8,10.2c0,4.4-1.3,7.7-3.8,10.1
					c-2.5,2.4-6,3.6-10.6,3.6H29.4z M19.5,54.8h22.3c8.2,0,14.4-1.8,18.5-5.5c4.2-3.7,6.3-9.1,6.3-16.2c0-7.2-2.1-12.6-6.3-16.3
					C56.1,13,50,11.2,41.8,11.2H29.4v-29.3h-9.9V54.8z"/>
			</g>
			<g>
				<path id="DejaVuSans-72" d="M111.1,28.2c-1,0.6-2.1,1-3.3,1.3c-1.2,0.3-2.5,0.4-3.9,0.4c-5.1,0-9-1.7-11.7-5s-4.1-8-4.1-14.2
					v-28.8h-9v54.7h9v-8.5c1.9,3.3,4.4,5.8,7.4,7.4c3,1.6,6.7,2.4,11,2.4c0.6,0,1.3,0,2-0.1c0.8-0.1,1.6-0.2,2.5-0.4L111.1,28.2z"/>
			</g>
			<g>
				<path id="DejaVuSans-65_1_" d="M167.3,11.5V7.1H126c0.4-6.2,2.3-10.9,5.6-14.1c3.3-3.2,8-4.9,13.9-4.9c3.4,0,6.8,0.4,10,1.3
					s6.5,2.1,9.7,3.8v-8.5c-3.2-1.4-6.5-2.4-9.9-3.1s-6.8-1.1-10.3-1.1c-8.7,0-15.6,2.5-20.7,7.6c-5.1,5.1-7.6,12-7.6,20.6
					c0,8.9,2.4,16,7.3,21.3c4.8,5.3,11.4,7.9,19.6,7.9c7.4,0,13.2-2.4,17.5-7.1C165.1,26,167.3,19.6,167.3,11.5 M158.3,14.1
					c-0.1,4.9-1.4,8.8-4.1,11.7c-2.7,2.9-6.2,4.4-10.7,4.4c-5,0-9-1.4-12-4.3c-3-2.8-4.7-6.8-5.2-12L158.3,14.1z"/>
			</g>
			<g>
				<path id="DejaVuSans-76" d="M175.6,36.6h9.5l17.1-45.9l17.1,45.9h9.5l-20.5-54.7h-12.2L175.6,36.6z"/>
			</g>
			<g>
				<path id="DejaVuSans-61" d="M266.1,9.4c-7.3,0-12.3-0.8-15.1-2.5s-4.2-4.5-4.2-8.5c0-3.2,1.1-5.7,3.2-7.6c2.1-1.9,5-2.8,8.6-2.8
					c5,0,9,1.8,12,5.3c3,3.5,4.5,8.2,4.5,14.1v2H266.1z M284,13.1v-31.2h-9v8.3c-2.1-3.3-4.6-5.8-7.7-7.3s-6.8-2.4-11.2-2.4
					c-5.6,0-10,1.6-13.4,4.7c-3.3,3.1-5,7.4-5,12.6c0,6.1,2.1,10.8,6.2,13.9c4.1,3.1,10.3,4.7,18.4,4.7H275v0.9
					c0,4.1-1.4,7.3-4.1,9.6s-6.5,3.4-11.5,3.4c-3.1,0-6.2-0.4-9.1-1.1c-3-0.8-5.8-1.9-8.5-3.4v8.3c3.3,1.3,6.5,2.2,9.6,2.8
					c3.1,0.6,6.1,1,9,1c7.9,0,13.8-2.1,17.7-6.2C282,27.6,284,21.4,284,13.1"/>
			</g>
			<g>
				<path id="DejaVuSans-6c" d="M302.5,57.9h9v-76h-9V57.9z"/>
			</g>
			<g>
				<path id="DejaVuSans-65_2_" d="M377.1,11.5V7.1h-41.3c0.4-6.2,2.3-10.9,5.6-14.1c3.3-3.2,8-4.9,13.9-4.9c3.4,0,6.8,0.4,10,1.3
					c3.2,0.8,6.5,2.1,9.7,3.8v-8.5c-3.2-1.4-6.5-2.4-9.9-3.1c-3.4-0.7-6.8-1.1-10.3-1.1c-8.7,0-15.6,2.5-20.7,7.6
					c-5.1,5.1-7.6,12-7.6,20.6c0,8.9,2.4,16,7.3,21.3c4.8,5.3,11.4,7.9,19.6,7.9c7.4,0,13.2-2.4,17.5-7.1
					C374.9,26,377.1,19.6,377.1,11.5 M368.1,14.1c-0.1,4.9-1.4,8.8-4.1,11.7c-2.7,2.9-6.2,4.4-10.7,4.4c-5,0-9-1.4-12-4.3
					c-3-2.8-4.7-6.8-5.2-12L368.1,14.1z"/>
			</g>
			<g>
				<path id="DejaVuSans-6e_1_" d="M437.3,14.9v-33h-9v32.7c0,5.2-1,9-3,11.6c-2,2.6-5,3.9-9.1,3.9c-4.9,0-8.7-1.5-11.5-4.6
					c-2.8-3.1-4.2-7.3-4.2-12.6v-30.9h-9v54.7h9v-8.5c2.2,3.3,4.7,5.8,7.6,7.4c2.9,1.6,6.3,2.4,10.1,2.4c6.3,0,11-1.9,14.3-5.8
					C435.6,28.2,437.3,22.4,437.3,14.9"/>
			</g>
			<g>
				<path id="DejaVuSans-63" d="M494.5,34.5v-8.4c-2.5,1.4-5.1,2.5-7.6,3.2c-2.6,0.7-5.1,1-7.7,1c-5.8,0-10.4-1.8-13.6-5.5
					c-3.2-3.7-4.8-8.9-4.8-15.5s1.6-11.9,4.8-15.6c3.2-3.7,7.8-5.5,13.6-5.5c2.6,0,5.2,0.3,7.7,1c2.6,0.7,5.1,1.8,7.6,3.2V-16
					c-2.5-1.2-5.1-2-7.8-2.6c-2.7-0.6-5.5-0.9-8.6-0.9c-8.2,0-14.8,2.6-19.6,7.8c-4.8,5.2-7.3,12.2-7.3,21c0,8.9,2.4,15.9,7.3,21
					c4.9,5.1,11.6,7.7,20.2,7.7c2.8,0,5.5-0.3,8.1-0.9C489.5,36.4,492.1,35.6,494.5,34.5"/>
			</g>
			<g>
				<path id="DejaVuSans-65_3_" d="M556.9,11.5V7.1h-41.3c0.4-6.2,2.3-10.9,5.6-14.1c3.3-3.2,8-4.9,13.9-4.9c3.4,0,6.8,0.4,10,1.3
					c3.2,0.8,6.5,2.1,9.7,3.8v-8.5c-3.2-1.4-6.5-2.4-9.9-3.1s-6.8-1.1-10.3-1.1c-8.7,0-15.6,2.5-20.7,7.6c-5.1,5.1-7.6,12-7.6,20.6
					c0,8.9,2.4,16,7.3,21.3c4.8,5.3,11.4,7.9,19.6,7.9c7.4,0,13.2-2.4,17.5-7.1C554.8,26,556.9,19.6,556.9,11.5 M548,14.1
					c-0.1,4.9-1.4,8.8-4.1,11.7c-2.7,2.9-6.2,4.4-10.7,4.4c-5,0-9-1.4-12-4.3c-3-2.8-4.7-6.8-5.2-12L548,14.1z"/>
			</g>
			<g>
				<path id="DejaVuSans-20_1_" d="M562.3-18.1"/>
			</g>
			<g>
				<path id="DejaVuSans-28_1_" d="M625,57.7c-4.4-7.5-7.6-14.9-9.7-22.2c-2.1-7.3-3.2-14.7-3.2-22.3c0-7.5,1.1-15,3.2-22.3
					c2.1-7.4,5.4-14.8,9.7-22.3h-7.8c-4.9,7.7-8.5,15.2-11,22.6c-2.4,7.4-3.6,14.7-3.6,22c0,7.3,1.2,14.6,3.6,21.9
					c2.4,7.4,6.1,14.9,11,22.6H625z"/>
			</g>
			<g>
				<path id="DejaVuSans-66" d="M670.2,57.9v-7.5h-8.6c-3.2,0-5.5-0.7-6.7-2c-1.3-1.3-1.9-3.6-1.9-7v-4.8h14.8v-7H653v-47.7h-9v47.7
					h-8.6v7h8.6v3.8c0,6.1,1.4,10.5,4.3,13.3c2.8,2.8,7.3,4.2,13.5,4.2H670.2z"/>
			</g>
			<g>
				<path id="DejaVuSans-72_1_" d="M709.4,28.2c-1,0.6-2.1,1-3.3,1.3c-1.2,0.3-2.5,0.4-3.9,0.4c-5.1,0-9-1.7-11.7-5s-4.1-8-4.1-14.2
					v-28.8h-9v54.7h9v-8.5c1.9,3.3,4.4,5.8,7.4,7.4c3,1.6,6.7,2.4,11,2.4c0.6,0,1.3,0,2-0.1c0.8-0.1,1.6-0.2,2.5-0.4L709.4,28.2z"/>
			</g>
			<g>
				<path id="DejaVuSans-61_1_" d="M743.7,9.4c-7.3,0-12.3-0.8-15.1-2.5s-4.2-4.5-4.2-8.5c0-3.2,1.1-5.7,3.2-7.6
					c2.1-1.9,5-2.8,8.6-2.8c5,0,9,1.8,12,5.3s4.5,8.2,4.5,14.1v2H743.7z M761.6,13.1v-31.2h-9v8.3c-2.1-3.3-4.6-5.8-7.7-7.3
					s-6.8-2.4-11.2-2.4c-5.6,0-10,1.6-13.4,4.7c-3.3,3.1-5,7.4-5,12.6c0,6.1,2.1,10.8,6.2,13.9c4.1,3.1,10.3,4.7,18.4,4.7h12.6v0.9
					c0,4.1-1.4,7.3-4.1,9.6s-6.5,3.4-11.5,3.4c-3.1,0-6.2-0.4-9.1-1.1c-3-0.8-5.8-1.9-8.5-3.4v8.3c3.3,1.3,6.5,2.2,9.6,2.8
					c3.1,0.6,6.1,1,9,1c7.9,0,13.8-2.1,17.7-6.2C759.6,27.6,761.6,21.4,761.6,13.1"/>
			</g>
			<g>
				<path id="DejaVuSans-63_1_" d="M819.4,34.5v-8.4c-2.5,1.4-5.1,2.5-7.6,3.2s-5.1,1-7.7,1c-5.8,0-10.4-1.8-13.6-5.5
					c-3.2-3.7-4.8-8.9-4.8-15.5s1.6-11.9,4.8-15.6c3.2-3.7,7.8-5.5,13.6-5.5c2.6,0,5.2,0.3,7.7,1c2.6,0.7,5.1,1.8,7.6,3.2V-16
					c-2.5-1.2-5.1-2-7.8-2.6c-2.7-0.6-5.5-0.9-8.6-0.9c-8.2,0-14.8,2.6-19.6,7.8c-4.8,5.2-7.3,12.2-7.3,21c0,8.9,2.4,15.9,7.3,21
					c4.9,5.1,11.6,7.7,20.2,7.7c2.8,0,5.5-0.3,8.1-0.9C814.4,36.4,817,35.6,819.4,34.5"/>
			</g>
			<g>
				<path id="DejaVuSans-74_1_" d="M843.9,52.1V36.6h18.5v-7h-18.5V-0.1c0-4.5,0.6-7.3,1.8-8.6s3.7-1.9,7.5-1.9h9.2v-7.5h-9.2
					c-6.9,0-11.7,1.3-14.4,3.9c-2.6,2.6-4,7.3-4,14.1v29.7h-6.6v7h6.6v15.5H843.9z"/>
			</g>
			<g>
				<path id="DejaVuSans-69_1_" d="M874.3,36.6h9v-54.7h-9V36.6z M874.3,57.9h9V46.5h-9V57.9z"/>
			</g>
			<g>
				<path id="DejaVuSans-6f_1_" d="M923.2,30.3c-4.8,0-8.6-1.9-11.4-5.6s-4.2-8.9-4.2-15.5s1.4-11.7,4.2-15.5
					c2.8-3.8,6.6-5.6,11.5-5.6c4.8,0,8.6,1.9,11.4,5.7c2.8,3.8,4.2,8.9,4.2,15.4c0,6.5-1.4,11.6-4.2,15.4
					C931.8,28.4,928,30.3,923.2,30.3 M923.2,37.9c7.8,0,13.9-2.5,18.4-7.6c4.5-5.1,6.7-12.1,6.7-21.1c0-8.9-2.2-16-6.7-21.1
					c-4.5-5.1-10.6-7.6-18.4-7.6c-7.8,0-14,2.5-18.4,7.6c-4.4,5.1-6.7,12.1-6.7,21.1c0,9,2.2,16,6.7,21.1
					C909.2,35.3,915.4,37.9,923.2,37.9"/>
			</g>
			<g>
				<path id="DejaVuSans-6e_2_" d="M1008.7,14.9v-33h-9v32.7c0,5.2-1,9-3,11.6c-2,2.6-5,3.9-9.1,3.9c-4.9,0-8.7-1.5-11.5-4.6
					c-2.8-3.1-4.2-7.3-4.2-12.6v-30.9h-9v54.7h9v-8.5c2.2,3.3,4.7,5.8,7.6,7.4c2.9,1.6,6.3,2.4,10.1,2.4c6.3,0,11-1.9,14.3-5.8
					C1007.1,28.2,1008.7,22.4,1008.7,14.9"/>
			</g>
			<g>
				<path id="DejaVuSans-20_2_" d="M1017.2-18.1"/>
			</g>
			<g>
				<path id="DejaVuSans-6f_2_" d="M1079.6,30.3c-4.8,0-8.6-1.9-11.4-5.6c-2.8-3.8-4.2-8.9-4.2-15.5s1.4-11.7,4.2-15.5
					c2.8-3.8,6.6-5.6,11.5-5.6c4.8,0,8.6,1.9,11.4,5.7c2.8,3.8,4.2,8.9,4.2,15.4c0,6.5-1.4,11.6-4.2,15.4
					C1088.2,28.4,1084.4,30.3,1079.6,30.3 M1079.6,37.9c7.8,0,13.9-2.5,18.4-7.6c4.5-5.1,6.7-12.1,6.7-21.1c0-8.9-2.2-16-6.7-21.1
					c-4.5-5.1-10.6-7.6-18.4-7.6c-7.8,0-14,2.5-18.4,7.6c-4.4,5.1-6.7,12.1-6.7,21.1c0,9,2.2,16,6.7,21.1
					C1065.6,35.3,1071.7,37.9,1079.6,37.9"/>
			</g>
			<g>
				<path id="DejaVuSans-66_1_" d="M1147.3,57.9v-7.5h-8.6c-3.2,0-5.5-0.7-6.7-2c-1.3-1.3-1.9-3.6-1.9-7v-4.8h14.8v-7h-14.8v-47.7
					h-9v47.7h-8.6v7h8.6v3.8c0,6.1,1.4,10.5,4.3,13.3c2.8,2.8,7.3,4.2,13.5,4.2H1147.3z"/>
			</g>
			<g>
				<path id="DejaVuSans-20_3_" d="M1145.4-18.1"/>
			</g>
			<g>
				<path id="DejaVuSans-70" d="M1195.3-9.9v-29h-9v75.5h9v-8.3c1.9,3.3,4.3,5.7,7.2,7.2c2.9,1.6,6.3,2.4,10.3,2.4
					c6.6,0,12-2.6,16.2-7.9c4.2-5.3,6.2-12.2,6.2-20.8s-2.1-15.5-6.2-20.8c-4.1-5.3-9.5-7.9-16.2-7.9c-4,0-7.4,0.8-10.3,2.4
					C1199.5-15.6,1197.2-13.2,1195.3-9.9 M1225.8,9.2c0,6.6-1.4,11.8-4.1,15.5s-6.5,5.6-11.2,5.6c-4.8,0-8.5-1.9-11.2-5.6
					s-4.1-8.9-4.1-15.5s1.4-11.8,4.1-15.5s6.5-5.6,11.2-5.6c4.8,0,8.5,1.9,11.2,5.6S1225.8,2.6,1225.8,9.2"/>
			</g>
			<g>
				<path id="DejaVuSans-6f_3_" d="M1271.2,30.3c-4.8,0-8.6-1.9-11.4-5.6c-2.8-3.8-4.2-8.9-4.2-15.5s1.4-11.7,4.2-15.5
					c2.8-3.8,6.6-5.6,11.5-5.6c4.8,0,8.6,1.9,11.4,5.7c2.8,3.8,4.2,8.9,4.2,15.4c0,6.5-1.4,11.6-4.2,15.4
					C1279.8,28.4,1276,30.3,1271.2,30.3 M1271.2,37.9c7.8,0,13.9-2.5,18.4-7.6c4.5-5.1,6.7-12.1,6.7-21.1c0-8.9-2.2-16-6.7-21.1
					c-4.5-5.1-10.6-7.6-18.4-7.6c-7.8,0-14,2.5-18.4,7.6c-4.4,5.1-6.7,12.1-6.7,21.1c0,9,2.2,16,6.7,21.1
					C1257.2,35.3,1263.4,37.9,1271.2,37.9"/>
			</g>
			<g>
				<path id="DejaVuSans-70_1_" d="M1319.9-9.9v-29h-9v75.5h9v-8.3c1.9,3.3,4.3,5.7,7.2,7.2c2.9,1.6,6.3,2.4,10.3,2.4
					c6.6,0,12-2.6,16.2-7.9c4.2-5.3,6.2-12.2,6.2-20.8s-2.1-15.5-6.2-20.8c-4.1-5.3-9.5-7.9-16.2-7.9c-4,0-7.4,0.8-10.3,2.4
					C1324.2-15.6,1321.8-13.2,1319.9-9.9 M1350.5,9.2c0,6.6-1.4,11.8-4.1,15.5s-6.5,5.6-11.2,5.6c-4.8,0-8.5-1.9-11.2-5.6
					s-4.1-8.9-4.1-15.5s1.4-11.8,4.1-15.5s6.5-5.6,11.2-5.6c4.8,0,8.5,1.9,11.2,5.6S1350.5,2.6,1350.5,9.2"/>
			</g>
			<g>
				<path id="DejaVuSans-75" d="M1373.8,3.4v33.1h9V3.8c0-5.2,1-9.1,3-11.7c2-2.6,5.1-3.9,9.1-3.9c4.8,0,8.7,1.5,11.5,4.6
					c2.8,3.1,4.2,7.3,4.2,12.7v31h9v-54.7h-9v8.4c-2.2-3.3-4.7-5.8-7.6-7.4c-2.9-1.6-6.2-2.4-10-2.4c-6.3,0-11.1,2-14.3,5.9
					C1375.4-9.8,1373.8-4.1,1373.8,3.4z"/>
			</g>
			<g>
				<path id="DejaVuSans-6c_1_" d="M1438.1,57.9h9v-76h-9V57.9z"/>
			</g>
			<g>
				<path id="DejaVuSans-61_2_" d="M1490.7,9.4c-7.3,0-12.3-0.8-15.1-2.5c-2.8-1.7-4.2-4.5-4.2-8.5c0-3.2,1.1-5.7,3.2-7.6
					c2.1-1.9,5-2.8,8.6-2.8c5,0,9,1.8,12,5.3c3,3.5,4.5,8.2,4.5,14.1v2H1490.7z M1508.6,13.1v-31.2h-9v8.3c-2.1-3.3-4.6-5.8-7.7-7.3
					s-6.8-2.4-11.2-2.4c-5.6,0-10,1.6-13.4,4.7c-3.3,3.1-5,7.4-5,12.6c0,6.1,2.1,10.8,6.2,13.9c4.1,3.1,10.3,4.7,18.4,4.7h12.6v0.9
					c0,4.1-1.4,7.3-4.1,9.6s-6.5,3.4-11.5,3.4c-3.1,0-6.2-0.4-9.1-1.1c-3-0.8-5.8-1.9-8.5-3.4v8.3c3.3,1.3,6.5,2.2,9.6,2.8
					c3.1,0.6,6.1,1,9,1c7.9,0,13.8-2.1,17.7-6.2C1506.7,27.6,1508.6,21.4,1508.6,13.1"/>
			</g>
			<g>
				<path id="DejaVuSans-74_2_" d="M1536,52.1V36.6h18.5v-7H1536V-0.1c0-4.5,0.6-7.3,1.8-8.6s3.7-1.9,7.5-1.9h9.2v-7.5h-9.2
					c-6.9,0-11.7,1.3-14.4,3.9c-2.6,2.6-4,7.3-4,14.1v29.7h-6.6v7h6.6v15.5H1536z"/>
			</g>
			<g>
				<path id="DejaVuSans-69_2_" d="M1566.4,36.6h9v-54.7h-9V36.6z M1566.4,57.9h9V46.5h-9V57.9z"/>
			</g>
			<g>
				<path id="DejaVuSans-6f_4_" d="M1615.3,30.3c-4.8,0-8.6-1.9-11.4-5.6c-2.8-3.8-4.2-8.9-4.2-15.5s1.4-11.7,4.2-15.5
					c2.8-3.8,6.6-5.6,11.5-5.6c4.8,0,8.6,1.9,11.4,5.7c2.8,3.8,4.2,8.9,4.2,15.4c0,6.5-1.4,11.6-4.2,15.4
					C1623.9,28.4,1620.1,30.3,1615.3,30.3 M1615.3,37.9c7.8,0,13.9-2.5,18.4-7.6c4.5-5.1,6.7-12.1,6.7-21.1c0-8.9-2.2-16-6.7-21.1
					c-4.5-5.1-10.6-7.6-18.4-7.6c-7.8,0-14,2.5-18.4,7.6c-4.4,5.1-6.7,12.1-6.7,21.1c0,9,2.2,16,6.7,21.1
					C1601.3,35.3,1607.5,37.9,1615.3,37.9"/>
			</g>
			<g>
				<path id="DejaVuSans-6e_3_" d="M1700.8,14.9v-33h-9v32.7c0,5.2-1,9-3,11.6c-2,2.6-5,3.9-9.1,3.9c-4.9,0-8.7-1.5-11.5-4.6
					c-2.8-3.1-4.2-7.3-4.2-12.6v-30.9h-9v54.7h9v-8.5c2.2,3.3,4.7,5.8,7.6,7.4c2.9,1.6,6.3,2.4,10.1,2.4c6.3,0,11-1.9,14.3-5.8
					C1699.2,28.2,1700.8,22.4,1700.8,14.9"/>
			</g>
			<g>
				<path id="DejaVuSans-29_1_" d="M1717.3,57.7h7.8c4.9-7.7,8.5-15.2,11-22.6c2.4-7.4,3.6-14.7,3.6-21.9c0-7.3-1.2-14.6-3.6-22
					c-2.4-7.4-6.1-14.9-11-22.6h-7.8c4.3,7.5,7.6,14.9,9.7,22.3c2.1,7.4,3.2,14.8,3.2,22.3c0,7.5-1.1,14.9-3.2,22.3
					C1724.8,42.9,1721.6,50.3,1717.3,57.7"/>
			</g>
		</g>
	</g>
</g>
<g id="line2d_31">
	<g>
		<defs>
			<rect id="SVGID_31_" x="59.4" y="40.5" width="357.1" height="266.1"/>
		</defs>
		<clipPath id="SVGID_32_">
			<use xlink:href="#SVGID_31_"  style="overflow:visible;"/>
		</clipPath>
		<path class="st17" d="M58.7,186.9H147l0.7,28.8h268l0,0"/>
	</g>
</g>
<g>
	<defs>
		<rect id="SVGID_33_" x="59.4" y="40.5" width="357.1" height="266.1"/>
	</defs>
	<clipPath id="SVGID_34_">
		<use xlink:href="#SVGID_33_"  style="overflow:visible;"/>
	</clipPath>
	<path class="st18" d="M58.7,196.9l0.7-0.3l0.7,0.5l0.7-0.5l0.7-0.4l0.7-0.7l0.7-0.2l2.2,0.3l1.5-0.7l0.7-0.2l0.7-0.5l2.2,0.2
		l0.7,0.5l0.7,0.2l0.7-0.3l2.2,0.5l0.7-0.5l0.7-0.1l1.5,0.2l0.7-0.6l0.7,0.6l0.7-0.5l1.5-0.1l0.7-0.4l2.2,0.2l0.7-0.1l0.7,0.8
		l1.5-0.3l0.7,0.2l0.7-0.2l0.7,0.1l0.7-0.5l0.7-0.1l0.7-0.2l0.7,0.3l1.5,0.1l0.7,0.8l0.7-0.3l0.7-0.1L97,195l0.7,0.9l0.7-0.8
		l0.7,0.3l0.7-0.2l0.7,0.2l0.7-0.2l0.7-0.3l0.7,0.4l0.7-0.2l0.7-0.7l0.7-0.5l1.5,0.4l0.7,0.3l0.7,0.5l0.7,0.8l0.7,0.2l1.5-0.2
		l1.5-1.5l0.7-0.3l0.7-0.5l2.2,1.1l0.7,0.7l0.7,0.1l0.7-0.4l1.5-0.3l0.7,0.1l0.7-0.3l0.7,0.4l0.7,0.2l0.7,0.7h0.7l0.7,0.7l0.7-0.6
		l0.7-0.2l0.7-0.5l0.7-0.3l0.7-0.1l0.7,0.2l0.7,0l0.7,0.6l0.7,1l0.7,0.2h1.5l0.7,0l0.7-1.1l2.2-0.5l0.7,0.1l0.7,0.5l0.7-0.1l1.5,0.4
		l0.7-0.4l0.7-0.2l0.7,0.1l0.7,0.3l0.7,0.7l0.7-0.5l0.7,0.7l0.7-0.5l0.7,1.4l0.7,0.9l2.2,4.8l0.7,0.1l0.7,0.3l0.7-0.1l0.7-0.2
		l1.5,0.4l0.7,0.1l0.7-0.2l0.7-0.3l0.7-0.1l0.7-0.3l0.7,0l0.7,0.2l2.2,0l0.7,0.1l2.2-0.2l0.7,0.3l0.7-0.1l0.7,0.4l0.7,0l0.7,0.2
		l0.7-0.1l0.7,0.3h0.7l2.2-0.5l0.7-0.4l0.7-0.2l1.5,0.1l2.2,0l1.5-0.3l2.2,0.3l0.7,0.3l0.7,0l0.7-0.5l0.7,0.3l1.5-0.6l0.7-0.2
		l1.5,0.5l2.9,0l0.7-0.2l0.7,0.3l0.7,0.1l1.5-0.2l0.7,0l1.5-0.6l1.5,0.3l0.7-0.4l0.7,0.1l2.2-0.4l0.7,0.1l0.7-0.3l0.7-0.1l0.7,0.2
		l2.2,0.1l1.5-0.2l0.7,0.1l0.7-0.1l1.5,0.3l0.7,0l0.7-0.3l0.7-0.5l2.9,0l0.7,0.2l0.7-0.2l2.2,0.1l0.7,0.2l0.7,0.3h0.7l0.7,0.2
		l0.7-0.3l1.5-0.1l0.7,0.1l2.9-0.1l0.7-0.3h0.7l0.7,0.2l1.5,0.2l0.7,0.1l0.7-0.5l2.9-0.2l0.7,0.4l2.2,0.3l0.7-0.1l0.7-0.3h0.7
		l0.7-0.1h0.7l0.7-0.1l2.2,0.3l0.7-0.2l0.7-0.1l0.7-0.2l0.7,0.3l1.5-0.4l0.7-0.3l0.7,0.3l1.5-0.2l0.7,0.3l0.7-0.1l1.5,0.3l2.2,0.9
		l0.7-0.1l2.9,0.6l0.7,0.2l1.5-0.8l0.7,0.2l1.5-0.3l0.7,0.1l2.2-0.3l0.7,0l0.7-0.4l0.7,0.5l3.7,1l2.2-0.2l0.7,0.2l0.7-0.2l0.7,0.1
		l0.7-0.2h0.7l0.7-0.2l0.7,0.1l0.7-0.1l2.9,0.3l0.7,0.3l1.5-0.2l0.7,0.2l0.7,0l0.7,0.1l0.7,0.4l0.7,0.3l0.7-0.1l0.7,0.2l2.9-0.3
		l0.7,0.4l1.5,0.1l0.7,0.3l0.7-0.2l2.2,0.3h0.7l0.7,0.4l1.5,0l0.7,0.1l0.7,0l0.7-0.3l1.5,0.4l1.5-0.4l0.7,0.1l0.7,0.2l0.7-0.3
		l0.7,0.5l0.7,0.3l1.5,0.2l0.7,0l0.7,0.2l0.7,0.3l0.7,0.1l0.7-0.1l1.5,0.6l1.5,0.1l1.5,0.7l1.5,0.2l1.5,0.2l0.7-0.3l1.5,0.2l1.5,0.5
		h1.5l0.7-0.3l0.7-0.2l0.7,0.2l0.7,0l0.7,0.5l0.7,0.2l0.7-0.1l0.7-0.3l0.7,0.5l0.7-0.2h0.7l0.7,0.1l0.7,0.7l0.7-0.3l0.7,0.1l0.7,0.4
		l0.7,0.2l0.7,0l0.7,0.6l0.7,0.4l0.7-0.2l1.5,0.4l1.5-0.1l0.7,0.5l0.7,0.2l0.7,0l0.7,0.4l0.7,0.1l0.7,0.2l0.7,0.5l0.7,0.2l0.7,0
		l0.7,0.1l0.7-0.2l0.7,0.3l1.5,0.8l0.7-0.2l0.7,0l0.7,0.2l3.7,0.4l0.7,0.4l0.7,0.2l1.5,0.2l0.7,0.1l1.5,0.8l4.4,1.3l1.5,0.2l0.7-0.3
		l0.7,0.4l0.7-0.4l0.7,0.3l0.7,1.2l0.7,0.3l0.7-0.1l0.7,0.3l0.7,0.2l0.7,0l1.5,0.6l1.5,0.3l0.7,0.2l0.7,0.4l0.7-0.2l0.7,0.2l0.7,0.4
		l0.7-0.1l0.7,0.3l0.7,0.6l0.7,0.4l0.7,0.2l0.7,0.7l0.7,0.5l3.7,0.9l1.5,0.8h0.7l0.7,0.3l1.5,0l0.7,0.5l0.7,0.3l0.7,0.5l0.7,0.8
		l0.7,0l1.5,0.8l0.7,0.4l0.7-0.1l0.7,0.8l1.5,0l0,0"/>
</g>
<g id="line2d_33">
	<g>
		<defs>
			<rect id="SVGID_35_" x="59.4" y="40.5" width="357.1" height="266.1"/>
		</defs>
		<clipPath id="SVGID_36_">
			<use xlink:href="#SVGID_35_"  style="overflow:visible;"/>
		</clipPath>
		<g class="st19">
			<g>
				<path id="m411fdb69f8" class="st20" d="M147.8,175.1c0.4,0,0.8-0.2,1.1-0.4c0.3-0.3,0.4-0.7,0.4-1.1c0-0.4-0.2-0.8-0.4-1.1
					c-0.3-0.3-0.7-0.4-1.1-0.4c-0.4,0-0.8,0.2-1.1,0.4c-0.3,0.3-0.4,0.7-0.4,1.1c0,0.4,0.2,0.8,0.4,1.1
					C147,174.9,147.4,175.1,147.8,175.1z"/>
			</g>
		</g>
	</g>
</g>
<g id="line2d_34">
	<g>
		<defs>
			<rect id="SVGID_37_" x="59.4" y="40.5" width="357.1" height="266.1"/>
		</defs>
		<clipPath id="SVGID_38_">
			<use xlink:href="#SVGID_37_"  style="overflow:visible;"/>
		</clipPath>
		<g class="st21">
			<g>
				<path id="m461a187539" class="st22" d="M147.8,148.4c0.4,0,0.8-0.2,1.1-0.4c0.3-0.3,0.4-0.7,0.4-1.1c0-0.4-0.2-0.8-0.4-1.1
					c-0.3-0.3-0.7-0.4-1.1-0.4c-0.4,0-0.8,0.2-1.1,0.4c-0.3,0.3-0.4,0.7-0.4,1.1c0,0.4,0.2,0.8,0.4,1.1
					C147,148.3,147.4,148.4,147.8,148.4z"/>
			</g>
		</g>
	</g>
</g>
<g id="line2d_35">
	<g>
		<defs>
			<rect id="SVGID_39_" x="59.4" y="40.5" width="357.1" height="266.1"/>
		</defs>
		<clipPath id="SVGID_40_">
			<use xlink:href="#SVGID_39_"  style="overflow:visible;"/>
		</clipPath>
		<g class="st23">
			<g>
				<path id="m29328a94e2" class="st24" d="M147.8,121.8c0.4,0,0.8-0.2,1.1-0.4c0.3-0.3,0.4-0.7,0.4-1.1s-0.2-0.8-0.4-1.1
					c-0.3-0.3-0.7-0.4-1.1-0.4c-0.4,0-0.8,0.2-1.1,0.4c-0.3,0.3-0.4,0.7-0.4,1.1s0.2,0.8,0.4,1.1C147,121.7,147.4,121.8,147.8,121.8
					z"/>
			</g>
		</g>
	</g>
</g>
<g id="patch_3">
	<path class="st25" d="M59.4,306.6V40.5"/>
</g>
<g id="patch_4">
	<path class="st25" d="M416.5,306.6V40.5"/>
</g>
<g id="patch_5">
	<path class="st25" d="M59.4,306.6h357.1"/>
</g>
<g id="patch_6">
	<path class="st25" d="M59.4,40.5h357.1"/>
</g>
<g id="text_18">
	<g transform="translate(151.207646 237.074341)rotate(-45)scale(0.1 -0.1)">
		<g>
			<path id="DejaVuSans-74_3_" d="M38,64.3V48.7h18.5v-7H38V12.1c0-4.5,0.6-7.3,1.8-8.6c1.2-1.3,3.7-1.9,7.5-1.9h9.2V-6h-9.2
				c-6.9,0-11.7,1.3-14.4,3.9c-2.6,2.6-4,7.3-4,14.1v29.7h-6.6v7H29v15.5H38z"/>
		</g>
		<g>
			<path id="DejaVuSans-5f" d="M109.9-22.6v-7h-52v7H109.9z"/>
		</g>
		<g>
			<path id="DejaVuSans-70_2_" d="M127,2.2v-29h-9v75.5h9v-8.3c1.9,3.2,4.3,5.7,7.2,7.2c2.9,1.6,6.3,2.4,10.3,2.4
				c6.6,0,12-2.6,16.2-7.9c4.2-5.3,6.2-12.2,6.2-20.8s-2.1-15.5-6.2-20.8c-4.1-5.3-9.5-7.9-16.2-7.9c-4,0-7.4,0.8-10.3,2.4
				C131.3-3.4,128.9-1,127,2.2 M157.6,21.3c0,6.6-1.4,11.8-4.1,15.5c-2.7,3.8-6.5,5.6-11.2,5.6c-4.8,0-8.5-1.9-11.2-5.6
				c-2.7-3.8-4.1-8.9-4.1-15.5s1.4-11.8,4.1-15.5c2.7-3.8,6.5-5.6,11.2-5.6c4.7,0,8.5,1.9,11.2,5.6S157.6,14.7,157.6,21.3"/>
		</g>
		<g>
			<path id="DejaVuSans-7a" d="M177.9,48.7h42.7v-8.2L186.8,1.2h33.8V-6h-43.9v8.2l33.8,39.3h-32.6V48.7z"/>
		</g>
		<g>
			<path id="DejaVuSans-71" d="M239.7,21.3c0-6.6,1.4-11.8,4.1-15.5c2.7-3.8,6.5-5.6,11.2-5.6c4.7,0,8.5,1.9,11.2,5.6
				c2.7,3.8,4.1,8.9,4.1,15.5s-1.4,11.8-4.1,15.5c-2.7,3.8-6.5,5.6-11.2,5.6c-4.7,0-8.5-1.9-11.2-5.6
				C241,33.1,239.7,27.9,239.7,21.3 M270.3,2.2C268.4-1,266-3.4,263.1-5c-2.9-1.6-6.3-2.4-10.4-2.4c-6.6,0-12,2.6-16.1,7.9
				c-4.1,5.3-6.2,12.2-6.2,20.8s2.1,15.5,6.2,20.8c4.2,5.3,9.5,7.9,16.1,7.9c4,0,7.5-0.8,10.4-2.4c2.9-1.6,5.3-4,7.2-7.2v8.3h9
				v-75.5h-9V2.2z"/>
		</g>
		<g>
			<path id="DejaVuSans-3a" d="M300.1,6.5h10.3V-6h-10.3V6.5z M300.1,45.7h10.3V33.4h-10.3V45.7z"/>
		</g>
		<g>
			<path id="DejaVuSans-20_4_" d="M322-6"/>
		</g>
		<g>
			<path id="DejaVuSans-32_4_" d="M373,2.3h34.4V-6h-46.3v8.3c3.7,3.9,8.8,9.1,15.3,15.6c6.5,6.5,10.5,10.7,12.2,12.6
				c3.2,3.5,5.4,6.5,6.6,9c1.3,2.5,1.9,4.9,1.9,7.2c0,3.9-1.4,7-4.1,9.5c-2.7,2.4-6.3,3.7-10.6,3.7c-3.1,0-6.4-0.5-9.8-1.6
				c-3.4-1.1-7.1-2.7-11-4.9v10c4,1.6,7.7,2.8,11.1,3.6c3.5,0.8,6.6,1.2,9.5,1.2c7.6,0,13.6-1.9,18.1-5.7c4.5-3.8,6.7-8.8,6.7-15.1
				c0-3-0.6-5.8-1.7-8.5c-1.1-2.7-3.2-5.8-6.1-9.5c-0.8-0.9-3.4-3.7-7.8-8.2C387.1,16.8,381,10.4,373,2.3"/>
		</g>
		<g>
			<path id="DejaVuSans-30_9_" d="M449.2,60.5c-5.1,0-8.9-2.5-11.5-7.5c-2.6-5-3.8-12.5-3.8-22.5c0-10,1.3-17.5,3.8-22.5
				c2.6-5,6.4-7.5,11.5-7.5c5.1,0,8.9,2.5,11.5,7.5c2.6,5,3.8,12.5,3.8,22.5c0,10-1.3,17.5-3.8,22.5C458.2,58,454.3,60.5,449.2,60.5
				 M449.2,68.3c8.2,0,14.4-3.2,18.7-9.7c4.3-6.5,6.5-15.8,6.5-28.1c0-12.3-2.2-21.6-6.5-28.1c-4.3-6.5-10.6-9.7-18.7-9.7
				c-8.2,0-14.4,3.2-18.7,9.7c-4.3,6.5-6.5,15.8-6.5,28.1c0,12.3,2.2,21.7,6.5,28.1C434.8,65,441.1,68.3,449.2,68.3"/>
		</g>
		<g>
			<path id="DejaVuSans-31_3_" d="M493.5,2.3h16.1V58L492,54.5v9l17.4,3.5h9.9V2.3h16.1V-6h-42V2.3z"/>
		</g>
		<g>
			<path id="DejaVuSans-36_2_" d="M577.7,34.4c-4.4,0-7.9-1.5-10.5-4.5c-2.6-3-3.9-7.2-3.9-12.4c0-5.2,1.3-9.4,3.9-12.4
				c2.6-3,6.1-4.6,10.5-4.6S585.6,2,588.2,5c2.6,3.1,3.9,7.2,3.9,12.4c0,5.3-1.3,9.4-3.9,12.4C585.6,32.9,582.1,34.4,577.7,34.4
				 M597.3,65.3v-9c-2.5,1.2-5,2.1-7.5,2.7c-2.5,0.6-5,0.9-7.5,0.9c-6.5,0-11.5-2.2-14.9-6.6c-3.4-4.4-5.4-11-5.9-19.9
				c1.9,2.8,4.3,5,7.2,6.5c2.9,1.5,6.1,2.3,9.6,2.3c7.3,0,13.1-2.2,17.4-6.7c4.3-4.4,6.4-10.5,6.4-18.1c0-7.5-2.2-13.5-6.6-18
				c-4.4-4.5-10.3-6.8-17.7-6.8c-8.4,0-14.9,3.2-19.3,9.7c-4.5,6.5-6.7,15.8-6.7,28.1c0,11.5,2.7,20.7,8.2,27.6
				c5.5,6.9,12.8,10.3,22,10.3c2.5,0,5-0.2,7.5-0.7S594.5,66.3,597.3,65.3"/>
		</g>
		<g>
			<path id="DejaVuSans-2d" d="M613.2,25.4h26.3v-8h-26.3V25.4z"/>
		</g>
		<g>
			<path id="DejaVuSans-30_10_" d="M676.2,60.5c-5.1,0-8.9-2.5-11.5-7.5c-2.6-5-3.8-12.5-3.8-22.5c0-10,1.3-17.5,3.8-22.5
				c2.6-5,6.4-7.5,11.5-7.5c5.1,0,8.9,2.5,11.5,7.5c2.6,5,3.8,12.5,3.8,22.5c0,10-1.3,17.5-3.8,22.5C685.1,58,681.3,60.5,676.2,60.5
				 M676.2,68.3c8.2,0,14.4-3.2,18.7-9.7c4.3-6.5,6.5-15.8,6.5-28.1c0-12.3-2.2-21.6-6.5-28.1c-4.3-6.5-10.6-9.7-18.7-9.7
				c-8.2,0-14.4,3.2-18.7,9.7c-4.3,6.5-6.5,15.8-6.5,28.1c0,12.3,2.2,21.7,6.5,28.1C661.8,65,668,68.3,676.2,68.3"/>
		</g>
		<g>
			<path id="DejaVuSans-36_3_" d="M741,34.4c-4.4,0-7.9-1.5-10.5-4.5c-2.6-3-3.9-7.2-3.9-12.4c0-5.2,1.3-9.4,3.9-12.4
				c2.6-3,6.1-4.6,10.5-4.6S749,2,751.5,5c2.6,3.1,3.9,7.2,3.9,12.4c0,5.3-1.3,9.4-3.9,12.4C749,32.9,745.5,34.4,741,34.4
				 M760.6,65.3v-9c-2.5,1.2-5,2.1-7.5,2.7c-2.5,0.6-5,0.9-7.5,0.9c-6.5,0-11.5-2.2-14.9-6.6c-3.4-4.4-5.4-11-5.9-19.9
				c1.9,2.8,4.3,5,7.2,6.5c2.9,1.5,6.1,2.3,9.6,2.3c7.3,0,13.1-2.2,17.4-6.7c4.3-4.4,6.4-10.5,6.4-18.1c0-7.5-2.2-13.5-6.6-18
				c-4.4-4.5-10.3-6.8-17.7-6.8c-8.4,0-14.9,3.2-19.3,9.7c-4.5,6.5-6.7,15.8-6.7,28.1c0,11.5,2.7,20.7,8.2,27.6
				c5.5,6.9,12.8,10.3,22,10.3c2.5,0,5-0.2,7.5-0.7S757.9,66.3,760.6,65.3"/>
		</g>
		<g>
			<path id="DejaVuSans-2d_1_" d="M776.5,25.4h26.3v-8h-26.3V25.4z"/>
		</g>
		<g>
			<path id="DejaVuSans-30_11_" d="M839.5,60.5c-5.1,0-8.9-2.5-11.5-7.5c-2.6-5-3.8-12.5-3.8-22.5c0-10,1.3-17.5,3.8-22.5
				c2.6-5,6.4-7.5,11.5-7.5c5.1,0,8.9,2.5,11.5,7.5c2.6,5,3.8,12.5,3.8,22.5c0,10-1.3,17.5-3.8,22.5C848.5,58,844.6,60.5,839.5,60.5
				 M839.5,68.3c8.2,0,14.4-3.2,18.7-9.7c4.3-6.5,6.5-15.8,6.5-28.1c0-12.3-2.2-21.6-6.5-28.1c-4.3-6.5-10.6-9.7-18.7-9.7
				c-8.2,0-14.4,3.2-18.7,9.7c-4.3,6.5-6.5,15.8-6.5,28.1c0,12.3,2.2,21.7,6.5,28.1C825.1,65,831.3,68.3,839.5,68.3"/>
		</g>
		<g>
			<path id="DejaVuSans-31_4_" d="M883.8,2.3h16.1V58l-17.5-3.5v9l17.4,3.5h9.9V2.3h16.1V-6h-42V2.3z"/>
		</g>
	</g>
</g>
<g id="text_19">
	<g transform="translate(151.207646 209.378174)rotate(-45)scale(0.1 -0.1)">
		<g>
			<path id="DejaVuSans-74_4_" d="M38,64.3V48.7h18.5v-7H38V12.1c0-4.5,0.6-7.3,1.8-8.6c1.2-1.3,3.7-1.9,7.5-1.9h9.2V-6h-9.2
				c-6.9,0-11.7,1.3-14.4,3.9c-2.6,2.6-4,7.3-4,14.1v29.7h-6.6v7H29v15.5H38z"/>
		</g>
		<g>
			<path id="DejaVuSans-5f_1_" d="M109.9-22.6v-7h-52v7H109.9z"/>
		</g>
		<g>
			<path id="DejaVuSans-6e_4_" d="M163.8,27.1V-6h-9v32.7c0,5.2-1,9-3,11.6c-2,2.6-5,3.9-9.1,3.9c-4.9,0-8.7-1.5-11.5-4.6
				c-2.8-3.1-4.2-7.3-4.2-12.6V-6h-9v54.7h9v-8.5c2.2,3.3,4.7,5.7,7.6,7.4c2.9,1.6,6.3,2.4,10.1,2.4c6.3,0,11-1.9,14.2-5.8
				C162.2,40.3,163.8,34.6,163.8,27.1"/>
		</g>
		<g>
			<path id="DejaVuSans-65_4_" d="M228.5,23.6v-4.4h-41.3c0.4-6.2,2.3-10.9,5.6-14.1c3.3-3.2,8-4.9,13.9-4.9c3.4,0,6.8,0.4,10,1.3
				c3.2,0.8,6.5,2.1,9.7,3.8v-8.5c-3.2-1.4-6.5-2.4-9.9-3.1c-3.4-0.7-6.8-1.1-10.3-1.1c-8.7,0-15.6,2.5-20.7,7.6
				c-5.1,5.1-7.6,12-7.6,20.6c0,8.9,2.4,16,7.2,21.3c4.8,5.3,11.4,7.9,19.6,7.9c7.4,0,13.2-2.4,17.5-7.1
				C226.3,38.2,228.5,31.8,228.5,23.6 M219.5,26.3c-0.1,4.9-1.4,8.8-4.1,11.7c-2.7,2.9-6.2,4.4-10.7,4.4c-5,0-9-1.4-12-4.2
				c-3-2.8-4.7-6.8-5.2-12L219.5,26.3z"/>
		</g>
		<g>
			<path id="DejaVuSans-74_5_" d="M252.1,64.3V48.7h18.5v-7h-18.5V12.1c0-4.5,0.6-7.3,1.8-8.6c1.2-1.3,3.7-1.9,7.5-1.9h9.2V-6h-9.2
				c-6.9,0-11.7,1.3-14.4,3.9c-2.6,2.6-4,7.3-4,14.1v29.7h-6.6v7h6.6v15.5H252.1z"/>
		</g>
		<g>
			<path id="DejaVuSans-3a_1_" d="M284.7,6.5H295V-6h-10.3V6.5z M284.7,45.7H295V33.4h-10.3V45.7z"/>
		</g>
		<g>
			<path id="DejaVuSans-20_5_" d="M306.7-6"/>
		</g>
		<g>
			<path id="DejaVuSans-32_5_" d="M357.7,2.3h34.4V-6h-46.3v8.3c3.7,3.9,8.8,9.1,15.3,15.6c6.5,6.5,10.5,10.7,12.2,12.6
				c3.2,3.5,5.4,6.5,6.6,9c1.3,2.5,1.9,4.9,1.9,7.2c0,3.9-1.4,7-4.1,9.5c-2.7,2.4-6.3,3.7-10.6,3.7c-3.1,0-6.4-0.5-9.8-1.6
				c-3.4-1.1-7.1-2.7-11-4.9v10c4,1.6,7.7,2.8,11.1,3.6c3.5,0.8,6.6,1.2,9.5,1.2c7.6,0,13.6-1.9,18.1-5.7c4.5-3.8,6.7-8.8,6.7-15.1
				c0-3-0.6-5.8-1.7-8.5c-1.1-2.7-3.2-5.8-6.1-9.5c-0.8-0.9-3.4-3.7-7.8-8.2C371.8,16.8,365.6,10.4,357.7,2.3"/>
		</g>
		<g>
			<path id="DejaVuSans-30_12_" d="M433.9,60.5c-5.1,0-8.9-2.5-11.5-7.5c-2.6-5-3.8-12.5-3.8-22.5c0-10,1.3-17.5,3.8-22.5
				c2.6-5,6.4-7.5,11.5-7.5c5.1,0,8.9,2.5,11.5,7.5c2.6,5,3.8,12.5,3.8,22.5c0,10-1.3,17.5-3.8,22.5C442.8,58,439,60.5,433.9,60.5
				 M433.9,68.3c8.2,0,14.4-3.2,18.7-9.7c4.3-6.5,6.5-15.8,6.5-28.1c0-12.3-2.2-21.6-6.5-28.1c-4.3-6.5-10.6-9.7-18.7-9.7
				c-8.2,0-14.4,3.2-18.7,9.7c-4.3,6.5-6.5,15.8-6.5,28.1c0,12.3,2.2,21.7,6.5,28.1C419.5,65,425.7,68.3,433.9,68.3"/>
		</g>
		<g>
			<path id="DejaVuSans-31_5_" d="M478.1,2.3h16.1V58l-17.5-3.5v9l17.4,3.5h9.9V2.3h16.1V-6h-42V2.3z"/>
		</g>
		<g>
			<path id="DejaVuSans-36_4_" d="M562.4,34.4c-4.4,0-7.9-1.5-10.5-4.5c-2.6-3-3.9-7.2-3.9-12.4c0-5.2,1.3-9.4,3.9-12.4
				c2.6-3,6.1-4.6,10.5-4.6S570.3,2,572.9,5c2.6,3.1,3.9,7.2,3.9,12.4c0,5.3-1.3,9.4-3.9,12.4C570.3,32.9,566.8,34.4,562.4,34.4
				 M581.9,65.3v-9c-2.5,1.2-5,2.1-7.5,2.7c-2.5,0.6-5,0.9-7.5,0.9c-6.5,0-11.5-2.2-14.9-6.6c-3.4-4.4-5.4-11-5.9-19.9
				c1.9,2.8,4.3,5,7.2,6.5c2.9,1.5,6.1,2.3,9.6,2.3c7.3,0,13.1-2.2,17.4-6.7c4.3-4.4,6.4-10.5,6.4-18.1c0-7.5-2.2-13.5-6.6-18
				c-4.4-4.5-10.3-6.8-17.7-6.8c-8.4,0-14.9,3.2-19.3,9.7c-4.5,6.5-6.7,15.8-6.7,28.1c0,11.5,2.7,20.7,8.2,27.6
				c5.5,6.9,12.8,10.3,22,10.3c2.5,0,5-0.2,7.5-0.7S579.2,66.3,581.9,65.3"/>
		</g>
		<g>
			<path id="DejaVuSans-2d_2_" d="M597.9,25.4h26.3v-8h-26.3V25.4z"/>
		</g>
		<g>
			<path id="DejaVuSans-30_13_" d="M660.8,60.5c-5.1,0-8.9-2.5-11.5-7.5c-2.6-5-3.8-12.5-3.8-22.5c0-10,1.3-17.5,3.8-22.5
				c2.6-5,6.4-7.5,11.5-7.5c5.1,0,8.9,2.5,11.5,7.5c2.6,5,3.8,12.5,3.8,22.5c0,10-1.3,17.5-3.8,22.5C669.8,58,666,60.5,660.8,60.5
				 M660.8,68.3c8.2,0,14.4-3.2,18.7-9.7c4.3-6.5,6.5-15.8,6.5-28.1c0-12.3-2.2-21.6-6.5-28.1c-4.3-6.5-10.6-9.7-18.7-9.7
				c-8.2,0-14.4,3.2-18.7,9.7c-4.3,6.5-6.5,15.8-6.5,28.1c0,12.3,2.2,21.7,6.5,28.1C646.4,65,652.7,68.3,660.8,68.3"/>
		</g>
		<g>
			<path id="DejaVuSans-36_5_" d="M725.7,34.4c-4.4,0-7.9-1.5-10.5-4.5c-2.6-3-3.9-7.2-3.9-12.4c0-5.2,1.3-9.4,3.9-12.4
				c2.6-3,6.1-4.6,10.5-4.6S733.6,2,736.2,5c2.6,3.1,3.9,7.2,3.9,12.4c0,5.3-1.3,9.4-3.9,12.4C733.6,32.9,730.1,34.4,725.7,34.4
				 M745.3,65.3v-9c-2.5,1.2-5,2.1-7.5,2.7c-2.5,0.6-5,0.9-7.5,0.9c-6.5,0-11.5-2.2-14.9-6.6c-3.4-4.4-5.4-11-5.9-19.9
				c1.9,2.8,4.3,5,7.2,6.5c2.9,1.5,6.1,2.3,9.6,2.3c7.3,0,13.1-2.2,17.4-6.7c4.3-4.4,6.4-10.5,6.4-18.1c0-7.5-2.2-13.5-6.6-18
				c-4.4-4.5-10.3-6.8-17.7-6.8c-8.4,0-14.9,3.2-19.3,9.7c-4.5,6.5-6.7,15.8-6.7,28.1c0,11.5,2.7,20.7,8.2,27.6
				c5.5,6.9,12.8,10.3,22,10.3c2.5,0,5-0.2,7.5-0.7S742.5,66.3,745.3,65.3"/>
		</g>
		<g>
			<path id="DejaVuSans-2d_3_" d="M761.2,25.4h26.3v-8h-26.3V25.4z"/>
		</g>
		<g>
			<path id="DejaVuSans-30_14_" d="M824.2,60.5c-5.1,0-8.9-2.5-11.5-7.5c-2.6-5-3.8-12.5-3.8-22.5c0-10,1.3-17.5,3.8-22.5
				c2.6-5,6.4-7.5,11.5-7.5c5.1,0,8.9,2.5,11.5,7.5c2.6,5,3.8,12.5,3.8,22.5c0,10-1.3,17.5-3.8,22.5C833.1,58,829.3,60.5,824.2,60.5
				 M824.2,68.3c8.2,0,14.4-3.2,18.7-9.7c4.3-6.5,6.5-15.8,6.5-28.1c0-12.3-2.2-21.6-6.5-28.1c-4.3-6.5-10.6-9.7-18.7-9.7
				c-8.2,0-14.4,3.2-18.7,9.7c-4.3,6.5-6.5,15.8-6.5,28.1c0,12.3,2.2,21.7,6.5,28.1C809.8,65,816,68.3,824.2,68.3"/>
		</g>
		<g>
			<path id="DejaVuSans-31_6_" d="M868.4,2.3h16.1V58L867,54.5v9l17.4,3.5h9.9V2.3h16.1V-6h-42V2.3z"/>
		</g>
	</g>
</g>
<g id="text_20">
	<g transform="translate(151.207646 190.752861)rotate(-45)scale(0.1 -0.1)">
		<g>
			<path id="DejaVuSans-74_6_" d="M38,64.3V48.7h18.5v-7H38V12.1c0-4.5,0.6-7.3,1.8-8.6c1.2-1.3,3.7-1.9,7.5-1.9h9.2V-6h-9.2
				c-6.9,0-11.7,1.3-14.4,3.9c-2.6,2.6-4,7.3-4,14.1v29.7h-6.6v7H29v15.5H38z"/>
		</g>
		<g>
			<path id="DejaVuSans-5f_2_" d="M109.9-22.6v-7h-52v7H109.9z"/>
		</g>
		<g>
			<path id="DejaVuSans-73_1_" d="M153.2,47.1v-8.5c-2.5,1.3-5.2,2.3-7.9,2.9c-2.7,0.7-5.6,1-8.5,1c-4.5,0-7.8-0.7-10-2
				c-2.2-1.4-3.3-3.4-3.3-6.2c0-2.1,0.8-3.7,2.4-4.9c1.6-1.2,4.8-2.3,9.6-3.4l3.1-0.7c6.4-1.4,10.9-3.3,13.6-5.8s4-6,4-10.4
				c0-5.1-2-9.1-6-12.1c-4-3-9.5-4.4-16.6-4.4c-2.9,0-6,0.3-9.2,0.9s-6.5,1.4-10,2.6v9.3c3.3-1.7,6.6-3,9.8-3.9
				c3.2-0.9,6.4-1.3,9.6-1.3c4.2,0,7.5,0.7,9.7,2.2c2.3,1.4,3.4,3.5,3.4,6.1c0,2.4-0.8,4.3-2.5,5.6c-1.6,1.3-5.2,2.6-10.8,3.8
				l-3.1,0.7c-5.6,1.2-9.6,3-12.1,5.4c-2.5,2.4-3.7,5.8-3.7,10c0,5.1,1.8,9.1,5.5,11.9c3.6,2.8,8.8,4.2,15.5,4.2
				c3.3,0,6.4-0.2,9.4-0.7C148,48.8,150.7,48.1,153.2,47.1"/>
		</g>
		<g>
			<path id="DejaVuSans-70_3_" d="M179.1,2.2v-29h-9v75.5h9v-8.3c1.9,3.2,4.3,5.7,7.2,7.2c2.9,1.6,6.3,2.4,10.3,2.4
				c6.6,0,12-2.6,16.2-7.9c4.2-5.3,6.2-12.2,6.2-20.8s-2.1-15.5-6.2-20.8c-4.1-5.3-9.5-7.9-16.2-7.9c-4,0-7.4,0.8-10.3,2.4
				C183.4-3.4,181-1,179.1,2.2 M209.7,21.3c0,6.6-1.4,11.8-4.1,15.5c-2.7,3.8-6.5,5.6-11.2,5.6c-4.8,0-8.5-1.9-11.2-5.6
				c-2.7-3.8-4.1-8.9-4.1-15.5s1.4-11.8,4.1-15.5s6.5-5.6,11.2-5.6c4.7,0,8.5,1.9,11.2,5.6C208.3,9.6,209.7,14.7,209.7,21.3"/>
		</g>
		<g>
			<path id="DejaVuSans-72_2_" d="M265.6,40.3c-1,0.6-2.1,1-3.3,1.3c-1.2,0.3-2.5,0.4-3.9,0.4c-5.1,0-9-1.7-11.7-5
				c-2.7-3.3-4.1-8-4.1-14.2V-6h-9v54.7h9v-8.5c1.9,3.3,4.4,5.8,7.4,7.4c3,1.6,6.7,2.4,11,2.4c0.6,0,1.3,0,2-0.1
				c0.8-0.1,1.6-0.2,2.5-0.4L265.6,40.3z"/>
		</g>
		<g>
			<path id="DejaVuSans-61_3_" d="M299.9,21.5c-7.3,0-12.3-0.8-15.1-2.5c-2.8-1.7-4.2-4.5-4.2-8.5c0-3.2,1.1-5.7,3.2-7.6
				c2.1-1.9,5-2.8,8.6-2.8c5,0,9,1.8,12,5.3s4.5,8.2,4.5,14.1v2H299.9z M317.8,25.2V-6h-9v8.3c-2.1-3.3-4.6-5.8-7.7-7.3
				c-3.1-1.6-6.8-2.4-11.2-2.4c-5.6,0-10,1.6-13.4,4.7c-3.3,3.1-5,7.4-5,12.6c0,6.1,2.1,10.8,6.2,13.9c4.1,3.1,10.3,4.7,18.4,4.7
				h12.6v0.9c0,4.1-1.4,7.3-4.1,9.6c-2.7,2.3-6.5,3.4-11.5,3.4c-3.1,0-6.2-0.4-9.1-1.1c-3-0.7-5.8-1.9-8.5-3.4v8.3
				c3.3,1.3,6.5,2.2,9.6,2.8c3.1,0.6,6.1,1,9,1c7.9,0,13.8-2.1,17.7-6.2C315.8,39.8,317.8,33.6,317.8,25.2"/>
		</g>
		<g>
			<path id="DejaVuSans-79" d="M359-11c-2.5-6.5-5-10.8-7.4-12.7c-2.4-2-5.6-3-9.7-3h-7.2v7.5h5.3c2.5,0,4.4,0.6,5.7,1.8
				c1.4,1.2,2.9,3.9,4.5,8.3l1.6,4.1l-22.1,53.8h9.5L356.5,6l17.1,42.8h9.5L359-11z"/>
		</g>
		<g>
			<path id="DejaVuSans-3a_2_" d="M397.7,6.5H408V-6h-10.3V6.5z M397.7,45.7H408V33.4h-10.3V45.7z"/>
		</g>
		<g>
			<path id="DejaVuSans-20_6_" d="M419.6-6"/>
		</g>
		<g>
			<path id="DejaVuSans-32_6_" d="M470.6,2.3H505V-6h-46.3v8.3c3.7,3.9,8.8,9.1,15.3,15.6c6.5,6.5,10.5,10.7,12.2,12.6
				c3.2,3.5,5.4,6.5,6.6,9c1.3,2.5,1.9,4.9,1.9,7.2c0,3.9-1.4,7-4.1,9.5c-2.7,2.4-6.3,3.7-10.6,3.7c-3.1,0-6.4-0.5-9.8-1.6
				c-3.4-1.1-7.1-2.7-11-4.9v10c4,1.6,7.7,2.8,11.1,3.6c3.5,0.8,6.6,1.2,9.5,1.2c7.6,0,13.6-1.9,18.1-5.7c4.5-3.8,6.7-8.8,6.7-15.1
				c0-3-0.6-5.8-1.7-8.5c-1.1-2.7-3.2-5.8-6.1-9.5c-0.8-0.9-3.4-3.7-7.8-8.2C484.7,16.8,478.6,10.4,470.6,2.3"/>
		</g>
		<g>
			<path id="DejaVuSans-30_15_" d="M546.8,60.5c-5.1,0-8.9-2.5-11.5-7.5c-2.6-5-3.8-12.5-3.8-22.5c0-10,1.3-17.5,3.8-22.5
				c2.6-5,6.4-7.5,11.5-7.5c5.1,0,8.9,2.5,11.5,7.5c2.6,5,3.8,12.5,3.8,22.5c0,10-1.3,17.5-3.8,22.5C555.8,58,551.9,60.5,546.8,60.5
				 M546.8,68.3c8.2,0,14.4-3.2,18.7-9.7c4.3-6.5,6.5-15.8,6.5-28.1c0-12.3-2.2-21.6-6.5-28.1c-4.3-6.5-10.6-9.7-18.7-9.7
				c-8.2,0-14.4,3.2-18.7,9.7c-4.3,6.5-6.5,15.8-6.5,28.1c0,12.3,2.2,21.7,6.5,28.1C532.4,65,538.7,68.3,546.8,68.3"/>
		</g>
		<g>
			<path id="DejaVuSans-31_7_" d="M591.1,2.3h16.1V58l-17.5-3.5v9l17.4,3.5h9.9V2.3h16.1V-6h-42V2.3z"/>
		</g>
		<g>
			<path id="DejaVuSans-36_6_" d="M675.3,34.4c-4.4,0-7.9-1.5-10.5-4.5c-2.6-3-3.9-7.2-3.9-12.4c0-5.2,1.3-9.4,3.9-12.4
				c2.6-3,6.1-4.6,10.5-4.6S683.2,2,685.8,5c2.6,3.1,3.9,7.2,3.9,12.4c0,5.3-1.3,9.4-3.9,12.4C683.2,32.9,679.7,34.4,675.3,34.4
				 M694.9,65.3v-9c-2.5,1.2-5,2.1-7.5,2.7c-2.5,0.6-5,0.9-7.5,0.9c-6.5,0-11.5-2.2-14.9-6.6c-3.4-4.4-5.4-11-5.9-19.9
				c1.9,2.8,4.3,5,7.2,6.5c2.9,1.5,6.1,2.3,9.6,2.3c7.3,0,13.1-2.2,17.4-6.7c4.3-4.4,6.4-10.5,6.4-18.1c0-7.5-2.2-13.5-6.6-18
				c-4.4-4.5-10.3-6.8-17.7-6.8c-8.4,0-14.9,3.2-19.3,9.7c-4.5,6.5-6.7,15.8-6.7,28.1c0,11.5,2.7,20.7,8.2,27.6
				c5.5,6.9,12.8,10.3,22,10.3c2.5,0,5-0.2,7.5-0.7C689.5,67,692.1,66.3,694.9,65.3"/>
		</g>
		<g>
			<path id="DejaVuSans-2d_4_" d="M710.8,25.4h26.3v-8h-26.3V25.4z"/>
		</g>
		<g>
			<path id="DejaVuSans-30_16_" d="M773.8,60.5c-5.1,0-8.9-2.5-11.5-7.5c-2.6-5-3.8-12.5-3.8-22.5c0-10,1.3-17.5,3.8-22.5
				c2.6-5,6.4-7.5,11.5-7.5c5.1,0,8.9,2.5,11.5,7.5c2.6,5,3.8,12.5,3.8,22.5c0,10-1.3,17.5-3.8,22.5C782.7,58,778.9,60.5,773.8,60.5
				 M773.8,68.3c8.2,0,14.4-3.2,18.7-9.7c4.3-6.5,6.5-15.8,6.5-28.1c0-12.3-2.2-21.6-6.5-28.1c-4.3-6.5-10.6-9.7-18.7-9.7
				c-8.2,0-14.4,3.2-18.7,9.7c-4.3,6.5-6.5,15.8-6.5,28.1c0,12.3,2.2,21.7,6.5,28.1C759.4,65,765.6,68.3,773.8,68.3"/>
		</g>
		<g>
			<path id="DejaVuSans-36_7_" d="M838.6,34.4c-4.4,0-7.9-1.5-10.5-4.5c-2.6-3-3.9-7.2-3.9-12.4c0-5.2,1.3-9.4,3.9-12.4
				c2.6-3,6.1-4.6,10.5-4.6S846.6,2,849.1,5c2.6,3.1,3.9,7.2,3.9,12.4c0,5.3-1.3,9.4-3.9,12.4C846.6,32.9,843.1,34.4,838.6,34.4
				 M858.2,65.3v-9c-2.5,1.2-5,2.1-7.5,2.7c-2.5,0.6-5,0.9-7.5,0.9c-6.5,0-11.5-2.2-14.9-6.6c-3.4-4.4-5.4-11-5.9-19.9
				c1.9,2.8,4.3,5,7.2,6.5c2.9,1.5,6.1,2.3,9.6,2.3c7.3,0,13.1-2.2,17.4-6.7c4.3-4.4,6.4-10.5,6.4-18.1c0-7.5-2.2-13.5-6.6-18
				c-4.4-4.5-10.3-6.8-17.7-6.8c-8.4,0-14.9,3.2-19.3,9.7c-4.5,6.5-6.7,15.8-6.7,28.1c0,11.5,2.7,20.7,8.2,27.6
				c5.5,6.9,12.8,10.3,22,10.3c2.5,0,5-0.2,7.5-0.7C852.8,67,855.5,66.3,858.2,65.3"/>
		</g>
		<g>
			<path id="DejaVuSans-2d_5_" d="M874.1,25.4h26.3v-8h-26.3V25.4z"/>
		</g>
		<g>
			<path id="DejaVuSans-30_17_" d="M937.1,60.5c-5.1,0-8.9-2.5-11.5-7.5c-2.6-5-3.8-12.5-3.8-22.5c0-10,1.3-17.5,3.8-22.5
				c2.6-5,6.4-7.5,11.5-7.5c5.1,0,8.9,2.5,11.5,7.5c2.6,5,3.8,12.5,3.8,22.5c0,10-1.3,17.5-3.8,22.5C946,58,942.2,60.5,937.1,60.5
				 M937.1,68.3c8.2,0,14.4-3.2,18.7-9.7c4.3-6.5,6.5-15.8,6.5-28.1c0-12.3-2.2-21.6-6.5-28.1c-4.3-6.5-10.6-9.7-18.7-9.7
				c-8.2,0-14.4,3.2-18.7,9.7c-4.3,6.5-6.5,15.8-6.5,28.1c0,12.3,2.2,21.7,6.5,28.1C922.7,65,928.9,68.3,937.1,68.3"/>
		</g>
		<g>
			<path id="DejaVuSans-31_8_" d="M981.3,2.3h16.1V58l-17.5-3.5v9l17.4,3.5h9.9V2.3h16.1V-6h-42V2.3z"/>
		</g>
	</g>
</g>
<g id="text_21">
	<g transform="translate(50.038125 35.472)scale(0.12 -0.12)">
		<g>
			<path id="DejaVuSans-44" d="M34.8,72.9V16.2h11.9c10.1,0,17.4,2.3,22.1,6.8c4.7,4.6,7,11.8,7,21.6c0,9.8-2.3,16.9-7,21.5
				c-4.7,4.5-12,6.8-22.1,6.8H34.8z M24.9,81h20.3c14.1,0,24.5-2.9,31.1-8.8c6.6-5.9,9.9-15.1,9.9-27.6c0-12.6-3.3-21.8-10-27.7
				c-6.6-5.9-17-8.8-31-8.8H24.9V81z"/>
		</g>
		<g>
			<path id="DejaVuSans-69_3_" d="M101.5,62.8h9V8.1h-9V62.8z M101.5,84.1h9V72.7h-9V84.1z"/>
		</g>
		<g>
			<path id="DejaVuSans-73_2_" d="M164.2,61.2v-8.5c-2.5,1.3-5.2,2.3-7.9,2.9c-2.7,0.7-5.6,1-8.5,1c-4.5,0-7.8-0.7-10-2
				c-2.2-1.4-3.3-3.4-3.3-6.2c0-2.1,0.8-3.7,2.4-4.9s4.8-2.3,9.6-3.4l3.1-0.7c6.4-1.4,10.9-3.3,13.6-5.8s4-6,4-10.4
				c0-5.1-2-9.1-6-12.1c-4-3-9.5-4.4-16.6-4.4c-2.9,0-6,0.3-9.2,0.9c-3.2,0.6-6.5,1.4-10,2.6v9.3c3.3-1.7,6.6-3,9.8-3.9
				c3.2-0.9,6.4-1.3,9.6-1.3c4.2,0,7.5,0.7,9.8,2.2c2.3,1.4,3.4,3.5,3.4,6.1c0,2.4-0.8,4.3-2.5,5.6c-1.6,1.3-5.2,2.6-10.8,3.8
				l-3.1,0.7c-5.6,1.2-9.6,3-12.1,5.4c-2.5,2.4-3.7,5.8-3.7,10c0,5.1,1.8,9.1,5.5,11.9c3.6,2.8,8.8,4.2,15.5,4.2
				c3.3,0,6.4-0.2,9.4-0.7C159,62.9,161.7,62.2,164.2,61.2"/>
		</g>
		<g>
			<path id="DejaVuSans-65_5_" d="M228.2,37.7v-4.4h-41.3c0.4-6.2,2.3-10.9,5.6-14.1c3.3-3.2,8-4.9,13.9-4.9c3.4,0,6.8,0.4,10,1.3
				c3.2,0.8,6.5,2.1,9.7,3.8v-8.5c-3.2-1.4-6.5-2.4-9.9-3.1c-3.4-0.7-6.8-1.1-10.3-1.1c-8.7,0-15.6,2.5-20.7,7.6
				c-5.1,5.1-7.6,12-7.6,20.6c0,8.9,2.4,16,7.3,21.3c4.8,5.3,11.4,7.9,19.6,7.9c7.4,0,13.2-2.4,17.5-7.1
				C226.1,52.3,228.2,45.8,228.2,37.7 M219.2,40.3c-0.1,4.9-1.4,8.8-4.1,11.8c-2.7,2.9-6.2,4.4-10.7,4.4c-5,0-9-1.4-12-4.3
				c-3-2.8-4.7-6.8-5.2-12L219.2,40.3z"/>
		</g>
		<g>
			<path id="DejaVuSans-61_4_" d="M267.8,35.6c-7.3,0-12.3-0.8-15.1-2.5c-2.8-1.7-4.2-4.5-4.2-8.5c0-3.2,1.1-5.7,3.2-7.6
				c2.1-1.9,5-2.8,8.6-2.8c5,0,9,1.8,12,5.3c3,3.5,4.5,8.2,4.5,14.1v2H267.8z M285.7,39.3V8.1h-9v8.3c-2.1-3.3-4.6-5.8-7.7-7.3
				s-6.8-2.4-11.2-2.4c-5.6,0-10,1.6-13.4,4.7c-3.3,3.1-5,7.4-5,12.6c0,6.1,2.1,10.8,6.2,13.9c4.1,3.1,10.3,4.7,18.4,4.7h12.6v0.9
				c0,4.1-1.4,7.3-4.1,9.6s-6.5,3.4-11.5,3.4c-3.1,0-6.2-0.4-9.1-1.1c-3-0.8-5.8-1.9-8.5-3.4v8.3c3.3,1.3,6.5,2.2,9.6,2.8
				c3.1,0.6,6.1,1,9,1c7.9,0,13.8-2.1,17.7-6.2C283.8,53.8,285.7,47.6,285.7,39.3"/>
		</g>
		<g>
			<path id="DejaVuSans-73_3_" d="M339.1,61.2v-8.5c-2.5,1.3-5.2,2.3-7.9,2.9c-2.7,0.7-5.6,1-8.5,1c-4.5,0-7.8-0.7-10-2
				s-3.3-3.4-3.3-6.2c0-2.1,0.8-3.7,2.4-4.9s4.8-2.3,9.6-3.4l3.1-0.7c6.4-1.4,10.9-3.3,13.6-5.8s4-6,4-10.4c0-5.1-2-9.1-6-12.1
				c-4-3-9.5-4.4-16.6-4.4c-2.9,0-6,0.3-9.2,0.9s-6.5,1.4-10,2.6v9.3c3.3-1.7,6.6-3,9.8-3.9c3.2-0.9,6.4-1.3,9.6-1.3
				c4.2,0,7.5,0.7,9.8,2.2c2.3,1.4,3.4,3.5,3.4,6.1c0,2.4-0.8,4.3-2.5,5.6c-1.6,1.3-5.2,2.6-10.8,3.8l-3.1,0.7
				c-5.6,1.2-9.6,3-12.1,5.4c-2.5,2.4-3.7,5.8-3.7,10c0,5.1,1.8,9.1,5.5,11.9c3.6,2.8,8.8,4.2,15.5,4.2c3.3,0,6.4-0.2,9.4-0.7
				C333.9,62.9,336.6,62.2,339.1,61.2"/>
		</g>
		<g>
			<path id="DejaVuSans-65_6_" d="M403.1,37.7v-4.4h-41.3c0.4-6.2,2.3-10.9,5.6-14.1s8-4.9,13.9-4.9c3.4,0,6.8,0.4,10,1.3
				c3.2,0.8,6.5,2.1,9.7,3.8v-8.5c-3.2-1.4-6.5-2.4-9.9-3.1s-6.8-1.1-10.3-1.1c-8.7,0-15.6,2.5-20.7,7.6c-5.1,5.1-7.6,12-7.6,20.6
				c0,8.9,2.4,16,7.3,21.3c4.8,5.3,11.4,7.9,19.6,7.9c7.4,0,13.2-2.4,17.5-7.1C401,52.3,403.1,45.8,403.1,37.7 M394.1,40.3
				c-0.1,4.9-1.4,8.8-4.1,11.8c-2.7,2.9-6.2,4.4-10.7,4.4c-5,0-9-1.4-12-4.3s-4.7-6.8-5.2-12L394.1,40.3z"/>
		</g>
		<g>
			<path id="DejaVuSans-20_7_" d="M408.4,8.1"/>
		</g>
		<g>
			<path id="DejaVuSans-50_1_" d="M459.9,72.9V45.5h12.4c4.6,0,8.1,1.2,10.6,3.6c2.5,2.4,3.8,5.8,3.8,10.2c0,4.4-1.3,7.7-3.8,10.1
				c-2.5,2.4-6,3.6-10.6,3.6H459.9z M450,81h22.3c8.2,0,14.4-1.8,18.5-5.5c4.2-3.7,6.3-9.1,6.3-16.2c0-7.2-2.1-12.6-6.3-16.3
				c-4.2-3.7-10.4-5.5-18.5-5.5h-12.4V8.1H450V81z"/>
		</g>
		<g>
			<path id="DejaVuSans-72_3_" d="M541.6,54.4c-1,0.6-2.1,1-3.3,1.3c-1.2,0.3-2.5,0.4-3.9,0.4c-5.1,0-9-1.7-11.7-5s-4.1-8-4.1-14.2
				V8.1h-9v54.7h9v-8.5c1.9,3.3,4.4,5.8,7.4,7.4c3,1.6,6.7,2.4,11,2.4c0.6,0,1.3,0,2-0.1c0.8-0.1,1.6-0.2,2.5-0.4L541.6,54.4z"/>
		</g>
		<g>
			<path id="DejaVuSans-65_7_" d="M597.8,37.7v-4.4h-41.3c0.4-6.2,2.3-10.9,5.6-14.1c3.3-3.2,8-4.9,13.9-4.9c3.4,0,6.8,0.4,10,1.3
				c3.2,0.8,6.5,2.1,9.7,3.8v-8.5c-3.2-1.4-6.5-2.4-9.9-3.1c-3.4-0.7-6.8-1.1-10.3-1.1c-8.7,0-15.6,2.5-20.7,7.6
				c-5.1,5.1-7.6,12-7.6,20.6c0,8.9,2.4,16,7.3,21.3c4.8,5.3,11.4,7.9,19.6,7.9c7.4,0,13.2-2.4,17.5-7.1
				C595.6,52.3,597.8,45.8,597.8,37.7 M588.8,40.3c-0.1,4.9-1.4,8.8-4.1,11.8c-2.7,2.9-6.2,4.4-10.7,4.4c-5,0-9-1.4-12-4.3
				c-3-2.8-4.7-6.8-5.2-12L588.8,40.3z"/>
		</g>
		<g>
			<path id="DejaVuSans-76_1_" d="M606.1,62.8h9.5l17.1-45.9l17.1,45.9h9.5L638.8,8.1h-12.2L606.1,62.8z"/>
		</g>
		<g>
			<path id="DejaVuSans-61_5_" d="M696.6,35.6c-7.3,0-12.3-0.8-15.1-2.5c-2.8-1.7-4.2-4.5-4.2-8.5c0-3.2,1.1-5.7,3.2-7.6
				c2.1-1.9,5-2.8,8.6-2.8c5,0,9,1.8,12,5.3c3,3.5,4.5,8.2,4.5,14.1v2H696.6z M714.5,39.3V8.1h-9v8.3c-2.1-3.3-4.6-5.8-7.7-7.3
				s-6.8-2.4-11.2-2.4c-5.6,0-10,1.6-13.4,4.7c-3.3,3.1-5,7.4-5,12.6c0,6.1,2.1,10.8,6.2,13.9c4.1,3.1,10.3,4.7,18.4,4.7h12.6v0.9
				c0,4.1-1.4,7.3-4.1,9.6s-6.5,3.4-11.5,3.4c-3.1,0-6.2-0.4-9.1-1.1c-3-0.8-5.8-1.9-8.5-3.4v8.3c3.3,1.3,6.5,2.2,9.6,2.8
				c3.1,0.6,6.1,1,9,1c7.9,0,13.8-2.1,17.7-6.2C712.5,53.8,714.5,47.6,714.5,39.3"/>
		</g>
		<g>
			<path id="DejaVuSans-6c_2_" d="M733,84.1h9v-76h-9V84.1z"/>
		</g>
		<g>
			<path id="DejaVuSans-65_8_" d="M807.5,37.7v-4.4h-41.3c0.4-6.2,2.3-10.9,5.6-14.1c3.3-3.2,8-4.9,13.9-4.9c3.4,0,6.8,0.4,10,1.3
				c3.2,0.8,6.5,2.1,9.7,3.8v-8.5c-3.2-1.4-6.5-2.4-9.9-3.1c-3.4-0.7-6.8-1.1-10.3-1.1c-8.7,0-15.6,2.5-20.7,7.6
				c-5.1,5.1-7.6,12-7.6,20.6c0,8.9,2.4,16,7.3,21.3c4.8,5.3,11.4,7.9,19.6,7.9c7.4,0,13.2-2.4,17.5-7.1
				C805.4,52.3,807.5,45.8,807.5,37.7 M798.6,40.3c-0.1,4.9-1.4,8.8-4.1,11.8c-2.7,2.9-6.2,4.4-10.7,4.4c-5,0-9-1.4-12-4.3
				c-3-2.8-4.7-6.8-5.2-12L798.6,40.3z"/>
		</g>
		<g>
			<path id="DejaVuSans-6e_5_" d="M867.8,41.1v-33h-9v32.7c0,5.2-1,9-3,11.6c-2,2.6-5,3.9-9.1,3.9c-4.9,0-8.7-1.5-11.5-4.6
				c-2.8-3.1-4.2-7.3-4.2-12.6V8.1h-9v54.7h9v-8.5c2.2,3.3,4.7,5.8,7.6,7.4c2.9,1.6,6.3,2.4,10.1,2.4c6.3,0,11-1.9,14.3-5.8
				C866.1,54.4,867.8,48.7,867.8,41.1"/>
		</g>
		<g>
			<path id="DejaVuSans-63_2_" d="M925,60.7v-8.4c-2.5,1.4-5.1,2.5-7.6,3.2c-2.6,0.7-5.1,1-7.7,1c-5.8,0-10.4-1.8-13.6-5.5
				c-3.2-3.7-4.8-8.9-4.8-15.5s1.6-11.9,4.8-15.6c3.2-3.7,7.8-5.5,13.6-5.5c2.6,0,5.2,0.3,7.7,1c2.6,0.7,5.1,1.8,7.6,3.2v-8.3
				c-2.5-1.2-5.1-2-7.8-2.6c-2.7-0.6-5.5-0.9-8.6-0.9c-8.2,0-14.8,2.6-19.6,7.8c-4.8,5.2-7.3,12.2-7.3,21c0,8.9,2.4,15.9,7.3,21
				c4.9,5.1,11.6,7.7,20.2,7.7c2.8,0,5.5-0.3,8.1-0.9C920,62.7,922.5,61.8,925,60.7"/>
		</g>
		<g>
			<path id="DejaVuSans-65_9_" d="M987.4,37.7v-4.4h-41.3c0.4-6.2,2.3-10.9,5.6-14.1c3.3-3.2,8-4.9,13.9-4.9c3.4,0,6.8,0.4,10,1.3
				c3.2,0.8,6.5,2.1,9.7,3.8v-8.5c-3.2-1.4-6.5-2.4-9.9-3.1c-3.4-0.7-6.8-1.1-10.3-1.1c-8.7,0-15.6,2.5-20.7,7.6
				c-5.1,5.1-7.6,12-7.6,20.6c0,8.9,2.4,16,7.3,21.3c4.8,5.3,11.4,7.9,19.6,7.9c7.4,0,13.2-2.4,17.5-7.1
				C985.3,52.3,987.4,45.8,987.4,37.7 M978.4,40.3c-0.1,4.9-1.4,8.8-4.1,11.8c-2.7,2.9-6.2,4.4-10.7,4.4c-5,0-9-1.4-12-4.3
				c-3-2.8-4.7-6.8-5.2-12L978.4,40.3z"/>
		</g>
		<g>
			<path id="DejaVuSans-20_8_" d="M992.7,8.1"/>
		</g>
		<g>
			<path id="DejaVuSans-76_2_" d="M1027.5,62.8h9.5l17.1-45.9l17.1,45.9h9.5l-20.5-54.7H1048L1027.5,62.8z"/>
		</g>
		<g>
			<path id="DejaVuSans-73_4_" d="M1128,61.2v-8.5c-2.5,1.3-5.2,2.3-7.9,2.9c-2.7,0.7-5.6,1-8.5,1c-4.5,0-7.8-0.7-10-2
				c-2.2-1.4-3.3-3.4-3.3-6.2c0-2.1,0.8-3.7,2.4-4.9s4.8-2.3,9.6-3.4l3.1-0.7c6.4-1.4,10.9-3.3,13.6-5.8s4-6,4-10.4
				c0-5.1-2-9.1-6-12.1c-4-3-9.5-4.4-16.6-4.4c-2.9,0-6,0.3-9.2,0.9c-3.2,0.6-6.5,1.4-10,2.6v9.3c3.3-1.7,6.6-3,9.8-3.9
				c3.2-0.9,6.4-1.3,9.6-1.3c4.2,0,7.5,0.7,9.8,2.2c2.3,1.4,3.4,3.5,3.4,6.1c0,2.4-0.8,4.3-2.5,5.6c-1.6,1.3-5.2,2.6-10.8,3.8
				l-3.1,0.7c-5.6,1.2-9.6,3-12.1,5.4c-2.5,2.4-3.7,5.8-3.7,10c0,5.1,1.8,9.1,5.5,11.9c3.6,2.8,8.8,4.2,15.5,4.2
				c3.3,0,6.4-0.2,9.4-0.7C1122.8,62.9,1125.5,62.2,1128,61.2"/>
		</g>
		<g>
			<path id="DejaVuSans-2e_6_" d="M1146.5,20.5h10.3V8.1h-10.3V20.5z"/>
		</g>
		<g>
			<path id="DejaVuSans-20_9_" d="M1167.6,8.1"/>
		</g>
		<g>
			<path id="DejaVuSans-54_1_" d="M1199.1,81h61.7v-8.3h-25.9V8.1h-9.9v64.6h-25.9V81z"/>
		</g>
		<g>
			<path id="DejaVuSans-69_4_" d="M1269.8,62.8h9V8.1h-9V62.8z M1269.8,84.1h9V72.7h-9V84.1z"/>
		</g>
		<g>
			<path id="DejaVuSans-6d_2_" d="M1340.2,52.3c2.3,4,4.9,7,8.1,8.9s6.8,2.9,11,2.9c5.7,0,10.1-2,13.2-6c3.1-4,4.6-9.6,4.6-17v-33
				h-9v32.7c0,5.2-0.9,9.1-2.8,11.7c-1.9,2.5-4.7,3.8-8.5,3.8c-4.7,0-8.3-1.5-11-4.6c-2.7-3.1-4-7.3-4-12.6V8.1h-9v32.7
				c0,5.3-0.9,9.2-2.8,11.7c-1.9,2.5-4.7,3.8-8.6,3.8c-4.6,0-8.2-1.6-11-4.7c-2.7-3.1-4-7.3-4-12.6V8.1h-9v54.7h9v-8.5
				c2.1,3.4,4.5,5.8,7.4,7.4c2.9,1.6,6.3,2.4,10.2,2.4c4,0,7.4-1,10.1-3C1336.8,59.1,1338.9,56.1,1340.2,52.3"/>
		</g>
		<g>
			<path id="DejaVuSans-65_10_" d="M1441.8,37.7v-4.4h-41.3c0.4-6.2,2.3-10.9,5.6-14.1c3.3-3.2,8-4.9,13.9-4.9c3.4,0,6.8,0.4,10,1.3
				c3.2,0.8,6.5,2.1,9.7,3.8v-8.5c-3.2-1.4-6.5-2.4-9.9-3.1c-3.4-0.7-6.8-1.1-10.3-1.1c-8.7,0-15.6,2.5-20.7,7.6
				c-5.1,5.1-7.6,12-7.6,20.6c0,8.9,2.4,16,7.3,21.3c4.8,5.3,11.4,7.9,19.6,7.9c7.4,0,13.2-2.4,17.5-7.1
				C1439.7,52.3,1441.8,45.8,1441.8,37.7 M1432.8,40.3c-0.1,4.9-1.4,8.8-4.1,11.8c-2.7,2.9-6.2,4.4-10.7,4.4c-5,0-9-1.4-12-4.3
				c-3-2.8-4.7-6.8-5.2-12L1432.8,40.3z"/>
		</g>
		<g>
			<path id="DejaVuSans-20_10_" d="M1447.1,8.1"/>
		</g>
		<g>
			<path id="DejaVuSans-28_2_" d="M1509.9,84c-4.4-7.5-7.6-14.9-9.7-22.2c-2.1-7.3-3.2-14.7-3.2-22.3c0-7.5,1.1-15,3.2-22.3
				c2.1-7.4,5.4-14.8,9.7-22.3h-7.8c-4.9,7.7-8.5,15.2-11,22.6c-2.4,7.4-3.6,14.7-3.6,22c0,7.3,1.2,14.6,3.6,21.9
				c2.4,7.4,6.1,14.9,11,22.6H1509.9z"/>
		</g>
		<g>
			<path id="DejaVuSans-6d_3_" d="M1569.9,52.3c2.3,4,4.9,7,8.1,8.9s6.8,2.9,11,2.9c5.7,0,10.1-2,13.2-6c3.1-4,4.6-9.6,4.6-17v-33
				h-9v32.7c0,5.2-0.9,9.1-2.8,11.7c-1.9,2.5-4.7,3.8-8.5,3.8c-4.7,0-8.3-1.5-11-4.6c-2.7-3.1-4-7.3-4-12.6V8.1h-9v32.7
				c0,5.3-0.9,9.2-2.8,11.7c-1.9,2.5-4.7,3.8-8.6,3.8c-4.6,0-8.2-1.6-11-4.7c-2.7-3.1-4-7.3-4-12.6V8.1h-9v54.7h9v-8.5
				c2.1,3.4,4.5,5.8,7.4,7.4c2.9,1.6,6.3,2.4,10.2,2.4c4,0,7.4-1,10.1-3C1566.6,59.1,1568.6,56.1,1569.9,52.3"/>
		</g>
		<g>
			<path id="DejaVuSans-6f_5_" d="M1646,56.5c-4.8,0-8.6-1.9-11.4-5.6c-2.8-3.8-4.2-8.9-4.2-15.5s1.4-11.7,4.2-15.5
				c2.8-3.8,6.6-5.6,11.5-5.6c4.8,0,8.6,1.9,11.4,5.7c2.8,3.8,4.2,8.9,4.2,15.4c0,6.5-1.4,11.6-4.2,15.4
				C1654.6,54.6,1650.8,56.5,1646,56.5 M1646,64.1c7.8,0,13.9-2.5,18.4-7.6c4.5-5.1,6.7-12.1,6.7-21.1c0-8.9-2.2-16-6.7-21.1
				c-4.5-5.1-10.6-7.6-18.4-7.6c-7.8,0-14,2.5-18.4,7.6c-4.4,5.1-6.7,12.1-6.7,21.1c0,9,2.2,16,6.7,21.1
				C1632,61.6,1638.1,64.1,1646,64.1"/>
		</g>
		<g>
			<path id="DejaVuSans-6e_6_" d="M1731.4,41.1v-33h-9v32.7c0,5.2-1,9-3,11.6c-2,2.6-5,3.9-9.1,3.9c-4.9,0-8.7-1.5-11.5-4.6
				c-2.8-3.1-4.2-7.3-4.2-12.6V8.1h-9v54.7h9v-8.5c2.2,3.3,4.7,5.8,7.6,7.4c2.9,1.6,6.3,2.4,10.1,2.4c6.3,0,11-1.9,14.3-5.8
				C1729.8,54.4,1731.4,48.7,1731.4,41.1"/>
		</g>
		<g>
			<path id="DejaVuSans-74_7_" d="M1758.2,78.3V62.8h18.5v-7h-18.5V26.1c0-4.5,0.6-7.3,1.8-8.6c1.2-1.3,3.7-1.9,7.5-1.9h9.2V8.1
				h-9.2c-6.9,0-11.7,1.3-14.4,3.9c-2.6,2.6-4,7.3-4,14.1v29.7h-6.6v7h6.6v15.5H1758.2z"/>
		</g>
		<g>
			<path id="DejaVuSans-68_1_" d="M1834,41.1v-33h-9v32.7c0,5.2-1,9-3,11.6c-2,2.6-5,3.9-9.1,3.9c-4.9,0-8.7-1.5-11.5-4.6
				c-2.8-3.1-4.2-7.3-4.2-12.6V8.1h-9v76h9V54.3c2.2,3.3,4.7,5.8,7.6,7.4c2.9,1.6,6.3,2.4,10.1,2.4c6.3,0,11-1.9,14.2-5.8
				C1832.4,54.4,1834,48.7,1834,41.1"/>
		</g>
		<g>
			<path id="DejaVuSans-73_5_" d="M1886.8,61.2v-8.5c-2.5,1.3-5.2,2.3-7.9,2.9c-2.7,0.7-5.6,1-8.5,1c-4.5,0-7.8-0.7-10-2
				c-2.2-1.4-3.3-3.4-3.3-6.2c0-2.1,0.8-3.7,2.4-4.9s4.8-2.3,9.6-3.4l3.1-0.7c6.4-1.4,10.9-3.3,13.6-5.8s4-6,4-10.4
				c0-5.1-2-9.1-6-12.1c-4-3-9.5-4.4-16.6-4.4c-2.9,0-6,0.3-9.2,0.9c-3.2,0.6-6.5,1.4-10,2.6v9.3c3.3-1.7,6.6-3,9.8-3.9
				c3.2-0.9,6.4-1.3,9.6-1.3c4.2,0,7.5,0.7,9.8,2.2c2.3,1.4,3.4,3.5,3.4,6.1c0,2.4-0.8,4.3-2.5,5.6c-1.6,1.3-5.2,2.6-10.8,3.8
				l-3.1,0.7c-5.6,1.2-9.6,3-12.1,5.4c-2.5,2.4-3.7,5.8-3.7,10c0,5.1,1.8,9.1,5.5,11.9c3.6,2.8,8.8,4.2,15.5,4.2
				c3.3,0,6.4-0.2,9.4-0.7C1881.6,62.9,1884.3,62.2,1886.8,61.2"/>
		</g>
		<g>
			<path id="DejaVuSans-29_2_" d="M1902.6,84h7.8c4.9-7.7,8.5-15.2,11-22.6c2.4-7.4,3.6-14.7,3.6-21.9c0-7.3-1.2-14.6-3.6-22
				c-2.4-7.4-6.1-14.9-11-22.6h-7.8c4.3,7.5,7.6,14.9,9.7,22.3c2.1,7.4,3.2,14.8,3.2,22.3c0,7.5-1.1,14.9-3.2,22.3
				C1910.2,69.1,1906.9,76.5,1902.6,84"/>
		</g>
		<g>
			<path id="DejaVuSans-20_11_" d="M1933.6,8.1"/>
		</g>
		<g>
			<path id="DejaVuSans-66_2_" d="M2002.5,84.1v-7.5h-8.6c-3.2,0-5.5-0.7-6.7-2c-1.3-1.3-1.9-3.6-1.9-7v-4.8h14.8v-7h-14.8V8.1h-9
				v47.7h-8.6v7h8.6v3.8c0,6.1,1.4,10.5,4.3,13.3c2.8,2.8,7.3,4.2,13.5,4.2H2002.5z"/>
		</g>
		<g>
			<path id="DejaVuSans-6f_6_" d="M2031.2,56.5c-4.8,0-8.6-1.9-11.4-5.6c-2.8-3.8-4.2-8.9-4.2-15.5s1.4-11.7,4.2-15.5
				c2.8-3.8,6.6-5.6,11.5-5.6c4.8,0,8.6,1.9,11.4,5.7c2.8,3.8,4.2,8.9,4.2,15.4c0,6.5-1.4,11.6-4.2,15.4
				C2039.8,54.6,2036,56.5,2031.2,56.5 M2031.2,64.1c7.8,0,13.9-2.5,18.4-7.6c4.5-5.1,6.7-12.1,6.7-21.1c0-8.9-2.2-16-6.7-21.1
				c-4.5-5.1-10.6-7.6-18.4-7.6c-7.8,0-14,2.5-18.4,7.6c-4.4,5.1-6.7,12.1-6.7,21.1c0,9,2.2,16,6.7,21.1
				C2017.2,61.6,2023.4,64.1,2031.2,64.1"/>
		</g>
		<g>
			<path id="DejaVuSans-72_4_" d="M2102.9,54.4c-1,0.6-2.1,1-3.3,1.3c-1.2,0.3-2.5,0.4-3.9,0.4c-5.1,0-9-1.7-11.7-5s-4.1-8-4.1-14.2
				V8.1h-9v54.7h9v-8.5c1.9,3.3,4.4,5.8,7.4,7.4c3,1.6,6.7,2.4,11,2.4c0.6,0,1.3,0,2-0.1c0.8-0.1,1.6-0.2,2.5-0.4L2102.9,54.4z"/>
		</g>
		<g>
			<path id="DejaVuSans-20_12_" d="M2102.9,8.1"/>
		</g>
		<g>
			<path id="DejaVuSans-41" d="M2168.9,71.3L2155.5,35h26.8L2168.9,71.3z M2163.3,81h11.2l27.8-72.9H2192l-6.6,18.7h-32.9l-6.6-18.7
				h-10.4L2163.3,81z"/>
		</g>
		<g>
			<path id="DejaVuSans-6c_3_" d="M2212.5,84.1h9v-76h-9V84.1z"/>
		</g>
		<g>
			<path id="DejaVuSans-6c_4_" d="M2240.3,84.1h9v-76h-9V84.1z"/>
		</g>
		<g>
			<path id="DejaVuSans-2c" d="M2270.4,20.5h10.3v-8.4l-8-15.6h-6.3l4,15.6V20.5z"/>
		</g>
		<g>
			<path id="DejaVuSans-20_13_" d="M2290.5,8.1"/>
		</g>
		<g>
			<path id="DejaVuSans-77" d="M2326.4,62.8h9l11.2-42.7l11.2,42.7h10.6l11.2-42.7l11.2,42.7h9l-14.3-54.7h-10.6l-11.8,44.8
				l-11.8-44.8h-10.6L2326.4,62.8z"/>
		</g>
		<g>
			<path id="DejaVuSans-69_5_" d="M2413.5,62.8h9V8.1h-9V62.8z M2413.5,84.1h9V72.7h-9V84.1z"/>
		</g>
		<g>
			<path id="DejaVuSans-74_8_" d="M2450.1,78.3V62.8h18.5v-7h-18.5V26.1c0-4.5,0.6-7.3,1.8-8.6c1.2-1.3,3.7-1.9,7.5-1.9h9.2V8.1
				h-9.2c-6.9,0-11.7,1.3-14.4,3.9c-2.6,2.6-4,7.3-4,14.1v29.7h-6.6v7h6.6v15.5H2450.1z"/>
		</g>
		<g>
			<path id="DejaVuSans-68_2_" d="M2525.9,41.1v-33h-9v32.7c0,5.2-1,9-3,11.6c-2,2.6-5,3.9-9.1,3.9c-4.9,0-8.7-1.5-11.5-4.6
				c-2.8-3.1-4.2-7.3-4.2-12.6V8.1h-9v76h9V54.3c2.2,3.3,4.7,5.8,7.6,7.4c2.9,1.6,6.3,2.4,10.1,2.4c6.3,0,11-1.9,14.3-5.8
				C2524.3,54.4,2525.9,48.7,2525.9,41.1"/>
		</g>
		<g>
			<path id="DejaVuSans-20_14_" d="M2534.4,8.1"/>
		</g>
		<g>
			<path id="DejaVuSans-49" d="M2576,81h9.9V8.1h-9.9V81z"/>
		</g>
		<g>
			<path id="DejaVuSans-6e_7_" d="M2650.6,41.1v-33h-9v32.7c0,5.2-1,9-3,11.6c-2,2.6-5,3.9-9.1,3.9c-4.9,0-8.7-1.5-11.5-4.6
				c-2.8-3.1-4.2-7.3-4.2-12.6V8.1h-9v54.7h9v-8.5c2.2,3.3,4.7,5.8,7.6,7.4c2.9,1.6,6.3,2.4,10.1,2.4c6.3,0,11-1.9,14.3-5.8
				C2649,54.4,2650.6,48.7,2650.6,41.1"/>
		</g>
		<g>
			<path id="DejaVuSans-74_9_" d="M2677.4,78.3V62.8h18.5v-7h-18.5V26.1c0-4.5,0.6-7.3,1.8-8.6c1.2-1.3,3.7-1.9,7.5-1.9h9.2V8.1
				h-9.2c-6.9,0-11.7,1.3-14.4,3.9c-2.6,2.6-4,7.3-4,14.1v29.7h-6.6v7h6.6v15.5H2677.4z"/>
		</g>
		<g>
			<path id="DejaVuSans-65_11_" d="M2754.5,37.7v-4.4h-41.3c0.4-6.2,2.3-10.9,5.6-14.1c3.3-3.2,8-4.9,13.9-4.9c3.4,0,6.8,0.4,10,1.3
				c3.2,0.8,6.5,2.1,9.7,3.8v-8.5c-3.2-1.4-6.5-2.4-9.9-3.1c-3.4-0.7-6.8-1.1-10.3-1.1c-8.7,0-15.6,2.5-20.7,7.6
				c-5.1,5.1-7.6,12-7.6,20.6c0,8.9,2.4,16,7.3,21.3c4.8,5.3,11.4,7.9,19.6,7.9c7.4,0,13.2-2.4,17.5-7.1
				C2752.3,52.3,2754.5,45.8,2754.5,37.7 M2745.5,40.3c-0.1,4.9-1.4,8.8-4.1,11.8c-2.7,2.9-6.2,4.4-10.7,4.4c-5,0-9-1.4-12-4.3
				c-3-2.8-4.7-6.8-5.2-12L2745.5,40.3z"/>
		</g>
		<g>
			<path id="DejaVuSans-67" d="M2805.2,36.1c0,6.5-1.3,11.6-4,15.1c-2.7,3.6-6.4,5.4-11.3,5.4c-4.8,0-8.6-1.8-11.3-5.4
				c-2.7-3.6-4-8.6-4-15.1c0-6.5,1.3-11.5,4-15.1s6.4-5.4,11.3-5.4c4.9,0,8.6,1.8,11.3,5.4C2803.9,24.6,2805.2,29.6,2805.2,36.1
				 M2814.2,14.9c0-9.3-2.1-16.2-6.2-20.8c-4.1-4.5-10.5-6.8-19-6.8c-3.2,0-6.1,0.2-8.9,0.7c-2.8,0.5-5.5,1.2-8.2,2.2v8.7
				c2.6-1.4,5.2-2.5,7.8-3.2c2.6-0.7,5.2-1,7.9-1c5.9,0,10.3,1.5,13.2,4.6c2.9,3.1,4.4,7.7,4.4,13.9v4.5c-1.9-3.2-4.2-5.6-7.1-7.2
				c-2.9-1.6-6.4-2.4-10.4-2.4c-6.7,0-12.1,2.6-16.2,7.7c-4.1,5.1-6.2,11.9-6.2,20.3c0,8.5,2.1,15.2,6.2,20.3
				c4.1,5.1,9.5,7.7,16.2,7.7c4,0,7.5-0.8,10.4-2.4c2.9-1.6,5.3-4,7.1-7.2v8.3h9V14.9z"/>
		</g>
		<g>
			<path id="DejaVuSans-72_5_" d="M2864.4,54.4c-1,0.6-2.1,1-3.3,1.3c-1.2,0.3-2.5,0.4-3.9,0.4c-5.1,0-9-1.7-11.7-5s-4.1-8-4.1-14.2
				V8.1h-9v54.7h9v-8.5c1.9,3.3,4.4,5.8,7.4,7.4c3,1.6,6.7,2.4,11,2.4c0.6,0,1.3,0,2-0.1c0.8-0.1,1.6-0.2,2.5-0.4L2864.4,54.4z"/>
		</g>
		<g>
			<path id="DejaVuSans-61_6_" d="M2898.7,35.6c-7.3,0-12.3-0.8-15.1-2.5c-2.8-1.7-4.2-4.5-4.2-8.5c0-3.2,1.1-5.7,3.2-7.6
				c2.1-1.9,5-2.8,8.6-2.8c5,0,9,1.8,12,5.3c3,3.5,4.5,8.2,4.5,14.1v2H2898.7z M2916.6,39.3V8.1h-9v8.3c-2.1-3.3-4.6-5.8-7.7-7.3
				s-6.8-2.4-11.2-2.4c-5.6,0-10,1.6-13.4,4.7c-3.3,3.1-5,7.4-5,12.6c0,6.1,2.1,10.8,6.2,13.9c4.1,3.1,10.3,4.7,18.4,4.7h12.6v0.9
				c0,4.1-1.4,7.3-4.1,9.6s-6.5,3.4-11.5,3.4c-3.1,0-6.2-0.4-9.1-1.1c-3-0.8-5.8-1.9-8.5-3.4v8.3c3.3,1.3,6.5,2.2,9.6,2.8
				c3.1,0.6,6.1,1,9,1c7.9,0,13.8-2.1,17.7-6.2C2914.6,53.8,2916.6,47.6,2916.6,39.3"/>
		</g>
		<g>
			<path id="DejaVuSans-74_10_" d="M2944,78.3V62.8h18.5v-7H2944V26.1c0-4.5,0.6-7.3,1.8-8.6c1.2-1.3,3.7-1.9,7.5-1.9h9.2V8.1h-9.2
				c-6.9,0-11.7,1.3-14.4,3.9c-2.6,2.6-4,7.3-4,14.1v29.7h-6.6v7h6.6v15.5H2944z"/>
		</g>
		<g>
			<path id="DejaVuSans-69_6_" d="M2974.3,62.8h9V8.1h-9V62.8z M2974.3,84.1h9V72.7h-9V84.1z"/>
		</g>
		<g>
			<path id="DejaVuSans-6f_7_" d="M3023.3,56.5c-4.8,0-8.6-1.9-11.4-5.6c-2.8-3.8-4.2-8.9-4.2-15.5s1.4-11.7,4.2-15.5
				c2.8-3.8,6.6-5.6,11.5-5.6c4.8,0,8.6,1.9,11.4,5.7c2.8,3.8,4.2,8.9,4.2,15.4c0,6.5-1.4,11.6-4.2,15.4
				C3031.8,54.6,3028.1,56.5,3023.3,56.5 M3023.3,64.1c7.8,0,13.9-2.5,18.4-7.6c4.5-5.1,6.7-12.1,6.7-21.1c0-8.9-2.2-16-6.7-21.1
				c-4.5-5.1-10.6-7.6-18.4-7.6c-7.8,0-14,2.5-18.4,7.6c-4.4,5.1-6.7,12.1-6.7,21.1c0,9,2.2,16,6.7,21.1
				C3009.3,61.6,3015.4,64.1,3023.3,64.1"/>
		</g>
		<g>
			<path id="DejaVuSans-6e_8_" d="M3108.7,41.1v-33h-9v32.7c0,5.2-1,9-3,11.6c-2,2.6-5,3.9-9.1,3.9c-4.9,0-8.7-1.5-11.5-4.6
				c-2.8-3.1-4.2-7.3-4.2-12.6V8.1h-9v54.7h9v-8.5c2.2,3.3,4.7,5.8,7.6,7.4c2.9,1.6,6.3,2.4,10.1,2.4c6.3,0,11-1.9,14.3-5.8
				C3107.1,54.4,3108.7,48.7,3108.7,41.1"/>
		</g>
	</g>
</g>
<g id="legend_1">
	<g id="patch_7">
		<path class="st26" d="M298.2,77.9h111.4c1.3,0,2-0.7,2-2V47.5c0-1.3-0.7-2-2-2H298.2c-1.3,0-2,0.7-2,2v28.4
			C296.2,77.2,296.8,77.9,298.2,77.9z"/>
	</g>
	<g id="line2d_36">
		<path class="st27" d="M300.2,53.6h20"/>
	</g>
	<g id="line2d_37">
	</g>
	<g id="text_22">
		<g transform="translate(326.337188 58.070437)scale(0.1 -0.1)">
			<g>
				<path id="DejaVuSans-53" d="M71.6,80.2v-9.6c-3.7,1.8-7.3,3.1-10.6,4c-3.3,0.9-6.5,1.3-9.6,1.3c-5.4,0-9.5-1-12.4-3.1
					c-2.9-2.1-4.4-5-4.4-8.9c0-3.2,1-5.7,2.9-7.3c1.9-1.6,5.6-3,11-4l6-1.2c7.4-1.4,12.8-3.9,16.3-7.4S76,35.8,76,29.8
					c0-7.1-2.4-12.4-7.1-16.1c-4.7-3.6-11.7-5.5-20.8-5.5c-3.4,0-7.1,0.4-11,1.2c-3.9,0.8-7.9,1.9-12.1,3.5v10.2
					c4-2.2,7.9-3.9,11.8-5.1c3.8-1.1,7.6-1.7,11.3-1.7c5.6,0,10,1.1,13,3.3c3.1,2.2,4.6,5.4,4.6,9.5c0,3.6-1.1,6.4-3.3,8.4
					c-2.2,2-5.8,3.5-10.8,4.5l-6,1.2c-7.4,1.5-12.7,3.8-16,6.9c-3.3,3.1-4.9,7.5-4.9,13c0,6.4,2.3,11.5,6.8,15.2s10.8,5.6,18.8,5.6
					c3.4,0,6.9-0.3,10.5-0.9C64.3,82.4,67.9,81.5,71.6,80.2"/>
			</g>
			<g>
				<path id="DejaVuSans-63_3_" d="M130.4,62.3v-8.4c-2.5,1.4-5.1,2.5-7.6,3.2c-2.6,0.7-5.1,1-7.7,1c-5.8,0-10.4-1.8-13.6-5.5
					c-3.2-3.7-4.8-8.9-4.8-15.5s1.6-11.9,4.8-15.6c3.2-3.7,7.8-5.5,13.6-5.5c2.6,0,5.2,0.3,7.7,1c2.6,0.7,5.1,1.8,7.6,3.2v-8.3
					c-2.5-1.2-5.1-2-7.8-2.6c-2.7-0.6-5.5-0.9-8.6-0.9c-8.2,0-14.8,2.6-19.6,7.8c-4.8,5.2-7.3,12.2-7.3,21c0,8.9,2.4,15.9,7.3,21
					c4.9,5.1,11.6,7.7,20.2,7.7c2.8,0,5.5-0.3,8.1-0.9C125.4,64.3,127.9,63.4,130.4,62.3"/>
			</g>
			<g>
				<path id="DejaVuSans-68_3_" d="M191.5,42.7v-33h-9v32.7c0,5.2-1,9-3,11.6c-2,2.6-5,3.9-9.1,3.9c-4.9,0-8.7-1.5-11.5-4.6
					c-2.8-3.1-4.2-7.3-4.2-12.6V9.7h-9v76h9V55.9c2.2,3.3,4.7,5.8,7.6,7.4c2.9,1.6,6.3,2.4,10.1,2.4c6.3,0,11-1.9,14.3-5.8
					C189.9,56,191.5,50.3,191.5,42.7"/>
			</g>
			<g>
				<path id="DejaVuSans-69_7_" d="M209.4,64.4h9V9.7h-9V64.4z M209.4,85.7h9V74.3h-9V85.7z"/>
			</g>
			<g>
				<path id="DejaVuSans-73_6_" d="M272,62.8v-8.5c-2.5,1.3-5.2,2.3-7.9,2.9c-2.7,0.7-5.6,1-8.5,1c-4.5,0-7.8-0.7-10-2
					c-2.2-1.4-3.3-3.4-3.3-6.2c0-2.1,0.8-3.7,2.4-4.9s4.8-2.3,9.6-3.4l3.1-0.7c6.4-1.4,10.9-3.3,13.6-5.8c2.7-2.5,4-6,4-10.4
					c0-5.1-2-9.1-6-12.1c-4-3-9.5-4.4-16.6-4.4c-2.9,0-6,0.3-9.2,0.9c-3.2,0.6-6.5,1.4-10,2.6V21c3.3-1.7,6.6-3,9.8-3.9
					c3.2-0.9,6.4-1.3,9.6-1.3c4.2,0,7.5,0.7,9.8,2.2c2.3,1.4,3.4,3.5,3.4,6.1c0,2.4-0.8,4.3-2.5,5.6c-1.6,1.3-5.2,2.6-10.8,3.8
					l-3.1,0.7c-5.6,1.2-9.6,3-12.1,5.4c-2.5,2.4-3.7,5.8-3.7,10c0,5.1,1.8,9.1,5.5,11.9c3.6,2.8,8.8,4.2,15.5,4.2
					c3.3,0,6.4-0.2,9.4-0.7C266.9,64.5,269.6,63.8,272,62.8"/>
			</g>
			<g>
				<path id="DejaVuSans-74_11_" d="M298.2,79.9V64.4h18.5v-7h-18.5V27.7c0-4.5,0.6-7.3,1.8-8.6c1.2-1.3,3.7-1.9,7.5-1.9h9.2V9.7
					h-9.2c-6.9,0-11.7,1.3-14.4,3.9c-2.6,2.6-4,7.3-4,14.1v29.7h-6.6v7h6.6v15.5H298.2z"/>
			</g>
			<g>
				<path id="DejaVuSans-6f_8_" d="M349.7,58.1c-4.8,0-8.6-1.9-11.4-5.6c-2.8-3.8-4.2-8.9-4.2-15.5s1.4-11.7,4.2-15.5
					c2.8-3.8,6.6-5.6,11.5-5.6c4.8,0,8.6,1.9,11.4,5.7c2.8,3.8,4.2,8.9,4.2,15.4c0,6.5-1.4,11.6-4.2,15.4
					C358.3,56.2,354.5,58.1,349.7,58.1 M349.7,65.7c7.8,0,13.9-2.5,18.4-7.6c4.5-5.1,6.7-12.1,6.7-21.1c0-8.9-2.2-16-6.7-21.1
					c-4.5-5.1-10.6-7.6-18.4-7.6c-7.8,0-14,2.5-18.4,7.6c-4.4,5.1-6.7,12.1-6.7,21.1c0,9,2.2,16,6.7,21.1
					C335.7,63.2,341.8,65.7,349.7,65.7"/>
			</g>
			<g>
				<path id="DejaVuSans-73_7_" d="M424.5,62.8v-8.5c-2.5,1.3-5.2,2.3-7.9,2.9c-2.7,0.7-5.6,1-8.5,1c-4.5,0-7.8-0.7-10-2
					c-2.2-1.4-3.3-3.4-3.3-6.2c0-2.1,0.8-3.7,2.4-4.9s4.8-2.3,9.6-3.4l3.1-0.7c6.4-1.4,10.9-3.3,13.6-5.8c2.7-2.5,4-6,4-10.4
					c0-5.1-2-9.1-6-12.1c-4-3-9.5-4.4-16.6-4.4c-2.9,0-6,0.3-9.2,0.9c-3.2,0.6-6.5,1.4-10,2.6V21c3.3-1.7,6.6-3,9.8-3.9
					c3.2-0.9,6.4-1.3,9.6-1.3c4.2,0,7.5,0.7,9.8,2.2c2.3,1.4,3.4,3.5,3.4,6.1c0,2.4-0.8,4.3-2.5,5.6c-1.6,1.3-5.2,2.6-10.8,3.8
					l-3.1,0.7c-5.6,1.2-9.6,3-12.1,5.4c-2.5,2.4-3.7,5.8-3.7,10c0,5.1,1.8,9.1,5.5,11.9c3.6,2.8,8.8,4.2,15.5,4.2
					c3.3,0,6.4-0.2,9.4-0.7C419.4,64.5,422.1,63.8,424.5,62.8"/>
			</g>
			<g>
				<path id="DejaVuSans-6f_9_" d="M463,58.1c-4.8,0-8.6-1.9-11.4-5.6c-2.8-3.8-4.2-8.9-4.2-15.5s1.4-11.7,4.2-15.5
					c2.8-3.8,6.6-5.6,11.5-5.6c4.8,0,8.6,1.9,11.4,5.7c2.8,3.8,4.2,8.9,4.2,15.4c0,6.5-1.4,11.6-4.2,15.4
					C471.5,56.2,467.7,58.1,463,58.1 M463,65.7c7.8,0,13.9-2.5,18.4-7.6c4.5-5.1,6.7-12.1,6.7-21.1c0-8.9-2.2-16-6.7-21.1
					c-4.5-5.1-10.6-7.6-18.4-7.6c-7.8,0-14,2.5-18.4,7.6c-4.4,5.1-6.7,12.1-6.7,21.1c0,9,2.2,16,6.7,21.1
					C449,63.2,455.1,65.7,463,65.7"/>
			</g>
			<g>
				<path id="DejaVuSans-6d_4_" d="M545.5,53.9c2.3,4,4.9,7,8.1,8.9s6.8,2.9,11,2.9c5.7,0,10.1-2,13.2-6c3.1-4,4.6-9.6,4.6-17v-33
					h-9v32.7c0,5.2-0.9,9.1-2.8,11.7c-1.9,2.5-4.7,3.8-8.5,3.8c-4.7,0-8.3-1.5-11-4.6c-2.7-3.1-4-7.3-4-12.6V9.7h-9v32.7
					c0,5.3-0.9,9.2-2.8,11.7c-1.9,2.5-4.7,3.8-8.6,3.8c-4.6,0-8.2-1.6-11-4.7c-2.7-3.1-4-7.3-4-12.6V9.7h-9v54.7h9v-8.5
					c2.1,3.4,4.5,5.8,7.4,7.4c2.9,1.6,6.3,2.4,10.2,2.4c4,0,7.4-1,10.1-3C542.1,60.7,544.2,57.7,545.5,53.9"/>
			</g>
			<g>
				<path id="DejaVuSans-69_8_" d="M600.4,64.4h9V9.7h-9V64.4z M600.4,85.7h9V74.3h-9V85.7z"/>
			</g>
			<g>
				<path id="DejaVuSans-61_7_" d="M653,37.2c-7.3,0-12.3-0.8-15.1-2.5c-2.8-1.7-4.2-4.5-4.2-8.5c0-3.2,1.1-5.7,3.2-7.6
					c2.1-1.9,5-2.8,8.6-2.8c5,0,9,1.8,12,5.3c3,3.5,4.5,8.2,4.5,14.1v2H653z M670.9,40.9V9.7h-9V18c-2.1-3.3-4.6-5.8-7.7-7.3
					s-6.8-2.4-11.2-2.4c-5.6,0-10,1.6-13.4,4.7c-3.3,3.1-5,7.4-5,12.6c0,6.1,2.1,10.8,6.2,13.9c4.1,3.1,10.3,4.7,18.4,4.7h12.6v0.9
					c0,4.1-1.4,7.3-4.1,9.6s-6.5,3.4-11.5,3.4c-3.1,0-6.2-0.4-9.1-1.1c-3-0.8-5.8-1.9-8.5-3.4v8.3c3.3,1.3,6.5,2.2,9.6,2.8
					c3.1,0.6,6.1,1,9,1c7.9,0,13.8-2.1,17.7-6.2C669,55.5,670.9,49.3,670.9,40.9"/>
			</g>
			<g>
				<path id="DejaVuSans-73_8_" d="M724.3,62.8v-8.5c-2.5,1.3-5.2,2.3-7.9,2.9c-2.7,0.7-5.6,1-8.5,1c-4.5,0-7.8-0.7-10-2
					c-2.2-1.4-3.3-3.4-3.3-6.2c0-2.1,0.8-3.7,2.4-4.9s4.8-2.3,9.6-3.4l3.1-0.7c6.4-1.4,10.9-3.3,13.6-5.8c2.7-2.5,4-6,4-10.4
					c0-5.1-2-9.1-6-12.1c-4-3-9.5-4.4-16.6-4.4c-2.9,0-6,0.3-9.2,0.9c-3.2,0.6-6.5,1.4-10,2.6V21c3.3-1.7,6.6-3,9.8-3.9
					c3.2-0.9,6.4-1.3,9.6-1.3c4.2,0,7.5,0.7,9.8,2.2c2.3,1.4,3.4,3.5,3.4,6.1c0,2.4-0.8,4.3-2.5,5.6c-1.6,1.3-5.2,2.6-10.8,3.8
					l-3.1,0.7c-5.6,1.2-9.6,3-12.1,5.4c-2.5,2.4-3.7,5.8-3.7,10c0,5.1,1.8,9.1,5.5,11.9c3.6,2.8,8.8,4.2,15.5,4.2
					c3.3,0,6.4-0.2,9.4-0.7C719.1,64.5,721.8,63.8,724.3,62.8"/>
			</g>
			<g>
				<path id="DejaVuSans-69_9_" d="M741.5,64.4h9V9.7h-9V64.4z M741.5,85.7h9V74.3h-9V85.7z"/>
			</g>
			<g>
				<path id="DejaVuSans-73_9_" d="M804.2,62.8v-8.5c-2.5,1.3-5.2,2.3-7.9,2.9c-2.7,0.7-5.6,1-8.5,1c-4.5,0-7.8-0.7-10-2
					c-2.2-1.4-3.3-3.4-3.3-6.2c0-2.1,0.8-3.7,2.4-4.9s4.8-2.3,9.6-3.4l3.1-0.7c6.4-1.4,10.9-3.3,13.6-5.8c2.7-2.5,4-6,4-10.4
					c0-5.1-2-9.1-6-12.1c-4-3-9.5-4.4-16.6-4.4c-2.9,0-6,0.3-9.2,0.9c-3.2,0.6-6.5,1.4-10,2.6V21c3.3-1.7,6.6-3,9.8-3.9
					c3.2-0.9,6.4-1.3,9.6-1.3c4.2,0,7.5,0.7,9.8,2.2c2.3,1.4,3.4,3.5,3.4,6.1c0,2.4-0.8,4.3-2.5,5.6c-1.6,1.3-5.2,2.6-10.8,3.8
					l-3.1,0.7c-5.6,1.2-9.6,3-12.1,5.4c-2.5,2.4-3.7,5.8-3.7,10c0,5.1,1.8,9.1,5.5,11.9c3.6,2.8,8.8,4.2,15.5,4.2
					c3.3,0,6.4-0.2,9.4-0.7C799,64.5,801.7,63.8,804.2,62.8"/>
			</g>
		</g>
	</g>
	<g id="line2d_38">
		<path class="st28" d="M300.2,68.3h20"/>
	</g>
	<g id="line2d_39">
	</g>
	<g id="text_23">
		<g transform="translate(326.337188 72.748562)scale(0.1 -0.1)">
			<g>
				<path id="DejaVuSans-4d" d="M27.9,82.6h14.7L61.2,33l18.7,49.6h14.7V9.7H85v64l-18.8-50h-9.9l-18.8,50v-64h-9.6V82.6z"/>
			</g>
			<g>
				<path id="DejaVuSans-61_8_" d="M138.7,37.2c-7.3,0-12.3-0.8-15.1-2.5c-2.8-1.7-4.2-4.5-4.2-8.5c0-3.2,1.1-5.7,3.2-7.6
					c2.1-1.9,5-2.8,8.6-2.8c5,0,9,1.8,12,5.3c3,3.5,4.5,8.2,4.5,14.1v2H138.7z M156.6,40.9V9.7h-9V18c-2.1-3.3-4.6-5.8-7.7-7.3
					s-6.8-2.4-11.2-2.4c-5.6,0-10,1.6-13.4,4.7c-3.3,3.1-5,7.4-5,12.6c0,6.1,2.1,10.8,6.2,13.9c4.1,3.1,10.3,4.7,18.4,4.7h12.6v0.9
					c0,4.1-1.4,7.3-4.1,9.6s-6.5,3.4-11.5,3.4c-3.1,0-6.2-0.4-9.1-1.1c-3-0.8-5.8-1.9-8.5-3.4v8.3c3.3,1.3,6.5,2.2,9.6,2.8
					c3.1,0.6,6.1,1,9,1c7.9,0,13.8-2.1,17.7-6.2C154.7,55.5,156.6,49.3,156.6,40.9"/>
			</g>
			<g>
				<path id="DejaVuSans-6c_5_" d="M175.1,85.7h9v-76h-9V85.7z"/>
			</g>
			<g>
				<path id="DejaVuSans-61_9_" d="M227.8,37.2c-7.3,0-12.3-0.8-15.1-2.5c-2.8-1.7-4.2-4.5-4.2-8.5c0-3.2,1.1-5.7,3.2-7.6
					c2.1-1.9,5-2.8,8.6-2.8c5,0,9,1.8,12,5.3c3,3.5,4.5,8.2,4.5,14.1v2H227.8z M245.7,40.9V9.7h-9V18c-2.1-3.3-4.6-5.8-7.7-7.3
					s-6.8-2.4-11.2-2.4c-5.6,0-10,1.6-13.4,4.7c-3.3,3.1-5,7.4-5,12.6c0,6.1,2.1,10.8,6.2,13.9c4.1,3.1,10.3,4.7,18.4,4.7h12.6v0.9
					c0,4.1-1.4,7.3-4.1,9.6s-6.5,3.4-11.5,3.4c-3.1,0-6.2-0.4-9.1-1.1c-3-0.8-5.8-1.9-8.5-3.4v8.3c3.3,1.3,6.5,2.2,9.6,2.8
					c3.1,0.6,6.1,1,9,1c7.9,0,13.8-2.1,17.7-6.2C243.7,55.5,245.7,49.3,245.7,40.9"/>
			</g>
			<g>
				<path id="DejaVuSans-72_6_" d="M295.9,56c-1,0.6-2.1,1-3.3,1.3c-1.2,0.3-2.5,0.4-3.9,0.4c-5.1,0-9-1.7-11.7-5s-4.1-8-4.1-14.2
					V9.7h-9v54.7h9v-8.5c1.9,3.3,4.4,5.8,7.4,7.4c3,1.6,6.7,2.4,11,2.4c0.6,0,1.3,0,2-0.1c0.8-0.1,1.6-0.2,2.5-0.4L295.9,56z"/>
			</g>
			<g>
				<path id="DejaVuSans-69_10_" d="M305.3,64.4h9V9.7h-9V64.4z M305.3,85.7h9V74.3h-9V85.7z"/>
			</g>
			<g>
				<path id="DejaVuSans-61_10_" d="M357.9,37.2c-7.3,0-12.3-0.8-15.1-2.5c-2.8-1.7-4.2-4.5-4.2-8.5c0-3.2,1.1-5.7,3.2-7.6
					c2.1-1.9,5-2.8,8.6-2.8c5,0,9,1.8,12,5.3c3,3.5,4.5,8.2,4.5,14.1v2H357.9z M375.9,40.9V9.7h-9V18c-2.1-3.3-4.6-5.8-7.7-7.3
					s-6.8-2.4-11.2-2.4c-5.6,0-10,1.6-13.4,4.7c-3.3,3.1-5,7.4-5,12.6c0,6.1,2.1,10.8,6.2,13.9c4.1,3.1,10.3,4.7,18.4,4.7h12.6v0.9
					c0,4.1-1.4,7.3-4.1,9.6s-6.5,3.4-11.5,3.4c-3.1,0-6.2-0.4-9.1-1.1c-3-0.8-5.8-1.9-8.5-3.4v8.3c3.3,1.3,6.5,2.2,9.6,2.8
					c3.1,0.6,6.1,1,9,1c7.9,0,13.8-2.1,17.7-6.2C373.9,55.5,375.9,49.3,375.9,40.9"/>
			</g>
		</g>
	</g>
</g>
</svg>
