<?xml version="1.0" encoding="utf-8" standalone="no"?>
<!DOCTYPE svg PUBLIC "-//W3C//DTD SVG 1.1//EN"
  "http://www.w3.org/Graphics/SVG/1.1/DTD/svg11.dtd">
<!-- Created with matplotlib (http://matplotlib.org/) -->
<svg height="288pt" version="1.1" viewBox="0 0 432 288" width="432pt" xmlns="http://www.w3.org/2000/svg" xmlns:xlink="http://www.w3.org/1999/xlink">
 <defs>
  <style type="text/css">
*{stroke-linecap:butt;stroke-linejoin:round;}
  </style>
 </defs>
 <g id="figure_1">
  <g id="patch_1">
   <path d="M 0 288 
L 432 288 
L 432 0 
L 0 0 
z
" style="fill:#ffffff;"/>
  </g>
  <g id="axes_1">
   <g id="patch_2">
    <path d="M 54 252 
L 388.8 252 
L 388.8 34.56 
L 54 34.56 
z
" style="fill:#ffffff;"/>
   </g>
   <g id="matplotlib.axis_1">
    <g id="xtick_1">
     <g id="line2d_1">
      <path clip-path="url(#p1502ff5ee3)" d="M 54 252 
L 54 34.56 
" style="fill:none;stroke:#b0b0b0;stroke-linecap:square;stroke-width:0.8;"/>
     </g>
     <g id="line2d_2">
      <defs>
       <path d="M 0 0 
L 0 3.5 
" id="mad8a4d6597" style="stroke:#000000;stroke-width:0.8;"/>
      </defs>
      <g>
       <use style="stroke:#000000;stroke-width:0.8;" x="54" xlink:href="#mad8a4d6597" y="252"/>
      </g>
     </g>
     <g id="text_1">
      <!-- −4 -->
      <defs>
       <path d="M 10.59375 35.5 
L 73.1875 35.5 
L 73.1875 27.203125 
L 10.59375 27.203125 
z
" id="DejaVuSans-2212"/>
       <path d="M 37.796875 64.3125 
L 12.890625 25.390625 
L 37.796875 25.390625 
z
M 35.203125 72.90625 
L 47.609375 72.90625 
L 47.609375 25.390625 
L 58.015625 25.390625 
L 58.015625 17.1875 
L 47.609375 17.1875 
L 47.609375 0 
L 37.796875 0 
L 37.796875 17.1875 
L 4.890625 17.1875 
L 4.890625 26.703125 
z
" id="DejaVuSans-34"/>
      </defs>
      <g transform="translate(46.628906 266.598437)scale(0.1 -0.1)">
       <use xlink:href="#DejaVuSans-2212"/>
       <use x="83.789062" xlink:href="#DejaVuSans-34"/>
      </g>
     </g>
    </g>
    <g id="xtick_2">
     <g id="line2d_3">
      <path clip-path="url(#p1502ff5ee3)" d="M 95.418557 252 
L 95.418557 34.56 
" style="fill:none;stroke:#b0b0b0;stroke-linecap:square;stroke-width:0.8;"/>
     </g>
     <g id="line2d_4">
      <g>
       <use style="stroke:#000000;stroke-width:0.8;" x="95.418557" xlink:href="#mad8a4d6597" y="252"/>
      </g>
     </g>
     <g id="text_2">
      <!-- −2 -->
      <defs>
       <path d="M 19.1875 8.296875 
L 53.609375 8.296875 
L 53.609375 0 
L 7.328125 0 
L 7.328125 8.296875 
Q 12.9375 14.109375 22.625 23.890625 
Q 32.328125 33.6875 34.8125 36.53125 
Q 39.546875 41.84375 41.421875 45.53125 
Q 43.3125 49.21875 43.3125 52.78125 
Q 43.3125 58.59375 39.234375 62.25 
Q 35.15625 65.921875 28.609375 65.921875 
Q 23.96875 65.921875 18.8125 64.3125 
Q 13.671875 62.703125 7.8125 59.421875 
L 7.8125 69.390625 
Q 13.765625 71.78125 18.9375 73 
Q 24.125 74.21875 28.421875 74.21875 
Q 39.75 74.21875 46.484375 68.546875 
Q 53.21875 62.890625 53.21875 53.421875 
Q 53.21875 48.921875 51.53125 44.890625 
Q 49.859375 40.875 45.40625 35.40625 
Q 44.1875 33.984375 37.640625 27.21875 
Q 31.109375 20.453125 19.1875 8.296875 
" id="DejaVuSans-32"/>
      </defs>
      <g transform="translate(88.047463 266.598437)scale(0.1 -0.1)">
       <use xlink:href="#DejaVuSans-2212"/>
       <use x="83.789062" xlink:href="#DejaVuSans-32"/>
      </g>
     </g>
    </g>
    <g id="xtick_3">
     <g id="line2d_5">
      <path clip-path="url(#p1502ff5ee3)" d="M 136.837113 252 
L 136.837113 34.56 
" style="fill:none;stroke:#b0b0b0;stroke-linecap:square;stroke-width:0.8;"/>
     </g>
     <g id="line2d_6">
      <g>
       <use style="stroke:#000000;stroke-width:0.8;" x="136.837113" xlink:href="#mad8a4d6597" y="252"/>
      </g>
     </g>
     <g id="text_3">
      <!-- 0 -->
      <defs>
       <path d="M 31.78125 66.40625 
Q 24.171875 66.40625 20.328125 58.90625 
Q 16.5 51.421875 16.5 36.375 
Q 16.5 21.390625 20.328125 13.890625 
Q 24.171875 6.390625 31.78125 6.390625 
Q 39.453125 6.390625 43.28125 13.890625 
Q 47.125 21.390625 47.125 36.375 
Q 47.125 51.421875 43.28125 58.90625 
Q 39.453125 66.40625 31.78125 66.40625 
M 31.78125 74.21875 
Q 44.046875 74.21875 50.515625 64.515625 
Q 56.984375 54.828125 56.984375 36.375 
Q 56.984375 17.96875 50.515625 8.265625 
Q 44.046875 -1.421875 31.78125 -1.421875 
Q 19.53125 -1.421875 13.0625 8.265625 
Q 6.59375 17.96875 6.59375 36.375 
Q 6.59375 54.828125 13.0625 64.515625 
Q 19.53125 74.21875 31.78125 74.21875 
" id="DejaVuSans-30"/>
      </defs>
      <g transform="translate(133.655863 266.598437)scale(0.1 -0.1)">
       <use xlink:href="#DejaVuSans-30"/>
      </g>
     </g>
    </g>
    <g id="xtick_4">
     <g id="line2d_7">
      <path clip-path="url(#p1502ff5ee3)" d="M 178.25567 252 
L 178.25567 34.56 
" style="fill:none;stroke:#b0b0b0;stroke-linecap:square;stroke-width:0.8;"/>
     </g>
     <g id="line2d_8">
      <g>
       <use style="stroke:#000000;stroke-width:0.8;" x="178.25567" xlink:href="#mad8a4d6597" y="252"/>
      </g>
     </g>
     <g id="text_4">
      <!-- 2 -->
      <g transform="translate(175.07442 266.598437)scale(0.1 -0.1)">
       <use xlink:href="#DejaVuSans-32"/>
      </g>
     </g>
    </g>
    <g id="xtick_5">
     <g id="line2d_9">
      <path clip-path="url(#p1502ff5ee3)" d="M 219.674227 252 
L 219.674227 34.56 
" style="fill:none;stroke:#b0b0b0;stroke-linecap:square;stroke-width:0.8;"/>
     </g>
     <g id="line2d_10">
      <g>
       <use style="stroke:#000000;stroke-width:0.8;" x="219.674227" xlink:href="#mad8a4d6597" y="252"/>
      </g>
     </g>
     <g id="text_5">
      <!-- 4 -->
      <g transform="translate(216.492977 266.598437)scale(0.1 -0.1)">
       <use xlink:href="#DejaVuSans-34"/>
      </g>
     </g>
    </g>
    <g id="xtick_6">
     <g id="line2d_11">
      <path clip-path="url(#p1502ff5ee3)" d="M 261.092784 252 
L 261.092784 34.56 
" style="fill:none;stroke:#b0b0b0;stroke-linecap:square;stroke-width:0.8;"/>
     </g>
     <g id="line2d_12">
      <g>
       <use style="stroke:#000000;stroke-width:0.8;" x="261.092784" xlink:href="#mad8a4d6597" y="252"/>
      </g>
     </g>
     <g id="text_6">
      <!-- 6 -->
      <defs>
       <path d="M 33.015625 40.375 
Q 26.375 40.375 22.484375 35.828125 
Q 18.609375 31.296875 18.609375 23.390625 
Q 18.609375 15.53125 22.484375 10.953125 
Q 26.375 6.390625 33.015625 6.390625 
Q 39.65625 6.390625 43.53125 10.953125 
Q 47.40625 15.53125 47.40625 23.390625 
Q 47.40625 31.296875 43.53125 35.828125 
Q 39.65625 40.375 33.015625 40.375 
M 52.59375 71.296875 
L 52.59375 62.3125 
Q 48.875 64.0625 45.09375 64.984375 
Q 41.3125 65.921875 37.59375 65.921875 
Q 27.828125 65.921875 22.671875 59.328125 
Q 17.53125 52.734375 16.796875 39.40625 
Q 19.671875 43.65625 24.015625 45.921875 
Q 28.375 48.1875 33.59375 48.1875 
Q 44.578125 48.1875 50.953125 41.515625 
Q 57.328125 34.859375 57.328125 23.390625 
Q 57.328125 12.15625 50.6875 5.359375 
Q 44.046875 -1.421875 33.015625 -1.421875 
Q 20.359375 -1.421875 13.671875 8.265625 
Q 6.984375 17.96875 6.984375 36.375 
Q 6.984375 53.65625 15.1875 63.9375 
Q 23.390625 74.21875 37.203125 74.21875 
Q 40.921875 74.21875 44.703125 73.484375 
Q 48.484375 72.75 52.59375 71.296875 
" id="DejaVuSans-36"/>
      </defs>
      <g transform="translate(257.911534 266.598437)scale(0.1 -0.1)">
       <use xlink:href="#DejaVuSans-36"/>
      </g>
     </g>
    </g>
    <g id="xtick_7">
     <g id="line2d_13">
      <path clip-path="url(#p1502ff5ee3)" d="M 302.51134 252 
L 302.51134 34.56 
" style="fill:none;stroke:#b0b0b0;stroke-linecap:square;stroke-width:0.8;"/>
     </g>
     <g id="line2d_14">
      <g>
       <use style="stroke:#000000;stroke-width:0.8;" x="302.51134" xlink:href="#mad8a4d6597" y="252"/>
      </g>
     </g>
     <g id="text_7">
      <!-- 8 -->
      <defs>
       <path d="M 31.78125 34.625 
Q 24.75 34.625 20.71875 30.859375 
Q 16.703125 27.09375 16.703125 20.515625 
Q 16.703125 13.921875 20.71875 10.15625 
Q 24.75 6.390625 31.78125 6.390625 
Q 38.8125 6.390625 42.859375 10.171875 
Q 46.921875 13.96875 46.921875 20.515625 
Q 46.921875 27.09375 42.890625 30.859375 
Q 38.875 34.625 31.78125 34.625 
M 21.921875 38.8125 
Q 15.578125 40.375 12.03125 44.71875 
Q 8.5 49.078125 8.5 55.328125 
Q 8.5 64.0625 14.71875 69.140625 
Q 20.953125 74.21875 31.78125 74.21875 
Q 42.671875 74.21875 48.875 69.140625 
Q 55.078125 64.0625 55.078125 55.328125 
Q 55.078125 49.078125 51.53125 44.71875 
Q 48 40.375 41.703125 38.8125 
Q 48.828125 37.15625 52.796875 32.3125 
Q 56.78125 27.484375 56.78125 20.515625 
Q 56.78125 9.90625 50.3125 4.234375 
Q 43.84375 -1.421875 31.78125 -1.421875 
Q 19.734375 -1.421875 13.25 4.234375 
Q 6.78125 9.90625 6.78125 20.515625 
Q 6.78125 27.484375 10.78125 32.3125 
Q 14.796875 37.15625 21.921875 38.8125 
M 18.3125 54.390625 
Q 18.3125 48.734375 21.84375 45.5625 
Q 25.390625 42.390625 31.78125 42.390625 
Q 38.140625 42.390625 41.71875 45.5625 
Q 45.3125 48.734375 45.3125 54.390625 
Q 45.3125 60.0625 41.71875 63.234375 
Q 38.140625 66.40625 31.78125 66.40625 
Q 25.390625 66.40625 21.84375 63.234375 
Q 18.3125 60.0625 18.3125 54.390625 
" id="DejaVuSans-38"/>
      </defs>
      <g transform="translate(299.33009 266.598437)scale(0.1 -0.1)">
       <use xlink:href="#DejaVuSans-38"/>
      </g>
     </g>
    </g>
    <g id="xtick_8">
     <g id="line2d_15">
      <path clip-path="url(#p1502ff5ee3)" d="M 343.929897 252 
L 343.929897 34.56 
" style="fill:none;stroke:#b0b0b0;stroke-linecap:square;stroke-width:0.8;"/>
     </g>
     <g id="line2d_16">
      <g>
       <use style="stroke:#000000;stroke-width:0.8;" x="343.929897" xlink:href="#mad8a4d6597" y="252"/>
      </g>
     </g>
     <g id="text_8">
      <!-- 10 -->
      <defs>
       <path d="M 12.40625 8.296875 
L 28.515625 8.296875 
L 28.515625 63.921875 
L 10.984375 60.40625 
L 10.984375 69.390625 
L 28.421875 72.90625 
L 38.28125 72.90625 
L 38.28125 8.296875 
L 54.390625 8.296875 
L 54.390625 0 
L 12.40625 0 
z
" id="DejaVuSans-31"/>
      </defs>
      <g transform="translate(337.567397 266.598437)scale(0.1 -0.1)">
       <use xlink:href="#DejaVuSans-31"/>
       <use x="63.623047" xlink:href="#DejaVuSans-30"/>
      </g>
     </g>
    </g>
    <g id="xtick_9">
     <g id="line2d_17">
      <path clip-path="url(#p1502ff5ee3)" d="M 385.348454 252 
L 385.348454 34.56 
" style="fill:none;stroke:#b0b0b0;stroke-linecap:square;stroke-width:0.8;"/>
     </g>
     <g id="line2d_18">
      <g>
       <use style="stroke:#000000;stroke-width:0.8;" x="385.348454" xlink:href="#mad8a4d6597" y="252"/>
      </g>
     </g>
     <g id="text_9">
      <!-- 12 -->
      <g transform="translate(378.985954 266.598437)scale(0.1 -0.1)">
       <use xlink:href="#DejaVuSans-31"/>
       <use x="63.623047" xlink:href="#DejaVuSans-32"/>
      </g>
     </g>
    </g>
    <g id="text_10">
     <!-- Time (months) -->
     <defs>
      <path d="M -0.296875 72.90625 
L 61.375 72.90625 
L 61.375 64.59375 
L 35.5 64.59375 
L 35.5 0 
L 25.59375 0 
L 25.59375 64.59375 
L -0.296875 64.59375 
z
" id="DejaVuSans-54"/>
      <path d="M 9.421875 54.6875 
L 18.40625 54.6875 
L 18.40625 0 
L 9.421875 0 
z
M 9.421875 75.984375 
L 18.40625 75.984375 
L 18.40625 64.59375 
L 9.421875 64.59375 
z
" id="DejaVuSans-69"/>
      <path d="M 52 44.1875 
Q 55.375 50.25 60.0625 53.125 
Q 64.75 56 71.09375 56 
Q 79.640625 56 84.28125 50.015625 
Q 88.921875 44.046875 88.921875 33.015625 
L 88.921875 0 
L 79.890625 0 
L 79.890625 32.71875 
Q 79.890625 40.578125 77.09375 44.375 
Q 74.3125 48.1875 68.609375 48.1875 
Q 61.625 48.1875 57.5625 43.546875 
Q 53.515625 38.921875 53.515625 30.90625 
L 53.515625 0 
L 44.484375 0 
L 44.484375 32.71875 
Q 44.484375 40.625 41.703125 44.40625 
Q 38.921875 48.1875 33.109375 48.1875 
Q 26.21875 48.1875 22.15625 43.53125 
Q 18.109375 38.875 18.109375 30.90625 
L 18.109375 0 
L 9.078125 0 
L 9.078125 54.6875 
L 18.109375 54.6875 
L 18.109375 46.1875 
Q 21.1875 51.21875 25.484375 53.609375 
Q 29.78125 56 35.6875 56 
Q 41.65625 56 45.828125 52.96875 
Q 50 49.953125 52 44.1875 
" id="DejaVuSans-6d"/>
      <path d="M 56.203125 29.59375 
L 56.203125 25.203125 
L 14.890625 25.203125 
Q 15.484375 15.921875 20.484375 11.0625 
Q 25.484375 6.203125 34.421875 6.203125 
Q 39.59375 6.203125 44.453125 7.46875 
Q 49.3125 8.734375 54.109375 11.28125 
L 54.109375 2.78125 
Q 49.265625 0.734375 44.1875 -0.34375 
Q 39.109375 -1.421875 33.890625 -1.421875 
Q 20.796875 -1.421875 13.15625 6.1875 
Q 5.515625 13.8125 5.515625 26.8125 
Q 5.515625 40.234375 12.765625 48.109375 
Q 20.015625 56 32.328125 56 
Q 43.359375 56 49.78125 48.890625 
Q 56.203125 41.796875 56.203125 29.59375 
M 47.21875 32.234375 
Q 47.125 39.59375 43.09375 43.984375 
Q 39.0625 48.390625 32.421875 48.390625 
Q 24.90625 48.390625 20.390625 44.140625 
Q 15.875 39.890625 15.1875 32.171875 
z
" id="DejaVuSans-65"/>
      <path id="DejaVuSans-20"/>
      <path d="M 31 75.875 
Q 24.46875 64.65625 21.28125 53.65625 
Q 18.109375 42.671875 18.109375 31.390625 
Q 18.109375 20.125 21.3125 9.0625 
Q 24.515625 -2 31 -13.1875 
L 23.1875 -13.1875 
Q 15.875 -1.703125 12.234375 9.375 
Q 8.59375 20.453125 8.59375 31.390625 
Q 8.59375 42.28125 12.203125 53.3125 
Q 15.828125 64.359375 23.1875 75.875 
z
" id="DejaVuSans-28"/>
      <path d="M 30.609375 48.390625 
Q 23.390625 48.390625 19.1875 42.75 
Q 14.984375 37.109375 14.984375 27.296875 
Q 14.984375 17.484375 19.15625 11.84375 
Q 23.34375 6.203125 30.609375 6.203125 
Q 37.796875 6.203125 41.984375 11.859375 
Q 46.1875 17.53125 46.1875 27.296875 
Q 46.1875 37.015625 41.984375 42.703125 
Q 37.796875 48.390625 30.609375 48.390625 
M 30.609375 56 
Q 42.328125 56 49.015625 48.375 
Q 55.71875 40.765625 55.71875 27.296875 
Q 55.71875 13.875 49.015625 6.21875 
Q 42.328125 -1.421875 30.609375 -1.421875 
Q 18.84375 -1.421875 12.171875 6.21875 
Q 5.515625 13.875 5.515625 27.296875 
Q 5.515625 40.765625 12.171875 48.375 
Q 18.84375 56 30.609375 56 
" id="DejaVuSans-6f"/>
      <path d="M 54.890625 33.015625 
L 54.890625 0 
L 45.90625 0 
L 45.90625 32.71875 
Q 45.90625 40.484375 42.875 44.328125 
Q 39.84375 48.1875 33.796875 48.1875 
Q 26.515625 48.1875 22.3125 43.546875 
Q 18.109375 38.921875 18.109375 30.90625 
L 18.109375 0 
L 9.078125 0 
L 9.078125 54.6875 
L 18.109375 54.6875 
L 18.109375 46.1875 
Q 21.34375 51.125 25.703125 53.5625 
Q 30.078125 56 35.796875 56 
Q 45.21875 56 50.046875 50.171875 
Q 54.890625 44.34375 54.890625 33.015625 
" id="DejaVuSans-6e"/>
      <path d="M 18.3125 70.21875 
L 18.3125 54.6875 
L 36.8125 54.6875 
L 36.8125 47.703125 
L 18.3125 47.703125 
L 18.3125 18.015625 
Q 18.3125 11.328125 20.140625 9.421875 
Q 21.96875 7.515625 27.59375 7.515625 
L 36.8125 7.515625 
L 36.8125 0 
L 27.59375 0 
Q 17.1875 0 13.234375 3.875 
Q 9.28125 7.765625 9.28125 18.015625 
L 9.28125 47.703125 
L 2.6875 47.703125 
L 2.6875 54.6875 
L 9.28125 54.6875 
L 9.28125 70.21875 
z
" id="DejaVuSans-74"/>
      <path d="M 54.890625 33.015625 
L 54.890625 0 
L 45.90625 0 
L 45.90625 32.71875 
Q 45.90625 40.484375 42.875 44.328125 
Q 39.84375 48.1875 33.796875 48.1875 
Q 26.515625 48.1875 22.3125 43.546875 
Q 18.109375 38.921875 18.109375 30.90625 
L 18.109375 0 
L 9.078125 0 
L 9.078125 75.984375 
L 18.109375 75.984375 
L 18.109375 46.1875 
Q 21.34375 51.125 25.703125 53.5625 
Q 30.078125 56 35.796875 56 
Q 45.21875 56 50.046875 50.171875 
Q 54.890625 44.34375 54.890625 33.015625 
" id="DejaVuSans-68"/>
      <path d="M 44.28125 53.078125 
L 44.28125 44.578125 
Q 40.484375 46.53125 36.375 47.5 
Q 32.28125 48.484375 27.875 48.484375 
Q 21.1875 48.484375 17.84375 46.4375 
Q 14.5 44.390625 14.5 40.28125 
Q 14.5 37.15625 16.890625 35.375 
Q 19.28125 33.59375 26.515625 31.984375 
L 29.59375 31.296875 
Q 39.15625 29.25 43.1875 25.515625 
Q 47.21875 21.78125 47.21875 15.09375 
Q 47.21875 7.46875 41.1875 3.015625 
Q 35.15625 -1.421875 24.609375 -1.421875 
Q 20.21875 -1.421875 15.453125 -0.5625 
Q 10.6875 0.296875 5.421875 2 
L 5.421875 11.28125 
Q 10.40625 8.6875 15.234375 7.390625 
Q 20.0625 6.109375 24.8125 6.109375 
Q 31.15625 6.109375 34.5625 8.28125 
Q 37.984375 10.453125 37.984375 14.40625 
Q 37.984375 18.0625 35.515625 20.015625 
Q 33.0625 21.96875 24.703125 23.78125 
L 21.578125 24.515625 
Q 13.234375 26.265625 9.515625 29.90625 
Q 5.8125 33.546875 5.8125 39.890625 
Q 5.8125 47.609375 11.28125 51.796875 
Q 16.75 56 26.8125 56 
Q 31.78125 56 36.171875 55.265625 
Q 40.578125 54.546875 44.28125 53.078125 
" id="DejaVuSans-73"/>
      <path d="M 8.015625 75.875 
L 15.828125 75.875 
Q 23.140625 64.359375 26.78125 53.3125 
Q 30.421875 42.28125 30.421875 31.390625 
Q 30.421875 20.453125 26.78125 9.375 
Q 23.140625 -1.703125 15.828125 -13.1875 
L 8.015625 -13.1875 
Q 14.5 -2 17.703125 9.0625 
Q 20.90625 20.125 20.90625 31.390625 
Q 20.90625 42.671875 17.703125 53.65625 
Q 14.5 64.65625 8.015625 75.875 
" id="DejaVuSans-29"/>
     </defs>
     <g transform="translate(184.689844 280.276563)scale(0.1 -0.1)">
      <use xlink:href="#DejaVuSans-54"/>
      <use x="61.037109" xlink:href="#DejaVuSans-69"/>
      <use x="88.820312" xlink:href="#DejaVuSans-6d"/>
      <use x="186.232422" xlink:href="#DejaVuSans-65"/>
      <use x="247.755859" xlink:href="#DejaVuSans-20"/>
      <use x="279.542969" xlink:href="#DejaVuSans-28"/>
      <use x="318.556641" xlink:href="#DejaVuSans-6d"/>
      <use x="415.96875" xlink:href="#DejaVuSans-6f"/>
      <use x="477.150391" xlink:href="#DejaVuSans-6e"/>
      <use x="540.529297" xlink:href="#DejaVuSans-74"/>
      <use x="579.738281" xlink:href="#DejaVuSans-68"/>
      <use x="643.117188" xlink:href="#DejaVuSans-73"/>
      <use x="695.216797" xlink:href="#DejaVuSans-29"/>
     </g>
    </g>
   </g>
   <g id="matplotlib.axis_2">
    <g id="ytick_1">
     <g id="line2d_19">
      <path clip-path="url(#p1502ff5ee3)" d="M 54 252 
L 388.8 252 
" style="fill:none;stroke:#b0b0b0;stroke-linecap:square;stroke-width:0.8;"/>
     </g>
     <g id="line2d_20">
      <defs>
       <path d="M 0 0 
L -3.5 0 
" id="m13dd43eded" style="stroke:#000000;stroke-width:0.8;"/>
      </defs>
      <g>
       <use style="stroke:#000000;stroke-width:0.8;" x="54" xlink:href="#m13dd43eded" y="252"/>
      </g>
     </g>
     <g id="text_11">
      <!-- 0.0 -->
      <defs>
       <path d="M 10.6875 12.40625 
L 21 12.40625 
L 21 0 
L 10.6875 0 
z
" id="DejaVuSans-2e"/>
      </defs>
      <g transform="translate(31.096875 255.799219)scale(0.1 -0.1)">
       <use xlink:href="#DejaVuSans-30"/>
       <use x="63.623047" xlink:href="#DejaVuSans-2e"/>
       <use x="95.410156" xlink:href="#DejaVuSans-30"/>
      </g>
     </g>
    </g>
    <g id="ytick_2">
     <g id="line2d_21">
      <path clip-path="url(#p1502ff5ee3)" d="M 54 208.512 
L 388.8 208.512 
" style="fill:none;stroke:#b0b0b0;stroke-linecap:square;stroke-width:0.8;"/>
     </g>
     <g id="line2d_22">
      <g>
       <use style="stroke:#000000;stroke-width:0.8;" x="54" xlink:href="#m13dd43eded" y="208.512"/>
      </g>
     </g>
     <g id="text_12">
      <!-- 0.2 -->
      <g transform="translate(31.096875 212.311219)scale(0.1 -0.1)">
       <use xlink:href="#DejaVuSans-30"/>
       <use x="63.623047" xlink:href="#DejaVuSans-2e"/>
       <use x="95.410156" xlink:href="#DejaVuSans-32"/>
      </g>
     </g>
    </g>
    <g id="ytick_3">
     <g id="line2d_23">
      <path clip-path="url(#p1502ff5ee3)" d="M 54 165.024 
L 388.8 165.024 
" style="fill:none;stroke:#b0b0b0;stroke-linecap:square;stroke-width:0.8;"/>
     </g>
     <g id="line2d_24">
      <g>
       <use style="stroke:#000000;stroke-width:0.8;" x="54" xlink:href="#m13dd43eded" y="165.024"/>
      </g>
     </g>
     <g id="text_13">
      <!-- 0.4 -->
      <g transform="translate(31.096875 168.823219)scale(0.1 -0.1)">
       <use xlink:href="#DejaVuSans-30"/>
       <use x="63.623047" xlink:href="#DejaVuSans-2e"/>
       <use x="95.410156" xlink:href="#DejaVuSans-34"/>
      </g>
     </g>
    </g>
    <g id="ytick_4">
     <g id="line2d_25">
      <path clip-path="url(#p1502ff5ee3)" d="M 54 121.536 
L 388.8 121.536 
" style="fill:none;stroke:#b0b0b0;stroke-linecap:square;stroke-width:0.8;"/>
     </g>
     <g id="line2d_26">
      <g>
       <use style="stroke:#000000;stroke-width:0.8;" x="54" xlink:href="#m13dd43eded" y="121.536"/>
      </g>
     </g>
     <g id="text_14">
      <!-- 0.6 -->
      <g transform="translate(31.096875 125.335219)scale(0.1 -0.1)">
       <use xlink:href="#DejaVuSans-30"/>
       <use x="63.623047" xlink:href="#DejaVuSans-2e"/>
       <use x="95.410156" xlink:href="#DejaVuSans-36"/>
      </g>
     </g>
    </g>
    <g id="ytick_5">
     <g id="line2d_27">
      <path clip-path="url(#p1502ff5ee3)" d="M 54 78.048 
L 388.8 78.048 
" style="fill:none;stroke:#b0b0b0;stroke-linecap:square;stroke-width:0.8;"/>
     </g>
     <g id="line2d_28">
      <g>
       <use style="stroke:#000000;stroke-width:0.8;" x="54" xlink:href="#m13dd43eded" y="78.048"/>
      </g>
     </g>
     <g id="text_15">
      <!-- 0.8 -->
      <g transform="translate(31.096875 81.847219)scale(0.1 -0.1)">
       <use xlink:href="#DejaVuSans-30"/>
       <use x="63.623047" xlink:href="#DejaVuSans-2e"/>
       <use x="95.410156" xlink:href="#DejaVuSans-38"/>
      </g>
     </g>
    </g>
    <g id="ytick_6">
     <g id="line2d_29">
      <path clip-path="url(#p1502ff5ee3)" d="M 54 34.56 
L 388.8 34.56 
" style="fill:none;stroke:#b0b0b0;stroke-linecap:square;stroke-width:0.8;"/>
     </g>
     <g id="line2d_30">
      <g>
       <use style="stroke:#000000;stroke-width:0.8;" x="54" xlink:href="#m13dd43eded" y="34.56"/>
      </g>
     </g>
     <g id="text_16">
      <!-- 1.0 -->
      <g transform="translate(31.096875 38.359219)scale(0.1 -0.1)">
       <use xlink:href="#DejaVuSans-31"/>
       <use x="63.623047" xlink:href="#DejaVuSans-2e"/>
       <use x="95.410156" xlink:href="#DejaVuSans-30"/>
      </g>
     </g>
    </g>
    <g id="text_17">
     <!-- Prevalence (fraction of population) -->
     <defs>
      <path d="M 19.671875 64.796875 
L 19.671875 37.40625 
L 32.078125 37.40625 
Q 38.96875 37.40625 42.71875 40.96875 
Q 46.484375 44.53125 46.484375 51.125 
Q 46.484375 57.671875 42.71875 61.234375 
Q 38.96875 64.796875 32.078125 64.796875 
z
M 9.8125 72.90625 
L 32.078125 72.90625 
Q 44.34375 72.90625 50.609375 67.359375 
Q 56.890625 61.8125 56.890625 51.125 
Q 56.890625 40.328125 50.609375 34.8125 
Q 44.34375 29.296875 32.078125 29.296875 
L 19.671875 29.296875 
L 19.671875 0 
L 9.8125 0 
z
" id="DejaVuSans-50"/>
      <path d="M 41.109375 46.296875 
Q 39.59375 47.171875 37.8125 47.578125 
Q 36.03125 48 33.890625 48 
Q 26.265625 48 22.1875 43.046875 
Q 18.109375 38.09375 18.109375 28.8125 
L 18.109375 0 
L 9.078125 0 
L 9.078125 54.6875 
L 18.109375 54.6875 
L 18.109375 46.1875 
Q 20.953125 51.171875 25.484375 53.578125 
Q 30.03125 56 36.53125 56 
Q 37.453125 56 38.578125 55.875 
Q 39.703125 55.765625 41.0625 55.515625 
z
" id="DejaVuSans-72"/>
      <path d="M 2.984375 54.6875 
L 12.5 54.6875 
L 29.59375 8.796875 
L 46.6875 54.6875 
L 56.203125 54.6875 
L 35.6875 0 
L 23.484375 0 
z
" id="DejaVuSans-76"/>
      <path d="M 34.28125 27.484375 
Q 23.390625 27.484375 19.1875 25 
Q 14.984375 22.515625 14.984375 16.5 
Q 14.984375 11.71875 18.140625 8.90625 
Q 21.296875 6.109375 26.703125 6.109375 
Q 34.1875 6.109375 38.703125 11.40625 
Q 43.21875 16.703125 43.21875 25.484375 
L 43.21875 27.484375 
z
M 52.203125 31.203125 
L 52.203125 0 
L 43.21875 0 
L 43.21875 8.296875 
Q 40.140625 3.328125 35.546875 0.953125 
Q 30.953125 -1.421875 24.3125 -1.421875 
Q 15.921875 -1.421875 10.953125 3.296875 
Q 6 8.015625 6 15.921875 
Q 6 25.140625 12.171875 29.828125 
Q 18.359375 34.515625 30.609375 34.515625 
L 43.21875 34.515625 
L 43.21875 35.40625 
Q 43.21875 41.609375 39.140625 45 
Q 35.0625 48.390625 27.6875 48.390625 
Q 23 48.390625 18.546875 47.265625 
Q 14.109375 46.140625 10.015625 43.890625 
L 10.015625 52.203125 
Q 14.9375 54.109375 19.578125 55.046875 
Q 24.21875 56 28.609375 56 
Q 40.484375 56 46.34375 49.84375 
Q 52.203125 43.703125 52.203125 31.203125 
" id="DejaVuSans-61"/>
      <path d="M 9.421875 75.984375 
L 18.40625 75.984375 
L 18.40625 0 
L 9.421875 0 
z
" id="DejaVuSans-6c"/>
      <path d="M 48.78125 52.59375 
L 48.78125 44.1875 
Q 44.96875 46.296875 41.140625 47.34375 
Q 37.3125 48.390625 33.40625 48.390625 
Q 24.65625 48.390625 19.8125 42.84375 
Q 14.984375 37.3125 14.984375 27.296875 
Q 14.984375 17.28125 19.8125 11.734375 
Q 24.65625 6.203125 33.40625 6.203125 
Q 37.3125 6.203125 41.140625 7.25 
Q 44.96875 8.296875 48.78125 10.40625 
L 48.78125 2.09375 
Q 45.015625 0.34375 40.984375 -0.53125 
Q 36.96875 -1.421875 32.421875 -1.421875 
Q 20.0625 -1.421875 12.78125 6.34375 
Q 5.515625 14.109375 5.515625 27.296875 
Q 5.515625 40.671875 12.859375 48.328125 
Q 20.21875 56 33.015625 56 
Q 37.15625 56 41.109375 55.140625 
Q 45.0625 54.296875 48.78125 52.59375 
" id="DejaVuSans-63"/>
      <path d="M 37.109375 75.984375 
L 37.109375 68.5 
L 28.515625 68.5 
Q 23.6875 68.5 21.796875 66.546875 
Q 19.921875 64.59375 19.921875 59.515625 
L 19.921875 54.6875 
L 34.71875 54.6875 
L 34.71875 47.703125 
L 19.921875 47.703125 
L 19.921875 0 
L 10.890625 0 
L 10.890625 47.703125 
L 2.296875 47.703125 
L 2.296875 54.6875 
L 10.890625 54.6875 
L 10.890625 58.5 
Q 10.890625 67.625 15.140625 71.796875 
Q 19.390625 75.984375 28.609375 75.984375 
z
" id="DejaVuSans-66"/>
      <path d="M 18.109375 8.203125 
L 18.109375 -20.796875 
L 9.078125 -20.796875 
L 9.078125 54.6875 
L 18.109375 54.6875 
L 18.109375 46.390625 
Q 20.953125 51.265625 25.265625 53.625 
Q 29.59375 56 35.59375 56 
Q 45.5625 56 51.78125 48.09375 
Q 58.015625 40.1875 58.015625 27.296875 
Q 58.015625 14.40625 51.78125 6.484375 
Q 45.5625 -1.421875 35.59375 -1.421875 
Q 29.59375 -1.421875 25.265625 0.953125 
Q 20.953125 3.328125 18.109375 8.203125 
M 48.6875 27.296875 
Q 48.6875 37.203125 44.609375 42.84375 
Q 40.53125 48.484375 33.40625 48.484375 
Q 26.265625 48.484375 22.1875 42.84375 
Q 18.109375 37.203125 18.109375 27.296875 
Q 18.109375 17.390625 22.1875 11.75 
Q 26.265625 6.109375 33.40625 6.109375 
Q 40.53125 6.109375 44.609375 11.75 
Q 48.6875 17.390625 48.6875 27.296875 
" id="DejaVuSans-70"/>
      <path d="M 8.5 21.578125 
L 8.5 54.6875 
L 17.484375 54.6875 
L 17.484375 21.921875 
Q 17.484375 14.15625 20.5 10.265625 
Q 23.53125 6.390625 29.59375 6.390625 
Q 36.859375 6.390625 41.078125 11.03125 
Q 45.3125 15.671875 45.3125 23.6875 
L 45.3125 54.6875 
L 54.296875 54.6875 
L 54.296875 0 
L 45.3125 0 
L 45.3125 8.40625 
Q 42.046875 3.421875 37.71875 1 
Q 33.40625 -1.421875 27.6875 -1.421875 
Q 18.265625 -1.421875 13.375 4.4375 
Q 8.5 10.296875 8.5 21.578125 
M 31.109375 56 
z
" id="DejaVuSans-75"/>
     </defs>
     <g transform="translate(25.017187 230.209688)rotate(-90)scale(0.1 -0.1)">
      <use xlink:href="#DejaVuSans-50"/>
      <use x="60.287109" xlink:href="#DejaVuSans-72"/>
      <use x="101.369141" xlink:href="#DejaVuSans-65"/>
      <use x="162.892578" xlink:href="#DejaVuSans-76"/>
      <use x="222.072266" xlink:href="#DejaVuSans-61"/>
      <use x="283.351562" xlink:href="#DejaVuSans-6c"/>
      <use x="311.134766" xlink:href="#DejaVuSans-65"/>
      <use x="372.658203" xlink:href="#DejaVuSans-6e"/>
      <use x="436.037109" xlink:href="#DejaVuSans-63"/>
      <use x="491.017578" xlink:href="#DejaVuSans-65"/>
      <use x="552.541016" xlink:href="#DejaVuSans-20"/>
      <use x="584.328125" xlink:href="#DejaVuSans-28"/>
      <use x="623.341797" xlink:href="#DejaVuSans-66"/>
      <use x="658.546875" xlink:href="#DejaVuSans-72"/>
      <use x="699.660156" xlink:href="#DejaVuSans-61"/>
      <use x="760.939453" xlink:href="#DejaVuSans-63"/>
      <use x="815.919922" xlink:href="#DejaVuSans-74"/>
      <use x="855.128906" xlink:href="#DejaVuSans-69"/>
      <use x="882.912109" xlink:href="#DejaVuSans-6f"/>
      <use x="944.09375" xlink:href="#DejaVuSans-6e"/>
      <use x="1007.472656" xlink:href="#DejaVuSans-20"/>
      <use x="1039.259766" xlink:href="#DejaVuSans-6f"/>
      <use x="1100.441406" xlink:href="#DejaVuSans-66"/>
      <use x="1135.646484" xlink:href="#DejaVuSans-20"/>
      <use x="1167.433594" xlink:href="#DejaVuSans-70"/>
      <use x="1230.910156" xlink:href="#DejaVuSans-6f"/>
      <use x="1292.091797" xlink:href="#DejaVuSans-70"/>
      <use x="1355.568359" xlink:href="#DejaVuSans-75"/>
      <use x="1418.947266" xlink:href="#DejaVuSans-6c"/>
      <use x="1446.730469" xlink:href="#DejaVuSans-61"/>
      <use x="1508.009766" xlink:href="#DejaVuSans-74"/>
      <use x="1547.21875" xlink:href="#DejaVuSans-69"/>
      <use x="1575.001953" xlink:href="#DejaVuSans-6f"/>
      <use x="1636.183594" xlink:href="#DejaVuSans-6e"/>
      <use x="1699.5625" xlink:href="#DejaVuSans-29"/>
     </g>
    </g>
   </g>
   <g id="line2d_31">
    <path clip-path="url(#p1502ff5ee3)" d="M -1 152.73864 
L 136.146804 152.73864 
L 136.837113 176.76576 
L 388.109691 176.76576 
L 388.109691 176.76576 
" style="fill:none;stroke:#1f77b4;stroke-linecap:square;stroke-width:1.5;"/>
   </g>
   <g id="line2d_32">
    <path clip-path="url(#p1502ff5ee3)" d="M -1 156.174686 
L -0.534433 156.76128 
L 0.846186 157.63104 
L 1.536495 156.76128 
L 2.226804 156.97872 
L 4.297732 150.99912 
L 4.988041 150.3468 
L 5.678351 149.47704 
L 6.36866 149.8032 
L 7.058969 149.58576 
L 8.439588 149.47704 
L 9.129897 151.76016 
L 9.820206 150.8904 
L 10.510515 149.47704 
L 11.200825 149.2596 
L 11.891134 149.58576 
L 12.581443 150.99912 
L 13.271753 150.99912 
L 13.962062 152.30376 
L 14.652371 153.17352 
L 15.34268 152.62992 
L 16.03299 152.84736 
L 16.723299 152.30376 
L 17.413608 151.434 
L 18.103918 152.08632 
L 18.794227 151.32528 
L 20.174845 153.17352 
L 21.555464 150.8904 
L 22.245773 151.10784 
L 22.936082 150.67296 
L 24.316701 150.67296 
L 25.00701 148.60728 
L 25.69732 146.97648 
L 26.387629 146.43288 
L 27.077938 147.19392 
L 27.768247 147.0852 
L 29.148866 151.86888 
L 29.839175 151.10784 
L 30.529485 152.41248 
L 31.219794 151.9776 
L 31.910103 152.41248 
L 32.600412 152.5212 
L 33.981031 153.28224 
L 34.67134 155.7828 
L 35.361649 155.7828 
L 36.051959 156.76128 
L 36.742268 158.28336 
L 37.432577 158.93568 
L 38.813196 155.13048 
L 39.503505 154.6956 
L 40.193814 152.84736 
L 40.884124 153.28224 
L 41.574433 152.73864 
L 42.264742 153.17352 
L 42.955052 151.9776 
L 43.645361 152.08632 
L 44.33567 153.49968 
L 45.025979 150.99912 
L 45.716289 152.73864 
L 46.406598 152.08632 
L 47.096907 151.10784 
L 47.787216 149.58576 
L 48.477526 152.08632 
L 49.167835 151.9776 
L 50.548454 152.73864 
L 51.238763 155.2392 
L 51.929072 156.3264 
L 52.619381 155.89152 
L 53.309691 155.7828 
L 54 156.65256 
L 54.690309 152.19504 
L 55.380619 154.04328 
L 56.070928 153.6084 
L 57.451546 150.56424 
L 58.141856 153.93456 
L 59.522474 151.10784 
L 60.212784 151.86888 
L 60.903093 151.54272 
L 61.593402 149.69448 
L 62.283711 149.8032 
L 62.974021 149.69448 
L 63.66433 148.38984 
L 64.354639 148.06368 
L 65.044948 149.58576 
L 65.735258 149.91192 
L 66.425567 148.93344 
L 67.115876 150.12936 
L 67.806186 150.67296 
L 69.186804 151.21656 
L 69.877113 151.86888 
L 70.567423 151.65144 
L 71.257732 150.78168 
L 71.948041 150.56424 
L 72.638351 151.76016 
L 73.32866 151.32528 
L 74.018969 149.58576 
L 74.709278 149.47704 
L 75.399588 151.10784 
L 76.089897 148.716 
L 76.780206 149.04216 
L 77.470515 149.15088 
L 78.160825 150.23808 
L 78.851134 149.47704 
L 79.541443 150.78168 
L 80.231753 149.58576 
L 80.922062 150.8904 
L 81.612371 150.45552 
L 82.30268 152.73864 
L 83.683299 156.00024 
L 84.373608 156.21768 
L 85.063918 155.89152 
L 85.754227 156.00024 
L 86.444536 156.87 
L 87.134845 155.89152 
L 87.825155 155.7828 
L 88.515464 157.84848 
L 89.205773 155.13048 
L 89.896082 155.34792 
L 90.586392 153.6084 
L 91.276701 153.0648 
L 91.96701 150.8904 
L 92.65732 151.434 
L 93.347629 149.58576 
L 94.037938 149.69448 
L 94.728247 150.3468 
L 95.418557 147.73752 
L 96.108866 148.28112 
L 96.799175 149.15088 
L 97.489485 150.23808 
L 98.179794 150.23808 
L 98.870103 149.47704 
L 99.560412 148.49856 
L 100.250722 148.49856 
L 100.941031 147.0852 
L 101.63134 145.01952 
L 102.321649 147.84624 
L 103.702268 147.73752 
L 104.392577 149.04216 
L 105.773196 150.23808 
L 107.153814 149.69448 
L 107.844124 149.2596 
L 108.534433 150.3468 
L 109.224742 149.8032 
L 109.915052 149.91192 
L 110.605361 149.69448 
L 111.985979 152.73864 
L 112.676289 154.80432 
L 113.366598 155.34792 
L 114.056907 154.80432 
L 114.747216 153.71712 
L 115.437526 151.65144 
L 116.127835 150.23808 
L 116.818144 151.21656 
L 117.508454 151.434 
L 118.198763 152.41248 
L 118.889072 150.23808 
L 119.579381 150.3468 
L 120.269691 149.69448 
L 120.96 148.38984 
L 121.650309 148.93344 
L 122.340619 150.3468 
L 123.030928 146.86776 
L 123.721237 146.43288 
L 124.411546 147.73752 
L 125.101856 146.86776 
L 125.792165 146.75904 
L 126.482474 149.58576 
L 127.172784 151.10784 
L 127.863093 151.54272 
L 128.553402 153.28224 
L 129.243711 150.02064 
L 129.934021 147.41136 
L 130.62433 147.6288 
L 131.314639 147.6288 
L 132.004948 148.28112 
L 132.695258 148.1724 
L 133.385567 148.38984 
L 134.766186 148.28112 
L 135.456495 149.04216 
L 136.146804 147.84624 
L 136.837113 149.8032 
L 137.527423 148.49856 
L 138.217732 149.47704 
L 138.908041 148.82472 
L 139.598351 150.56424 
L 140.28866 149.91192 
L 140.978969 150.23808 
L 141.669278 151.76016 
L 142.359588 152.62992 
L 143.049897 152.62992 
L 143.740206 153.39096 
L 144.430515 153.71712 
L 145.811134 151.54272 
L 146.501443 151.21656 
L 147.191753 149.36832 
L 147.882062 152.30376 
L 148.572371 151.32528 
L 149.26268 151.434 
L 149.95299 149.91192 
L 150.643299 151.10784 
L 151.333608 149.36832 
L 152.023918 151.86888 
L 152.714227 152.08632 
L 153.404536 153.0648 
L 154.094845 153.6084 
L 154.785155 155.45664 
L 155.475464 153.82584 
L 156.165773 153.93456 
L 156.856082 156.65256 
L 157.546392 158.28336 
L 158.236701 158.5008 
L 159.61732 158.06592 
L 160.307629 156.00024 
L 161.688247 152.95608 
L 162.378557 152.62992 
L 163.068866 153.93456 
L 163.759175 152.19504 
L 164.449485 152.5212 
L 165.139794 152.19504 
L 165.830103 152.73864 
L 166.520412 151.9776 
L 167.210722 153.17352 
L 167.901031 152.62992 
L 168.59134 153.39096 
L 169.281649 152.5212 
L 169.971959 152.73864 
L 170.662268 153.71712 
L 171.352577 154.26072 
L 172.042887 155.13048 
L 172.733196 156.54384 
L 173.423505 157.52232 
L 174.113814 157.30488 
L 174.804124 156.76128 
L 175.494433 155.45664 
L 176.184742 153.0648 
L 176.875052 153.6084 
L 177.565361 152.84736 
L 178.25567 152.84736 
L 178.945979 150.23808 
L 179.636289 148.49856 
L 180.326598 147.84624 
L 181.707216 149.04216 
L 182.397526 153.6084 
L 183.087835 156.65256 
L 183.778144 154.152 
L 184.468454 153.28224 
L 185.158763 154.152 
L 185.849072 151.32528 
L 186.539381 151.10784 
L 187.229691 153.82584 
L 187.92 153.0648 
L 188.610309 149.47704 
L 189.300619 149.8032 
L 189.990928 146.65032 
L 190.681237 142.62768 
L 192.061856 140.77944 
L 193.442474 132.51672 
L 194.132784 130.34232 
L 194.823093 129.90744 
L 195.513402 128.6028 
L 196.203711 129.69 
L 196.894021 130.45104 
L 197.58433 131.97312 
L 198.274639 131.21208 
L 198.964948 133.06032 
L 199.655258 132.08184 
L 201.035876 133.27776 
L 202.416495 132.51672 
L 203.106804 131.64696 
L 203.797113 129.25512 
L 204.487423 128.49408 
L 205.177732 128.16792 
L 205.868041 128.27664 
L 206.558351 127.40688 
L 207.24866 126.86328 
L 207.938969 124.254 
L 208.629278 123.38424 
L 209.319588 122.29704 
L 210.009897 122.84064 
L 210.700206 120.66624 
L 211.390515 122.0796 
L 212.080825 121.75344 
L 212.771134 122.84064 
L 213.461443 123.27552 
L 214.151753 122.94936 
L 214.842062 123.05808 
L 215.532371 122.40576 
L 216.22268 123.60168 
L 216.91299 122.84064 
L 217.603299 123.1668 
L 218.983918 121.86216 
L 219.674227 119.79648 
L 220.364536 119.57904 
L 221.054845 122.73192 
L 221.745155 121.64472 
L 223.125773 121.31856 
L 223.816082 121.31856 
L 224.506392 118.60056 
L 225.196701 117.07848 
L 225.88701 117.7308 
L 227.267629 119.9052 
L 227.957938 119.57904 
L 229.338557 123.49296 
L 230.719175 128.6028 
L 231.409485 129.36384 
L 232.099794 131.21208 
L 232.790103 132.29928 
L 233.480412 132.62544 
L 234.861031 137.73528 
L 235.55134 140.88816 
L 236.241649 142.95384 
L 236.931959 144.47592 
L 237.622268 143.93232 
L 238.312577 144.47592 
L 239.002887 142.51896 
L 239.693196 143.71488 
L 240.383505 143.38872 
L 241.073814 143.28 
L 241.764124 141.32304 
L 242.454433 142.7364 
L 243.144742 143.8236 
L 243.835052 143.71488 
L 245.21567 147.41136 
L 245.905979 148.49856 
L 247.286598 148.60728 
L 247.976907 149.8032 
L 248.667216 149.2596 
L 249.357526 151.86888 
L 250.047835 152.08632 
L 250.738144 151.86888 
L 251.428454 153.28224 
L 252.118763 152.95608 
L 253.499381 151.10784 
L 254.189691 150.56424 
L 254.88 149.69448 
L 255.570309 148.60728 
L 256.260619 150.56424 
L 256.950928 150.23808 
L 257.641237 151.32528 
L 258.331546 151.21656 
L 259.021856 152.30376 
L 259.712165 152.30376 
L 260.402474 153.0648 
L 261.092784 151.9776 
L 261.783093 148.38984 
L 262.473402 148.60728 
L 263.163711 149.04216 
L 263.854021 148.38984 
L 265.234639 154.80432 
L 265.924948 156.00024 
L 266.615258 153.6084 
L 267.995876 150.78168 
L 268.686186 149.8032 
L 270.066804 145.12824 
L 270.757113 143.71488 
L 272.137732 141.43176 
L 272.828041 140.77944 
L 273.518351 139.4748 
L 274.20866 140.12712 
L 274.898969 139.90968 
L 275.589278 135.01728 
L 276.279588 132.08184 
L 276.969897 132.51672 
L 277.660206 130.7772 
L 279.040825 132.29928 
L 279.731134 135.23472 
L 280.421443 134.14752 
L 281.111753 134.90856 
L 281.802062 133.82136 
L 282.492371 133.06032 
L 283.18268 131.64696 
L 283.87299 129.79872 
L 284.563299 128.6028 
L 285.253608 127.84176 
L 285.943918 127.73304 
L 286.634227 126.21096 
L 287.324536 125.66736 
L 288.705155 126.10224 
L 289.395464 124.14528 
L 290.085773 121.20984 
L 290.776082 120.23136 
L 292.84701 120.55752 
L 293.53732 121.42728 
L 294.227629 121.31856 
L 294.917938 122.29704 
L 295.608247 120.34008 
L 296.298557 119.25288 
L 296.988866 120.55752 
L 297.679175 120.12264 
L 298.369485 119.03544 
L 299.750103 117.40464 
L 300.440412 119.03544 
L 301.130722 118.49184 
L 301.821031 118.818 
L 302.51134 118.05696 
L 303.201649 119.03544 
L 303.891959 115.44768 
L 304.582268 115.99128 
L 305.272577 114.36048 
L 305.962887 115.0128 
L 306.653196 114.14304 
L 307.343505 114.90408 
L 308.033814 115.33896 
L 308.724124 115.12152 
L 309.414433 113.16456 
L 310.104742 113.16456 
L 310.795052 114.4692 
L 311.485361 113.81688 
L 312.17567 113.59944 
L 312.865979 114.25176 
L 313.556289 114.68664 
L 314.246598 115.66512 
L 315.627216 115.5564 
L 316.317526 113.81688 
L 317.007835 113.70816 
L 317.698144 111.7512 
L 318.388454 111.42504 
L 319.078763 111.64248 
L 319.769072 112.72968 
L 320.459381 112.40352 
L 321.149691 111.64248 
L 321.84 111.85992 
L 322.530309 111.53376 
L 323.220619 110.22912 
L 324.601237 108.81576 
L 325.291546 108.81576 
L 325.981856 109.79424 
L 328.052784 111.96864 
L 328.743093 112.40352 
L 329.433402 113.27328 
L 330.123711 111.09888 
L 330.814021 110.77272 
L 331.50433 109.5768 
L 332.194639 109.46808 
L 332.884948 107.51112 
L 333.575258 109.0332 
L 334.265567 109.0332 
L 334.955876 109.5768 
L 336.336495 108.59832 
L 337.026804 107.61984 
L 337.717113 108.70704 
L 338.407423 106.8588 
L 339.097732 107.4024 
L 340.478351 105.88032 
L 341.16866 107.07624 
L 341.858969 108.59832 
L 343.239588 109.5768 
L 344.620206 107.29368 
L 345.310515 104.79312 
L 346.000825 107.29368 
L 346.691134 108.81576 
L 347.381443 111.7512 
L 348.071753 111.42504 
L 348.762062 114.68664 
L 349.452371 113.70816 
L 350.83299 110.1204 
L 351.523299 110.88144 
L 352.903918 116.96976 
L 353.594227 122.73192 
L 357.736082 141.97536 
L 358.426392 146.43288 
L 359.80701 152.30376 
L 360.49732 156.97872 
L 361.877938 162.95832 
L 362.568247 163.50192 
L 363.258557 164.80656 
L 363.948866 164.80656 
L 365.329485 163.9368 
L 366.710103 164.58912 
L 368.090722 162.306 
L 368.781031 162.8496 
L 369.47134 162.52344 
L 370.161649 161.87112 
L 370.851959 160.78392 
L 371.542268 164.04552 
L 372.232577 162.52344 
L 372.922887 161.43624 
L 373.613196 161.87112 
L 374.303505 163.28448 
L 376.374433 166.6548 
L 377.064742 167.08968 
L 377.755052 169.04664 
L 378.445361 168.17688 
L 379.13567 169.15536 
L 379.825979 169.9164 
L 380.516289 168.8292 
L 381.206598 167.41584 
L 381.896907 167.52456 
L 382.587216 164.37168 
L 383.277526 163.61064 
L 383.967835 164.4804 
L 384.658144 163.61064 
L 386.038763 164.04552 
L 386.729072 162.63216 
L 388.109691 162.08856 
L 388.109691 162.08856 
" style="fill:none;stroke:#ff7f0e;stroke-linecap:square;stroke-width:1.5;"/>
   </g>
   <g id="line2d_33">
    <defs>
     <path d="M 0 1.5 
C 0.397805 1.5 0.77937 1.341951 1.06066 1.06066 
C 1.341951 0.77937 1.5 0.397805 1.5 0 
C 1.5 -0.397805 1.341951 -0.77937 1.06066 -1.06066 
C 0.77937 -1.341951 0.397805 -1.5 0 -1.5 
C -0.397805 -1.5 -0.77937 -1.341951 -1.06066 -1.06066 
C -1.341951 -0.77937 -1.5 -0.397805 -1.5 0 
C -1.5 0.397805 -1.341951 0.77937 -1.06066 1.06066 
C -0.77937 1.341951 -0.397805 1.5 0 1.5 
z
" id="m45cc6c537f" style="stroke:#2ca02c;"/>
    </defs>
    <g clip-path="url(#p1502ff5ee3)">
     <use style="fill:#2ca02c;stroke:#2ca02c;" x="136.837113" xlink:href="#m45cc6c537f" y="143.28"/>
    </g>
   </g>
   <g id="line2d_34">
    <defs>
     <path d="M 0 1.5 
C 0.397805 1.5 0.77937 1.341951 1.06066 1.06066 
C 1.341951 0.77937 1.5 0.397805 1.5 0 
C 1.5 -0.397805 1.341951 -0.77937 1.06066 -1.06066 
C 0.77937 -1.341951 0.397805 -1.5 0 -1.5 
C -0.397805 -1.5 -0.77937 -1.341951 -1.06066 -1.06066 
C -1.341951 -0.77937 -1.5 -0.397805 -1.5 0 
C -1.5 0.397805 -1.341951 0.77937 -1.06066 1.06066 
C -0.77937 1.341951 -0.397805 1.5 0 1.5 
z
" id="md93ccd31aa" style="stroke:#d62728;"/>
    </defs>
    <g clip-path="url(#p1502ff5ee3)">
     <use style="fill:#d62728;stroke:#d62728;" x="346.000825" xlink:href="#md93ccd31aa" y="121.536"/>
    </g>
   </g>
   <g id="line2d_35">
    <defs>
     <path d="M 0 1.5 
C 0.397805 1.5 0.77937 1.341951 1.06066 1.06066 
C 1.341951 0.77937 1.5 0.397805 1.5 0 
C 1.5 -0.397805 1.341951 -0.77937 1.06066 -1.06066 
C 0.77937 -1.341951 0.397805 -1.5 0 -1.5 
C -0.397805 -1.5 -0.77937 -1.341951 -1.06066 -1.06066 
C -1.341951 -0.77937 -1.5 -0.397805 -1.5 0 
C -1.5 0.397805 -1.341951 0.77937 -1.06066 1.06066 
C -0.77937 1.341951 -0.397805 1.5 0 1.5 
z
" id="mf317f4e69c" style="stroke:#9467bd;"/>
    </defs>
    <g clip-path="url(#p1502ff5ee3)">
     <use style="fill:#9467bd;stroke:#9467bd;" x="346.000825" xlink:href="#mf317f4e69c" y="99.792"/>
    </g>
   </g>
   <g id="line2d_36">
    <defs>
     <path d="M 0 1.5 
C 0.397805 1.5 0.77937 1.341951 1.06066 1.06066 
C 1.341951 0.77937 1.5 0.397805 1.5 0 
C 1.5 -0.397805 1.341951 -0.77937 1.06066 -1.06066 
C 0.77937 -1.341951 0.397805 -1.5 0 -1.5 
C -0.397805 -1.5 -0.77937 -1.341951 -1.06066 -1.06066 
C -1.341951 -0.77937 -1.5 -0.397805 -1.5 0 
C -1.5 0.397805 -1.341951 0.77937 -1.06066 1.06066 
C -0.77937 1.341951 -0.397805 1.5 0 1.5 
z
" id="m8dff4d738d" style="stroke:#8c564b;"/>
    </defs>
    <g clip-path="url(#p1502ff5ee3)">
     <use style="fill:#8c564b;stroke:#8c564b;" x="178.945979" xlink:href="#m8dff4d738d" y="78.048"/>
    </g>
   </g>
   <g id="line2d_37">
    <defs>
     <path d="M 0 1.5 
C 0.397805 1.5 0.77937 1.341951 1.06066 1.06066 
C 1.341951 0.77937 1.5 0.397805 1.5 0 
C 1.5 -0.397805 1.341951 -0.77937 1.06066 -1.06066 
C 0.77937 -1.341951 0.397805 -1.5 0 -1.5 
C -0.397805 -1.5 -0.77937 -1.341951 -1.06066 -1.06066 
C -1.341951 -0.77937 -1.5 -0.397805 -1.5 0 
C -1.5 0.397805 -1.341951 0.77937 -1.06066 1.06066 
C -0.77937 1.341951 -0.397805 1.5 0 1.5 
z
" id="md03a77567e" style="stroke:#e377c2;"/>
    </defs>
    <g clip-path="url(#p1502ff5ee3)">
     <use style="fill:#e377c2;stroke:#e377c2;" x="221.054845" xlink:href="#md03a77567e" y="78.048"/>
    </g>
   </g>
   <g id="line2d_38">
    <defs>
     <path d="M 0 1.5 
C 0.397805 1.5 0.77937 1.341951 1.06066 1.06066 
C 1.341951 0.77937 1.5 0.397805 1.5 0 
C 1.5 -0.397805 1.341951 -0.77937 1.06066 -1.06066 
C 0.77937 -1.341951 0.397805 -1.5 0 -1.5 
C -0.397805 -1.5 -0.77937 -1.341951 -1.06066 -1.06066 
C -1.341951 -0.77937 -1.5 -0.397805 -1.5 0 
C -1.5 0.397805 -1.341951 0.77937 -1.06066 1.06066 
C -0.77937 1.341951 -0.397805 1.5 0 1.5 
z
" id="md7460bc141" style="stroke:#7f7f7f;"/>
    </defs>
    <g clip-path="url(#p1502ff5ee3)">
     <use style="fill:#7f7f7f;stroke:#7f7f7f;" x="261.783093" xlink:href="#md7460bc141" y="78.048"/>
    </g>
   </g>
   <g id="line2d_39">
    <defs>
     <path d="M 0 1.5 
C 0.397805 1.5 0.77937 1.341951 1.06066 1.06066 
C 1.341951 0.77937 1.5 0.397805 1.5 0 
C 1.5 -0.397805 1.341951 -0.77937 1.06066 -1.06066 
C 0.77937 -1.341951 0.397805 -1.5 0 -1.5 
C -0.397805 -1.5 -0.77937 -1.341951 -1.06066 -1.06066 
C -1.341951 -0.77937 -1.5 -0.397805 -1.5 0 
C -1.5 0.397805 -1.341951 0.77937 -1.06066 1.06066 
C -0.77937 1.341951 -0.397805 1.5 0 1.5 
z
" id="mb7f94b78e7" style="stroke:#bcbd22;"/>
    </defs>
    <g clip-path="url(#p1502ff5ee3)">
     <use style="fill:#bcbd22;stroke:#bcbd22;" x="388.8" xlink:href="#mb7f94b78e7" y="78.048"/>
    </g>
   </g>
   <g id="patch_3">
    <path d="M 54 252 
L 54 34.56 
" style="fill:none;stroke:#000000;stroke-linecap:square;stroke-linejoin:miter;stroke-width:0.8;"/>
   </g>
   <g id="patch_4">
    <path d="M 388.8 252 
L 388.8 34.56 
" style="fill:none;stroke:#000000;stroke-linecap:square;stroke-linejoin:miter;stroke-width:0.8;"/>
   </g>
   <g id="patch_5">
    <path d="M 54 252 
L 388.8 252 
" style="fill:none;stroke:#000000;stroke-linecap:square;stroke-linejoin:miter;stroke-width:0.8;"/>
   </g>
   <g id="patch_6">
    <path d="M 54 34.56 
L 388.8 34.56 
" style="fill:none;stroke:#000000;stroke-linecap:square;stroke-linejoin:miter;stroke-width:0.8;"/>
   </g>
   <g id="text_18">
    <!-- t_pzq: 2016-09-01 -->
    <defs>
     <path d="M 50.984375 -16.609375 
L 50.984375 -23.578125 
L -0.984375 -23.578125 
L -0.984375 -16.609375 
z
" id="DejaVuSans-5f"/>
     <path d="M 5.515625 54.6875 
L 48.1875 54.6875 
L 48.1875 46.484375 
L 14.40625 7.171875 
L 48.1875 7.171875 
L 48.1875 0 
L 4.296875 0 
L 4.296875 8.203125 
L 38.09375 47.515625 
L 5.515625 47.515625 
z
" id="DejaVuSans-7a"/>
     <path d="M 14.796875 27.296875 
Q 14.796875 17.390625 18.875 11.75 
Q 22.953125 6.109375 30.078125 6.109375 
Q 37.203125 6.109375 41.296875 11.75 
Q 45.40625 17.390625 45.40625 27.296875 
Q 45.40625 37.203125 41.296875 42.84375 
Q 37.203125 48.484375 30.078125 48.484375 
Q 22.953125 48.484375 18.875 42.84375 
Q 14.796875 37.203125 14.796875 27.296875 
M 45.40625 8.203125 
Q 42.578125 3.328125 38.25 0.953125 
Q 33.9375 -1.421875 27.875 -1.421875 
Q 17.96875 -1.421875 11.734375 6.484375 
Q 5.515625 14.40625 5.515625 27.296875 
Q 5.515625 40.1875 11.734375 48.09375 
Q 17.96875 56 27.875 56 
Q 33.9375 56 38.25 53.625 
Q 42.578125 51.265625 45.40625 46.390625 
L 45.40625 54.6875 
L 54.390625 54.6875 
L 54.390625 -20.796875 
L 45.40625 -20.796875 
z
" id="DejaVuSans-71"/>
     <path d="M 11.71875 12.40625 
L 22.015625 12.40625 
L 22.015625 0 
L 11.71875 0 
z
M 11.71875 51.703125 
L 22.015625 51.703125 
L 22.015625 39.3125 
L 11.71875 39.3125 
z
" id="DejaVuSans-3a"/>
     <path d="M 4.890625 31.390625 
L 31.203125 31.390625 
L 31.203125 23.390625 
L 4.890625 23.390625 
z
" id="DejaVuSans-2d"/>
     <path d="M 10.984375 1.515625 
L 10.984375 10.5 
Q 14.703125 8.734375 18.5 7.8125 
Q 22.3125 6.890625 25.984375 6.890625 
Q 35.75 6.890625 40.890625 13.453125 
Q 46.046875 20.015625 46.78125 33.40625 
Q 43.953125 29.203125 39.59375 26.953125 
Q 35.25 24.703125 29.984375 24.703125 
Q 19.046875 24.703125 12.671875 31.3125 
Q 6.296875 37.9375 6.296875 49.421875 
Q 6.296875 60.640625 12.9375 67.421875 
Q 19.578125 74.21875 30.609375 74.21875 
Q 43.265625 74.21875 49.921875 64.515625 
Q 56.59375 54.828125 56.59375 36.375 
Q 56.59375 19.140625 48.40625 8.859375 
Q 40.234375 -1.421875 26.421875 -1.421875 
Q 22.703125 -1.421875 18.890625 -0.6875 
Q 15.09375 0.046875 10.984375 1.515625 
M 30.609375 32.421875 
Q 37.25 32.421875 41.125 36.953125 
Q 45.015625 41.5 45.015625 49.421875 
Q 45.015625 57.28125 41.125 61.84375 
Q 37.25 66.40625 30.609375 66.40625 
Q 23.96875 66.40625 20.09375 61.84375 
Q 16.21875 57.28125 16.21875 49.421875 
Q 16.21875 41.5 20.09375 36.953125 
Q 23.96875 32.421875 30.609375 32.421875 
" id="DejaVuSans-39"/>
    </defs>
    <g transform="translate(142.085172 205.826341)rotate(-45)scale(0.1 -0.1)">
     <use xlink:href="#DejaVuSans-74"/>
     <use x="39.208984" xlink:href="#DejaVuSans-5f"/>
     <use x="89.208984" xlink:href="#DejaVuSans-70"/>
     <use x="152.685547" xlink:href="#DejaVuSans-7a"/>
     <use x="205.175781" xlink:href="#DejaVuSans-71"/>
     <use x="268.652344" xlink:href="#DejaVuSans-3a"/>
     <use x="302.34375" xlink:href="#DejaVuSans-20"/>
     <use x="334.130859" xlink:href="#DejaVuSans-32"/>
     <use x="397.753906" xlink:href="#DejaVuSans-30"/>
     <use x="461.376953" xlink:href="#DejaVuSans-31"/>
     <use x="525" xlink:href="#DejaVuSans-36"/>
     <use x="588.623047" xlink:href="#DejaVuSans-2d"/>
     <use x="624.707031" xlink:href="#DejaVuSans-30"/>
     <use x="688.330078" xlink:href="#DejaVuSans-39"/>
     <use x="751.953125" xlink:href="#DejaVuSans-2d"/>
     <use x="788.037109" xlink:href="#DejaVuSans-30"/>
     <use x="851.660156" xlink:href="#DejaVuSans-31"/>
    </g>
   </g>
   <g id="text_19">
    <!-- t_net: 2017-07-01 -->
    <defs>
     <path d="M 8.203125 72.90625 
L 55.078125 72.90625 
L 55.078125 68.703125 
L 28.609375 0 
L 18.3125 0 
L 43.21875 64.59375 
L 8.203125 64.59375 
z
" id="DejaVuSans-37"/>
    </defs>
    <g transform="translate(351.248883 182.997374)rotate(-45)scale(0.1 -0.1)">
     <use xlink:href="#DejaVuSans-74"/>
     <use x="39.208984" xlink:href="#DejaVuSans-5f"/>
     <use x="89.208984" xlink:href="#DejaVuSans-6e"/>
     <use x="152.587891" xlink:href="#DejaVuSans-65"/>
     <use x="214.111328" xlink:href="#DejaVuSans-74"/>
     <use x="253.320312" xlink:href="#DejaVuSans-3a"/>
     <use x="287.011719" xlink:href="#DejaVuSans-20"/>
     <use x="318.798828" xlink:href="#DejaVuSans-32"/>
     <use x="382.421875" xlink:href="#DejaVuSans-30"/>
     <use x="446.044922" xlink:href="#DejaVuSans-31"/>
     <use x="509.667969" xlink:href="#DejaVuSans-37"/>
     <use x="573.291016" xlink:href="#DejaVuSans-2d"/>
     <use x="609.375" xlink:href="#DejaVuSans-30"/>
     <use x="672.998047" xlink:href="#DejaVuSans-37"/>
     <use x="736.621094" xlink:href="#DejaVuSans-2d"/>
     <use x="772.705078" xlink:href="#DejaVuSans-30"/>
     <use x="836.328125" xlink:href="#DejaVuSans-31"/>
    </g>
   </g>
   <g id="text_20">
    <!-- t_spray: 2017-07-01 -->
    <defs>
     <path d="M 32.171875 -5.078125 
Q 28.375 -14.84375 24.75 -17.8125 
Q 21.140625 -20.796875 15.09375 -20.796875 
L 7.90625 -20.796875 
L 7.90625 -13.28125 
L 13.1875 -13.28125 
Q 16.890625 -13.28125 18.9375 -11.515625 
Q 21 -9.765625 23.484375 -3.21875 
L 25.09375 0.875 
L 2.984375 54.6875 
L 12.5 54.6875 
L 29.59375 11.921875 
L 46.6875 54.6875 
L 56.203125 54.6875 
z
" id="DejaVuSans-79"/>
    </defs>
    <g transform="translate(351.248883 169.239261)rotate(-45)scale(0.1 -0.1)">
     <use xlink:href="#DejaVuSans-74"/>
     <use x="39.208984" xlink:href="#DejaVuSans-5f"/>
     <use x="89.208984" xlink:href="#DejaVuSans-73"/>
     <use x="141.308594" xlink:href="#DejaVuSans-70"/>
     <use x="204.785156" xlink:href="#DejaVuSans-72"/>
     <use x="245.898438" xlink:href="#DejaVuSans-61"/>
     <use x="307.177734" xlink:href="#DejaVuSans-79"/>
     <use x="366.248047" xlink:href="#DejaVuSans-3a"/>
     <use x="399.939453" xlink:href="#DejaVuSans-20"/>
     <use x="431.726562" xlink:href="#DejaVuSans-32"/>
     <use x="495.349609" xlink:href="#DejaVuSans-30"/>
     <use x="558.972656" xlink:href="#DejaVuSans-31"/>
     <use x="622.595703" xlink:href="#DejaVuSans-37"/>
     <use x="686.21875" xlink:href="#DejaVuSans-2d"/>
     <use x="722.302734" xlink:href="#DejaVuSans-30"/>
     <use x="785.925781" xlink:href="#DejaVuSans-37"/>
     <use x="849.548828" xlink:href="#DejaVuSans-2d"/>
     <use x="885.632812" xlink:href="#DejaVuSans-30"/>
     <use x="949.255859" xlink:href="#DejaVuSans-31"/>
    </g>
   </g>
   <g id="text_21">
    <!-- t_seas_start: 2016-11-01 -->
    <g transform="translate(184.194038 163.959801)rotate(-45)scale(0.1 -0.1)">
     <use xlink:href="#DejaVuSans-74"/>
     <use x="39.208984" xlink:href="#DejaVuSans-5f"/>
     <use x="89.208984" xlink:href="#DejaVuSans-73"/>
     <use x="141.308594" xlink:href="#DejaVuSans-65"/>
     <use x="202.832031" xlink:href="#DejaVuSans-61"/>
     <use x="264.111328" xlink:href="#DejaVuSans-73"/>
     <use x="316.210938" xlink:href="#DejaVuSans-5f"/>
     <use x="366.210938" xlink:href="#DejaVuSans-73"/>
     <use x="418.310547" xlink:href="#DejaVuSans-74"/>
     <use x="457.519531" xlink:href="#DejaVuSans-61"/>
     <use x="518.798828" xlink:href="#DejaVuSans-72"/>
     <use x="559.912109" xlink:href="#DejaVuSans-74"/>
     <use x="599.121094" xlink:href="#DejaVuSans-3a"/>
     <use x="632.8125" xlink:href="#DejaVuSans-20"/>
     <use x="664.599609" xlink:href="#DejaVuSans-32"/>
     <use x="728.222656" xlink:href="#DejaVuSans-30"/>
     <use x="791.845703" xlink:href="#DejaVuSans-31"/>
     <use x="855.46875" xlink:href="#DejaVuSans-36"/>
     <use x="919.091797" xlink:href="#DejaVuSans-2d"/>
     <use x="955.175781" xlink:href="#DejaVuSans-31"/>
     <use x="1018.798828" xlink:href="#DejaVuSans-31"/>
     <use x="1082.421875" xlink:href="#DejaVuSans-2d"/>
     <use x="1118.505859" xlink:href="#DejaVuSans-30"/>
     <use x="1182.128906" xlink:href="#DejaVuSans-31"/>
    </g>
   </g>
   <g id="text_22">
    <!-- t_seas_end: 2017-01-01 -->
    <defs>
     <path d="M 45.40625 46.390625 
L 45.40625 75.984375 
L 54.390625 75.984375 
L 54.390625 0 
L 45.40625 0 
L 45.40625 8.203125 
Q 42.578125 3.328125 38.25 0.953125 
Q 33.9375 -1.421875 27.875 -1.421875 
Q 17.96875 -1.421875 11.734375 6.484375 
Q 5.515625 14.40625 5.515625 27.296875 
Q 5.515625 40.1875 11.734375 48.09375 
Q 17.96875 56 27.875 56 
Q 33.9375 56 38.25 53.625 
Q 42.578125 51.265625 45.40625 46.390625 
M 14.796875 27.296875 
Q 14.796875 17.390625 18.875 11.75 
Q 22.953125 6.109375 30.078125 6.109375 
Q 37.203125 6.109375 41.296875 11.75 
Q 45.40625 17.390625 45.40625 27.296875 
Q 45.40625 37.203125 41.296875 42.84375 
Q 37.203125 48.484375 30.078125 48.484375 
Q 22.953125 48.484375 18.875 42.84375 
Q 14.796875 37.203125 14.796875 27.296875 
" id="DejaVuSans-64"/>
    </defs>
    <g transform="translate(216.073113 160.761462)rotate(-45)scale(0.1 -0.1)">
     <use xlink:href="#DejaVuSans-74"/>
     <use x="39.208984" xlink:href="#DejaVuSans-5f"/>
     <use x="89.208984" xlink:href="#DejaVuSans-73"/>
     <use x="141.308594" xlink:href="#DejaVuSans-65"/>
     <use x="202.832031" xlink:href="#DejaVuSans-61"/>
     <use x="264.111328" xlink:href="#DejaVuSans-73"/>
     <use x="316.210938" xlink:href="#DejaVuSans-5f"/>
     <use x="366.210938" xlink:href="#DejaVuSans-65"/>
     <use x="427.734375" xlink:href="#DejaVuSans-6e"/>
     <use x="491.113281" xlink:href="#DejaVuSans-64"/>
     <use x="554.589844" xlink:href="#DejaVuSans-3a"/>
     <use x="588.28125" xlink:href="#DejaVuSans-20"/>
     <use x="620.068359" xlink:href="#DejaVuSans-32"/>
     <use x="683.691406" xlink:href="#DejaVuSans-30"/>
     <use x="747.314453" xlink:href="#DejaVuSans-31"/>
     <use x="810.9375" xlink:href="#DejaVuSans-37"/>
     <use x="874.560547" xlink:href="#DejaVuSans-2d"/>
     <use x="910.644531" xlink:href="#DejaVuSans-30"/>
     <use x="974.267578" xlink:href="#DejaVuSans-31"/>
     <use x="1037.890625" xlink:href="#DejaVuSans-2d"/>
     <use x="1073.974609" xlink:href="#DejaVuSans-30"/>
     <use x="1137.597656" xlink:href="#DejaVuSans-31"/>
    </g>
   </g>
   <g id="text_23">
    <!-- t_seas_start: 2017-03-01 -->
    <defs>
     <path d="M 40.578125 39.3125 
Q 47.65625 37.796875 51.625 33 
Q 55.609375 28.21875 55.609375 21.1875 
Q 55.609375 10.40625 48.1875 4.484375 
Q 40.765625 -1.421875 27.09375 -1.421875 
Q 22.515625 -1.421875 17.65625 -0.515625 
Q 12.796875 0.390625 7.625 2.203125 
L 7.625 11.71875 
Q 11.71875 9.328125 16.59375 8.109375 
Q 21.484375 6.890625 26.8125 6.890625 
Q 36.078125 6.890625 40.9375 10.546875 
Q 45.796875 14.203125 45.796875 21.1875 
Q 45.796875 27.640625 41.28125 31.265625 
Q 36.765625 34.90625 28.71875 34.90625 
L 20.21875 34.90625 
L 20.21875 43.015625 
L 29.109375 43.015625 
Q 36.375 43.015625 40.234375 45.921875 
Q 44.09375 48.828125 44.09375 54.296875 
Q 44.09375 59.90625 40.109375 62.90625 
Q 36.140625 65.921875 28.71875 65.921875 
Q 24.65625 65.921875 20.015625 65.03125 
Q 15.375 64.15625 9.8125 62.3125 
L 9.8125 71.09375 
Q 15.4375 72.65625 20.34375 73.4375 
Q 25.25 74.21875 29.59375 74.21875 
Q 40.828125 74.21875 47.359375 69.109375 
Q 53.90625 64.015625 53.90625 55.328125 
Q 53.90625 49.265625 50.4375 45.09375 
Q 46.96875 40.921875 40.578125 39.3125 
" id="DejaVuSans-33"/>
    </defs>
    <g transform="translate(267.031151 163.959801)rotate(-45)scale(0.1 -0.1)">
     <use xlink:href="#DejaVuSans-74"/>
     <use x="39.208984" xlink:href="#DejaVuSans-5f"/>
     <use x="89.208984" xlink:href="#DejaVuSans-73"/>
     <use x="141.308594" xlink:href="#DejaVuSans-65"/>
     <use x="202.832031" xlink:href="#DejaVuSans-61"/>
     <use x="264.111328" xlink:href="#DejaVuSans-73"/>
     <use x="316.210938" xlink:href="#DejaVuSans-5f"/>
     <use x="366.210938" xlink:href="#DejaVuSans-73"/>
     <use x="418.310547" xlink:href="#DejaVuSans-74"/>
     <use x="457.519531" xlink:href="#DejaVuSans-61"/>
     <use x="518.798828" xlink:href="#DejaVuSans-72"/>
     <use x="559.912109" xlink:href="#DejaVuSans-74"/>
     <use x="599.121094" xlink:href="#DejaVuSans-3a"/>
     <use x="632.8125" xlink:href="#DejaVuSans-20"/>
     <use x="664.599609" xlink:href="#DejaVuSans-32"/>
     <use x="728.222656" xlink:href="#DejaVuSans-30"/>
     <use x="791.845703" xlink:href="#DejaVuSans-31"/>
     <use x="855.46875" xlink:href="#DejaVuSans-37"/>
     <use x="919.091797" xlink:href="#DejaVuSans-2d"/>
     <use x="955.175781" xlink:href="#DejaVuSans-30"/>
     <use x="1018.798828" xlink:href="#DejaVuSans-33"/>
     <use x="1082.421875" xlink:href="#DejaVuSans-2d"/>
     <use x="1118.505859" xlink:href="#DejaVuSans-30"/>
     <use x="1182.128906" xlink:href="#DejaVuSans-31"/>
    </g>
   </g>
   <g id="text_24">
    <!-- t_seas_end: 2017-09-01 -->
    <g transform="translate(383.818268 160.761462)rotate(-45)scale(0.1 -0.1)">
     <use xlink:href="#DejaVuSans-74"/>
     <use x="39.208984" xlink:href="#DejaVuSans-5f"/>
     <use x="89.208984" xlink:href="#DejaVuSans-73"/>
     <use x="141.308594" xlink:href="#DejaVuSans-65"/>
     <use x="202.832031" xlink:href="#DejaVuSans-61"/>
     <use x="264.111328" xlink:href="#DejaVuSans-73"/>
     <use x="316.210938" xlink:href="#DejaVuSans-5f"/>
     <use x="366.210938" xlink:href="#DejaVuSans-65"/>
     <use x="427.734375" xlink:href="#DejaVuSans-6e"/>
     <use x="491.113281" xlink:href="#DejaVuSans-64"/>
     <use x="554.589844" xlink:href="#DejaVuSans-3a"/>
     <use x="588.28125" xlink:href="#DejaVuSans-20"/>
     <use x="620.068359" xlink:href="#DejaVuSans-32"/>
     <use x="683.691406" xlink:href="#DejaVuSans-30"/>
     <use x="747.314453" xlink:href="#DejaVuSans-31"/>
     <use x="810.9375" xlink:href="#DejaVuSans-37"/>
     <use x="874.560547" xlink:href="#DejaVuSans-2d"/>
     <use x="910.644531" xlink:href="#DejaVuSans-30"/>
     <use x="974.267578" xlink:href="#DejaVuSans-39"/>
     <use x="1037.890625" xlink:href="#DejaVuSans-2d"/>
     <use x="1073.974609" xlink:href="#DejaVuSans-30"/>
     <use x="1137.597656" xlink:href="#DejaVuSans-31"/>
    </g>
   </g>
   <g id="text_25">
    <!-- Disease Prevalence vs. Time (months) for All, without Integration -->
    <defs>
     <path d="M 19.671875 64.796875 
L 19.671875 8.109375 
L 31.59375 8.109375 
Q 46.6875 8.109375 53.6875 14.9375 
Q 60.6875 21.78125 60.6875 36.53125 
Q 60.6875 51.171875 53.6875 57.984375 
Q 46.6875 64.796875 31.59375 64.796875 
z
M 9.8125 72.90625 
L 30.078125 72.90625 
Q 51.265625 72.90625 61.171875 64.09375 
Q 71.09375 55.28125 71.09375 36.53125 
Q 71.09375 17.671875 61.125 8.828125 
Q 51.171875 0 30.078125 0 
L 9.8125 0 
z
" id="DejaVuSans-44"/>
     <path d="M 34.1875 63.1875 
L 20.796875 26.90625 
L 47.609375 26.90625 
z
M 28.609375 72.90625 
L 39.796875 72.90625 
L 67.578125 0 
L 57.328125 0 
L 50.6875 18.703125 
L 17.828125 18.703125 
L 11.1875 0 
L 0.78125 0 
z
" id="DejaVuSans-41"/>
     <path d="M 11.71875 12.40625 
L 22.015625 12.40625 
L 22.015625 4 
L 14.015625 -11.625 
L 7.71875 -11.625 
L 11.71875 4 
z
" id="DejaVuSans-2c"/>
     <path d="M 4.203125 54.6875 
L 13.1875 54.6875 
L 24.421875 12.015625 
L 35.59375 54.6875 
L 46.1875 54.6875 
L 57.421875 12.015625 
L 68.609375 54.6875 
L 77.59375 54.6875 
L 63.28125 0 
L 52.6875 0 
L 40.921875 44.828125 
L 29.109375 0 
L 18.5 0 
z
" id="DejaVuSans-77"/>
     <path d="M 9.8125 72.90625 
L 19.671875 72.90625 
L 19.671875 0 
L 9.8125 0 
z
" id="DejaVuSans-49"/>
     <path d="M 45.40625 27.984375 
Q 45.40625 37.75 41.375 43.109375 
Q 37.359375 48.484375 30.078125 48.484375 
Q 22.859375 48.484375 18.828125 43.109375 
Q 14.796875 37.75 14.796875 27.984375 
Q 14.796875 18.265625 18.828125 12.890625 
Q 22.859375 7.515625 30.078125 7.515625 
Q 37.359375 7.515625 41.375 12.890625 
Q 45.40625 18.265625 45.40625 27.984375 
M 54.390625 6.78125 
Q 54.390625 -7.171875 48.1875 -13.984375 
Q 42 -20.796875 29.203125 -20.796875 
Q 24.46875 -20.796875 20.265625 -20.09375 
Q 16.0625 -19.390625 12.109375 -17.921875 
L 12.109375 -9.1875 
Q 16.0625 -11.328125 19.921875 -12.34375 
Q 23.78125 -13.375 27.78125 -13.375 
Q 36.625 -13.375 41.015625 -8.765625 
Q 45.40625 -4.15625 45.40625 5.171875 
L 45.40625 9.625 
Q 42.625 4.78125 38.28125 2.390625 
Q 33.9375 0 27.875 0 
Q 17.828125 0 11.671875 7.65625 
Q 5.515625 15.328125 5.515625 27.984375 
Q 5.515625 40.671875 11.671875 48.328125 
Q 17.828125 56 27.875 56 
Q 33.9375 56 38.28125 53.609375 
Q 42.625 51.21875 45.40625 46.390625 
L 45.40625 54.6875 
L 54.390625 54.6875 
z
" id="DejaVuSans-67"/>
    </defs>
    <g transform="translate(25.452188 28.56)scale(0.12 -0.12)">
     <use xlink:href="#DejaVuSans-44"/>
     <use x="77.001953" xlink:href="#DejaVuSans-69"/>
     <use x="104.785156" xlink:href="#DejaVuSans-73"/>
     <use x="156.884766" xlink:href="#DejaVuSans-65"/>
     <use x="218.408203" xlink:href="#DejaVuSans-61"/>
     <use x="279.6875" xlink:href="#DejaVuSans-73"/>
     <use x="331.787109" xlink:href="#DejaVuSans-65"/>
     <use x="393.310547" xlink:href="#DejaVuSans-20"/>
     <use x="425.097656" xlink:href="#DejaVuSans-50"/>
     <use x="485.384766" xlink:href="#DejaVuSans-72"/>
     <use x="526.466797" xlink:href="#DejaVuSans-65"/>
     <use x="587.990234" xlink:href="#DejaVuSans-76"/>
     <use x="647.169922" xlink:href="#DejaVuSans-61"/>
     <use x="708.449219" xlink:href="#DejaVuSans-6c"/>
     <use x="736.232422" xlink:href="#DejaVuSans-65"/>
     <use x="797.755859" xlink:href="#DejaVuSans-6e"/>
     <use x="861.134766" xlink:href="#DejaVuSans-63"/>
     <use x="916.115234" xlink:href="#DejaVuSans-65"/>
     <use x="977.638672" xlink:href="#DejaVuSans-20"/>
     <use x="1009.425781" xlink:href="#DejaVuSans-76"/>
     <use x="1068.605469" xlink:href="#DejaVuSans-73"/>
     <use x="1120.705078" xlink:href="#DejaVuSans-2e"/>
     <use x="1152.492188" xlink:href="#DejaVuSans-20"/>
     <use x="1184.279297" xlink:href="#DejaVuSans-54"/>
     <use x="1245.316406" xlink:href="#DejaVuSans-69"/>
     <use x="1273.099609" xlink:href="#DejaVuSans-6d"/>
     <use x="1370.511719" xlink:href="#DejaVuSans-65"/>
     <use x="1432.035156" xlink:href="#DejaVuSans-20"/>
     <use x="1463.822266" xlink:href="#DejaVuSans-28"/>
     <use x="1502.835938" xlink:href="#DejaVuSans-6d"/>
     <use x="1600.248047" xlink:href="#DejaVuSans-6f"/>
     <use x="1661.429688" xlink:href="#DejaVuSans-6e"/>
     <use x="1724.808594" xlink:href="#DejaVuSans-74"/>
     <use x="1764.017578" xlink:href="#DejaVuSans-68"/>
     <use x="1827.396484" xlink:href="#DejaVuSans-73"/>
     <use x="1879.496094" xlink:href="#DejaVuSans-29"/>
     <use x="1918.509766" xlink:href="#DejaVuSans-20"/>
     <use x="1950.296875" xlink:href="#DejaVuSans-66"/>
     <use x="1985.501953" xlink:href="#DejaVuSans-6f"/>
     <use x="2046.683594" xlink:href="#DejaVuSans-72"/>
     <use x="2087.796875" xlink:href="#DejaVuSans-20"/>
     <use x="2119.583984" xlink:href="#DejaVuSans-41"/>
     <use x="2187.992188" xlink:href="#DejaVuSans-6c"/>
     <use x="2215.775391" xlink:href="#DejaVuSans-6c"/>
     <use x="2243.558594" xlink:href="#DejaVuSans-2c"/>
     <use x="2275.345703" xlink:href="#DejaVuSans-20"/>
     <use x="2307.132812" xlink:href="#DejaVuSans-77"/>
     <use x="2388.919922" xlink:href="#DejaVuSans-69"/>
     <use x="2416.703125" xlink:href="#DejaVuSans-74"/>
     <use x="2455.912109" xlink:href="#DejaVuSans-68"/>
     <use x="2519.291016" xlink:href="#DejaVuSans-6f"/>
     <use x="2580.472656" xlink:href="#DejaVuSans-75"/>
     <use x="2643.851562" xlink:href="#DejaVuSans-74"/>
     <use x="2683.060547" xlink:href="#DejaVuSans-20"/>
     <use x="2714.847656" xlink:href="#DejaVuSans-49"/>
     <use x="2744.339844" xlink:href="#DejaVuSans-6e"/>
     <use x="2807.71875" xlink:href="#DejaVuSans-74"/>
     <use x="2846.927734" xlink:href="#DejaVuSans-65"/>
     <use x="2908.451172" xlink:href="#DejaVuSans-67"/>
     <use x="2971.927734" xlink:href="#DejaVuSans-72"/>
     <use x="3013.041016" xlink:href="#DejaVuSans-61"/>
     <use x="3074.320312" xlink:href="#DejaVuSans-74"/>
     <use x="3113.529297" xlink:href="#DejaVuSans-69"/>
     <use x="3141.3125" xlink:href="#DejaVuSans-6f"/>
     <use x="3202.494141" xlink:href="#DejaVuSans-6e"/>
    </g>
   </g>
   <g id="legend_1">
    <g id="patch_7">
     <path d="M 270.417188 71.91625 
L 381.8 71.91625 
Q 383.8 71.91625 383.8 69.91625 
L 383.8 41.56 
Q 383.8 39.56 381.8 39.56 
L 270.417188 39.56 
Q 268.417188 39.56 268.417188 41.56 
L 268.417188 69.91625 
Q 268.417188 71.91625 270.417188 71.91625 
z
" style="fill:#ffffff;opacity:0.8;stroke:#cccccc;stroke-linejoin:miter;"/>
    </g>
    <g id="line2d_40">
     <path d="M 272.417188 47.658437 
L 292.417188 47.658437 
" style="fill:none;stroke:#1f77b4;stroke-linecap:square;stroke-width:1.5;"/>
    </g>
    <g id="line2d_41"/>
    <g id="text_26">
     <!-- Schistosomiasis -->
     <defs>
      <path d="M 53.515625 70.515625 
L 53.515625 60.890625 
Q 47.90625 63.578125 42.921875 64.890625 
Q 37.9375 66.21875 33.296875 66.21875 
Q 25.25 66.21875 20.875 63.09375 
Q 16.5 59.96875 16.5 54.203125 
Q 16.5 49.359375 19.40625 46.890625 
Q 22.3125 44.4375 30.421875 42.921875 
L 36.375 41.703125 
Q 47.40625 39.59375 52.65625 34.296875 
Q 57.90625 29 57.90625 20.125 
Q 57.90625 9.515625 50.796875 4.046875 
Q 43.703125 -1.421875 29.984375 -1.421875 
Q 24.8125 -1.421875 18.96875 -0.25 
Q 13.140625 0.921875 6.890625 3.21875 
L 6.890625 13.375 
Q 12.890625 10.015625 18.65625 8.296875 
Q 24.421875 6.59375 29.984375 6.59375 
Q 38.421875 6.59375 43.015625 9.90625 
Q 47.609375 13.234375 47.609375 19.390625 
Q 47.609375 24.75 44.3125 27.78125 
Q 41.015625 30.8125 33.5 32.328125 
L 27.484375 33.5 
Q 16.453125 35.6875 11.515625 40.375 
Q 6.59375 45.0625 6.59375 53.421875 
Q 6.59375 63.09375 13.40625 68.65625 
Q 20.21875 74.21875 32.171875 74.21875 
Q 37.3125 74.21875 42.625 73.28125 
Q 47.953125 72.359375 53.515625 70.515625 
" id="DejaVuSans-53"/>
     </defs>
     <g transform="translate(300.417188 51.158437)scale(0.1 -0.1)">
      <use xlink:href="#DejaVuSans-53"/>
      <use x="63.476562" xlink:href="#DejaVuSans-63"/>
      <use x="118.457031" xlink:href="#DejaVuSans-68"/>
      <use x="181.835938" xlink:href="#DejaVuSans-69"/>
      <use x="209.619141" xlink:href="#DejaVuSans-73"/>
      <use x="261.71875" xlink:href="#DejaVuSans-74"/>
      <use x="300.927734" xlink:href="#DejaVuSans-6f"/>
      <use x="362.109375" xlink:href="#DejaVuSans-73"/>
      <use x="414.208984" xlink:href="#DejaVuSans-6f"/>
      <use x="475.390625" xlink:href="#DejaVuSans-6d"/>
      <use x="572.802734" xlink:href="#DejaVuSans-69"/>
      <use x="600.585938" xlink:href="#DejaVuSans-61"/>
      <use x="661.865234" xlink:href="#DejaVuSans-73"/>
      <use x="713.964844" xlink:href="#DejaVuSans-69"/>
      <use x="741.748047" xlink:href="#DejaVuSans-73"/>
     </g>
    </g>
    <g id="line2d_42">
     <path d="M 272.417188 62.336562 
L 292.417188 62.336562 
" style="fill:none;stroke:#ff7f0e;stroke-linecap:square;stroke-width:1.5;"/>
    </g>
    <g id="line2d_43"/>
    <g id="text_27">
     <!-- Malaria -->
     <defs>
      <path d="M 9.8125 72.90625 
L 24.515625 72.90625 
L 43.109375 23.296875 
L 61.8125 72.90625 
L 76.515625 72.90625 
L 76.515625 0 
L 66.890625 0 
L 66.890625 64.015625 
L 48.09375 14.015625 
L 38.1875 14.015625 
L 19.390625 64.015625 
L 19.390625 0 
L 9.8125 0 
z
" id="DejaVuSans-4d"/>
     </defs>
     <g transform="translate(300.417188 65.836562)scale(0.1 -0.1)">
      <use xlink:href="#DejaVuSans-4d"/>
      <use x="86.279297" xlink:href="#DejaVuSans-61"/>
      <use x="147.558594" xlink:href="#DejaVuSans-6c"/>
      <use x="175.341797" xlink:href="#DejaVuSans-61"/>
      <use x="236.621094" xlink:href="#DejaVuSans-72"/>
      <use x="277.734375" xlink:href="#DejaVuSans-69"/>
      <use x="305.517578" xlink:href="#DejaVuSans-61"/>
     </g>
    </g>
   </g>
  </g>
 </g>
 <defs>
  <clipPath id="p1502ff5ee3">
   <rect height="217.44" width="334.8" x="54" y="34.56"/>
  </clipPath>
 </defs>
</svg>
