<?xml version="1.0" encoding="utf-8" standalone="no"?>
<!DOCTYPE svg PUBLIC "-//W3C//DTD SVG 1.1//EN"
  "http://www.w3.org/Graphics/SVG/1.1/DTD/svg11.dtd">
<!-- Created with matplotlib (http://matplotlib.org/) -->
<svg height="288pt" version="1.1" viewBox="0 0 432 288" width="432pt" xmlns="http://www.w3.org/2000/svg" xmlns:xlink="http://www.w3.org/1999/xlink">
 <defs>
  <style type="text/css">
*{stroke-linecap:butt;stroke-linejoin:round;}
  </style>
 </defs>
 <g id="figure_1">
  <g id="patch_1">
   <path d="M 0 288 
L 432 288 
L 432 0 
L 0 0 
z
" style="fill:#ffffff;"/>
  </g>
  <g id="axes_1">
   <g id="patch_2">
    <path d="M 54 252 
L 388.8 252 
L 388.8 34.56 
L 54 34.56 
z
" style="fill:#ffffff;"/>
   </g>
   <g id="matplotlib.axis_1">
    <g id="xtick_1">
     <g id="line2d_1">
      <path clip-path="url(#p3bd92bc417)" d="M 54 252 
L 54 34.56 
" style="fill:none;stroke:#b0b0b0;stroke-linecap:square;stroke-width:0.8;"/>
     </g>
     <g id="line2d_2">
      <defs>
       <path d="M 0 0 
L 0 3.5 
" id="m2c04e662e7" style="stroke:#000000;stroke-width:0.8;"/>
      </defs>
      <g>
       <use style="stroke:#000000;stroke-width:0.8;" x="54" xlink:href="#m2c04e662e7" y="252"/>
      </g>
     </g>
     <g id="text_1">
      <!-- −4 -->
      <defs>
       <path d="M 10.59375 35.5 
L 73.1875 35.5 
L 73.1875 27.203125 
L 10.59375 27.203125 
z
" id="DejaVuSans-2212"/>
       <path d="M 37.796875 64.3125 
L 12.890625 25.390625 
L 37.796875 25.390625 
z
M 35.203125 72.90625 
L 47.609375 72.90625 
L 47.609375 25.390625 
L 58.015625 25.390625 
L 58.015625 17.1875 
L 47.609375 17.1875 
L 47.609375 0 
L 37.796875 0 
L 37.796875 17.1875 
L 4.890625 17.1875 
L 4.890625 26.703125 
z
" id="DejaVuSans-34"/>
      </defs>
      <g transform="translate(46.628906 266.598437)scale(0.1 -0.1)">
       <use xlink:href="#DejaVuSans-2212"/>
       <use x="83.789062" xlink:href="#DejaVuSans-34"/>
      </g>
     </g>
    </g>
    <g id="xtick_2">
     <g id="line2d_3">
      <path clip-path="url(#p3bd92bc417)" d="M 95.418557 252 
L 95.418557 34.56 
" style="fill:none;stroke:#b0b0b0;stroke-linecap:square;stroke-width:0.8;"/>
     </g>
     <g id="line2d_4">
      <g>
       <use style="stroke:#000000;stroke-width:0.8;" x="95.418557" xlink:href="#m2c04e662e7" y="252"/>
      </g>
     </g>
     <g id="text_2">
      <!-- −2 -->
      <defs>
       <path d="M 19.1875 8.296875 
L 53.609375 8.296875 
L 53.609375 0 
L 7.328125 0 
L 7.328125 8.296875 
Q 12.9375 14.109375 22.625 23.890625 
Q 32.328125 33.6875 34.8125 36.53125 
Q 39.546875 41.84375 41.421875 45.53125 
Q 43.3125 49.21875 43.3125 52.78125 
Q 43.3125 58.59375 39.234375 62.25 
Q 35.15625 65.921875 28.609375 65.921875 
Q 23.96875 65.921875 18.8125 64.3125 
Q 13.671875 62.703125 7.8125 59.421875 
L 7.8125 69.390625 
Q 13.765625 71.78125 18.9375 73 
Q 24.125 74.21875 28.421875 74.21875 
Q 39.75 74.21875 46.484375 68.546875 
Q 53.21875 62.890625 53.21875 53.421875 
Q 53.21875 48.921875 51.53125 44.890625 
Q 49.859375 40.875 45.40625 35.40625 
Q 44.1875 33.984375 37.640625 27.21875 
Q 31.109375 20.453125 19.1875 8.296875 
" id="DejaVuSans-32"/>
      </defs>
      <g transform="translate(88.047463 266.598437)scale(0.1 -0.1)">
       <use xlink:href="#DejaVuSans-2212"/>
       <use x="83.789062" xlink:href="#DejaVuSans-32"/>
      </g>
     </g>
    </g>
    <g id="xtick_3">
     <g id="line2d_5">
      <path clip-path="url(#p3bd92bc417)" d="M 136.837113 252 
L 136.837113 34.56 
" style="fill:none;stroke:#b0b0b0;stroke-linecap:square;stroke-width:0.8;"/>
     </g>
     <g id="line2d_6">
      <g>
       <use style="stroke:#000000;stroke-width:0.8;" x="136.837113" xlink:href="#m2c04e662e7" y="252"/>
      </g>
     </g>
     <g id="text_3">
      <!-- 0 -->
      <defs>
       <path d="M 31.78125 66.40625 
Q 24.171875 66.40625 20.328125 58.90625 
Q 16.5 51.421875 16.5 36.375 
Q 16.5 21.390625 20.328125 13.890625 
Q 24.171875 6.390625 31.78125 6.390625 
Q 39.453125 6.390625 43.28125 13.890625 
Q 47.125 21.390625 47.125 36.375 
Q 47.125 51.421875 43.28125 58.90625 
Q 39.453125 66.40625 31.78125 66.40625 
M 31.78125 74.21875 
Q 44.046875 74.21875 50.515625 64.515625 
Q 56.984375 54.828125 56.984375 36.375 
Q 56.984375 17.96875 50.515625 8.265625 
Q 44.046875 -1.421875 31.78125 -1.421875 
Q 19.53125 -1.421875 13.0625 8.265625 
Q 6.59375 17.96875 6.59375 36.375 
Q 6.59375 54.828125 13.0625 64.515625 
Q 19.53125 74.21875 31.78125 74.21875 
" id="DejaVuSans-30"/>
      </defs>
      <g transform="translate(133.655863 266.598437)scale(0.1 -0.1)">
       <use xlink:href="#DejaVuSans-30"/>
      </g>
     </g>
    </g>
    <g id="xtick_4">
     <g id="line2d_7">
      <path clip-path="url(#p3bd92bc417)" d="M 178.25567 252 
L 178.25567 34.56 
" style="fill:none;stroke:#b0b0b0;stroke-linecap:square;stroke-width:0.8;"/>
     </g>
     <g id="line2d_8">
      <g>
       <use style="stroke:#000000;stroke-width:0.8;" x="178.25567" xlink:href="#m2c04e662e7" y="252"/>
      </g>
     </g>
     <g id="text_4">
      <!-- 2 -->
      <g transform="translate(175.07442 266.598437)scale(0.1 -0.1)">
       <use xlink:href="#DejaVuSans-32"/>
      </g>
     </g>
    </g>
    <g id="xtick_5">
     <g id="line2d_9">
      <path clip-path="url(#p3bd92bc417)" d="M 219.674227 252 
L 219.674227 34.56 
" style="fill:none;stroke:#b0b0b0;stroke-linecap:square;stroke-width:0.8;"/>
     </g>
     <g id="line2d_10">
      <g>
       <use style="stroke:#000000;stroke-width:0.8;" x="219.674227" xlink:href="#m2c04e662e7" y="252"/>
      </g>
     </g>
     <g id="text_5">
      <!-- 4 -->
      <g transform="translate(216.492977 266.598437)scale(0.1 -0.1)">
       <use xlink:href="#DejaVuSans-34"/>
      </g>
     </g>
    </g>
    <g id="xtick_6">
     <g id="line2d_11">
      <path clip-path="url(#p3bd92bc417)" d="M 261.092784 252 
L 261.092784 34.56 
" style="fill:none;stroke:#b0b0b0;stroke-linecap:square;stroke-width:0.8;"/>
     </g>
     <g id="line2d_12">
      <g>
       <use style="stroke:#000000;stroke-width:0.8;" x="261.092784" xlink:href="#m2c04e662e7" y="252"/>
      </g>
     </g>
     <g id="text_6">
      <!-- 6 -->
      <defs>
       <path d="M 33.015625 40.375 
Q 26.375 40.375 22.484375 35.828125 
Q 18.609375 31.296875 18.609375 23.390625 
Q 18.609375 15.53125 22.484375 10.953125 
Q 26.375 6.390625 33.015625 6.390625 
Q 39.65625 6.390625 43.53125 10.953125 
Q 47.40625 15.53125 47.40625 23.390625 
Q 47.40625 31.296875 43.53125 35.828125 
Q 39.65625 40.375 33.015625 40.375 
M 52.59375 71.296875 
L 52.59375 62.3125 
Q 48.875 64.0625 45.09375 64.984375 
Q 41.3125 65.921875 37.59375 65.921875 
Q 27.828125 65.921875 22.671875 59.328125 
Q 17.53125 52.734375 16.796875 39.40625 
Q 19.671875 43.65625 24.015625 45.921875 
Q 28.375 48.1875 33.59375 48.1875 
Q 44.578125 48.1875 50.953125 41.515625 
Q 57.328125 34.859375 57.328125 23.390625 
Q 57.328125 12.15625 50.6875 5.359375 
Q 44.046875 -1.421875 33.015625 -1.421875 
Q 20.359375 -1.421875 13.671875 8.265625 
Q 6.984375 17.96875 6.984375 36.375 
Q 6.984375 53.65625 15.1875 63.9375 
Q 23.390625 74.21875 37.203125 74.21875 
Q 40.921875 74.21875 44.703125 73.484375 
Q 48.484375 72.75 52.59375 71.296875 
" id="DejaVuSans-36"/>
      </defs>
      <g transform="translate(257.911534 266.598437)scale(0.1 -0.1)">
       <use xlink:href="#DejaVuSans-36"/>
      </g>
     </g>
    </g>
    <g id="xtick_7">
     <g id="line2d_13">
      <path clip-path="url(#p3bd92bc417)" d="M 302.51134 252 
L 302.51134 34.56 
" style="fill:none;stroke:#b0b0b0;stroke-linecap:square;stroke-width:0.8;"/>
     </g>
     <g id="line2d_14">
      <g>
       <use style="stroke:#000000;stroke-width:0.8;" x="302.51134" xlink:href="#m2c04e662e7" y="252"/>
      </g>
     </g>
     <g id="text_7">
      <!-- 8 -->
      <defs>
       <path d="M 31.78125 34.625 
Q 24.75 34.625 20.71875 30.859375 
Q 16.703125 27.09375 16.703125 20.515625 
Q 16.703125 13.921875 20.71875 10.15625 
Q 24.75 6.390625 31.78125 6.390625 
Q 38.8125 6.390625 42.859375 10.171875 
Q 46.921875 13.96875 46.921875 20.515625 
Q 46.921875 27.09375 42.890625 30.859375 
Q 38.875 34.625 31.78125 34.625 
M 21.921875 38.8125 
Q 15.578125 40.375 12.03125 44.71875 
Q 8.5 49.078125 8.5 55.328125 
Q 8.5 64.0625 14.71875 69.140625 
Q 20.953125 74.21875 31.78125 74.21875 
Q 42.671875 74.21875 48.875 69.140625 
Q 55.078125 64.0625 55.078125 55.328125 
Q 55.078125 49.078125 51.53125 44.71875 
Q 48 40.375 41.703125 38.8125 
Q 48.828125 37.15625 52.796875 32.3125 
Q 56.78125 27.484375 56.78125 20.515625 
Q 56.78125 9.90625 50.3125 4.234375 
Q 43.84375 -1.421875 31.78125 -1.421875 
Q 19.734375 -1.421875 13.25 4.234375 
Q 6.78125 9.90625 6.78125 20.515625 
Q 6.78125 27.484375 10.78125 32.3125 
Q 14.796875 37.15625 21.921875 38.8125 
M 18.3125 54.390625 
Q 18.3125 48.734375 21.84375 45.5625 
Q 25.390625 42.390625 31.78125 42.390625 
Q 38.140625 42.390625 41.71875 45.5625 
Q 45.3125 48.734375 45.3125 54.390625 
Q 45.3125 60.0625 41.71875 63.234375 
Q 38.140625 66.40625 31.78125 66.40625 
Q 25.390625 66.40625 21.84375 63.234375 
Q 18.3125 60.0625 18.3125 54.390625 
" id="DejaVuSans-38"/>
      </defs>
      <g transform="translate(299.33009 266.598437)scale(0.1 -0.1)">
       <use xlink:href="#DejaVuSans-38"/>
      </g>
     </g>
    </g>
    <g id="xtick_8">
     <g id="line2d_15">
      <path clip-path="url(#p3bd92bc417)" d="M 343.929897 252 
L 343.929897 34.56 
" style="fill:none;stroke:#b0b0b0;stroke-linecap:square;stroke-width:0.8;"/>
     </g>
     <g id="line2d_16">
      <g>
       <use style="stroke:#000000;stroke-width:0.8;" x="343.929897" xlink:href="#m2c04e662e7" y="252"/>
      </g>
     </g>
     <g id="text_8">
      <!-- 10 -->
      <defs>
       <path d="M 12.40625 8.296875 
L 28.515625 8.296875 
L 28.515625 63.921875 
L 10.984375 60.40625 
L 10.984375 69.390625 
L 28.421875 72.90625 
L 38.28125 72.90625 
L 38.28125 8.296875 
L 54.390625 8.296875 
L 54.390625 0 
L 12.40625 0 
z
" id="DejaVuSans-31"/>
      </defs>
      <g transform="translate(337.567397 266.598437)scale(0.1 -0.1)">
       <use xlink:href="#DejaVuSans-31"/>
       <use x="63.623047" xlink:href="#DejaVuSans-30"/>
      </g>
     </g>
    </g>
    <g id="xtick_9">
     <g id="line2d_17">
      <path clip-path="url(#p3bd92bc417)" d="M 385.348454 252 
L 385.348454 34.56 
" style="fill:none;stroke:#b0b0b0;stroke-linecap:square;stroke-width:0.8;"/>
     </g>
     <g id="line2d_18">
      <g>
       <use style="stroke:#000000;stroke-width:0.8;" x="385.348454" xlink:href="#m2c04e662e7" y="252"/>
      </g>
     </g>
     <g id="text_9">
      <!-- 12 -->
      <g transform="translate(378.985954 266.598437)scale(0.1 -0.1)">
       <use xlink:href="#DejaVuSans-31"/>
       <use x="63.623047" xlink:href="#DejaVuSans-32"/>
      </g>
     </g>
    </g>
    <g id="text_10">
     <!-- Time (months) -->
     <defs>
      <path d="M -0.296875 72.90625 
L 61.375 72.90625 
L 61.375 64.59375 
L 35.5 64.59375 
L 35.5 0 
L 25.59375 0 
L 25.59375 64.59375 
L -0.296875 64.59375 
z
" id="DejaVuSans-54"/>
      <path d="M 9.421875 54.6875 
L 18.40625 54.6875 
L 18.40625 0 
L 9.421875 0 
z
M 9.421875 75.984375 
L 18.40625 75.984375 
L 18.40625 64.59375 
L 9.421875 64.59375 
z
" id="DejaVuSans-69"/>
      <path d="M 52 44.1875 
Q 55.375 50.25 60.0625 53.125 
Q 64.75 56 71.09375 56 
Q 79.640625 56 84.28125 50.015625 
Q 88.921875 44.046875 88.921875 33.015625 
L 88.921875 0 
L 79.890625 0 
L 79.890625 32.71875 
Q 79.890625 40.578125 77.09375 44.375 
Q 74.3125 48.1875 68.609375 48.1875 
Q 61.625 48.1875 57.5625 43.546875 
Q 53.515625 38.921875 53.515625 30.90625 
L 53.515625 0 
L 44.484375 0 
L 44.484375 32.71875 
Q 44.484375 40.625 41.703125 44.40625 
Q 38.921875 48.1875 33.109375 48.1875 
Q 26.21875 48.1875 22.15625 43.53125 
Q 18.109375 38.875 18.109375 30.90625 
L 18.109375 0 
L 9.078125 0 
L 9.078125 54.6875 
L 18.109375 54.6875 
L 18.109375 46.1875 
Q 21.1875 51.21875 25.484375 53.609375 
Q 29.78125 56 35.6875 56 
Q 41.65625 56 45.828125 52.96875 
Q 50 49.953125 52 44.1875 
" id="DejaVuSans-6d"/>
      <path d="M 56.203125 29.59375 
L 56.203125 25.203125 
L 14.890625 25.203125 
Q 15.484375 15.921875 20.484375 11.0625 
Q 25.484375 6.203125 34.421875 6.203125 
Q 39.59375 6.203125 44.453125 7.46875 
Q 49.3125 8.734375 54.109375 11.28125 
L 54.109375 2.78125 
Q 49.265625 0.734375 44.1875 -0.34375 
Q 39.109375 -1.421875 33.890625 -1.421875 
Q 20.796875 -1.421875 13.15625 6.1875 
Q 5.515625 13.8125 5.515625 26.8125 
Q 5.515625 40.234375 12.765625 48.109375 
Q 20.015625 56 32.328125 56 
Q 43.359375 56 49.78125 48.890625 
Q 56.203125 41.796875 56.203125 29.59375 
M 47.21875 32.234375 
Q 47.125 39.59375 43.09375 43.984375 
Q 39.0625 48.390625 32.421875 48.390625 
Q 24.90625 48.390625 20.390625 44.140625 
Q 15.875 39.890625 15.1875 32.171875 
z
" id="DejaVuSans-65"/>
      <path id="DejaVuSans-20"/>
      <path d="M 31 75.875 
Q 24.46875 64.65625 21.28125 53.65625 
Q 18.109375 42.671875 18.109375 31.390625 
Q 18.109375 20.125 21.3125 9.0625 
Q 24.515625 -2 31 -13.1875 
L 23.1875 -13.1875 
Q 15.875 -1.703125 12.234375 9.375 
Q 8.59375 20.453125 8.59375 31.390625 
Q 8.59375 42.28125 12.203125 53.3125 
Q 15.828125 64.359375 23.1875 75.875 
z
" id="DejaVuSans-28"/>
      <path d="M 30.609375 48.390625 
Q 23.390625 48.390625 19.1875 42.75 
Q 14.984375 37.109375 14.984375 27.296875 
Q 14.984375 17.484375 19.15625 11.84375 
Q 23.34375 6.203125 30.609375 6.203125 
Q 37.796875 6.203125 41.984375 11.859375 
Q 46.1875 17.53125 46.1875 27.296875 
Q 46.1875 37.015625 41.984375 42.703125 
Q 37.796875 48.390625 30.609375 48.390625 
M 30.609375 56 
Q 42.328125 56 49.015625 48.375 
Q 55.71875 40.765625 55.71875 27.296875 
Q 55.71875 13.875 49.015625 6.21875 
Q 42.328125 -1.421875 30.609375 -1.421875 
Q 18.84375 -1.421875 12.171875 6.21875 
Q 5.515625 13.875 5.515625 27.296875 
Q 5.515625 40.765625 12.171875 48.375 
Q 18.84375 56 30.609375 56 
" id="DejaVuSans-6f"/>
      <path d="M 54.890625 33.015625 
L 54.890625 0 
L 45.90625 0 
L 45.90625 32.71875 
Q 45.90625 40.484375 42.875 44.328125 
Q 39.84375 48.1875 33.796875 48.1875 
Q 26.515625 48.1875 22.3125 43.546875 
Q 18.109375 38.921875 18.109375 30.90625 
L 18.109375 0 
L 9.078125 0 
L 9.078125 54.6875 
L 18.109375 54.6875 
L 18.109375 46.1875 
Q 21.34375 51.125 25.703125 53.5625 
Q 30.078125 56 35.796875 56 
Q 45.21875 56 50.046875 50.171875 
Q 54.890625 44.34375 54.890625 33.015625 
" id="DejaVuSans-6e"/>
      <path d="M 18.3125 70.21875 
L 18.3125 54.6875 
L 36.8125 54.6875 
L 36.8125 47.703125 
L 18.3125 47.703125 
L 18.3125 18.015625 
Q 18.3125 11.328125 20.140625 9.421875 
Q 21.96875 7.515625 27.59375 7.515625 
L 36.8125 7.515625 
L 36.8125 0 
L 27.59375 0 
Q 17.1875 0 13.234375 3.875 
Q 9.28125 7.765625 9.28125 18.015625 
L 9.28125 47.703125 
L 2.6875 47.703125 
L 2.6875 54.6875 
L 9.28125 54.6875 
L 9.28125 70.21875 
z
" id="DejaVuSans-74"/>
      <path d="M 54.890625 33.015625 
L 54.890625 0 
L 45.90625 0 
L 45.90625 32.71875 
Q 45.90625 40.484375 42.875 44.328125 
Q 39.84375 48.1875 33.796875 48.1875 
Q 26.515625 48.1875 22.3125 43.546875 
Q 18.109375 38.921875 18.109375 30.90625 
L 18.109375 0 
L 9.078125 0 
L 9.078125 75.984375 
L 18.109375 75.984375 
L 18.109375 46.1875 
Q 21.34375 51.125 25.703125 53.5625 
Q 30.078125 56 35.796875 56 
Q 45.21875 56 50.046875 50.171875 
Q 54.890625 44.34375 54.890625 33.015625 
" id="DejaVuSans-68"/>
      <path d="M 44.28125 53.078125 
L 44.28125 44.578125 
Q 40.484375 46.53125 36.375 47.5 
Q 32.28125 48.484375 27.875 48.484375 
Q 21.1875 48.484375 17.84375 46.4375 
Q 14.5 44.390625 14.5 40.28125 
Q 14.5 37.15625 16.890625 35.375 
Q 19.28125 33.59375 26.515625 31.984375 
L 29.59375 31.296875 
Q 39.15625 29.25 43.1875 25.515625 
Q 47.21875 21.78125 47.21875 15.09375 
Q 47.21875 7.46875 41.1875 3.015625 
Q 35.15625 -1.421875 24.609375 -1.421875 
Q 20.21875 -1.421875 15.453125 -0.5625 
Q 10.6875 0.296875 5.421875 2 
L 5.421875 11.28125 
Q 10.40625 8.6875 15.234375 7.390625 
Q 20.0625 6.109375 24.8125 6.109375 
Q 31.15625 6.109375 34.5625 8.28125 
Q 37.984375 10.453125 37.984375 14.40625 
Q 37.984375 18.0625 35.515625 20.015625 
Q 33.0625 21.96875 24.703125 23.78125 
L 21.578125 24.515625 
Q 13.234375 26.265625 9.515625 29.90625 
Q 5.8125 33.546875 5.8125 39.890625 
Q 5.8125 47.609375 11.28125 51.796875 
Q 16.75 56 26.8125 56 
Q 31.78125 56 36.171875 55.265625 
Q 40.578125 54.546875 44.28125 53.078125 
" id="DejaVuSans-73"/>
      <path d="M 8.015625 75.875 
L 15.828125 75.875 
Q 23.140625 64.359375 26.78125 53.3125 
Q 30.421875 42.28125 30.421875 31.390625 
Q 30.421875 20.453125 26.78125 9.375 
Q 23.140625 -1.703125 15.828125 -13.1875 
L 8.015625 -13.1875 
Q 14.5 -2 17.703125 9.0625 
Q 20.90625 20.125 20.90625 31.390625 
Q 20.90625 42.671875 17.703125 53.65625 
Q 14.5 64.65625 8.015625 75.875 
" id="DejaVuSans-29"/>
     </defs>
     <g transform="translate(184.689844 280.276563)scale(0.1 -0.1)">
      <use xlink:href="#DejaVuSans-54"/>
      <use x="61.037109" xlink:href="#DejaVuSans-69"/>
      <use x="88.820312" xlink:href="#DejaVuSans-6d"/>
      <use x="186.232422" xlink:href="#DejaVuSans-65"/>
      <use x="247.755859" xlink:href="#DejaVuSans-20"/>
      <use x="279.542969" xlink:href="#DejaVuSans-28"/>
      <use x="318.556641" xlink:href="#DejaVuSans-6d"/>
      <use x="415.96875" xlink:href="#DejaVuSans-6f"/>
      <use x="477.150391" xlink:href="#DejaVuSans-6e"/>
      <use x="540.529297" xlink:href="#DejaVuSans-74"/>
      <use x="579.738281" xlink:href="#DejaVuSans-68"/>
      <use x="643.117188" xlink:href="#DejaVuSans-73"/>
      <use x="695.216797" xlink:href="#DejaVuSans-29"/>
     </g>
    </g>
   </g>
   <g id="matplotlib.axis_2">
    <g id="ytick_1">
     <g id="line2d_19">
      <path clip-path="url(#p3bd92bc417)" d="M 54 252 
L 388.8 252 
" style="fill:none;stroke:#b0b0b0;stroke-linecap:square;stroke-width:0.8;"/>
     </g>
     <g id="line2d_20">
      <defs>
       <path d="M 0 0 
L -3.5 0 
" id="m531bea1bad" style="stroke:#000000;stroke-width:0.8;"/>
      </defs>
      <g>
       <use style="stroke:#000000;stroke-width:0.8;" x="54" xlink:href="#m531bea1bad" y="252"/>
      </g>
     </g>
     <g id="text_11">
      <!-- 0.0 -->
      <defs>
       <path d="M 10.6875 12.40625 
L 21 12.40625 
L 21 0 
L 10.6875 0 
z
" id="DejaVuSans-2e"/>
      </defs>
      <g transform="translate(31.096875 255.799219)scale(0.1 -0.1)">
       <use xlink:href="#DejaVuSans-30"/>
       <use x="63.623047" xlink:href="#DejaVuSans-2e"/>
       <use x="95.410156" xlink:href="#DejaVuSans-30"/>
      </g>
     </g>
    </g>
    <g id="ytick_2">
     <g id="line2d_21">
      <path clip-path="url(#p3bd92bc417)" d="M 54 208.512 
L 388.8 208.512 
" style="fill:none;stroke:#b0b0b0;stroke-linecap:square;stroke-width:0.8;"/>
     </g>
     <g id="line2d_22">
      <g>
       <use style="stroke:#000000;stroke-width:0.8;" x="54" xlink:href="#m531bea1bad" y="208.512"/>
      </g>
     </g>
     <g id="text_12">
      <!-- 0.2 -->
      <g transform="translate(31.096875 212.311219)scale(0.1 -0.1)">
       <use xlink:href="#DejaVuSans-30"/>
       <use x="63.623047" xlink:href="#DejaVuSans-2e"/>
       <use x="95.410156" xlink:href="#DejaVuSans-32"/>
      </g>
     </g>
    </g>
    <g id="ytick_3">
     <g id="line2d_23">
      <path clip-path="url(#p3bd92bc417)" d="M 54 165.024 
L 388.8 165.024 
" style="fill:none;stroke:#b0b0b0;stroke-linecap:square;stroke-width:0.8;"/>
     </g>
     <g id="line2d_24">
      <g>
       <use style="stroke:#000000;stroke-width:0.8;" x="54" xlink:href="#m531bea1bad" y="165.024"/>
      </g>
     </g>
     <g id="text_13">
      <!-- 0.4 -->
      <g transform="translate(31.096875 168.823219)scale(0.1 -0.1)">
       <use xlink:href="#DejaVuSans-30"/>
       <use x="63.623047" xlink:href="#DejaVuSans-2e"/>
       <use x="95.410156" xlink:href="#DejaVuSans-34"/>
      </g>
     </g>
    </g>
    <g id="ytick_4">
     <g id="line2d_25">
      <path clip-path="url(#p3bd92bc417)" d="M 54 121.536 
L 388.8 121.536 
" style="fill:none;stroke:#b0b0b0;stroke-linecap:square;stroke-width:0.8;"/>
     </g>
     <g id="line2d_26">
      <g>
       <use style="stroke:#000000;stroke-width:0.8;" x="54" xlink:href="#m531bea1bad" y="121.536"/>
      </g>
     </g>
     <g id="text_14">
      <!-- 0.6 -->
      <g transform="translate(31.096875 125.335219)scale(0.1 -0.1)">
       <use xlink:href="#DejaVuSans-30"/>
       <use x="63.623047" xlink:href="#DejaVuSans-2e"/>
       <use x="95.410156" xlink:href="#DejaVuSans-36"/>
      </g>
     </g>
    </g>
    <g id="ytick_5">
     <g id="line2d_27">
      <path clip-path="url(#p3bd92bc417)" d="M 54 78.048 
L 388.8 78.048 
" style="fill:none;stroke:#b0b0b0;stroke-linecap:square;stroke-width:0.8;"/>
     </g>
     <g id="line2d_28">
      <g>
       <use style="stroke:#000000;stroke-width:0.8;" x="54" xlink:href="#m531bea1bad" y="78.048"/>
      </g>
     </g>
     <g id="text_15">
      <!-- 0.8 -->
      <g transform="translate(31.096875 81.847219)scale(0.1 -0.1)">
       <use xlink:href="#DejaVuSans-30"/>
       <use x="63.623047" xlink:href="#DejaVuSans-2e"/>
       <use x="95.410156" xlink:href="#DejaVuSans-38"/>
      </g>
     </g>
    </g>
    <g id="ytick_6">
     <g id="line2d_29">
      <path clip-path="url(#p3bd92bc417)" d="M 54 34.56 
L 388.8 34.56 
" style="fill:none;stroke:#b0b0b0;stroke-linecap:square;stroke-width:0.8;"/>
     </g>
     <g id="line2d_30">
      <g>
       <use style="stroke:#000000;stroke-width:0.8;" x="54" xlink:href="#m531bea1bad" y="34.56"/>
      </g>
     </g>
     <g id="text_16">
      <!-- 1.0 -->
      <g transform="translate(31.096875 38.359219)scale(0.1 -0.1)">
       <use xlink:href="#DejaVuSans-31"/>
       <use x="63.623047" xlink:href="#DejaVuSans-2e"/>
       <use x="95.410156" xlink:href="#DejaVuSans-30"/>
      </g>
     </g>
    </g>
    <g id="text_17">
     <!-- Prevalence (fraction of population) -->
     <defs>
      <path d="M 19.671875 64.796875 
L 19.671875 37.40625 
L 32.078125 37.40625 
Q 38.96875 37.40625 42.71875 40.96875 
Q 46.484375 44.53125 46.484375 51.125 
Q 46.484375 57.671875 42.71875 61.234375 
Q 38.96875 64.796875 32.078125 64.796875 
z
M 9.8125 72.90625 
L 32.078125 72.90625 
Q 44.34375 72.90625 50.609375 67.359375 
Q 56.890625 61.8125 56.890625 51.125 
Q 56.890625 40.328125 50.609375 34.8125 
Q 44.34375 29.296875 32.078125 29.296875 
L 19.671875 29.296875 
L 19.671875 0 
L 9.8125 0 
z
" id="DejaVuSans-50"/>
      <path d="M 41.109375 46.296875 
Q 39.59375 47.171875 37.8125 47.578125 
Q 36.03125 48 33.890625 48 
Q 26.265625 48 22.1875 43.046875 
Q 18.109375 38.09375 18.109375 28.8125 
L 18.109375 0 
L 9.078125 0 
L 9.078125 54.6875 
L 18.109375 54.6875 
L 18.109375 46.1875 
Q 20.953125 51.171875 25.484375 53.578125 
Q 30.03125 56 36.53125 56 
Q 37.453125 56 38.578125 55.875 
Q 39.703125 55.765625 41.0625 55.515625 
z
" id="DejaVuSans-72"/>
      <path d="M 2.984375 54.6875 
L 12.5 54.6875 
L 29.59375 8.796875 
L 46.6875 54.6875 
L 56.203125 54.6875 
L 35.6875 0 
L 23.484375 0 
z
" id="DejaVuSans-76"/>
      <path d="M 34.28125 27.484375 
Q 23.390625 27.484375 19.1875 25 
Q 14.984375 22.515625 14.984375 16.5 
Q 14.984375 11.71875 18.140625 8.90625 
Q 21.296875 6.109375 26.703125 6.109375 
Q 34.1875 6.109375 38.703125 11.40625 
Q 43.21875 16.703125 43.21875 25.484375 
L 43.21875 27.484375 
z
M 52.203125 31.203125 
L 52.203125 0 
L 43.21875 0 
L 43.21875 8.296875 
Q 40.140625 3.328125 35.546875 0.953125 
Q 30.953125 -1.421875 24.3125 -1.421875 
Q 15.921875 -1.421875 10.953125 3.296875 
Q 6 8.015625 6 15.921875 
Q 6 25.140625 12.171875 29.828125 
Q 18.359375 34.515625 30.609375 34.515625 
L 43.21875 34.515625 
L 43.21875 35.40625 
Q 43.21875 41.609375 39.140625 45 
Q 35.0625 48.390625 27.6875 48.390625 
Q 23 48.390625 18.546875 47.265625 
Q 14.109375 46.140625 10.015625 43.890625 
L 10.015625 52.203125 
Q 14.9375 54.109375 19.578125 55.046875 
Q 24.21875 56 28.609375 56 
Q 40.484375 56 46.34375 49.84375 
Q 52.203125 43.703125 52.203125 31.203125 
" id="DejaVuSans-61"/>
      <path d="M 9.421875 75.984375 
L 18.40625 75.984375 
L 18.40625 0 
L 9.421875 0 
z
" id="DejaVuSans-6c"/>
      <path d="M 48.78125 52.59375 
L 48.78125 44.1875 
Q 44.96875 46.296875 41.140625 47.34375 
Q 37.3125 48.390625 33.40625 48.390625 
Q 24.65625 48.390625 19.8125 42.84375 
Q 14.984375 37.3125 14.984375 27.296875 
Q 14.984375 17.28125 19.8125 11.734375 
Q 24.65625 6.203125 33.40625 6.203125 
Q 37.3125 6.203125 41.140625 7.25 
Q 44.96875 8.296875 48.78125 10.40625 
L 48.78125 2.09375 
Q 45.015625 0.34375 40.984375 -0.53125 
Q 36.96875 -1.421875 32.421875 -1.421875 
Q 20.0625 -1.421875 12.78125 6.34375 
Q 5.515625 14.109375 5.515625 27.296875 
Q 5.515625 40.671875 12.859375 48.328125 
Q 20.21875 56 33.015625 56 
Q 37.15625 56 41.109375 55.140625 
Q 45.0625 54.296875 48.78125 52.59375 
" id="DejaVuSans-63"/>
      <path d="M 37.109375 75.984375 
L 37.109375 68.5 
L 28.515625 68.5 
Q 23.6875 68.5 21.796875 66.546875 
Q 19.921875 64.59375 19.921875 59.515625 
L 19.921875 54.6875 
L 34.71875 54.6875 
L 34.71875 47.703125 
L 19.921875 47.703125 
L 19.921875 0 
L 10.890625 0 
L 10.890625 47.703125 
L 2.296875 47.703125 
L 2.296875 54.6875 
L 10.890625 54.6875 
L 10.890625 58.5 
Q 10.890625 67.625 15.140625 71.796875 
Q 19.390625 75.984375 28.609375 75.984375 
z
" id="DejaVuSans-66"/>
      <path d="M 18.109375 8.203125 
L 18.109375 -20.796875 
L 9.078125 -20.796875 
L 9.078125 54.6875 
L 18.109375 54.6875 
L 18.109375 46.390625 
Q 20.953125 51.265625 25.265625 53.625 
Q 29.59375 56 35.59375 56 
Q 45.5625 56 51.78125 48.09375 
Q 58.015625 40.1875 58.015625 27.296875 
Q 58.015625 14.40625 51.78125 6.484375 
Q 45.5625 -1.421875 35.59375 -1.421875 
Q 29.59375 -1.421875 25.265625 0.953125 
Q 20.953125 3.328125 18.109375 8.203125 
M 48.6875 27.296875 
Q 48.6875 37.203125 44.609375 42.84375 
Q 40.53125 48.484375 33.40625 48.484375 
Q 26.265625 48.484375 22.1875 42.84375 
Q 18.109375 37.203125 18.109375 27.296875 
Q 18.109375 17.390625 22.1875 11.75 
Q 26.265625 6.109375 33.40625 6.109375 
Q 40.53125 6.109375 44.609375 11.75 
Q 48.6875 17.390625 48.6875 27.296875 
" id="DejaVuSans-70"/>
      <path d="M 8.5 21.578125 
L 8.5 54.6875 
L 17.484375 54.6875 
L 17.484375 21.921875 
Q 17.484375 14.15625 20.5 10.265625 
Q 23.53125 6.390625 29.59375 6.390625 
Q 36.859375 6.390625 41.078125 11.03125 
Q 45.3125 15.671875 45.3125 23.6875 
L 45.3125 54.6875 
L 54.296875 54.6875 
L 54.296875 0 
L 45.3125 0 
L 45.3125 8.40625 
Q 42.046875 3.421875 37.71875 1 
Q 33.40625 -1.421875 27.6875 -1.421875 
Q 18.265625 -1.421875 13.375 4.4375 
Q 8.5 10.296875 8.5 21.578125 
M 31.109375 56 
z
" id="DejaVuSans-75"/>
     </defs>
     <g transform="translate(25.017187 230.209688)rotate(-90)scale(0.1 -0.1)">
      <use xlink:href="#DejaVuSans-50"/>
      <use x="60.287109" xlink:href="#DejaVuSans-72"/>
      <use x="101.369141" xlink:href="#DejaVuSans-65"/>
      <use x="162.892578" xlink:href="#DejaVuSans-76"/>
      <use x="222.072266" xlink:href="#DejaVuSans-61"/>
      <use x="283.351562" xlink:href="#DejaVuSans-6c"/>
      <use x="311.134766" xlink:href="#DejaVuSans-65"/>
      <use x="372.658203" xlink:href="#DejaVuSans-6e"/>
      <use x="436.037109" xlink:href="#DejaVuSans-63"/>
      <use x="491.017578" xlink:href="#DejaVuSans-65"/>
      <use x="552.541016" xlink:href="#DejaVuSans-20"/>
      <use x="584.328125" xlink:href="#DejaVuSans-28"/>
      <use x="623.341797" xlink:href="#DejaVuSans-66"/>
      <use x="658.546875" xlink:href="#DejaVuSans-72"/>
      <use x="699.660156" xlink:href="#DejaVuSans-61"/>
      <use x="760.939453" xlink:href="#DejaVuSans-63"/>
      <use x="815.919922" xlink:href="#DejaVuSans-74"/>
      <use x="855.128906" xlink:href="#DejaVuSans-69"/>
      <use x="882.912109" xlink:href="#DejaVuSans-6f"/>
      <use x="944.09375" xlink:href="#DejaVuSans-6e"/>
      <use x="1007.472656" xlink:href="#DejaVuSans-20"/>
      <use x="1039.259766" xlink:href="#DejaVuSans-6f"/>
      <use x="1100.441406" xlink:href="#DejaVuSans-66"/>
      <use x="1135.646484" xlink:href="#DejaVuSans-20"/>
      <use x="1167.433594" xlink:href="#DejaVuSans-70"/>
      <use x="1230.910156" xlink:href="#DejaVuSans-6f"/>
      <use x="1292.091797" xlink:href="#DejaVuSans-70"/>
      <use x="1355.568359" xlink:href="#DejaVuSans-75"/>
      <use x="1418.947266" xlink:href="#DejaVuSans-6c"/>
      <use x="1446.730469" xlink:href="#DejaVuSans-61"/>
      <use x="1508.009766" xlink:href="#DejaVuSans-74"/>
      <use x="1547.21875" xlink:href="#DejaVuSans-69"/>
      <use x="1575.001953" xlink:href="#DejaVuSans-6f"/>
      <use x="1636.183594" xlink:href="#DejaVuSans-6e"/>
      <use x="1699.5625" xlink:href="#DejaVuSans-29"/>
     </g>
    </g>
   </g>
   <g id="line2d_31">
    <path clip-path="url(#p3bd92bc417)" d="M -1 110.664 
L 199.655258 110.664 
L 200.345567 143.17128 
L 388.109691 143.17128 
L 388.109691 143.17128 
" style="fill:none;stroke:#1f77b4;stroke-linecap:square;stroke-width:1.5;"/>
   </g>
   <g id="line2d_32">
    <path clip-path="url(#p3bd92bc417)" d="M -1 171.984613 
L -0.534433 171.76464 
L 0.846186 171.98208 
L 1.536495 172.41696 
L 2.917113 171.65592 
L 4.297732 171.0036 
L 4.988041 169.80768 
L 7.058969 169.15536 
L 7.749278 168.50304 
L 8.439588 169.48152 
L 9.129897 169.04664 
L 9.820206 168.93792 
L 11.200825 169.04664 
L 11.891134 168.06816 
L 12.581443 168.61176 
L 13.962062 166.54608 
L 14.652371 166.1112 
L 15.34268 165.35016 
L 16.03299 165.024 
L 16.723299 165.13272 
L 18.103918 164.15424 
L 18.794227 164.58912 
L 22.245773 164.4804 
L 22.936082 164.26296 
L 24.316701 164.15424 
L 25.00701 163.71936 
L 25.69732 163.82808 
L 27.077938 163.06704 
L 28.458557 163.3932 
L 29.148866 163.06704 
L 30.529485 162.95832 
L 31.219794 161.87112 
L 31.910103 162.19728 
L 32.600412 161.97984 
L 33.290722 161.11008 
L 33.981031 160.6752 
L 34.67134 161.11008 
L 36.051959 159.37056 
L 36.742268 159.69672 
L 37.432577 159.69672 
L 38.122887 160.02288 
L 38.813196 159.37056 
L 39.503505 159.69672 
L 40.193814 159.588 
L 40.884124 158.93568 
L 41.574433 159.15312 
L 42.264742 158.5008 
L 42.955052 158.06592 
L 43.645361 158.17464 
L 45.025979 158.06592 
L 45.716289 158.39208 
L 47.096907 157.30488 
L 49.858144 156.00024 
L 50.548454 156.00024 
L 51.238763 156.21768 
L 52.619381 156.21768 
L 53.309691 156.43512 
L 54 156.87 
L 54.690309 156.65256 
L 55.380619 156.76128 
L 58.141856 155.89152 
L 61.593402 155.89152 
L 62.283711 155.45664 
L 62.974021 154.58688 
L 63.66433 154.47816 
L 65.044948 153.82584 
L 65.735258 154.152 
L 66.425567 154.152 
L 67.115876 154.58688 
L 67.806186 155.2392 
L 69.186804 154.6956 
L 69.877113 155.02176 
L 70.567423 154.47816 
L 71.257732 154.47816 
L 71.948041 155.13048 
L 73.32866 155.02176 
L 74.018969 155.56536 
L 74.709278 155.45664 
L 76.089897 155.7828 
L 78.851134 154.91304 
L 79.541443 155.02176 
L 80.231753 154.58688 
L 80.922062 154.91304 
L 82.30268 155.02176 
L 82.99299 154.47816 
L 83.683299 154.152 
L 84.373608 154.36944 
L 85.063918 153.82584 
L 85.754227 154.152 
L 86.444536 153.82584 
L 87.134845 154.04328 
L 89.205773 153.0648 
L 89.896082 153.49968 
L 90.586392 153.0648 
L 92.65732 152.5212 
L 93.347629 151.76016 
L 94.037938 152.30376 
L 95.418557 151.21656 
L 96.108866 151.32528 
L 96.799175 151.21656 
L 97.489485 151.32528 
L 98.179794 150.8904 
L 98.870103 150.8904 
L 100.250722 150.3468 
L 101.63134 150.67296 
L 102.321649 149.47704 
L 103.011959 149.91192 
L 103.702268 149.8032 
L 104.392577 149.47704 
L 105.082887 148.49856 
L 105.773196 148.38984 
L 106.463505 147.95496 
L 108.534433 147.73752 
L 109.224742 148.49856 
L 109.915052 147.73752 
L 111.29567 148.82472 
L 112.676289 148.93344 
L 113.366598 148.49856 
L 115.437526 148.1724 
L 116.127835 147.73752 
L 116.818144 148.1724 
L 117.508454 148.28112 
L 118.198763 147.84624 
L 119.579381 147.52008 
L 120.269691 147.84624 
L 120.96 147.52008 
L 121.650309 147.73752 
L 122.340619 148.38984 
L 123.721237 148.716 
L 124.411546 149.04216 
L 125.101856 148.93344 
L 125.792165 148.49856 
L 126.482474 147.84624 
L 127.172784 147.6288 
L 127.863093 148.1724 
L 128.553402 147.84624 
L 129.243711 147.73752 
L 129.934021 147.95496 
L 131.314639 147.84624 
L 132.004948 147.0852 
L 133.385567 147.19392 
L 134.075876 146.97648 
L 134.766186 146.21544 
L 136.146804 145.56312 
L 136.837113 146.75904 
L 137.527423 147.41136 
L 138.217732 148.49856 
L 138.908041 149.8032 
L 139.598351 150.45552 
L 141.669278 150.67296 
L 142.359588 150.67296 
L 143.049897 150.8904 
L 143.740206 150.8904 
L 145.120825 151.54272 
L 147.191753 151.10784 
L 147.882062 151.32528 
L 148.572371 150.99912 
L 149.26268 151.32528 
L 149.95299 150.8904 
L 150.643299 150.99912 
L 151.333608 151.32528 
L 152.023918 151.434 
L 153.404536 151.21656 
L 154.094845 151.32528 
L 155.475464 150.78168 
L 156.165773 150.8904 
L 156.856082 151.21656 
L 157.546392 151.21656 
L 160.307629 152.19504 
L 160.997938 151.76016 
L 162.378557 151.434 
L 163.759175 151.86888 
L 165.139794 151.86888 
L 165.830103 152.30376 
L 167.210722 151.9776 
L 168.59134 151.76016 
L 169.281649 151.434 
L 169.971959 151.86888 
L 170.662268 151.54272 
L 171.352577 150.99912 
L 172.042887 151.54272 
L 172.733196 151.86888 
L 173.423505 151.65144 
L 174.804124 151.76016 
L 175.494433 151.54272 
L 176.184742 151.86888 
L 176.875052 151.76016 
L 177.565361 151.86888 
L 178.25567 151.54272 
L 178.945979 151.76016 
L 179.636289 151.76016 
L 180.326598 152.19504 
L 181.016907 152.30376 
L 182.397526 153.0648 
L 183.087835 153.28224 
L 183.778144 153.17352 
L 184.468454 153.49968 
L 185.849072 153.39096 
L 187.92 153.0648 
L 188.610309 153.28224 
L 189.300619 153.28224 
L 189.990928 153.6084 
L 190.681237 153.71712 
L 191.371546 153.49968 
L 192.061856 153.6084 
L 192.752165 153.49968 
L 194.132784 153.82584 
L 196.203711 155.02176 
L 197.58433 155.13048 
L 198.274639 155.34792 
L 198.964948 155.13048 
L 199.655258 155.13048 
L 200.345567 154.91304 
L 201.035876 155.02176 
L 201.726186 154.91304 
L 202.416495 154.58688 
L 204.487423 154.47816 
L 205.177732 155.02176 
L 206.558351 154.6956 
L 209.319588 155.2392 
L 210.700206 154.6956 
L 211.390515 154.80432 
L 212.080825 155.2392 
L 212.771134 155.34792 
L 213.461443 155.67408 
L 216.91299 156.10896 
L 217.603299 155.7828 
L 218.293608 155.67408 
L 218.983918 155.7828 
L 219.674227 156.10896 
L 221.054845 156.00024 
L 221.745155 155.7828 
L 222.435464 155.7828 
L 223.816082 155.45664 
L 224.506392 155.67408 
L 225.88701 155.34792 
L 226.57732 155.56536 
L 227.267629 155.56536 
L 227.957938 155.89152 
L 228.648247 155.89152 
L 229.338557 156.21768 
L 230.719175 155.56536 
L 231.409485 155.56536 
L 232.099794 155.89152 
L 232.790103 155.56536 
L 233.480412 155.67408 
L 234.170722 156.00024 
L 234.861031 155.89152 
L 235.55134 156.00024 
L 236.241649 156.3264 
L 239.002887 156.00024 
L 241.073814 156.00024 
L 241.764124 156.21768 
L 242.454433 156.00024 
L 243.144742 156.21768 
L 243.835052 156.00024 
L 244.525361 156.00024 
L 247.976907 156.97872 
L 248.667216 156.97872 
L 249.357526 157.19616 
L 250.047835 157.19616 
L 251.428454 156.76128 
L 252.118763 157.4136 
L 255.570309 157.30488 
L 256.260619 157.84848 
L 259.021856 158.71824 
L 259.712165 158.5008 
L 263.163711 159.0444 
L 263.854021 158.93568 
L 265.234639 159.26184 
L 266.615258 160.24032 
L 267.305567 160.02288 
L 272.137732 159.91416 
L 272.828041 159.69672 
L 273.518351 159.69672 
L 274.20866 159.47928 
L 275.589278 159.80544 
L 276.279588 159.588 
L 277.660206 159.69672 
L 278.350515 159.69672 
L 279.040825 160.34904 
L 279.731134 160.34904 
L 281.111753 159.80544 
L 281.802062 160.24032 
L 282.492371 160.1316 
L 283.18268 160.24032 
L 283.87299 160.56648 
L 284.563299 160.45776 
L 285.253608 160.56648 
L 286.634227 160.24032 
L 287.324536 159.91416 
L 288.014845 160.24032 
L 288.705155 160.34904 
L 289.395464 160.6752 
L 290.085773 160.6752 
L 290.776082 160.89264 
L 291.466392 161.43624 
L 292.156701 161.54496 
L 292.84701 161.32752 
L 293.53732 160.78392 
L 294.227629 161.11008 
L 296.298557 161.54496 
L 298.369485 162.63216 
L 299.059794 162.08856 
L 299.750103 162.41472 
L 300.440412 162.19728 
L 303.201649 162.306 
L 303.891959 163.17576 
L 305.272577 163.3932 
L 305.962887 164.04552 
L 306.653196 164.15424 
L 307.343505 163.9368 
L 308.033814 164.04552 
L 308.724124 164.4804 
L 310.104742 164.80656 
L 310.795052 165.5676 
L 311.485361 166.00248 
L 312.17567 166.00248 
L 312.865979 166.54608 
L 314.936907 167.41584 
L 315.627216 167.1984 
L 316.317526 167.41584 
L 317.698144 167.30712 
L 319.769072 167.52456 
L 321.149691 168.50304 
L 321.84 168.39432 
L 322.530309 169.15536 
L 323.910928 169.04664 
L 328.052784 171.11232 
L 329.433402 171.98208 
L 330.123711 171.65592 
L 331.50433 171.5472 
L 332.194639 171.87336 
L 332.884948 171.87336 
L 333.575258 172.52568 
L 335.646186 173.39544 
L 337.026804 173.39544 
L 337.717113 173.61288 
L 339.097732 173.7216 
L 340.478351 174.48264 
L 343.239588 175.78728 
L 343.929897 175.896 
L 344.620206 176.22216 
L 345.310515 176.33088 
L 346.000825 176.87448 
L 346.691134 176.9832 
L 347.381443 177.30936 
L 348.762062 177.63552 
L 350.14268 178.39656 
L 350.83299 178.39656 
L 351.523299 178.614 
L 354.284536 180.2448 
L 354.974845 179.7012 
L 355.665155 179.91864 
L 356.355464 179.80992 
L 357.045773 180.46224 
L 357.736082 180.89712 
L 358.426392 182.4192 
L 359.80701 182.9628 
L 360.49732 183.07152 
L 361.187629 183.5064 
L 362.568247 184.70232 
L 363.258557 185.02848 
L 365.329485 185.1372 
L 366.019794 185.24592 
L 366.710103 185.1372 
L 368.090722 186.00696 
L 369.47134 186.44184 
L 370.161649 186.33312 
L 370.851959 186.44184 
L 371.542268 186.87672 
L 372.232577 187.52904 
L 372.922887 187.09416 
L 373.613196 187.8552 
L 375.684124 188.72496 
L 376.374433 188.61624 
L 377.064742 188.72496 
L 377.755052 189.486 
L 378.445361 189.37728 
L 379.13567 190.5732 
L 379.825979 190.89936 
L 380.516289 191.6604 
L 381.206598 192.204 
L 381.896907 192.09528 
L 382.587216 192.204 
L 383.277526 193.18248 
L 383.967835 193.18248 
L 384.658144 193.8348 
L 386.038763 193.72608 
L 388.109691 194.05224 
L 388.109691 194.05224 
" style="fill:none;stroke:#ff7f0e;stroke-linecap:square;stroke-width:1.5;"/>
   </g>
   <g id="line2d_33">
    <defs>
     <path d="M 0 1.5 
C 0.397805 1.5 0.77937 1.341951 1.06066 1.06066 
C 1.341951 0.77937 1.5 0.397805 1.5 0 
C 1.5 -0.397805 1.341951 -0.77937 1.06066 -1.06066 
C 0.77937 -1.341951 0.397805 -1.5 0 -1.5 
C -0.397805 -1.5 -0.77937 -1.341951 -1.06066 -1.06066 
C -1.341951 -0.77937 -1.5 -0.397805 -1.5 0 
C -1.5 0.397805 -1.341951 0.77937 -1.06066 1.06066 
C -0.77937 1.341951 -0.397805 1.5 0 1.5 
z
" id="mcb6800faf2" style="stroke:#2ca02c;"/>
    </defs>
    <g clip-path="url(#p3bd92bc417)">
     <use style="fill:#2ca02c;stroke:#2ca02c;" x="200.345567" xlink:href="#mcb6800faf2" y="143.28"/>
    </g>
   </g>
   <g id="line2d_34">
    <defs>
     <path d="M 0 1.5 
C 0.397805 1.5 0.77937 1.341951 1.06066 1.06066 
C 1.341951 0.77937 1.5 0.397805 1.5 0 
C 1.5 -0.397805 1.341951 -0.77937 1.06066 -1.06066 
C 0.77937 -1.341951 0.397805 -1.5 0 -1.5 
C -0.397805 -1.5 -0.77937 -1.341951 -1.06066 -1.06066 
C -1.341951 -0.77937 -1.5 -0.397805 -1.5 0 
C -1.5 0.397805 -1.341951 0.77937 -1.06066 1.06066 
C -0.77937 1.341951 -0.397805 1.5 0 1.5 
z
" id="m6190beb755" style="stroke:#d62728;"/>
    </defs>
    <g clip-path="url(#p3bd92bc417)">
     <use style="fill:#d62728;stroke:#d62728;" x="136.837113" xlink:href="#m6190beb755" y="121.536"/>
    </g>
   </g>
   <g id="line2d_35">
    <defs>
     <path d="M 0 1.5 
C 0.397805 1.5 0.77937 1.341951 1.06066 1.06066 
C 1.341951 0.77937 1.5 0.397805 1.5 0 
C 1.5 -0.397805 1.341951 -0.77937 1.06066 -1.06066 
C 0.77937 -1.341951 0.397805 -1.5 0 -1.5 
C -0.397805 -1.5 -0.77937 -1.341951 -1.06066 -1.06066 
C -1.341951 -0.77937 -1.5 -0.397805 -1.5 0 
C -1.5 0.397805 -1.341951 0.77937 -1.06066 1.06066 
C -0.77937 1.341951 -0.397805 1.5 0 1.5 
z
" id="me4b3e92d39" style="stroke:#9467bd;"/>
    </defs>
    <g clip-path="url(#p3bd92bc417)">
     <use style="fill:#9467bd;stroke:#9467bd;" x="136.837113" xlink:href="#me4b3e92d39" y="99.792"/>
    </g>
   </g>
   <g id="patch_3">
    <path d="M 54 252 
L 54 34.56 
" style="fill:none;stroke:#000000;stroke-linecap:square;stroke-linejoin:miter;stroke-width:0.8;"/>
   </g>
   <g id="patch_4">
    <path d="M 388.8 252 
L 388.8 34.56 
" style="fill:none;stroke:#000000;stroke-linecap:square;stroke-linejoin:miter;stroke-width:0.8;"/>
   </g>
   <g id="patch_5">
    <path d="M 54 252 
L 388.8 252 
" style="fill:none;stroke:#000000;stroke-linecap:square;stroke-linejoin:miter;stroke-width:0.8;"/>
   </g>
   <g id="patch_6">
    <path d="M 54 34.56 
L 388.8 34.56 
" style="fill:none;stroke:#000000;stroke-linecap:square;stroke-linejoin:miter;stroke-width:0.8;"/>
   </g>
   <g id="text_18">
    <!-- t_pzq: 2016-09-01 -->
    <defs>
     <path d="M 50.984375 -16.609375 
L 50.984375 -23.578125 
L -0.984375 -23.578125 
L -0.984375 -16.609375 
z
" id="DejaVuSans-5f"/>
     <path d="M 5.515625 54.6875 
L 48.1875 54.6875 
L 48.1875 46.484375 
L 14.40625 7.171875 
L 48.1875 7.171875 
L 48.1875 0 
L 4.296875 0 
L 4.296875 8.203125 
L 38.09375 47.515625 
L 5.515625 47.515625 
z
" id="DejaVuSans-7a"/>
     <path d="M 14.796875 27.296875 
Q 14.796875 17.390625 18.875 11.75 
Q 22.953125 6.109375 30.078125 6.109375 
Q 37.203125 6.109375 41.296875 11.75 
Q 45.40625 17.390625 45.40625 27.296875 
Q 45.40625 37.203125 41.296875 42.84375 
Q 37.203125 48.484375 30.078125 48.484375 
Q 22.953125 48.484375 18.875 42.84375 
Q 14.796875 37.203125 14.796875 27.296875 
M 45.40625 8.203125 
Q 42.578125 3.328125 38.25 0.953125 
Q 33.9375 -1.421875 27.875 -1.421875 
Q 17.96875 -1.421875 11.734375 6.484375 
Q 5.515625 14.40625 5.515625 27.296875 
Q 5.515625 40.1875 11.734375 48.09375 
Q 17.96875 56 27.875 56 
Q 33.9375 56 38.25 53.625 
Q 42.578125 51.265625 45.40625 46.390625 
L 45.40625 54.6875 
L 54.390625 54.6875 
L 54.390625 -20.796875 
L 45.40625 -20.796875 
z
" id="DejaVuSans-71"/>
     <path d="M 11.71875 12.40625 
L 22.015625 12.40625 
L 22.015625 0 
L 11.71875 0 
z
M 11.71875 51.703125 
L 22.015625 51.703125 
L 22.015625 39.3125 
L 11.71875 39.3125 
z
" id="DejaVuSans-3a"/>
     <path d="M 4.890625 31.390625 
L 31.203125 31.390625 
L 31.203125 23.390625 
L 4.890625 23.390625 
z
" id="DejaVuSans-2d"/>
     <path d="M 10.984375 1.515625 
L 10.984375 10.5 
Q 14.703125 8.734375 18.5 7.8125 
Q 22.3125 6.890625 25.984375 6.890625 
Q 35.75 6.890625 40.890625 13.453125 
Q 46.046875 20.015625 46.78125 33.40625 
Q 43.953125 29.203125 39.59375 26.953125 
Q 35.25 24.703125 29.984375 24.703125 
Q 19.046875 24.703125 12.671875 31.3125 
Q 6.296875 37.9375 6.296875 49.421875 
Q 6.296875 60.640625 12.9375 67.421875 
Q 19.578125 74.21875 30.609375 74.21875 
Q 43.265625 74.21875 49.921875 64.515625 
Q 56.59375 54.828125 56.59375 36.375 
Q 56.59375 19.140625 48.40625 8.859375 
Q 40.234375 -1.421875 26.421875 -1.421875 
Q 22.703125 -1.421875 18.890625 -0.6875 
Q 15.09375 0.046875 10.984375 1.515625 
M 30.609375 32.421875 
Q 37.25 32.421875 41.125 36.953125 
Q 45.015625 41.5 45.015625 49.421875 
Q 45.015625 57.28125 41.125 61.84375 
Q 37.25 66.40625 30.609375 66.40625 
Q 23.96875 66.40625 20.09375 61.84375 
Q 16.21875 57.28125 16.21875 49.421875 
Q 16.21875 41.5 20.09375 36.953125 
Q 23.96875 32.421875 30.609375 32.421875 
" id="DejaVuSans-39"/>
    </defs>
    <g transform="translate(205.593625 205.826341)rotate(-45)scale(0.1 -0.1)">
     <use xlink:href="#DejaVuSans-74"/>
     <use x="39.208984" xlink:href="#DejaVuSans-5f"/>
     <use x="89.208984" xlink:href="#DejaVuSans-70"/>
     <use x="152.685547" xlink:href="#DejaVuSans-7a"/>
     <use x="205.175781" xlink:href="#DejaVuSans-71"/>
     <use x="268.652344" xlink:href="#DejaVuSans-3a"/>
     <use x="302.34375" xlink:href="#DejaVuSans-20"/>
     <use x="334.130859" xlink:href="#DejaVuSans-32"/>
     <use x="397.753906" xlink:href="#DejaVuSans-30"/>
     <use x="461.376953" xlink:href="#DejaVuSans-31"/>
     <use x="525" xlink:href="#DejaVuSans-36"/>
     <use x="588.623047" xlink:href="#DejaVuSans-2d"/>
     <use x="624.707031" xlink:href="#DejaVuSans-30"/>
     <use x="688.330078" xlink:href="#DejaVuSans-39"/>
     <use x="751.953125" xlink:href="#DejaVuSans-2d"/>
     <use x="788.037109" xlink:href="#DejaVuSans-30"/>
     <use x="851.660156" xlink:href="#DejaVuSans-31"/>
    </g>
   </g>
   <g id="text_19">
    <!-- t_net: 2016-06-01 -->
    <g transform="translate(142.085172 182.997374)rotate(-45)scale(0.1 -0.1)">
     <use xlink:href="#DejaVuSans-74"/>
     <use x="39.208984" xlink:href="#DejaVuSans-5f"/>
     <use x="89.208984" xlink:href="#DejaVuSans-6e"/>
     <use x="152.587891" xlink:href="#DejaVuSans-65"/>
     <use x="214.111328" xlink:href="#DejaVuSans-74"/>
     <use x="253.320312" xlink:href="#DejaVuSans-3a"/>
     <use x="287.011719" xlink:href="#DejaVuSans-20"/>
     <use x="318.798828" xlink:href="#DejaVuSans-32"/>
     <use x="382.421875" xlink:href="#DejaVuSans-30"/>
     <use x="446.044922" xlink:href="#DejaVuSans-31"/>
     <use x="509.667969" xlink:href="#DejaVuSans-36"/>
     <use x="573.291016" xlink:href="#DejaVuSans-2d"/>
     <use x="609.375" xlink:href="#DejaVuSans-30"/>
     <use x="672.998047" xlink:href="#DejaVuSans-36"/>
     <use x="736.621094" xlink:href="#DejaVuSans-2d"/>
     <use x="772.705078" xlink:href="#DejaVuSans-30"/>
     <use x="836.328125" xlink:href="#DejaVuSans-31"/>
    </g>
   </g>
   <g id="text_20">
    <!-- t_spray: 2016-06-01 -->
    <defs>
     <path d="M 32.171875 -5.078125 
Q 28.375 -14.84375 24.75 -17.8125 
Q 21.140625 -20.796875 15.09375 -20.796875 
L 7.90625 -20.796875 
L 7.90625 -13.28125 
L 13.1875 -13.28125 
Q 16.890625 -13.28125 18.9375 -11.515625 
Q 21 -9.765625 23.484375 -3.21875 
L 25.09375 0.875 
L 2.984375 54.6875 
L 12.5 54.6875 
L 29.59375 11.921875 
L 46.6875 54.6875 
L 56.203125 54.6875 
z
" id="DejaVuSans-79"/>
    </defs>
    <g transform="translate(142.085172 169.239261)rotate(-45)scale(0.1 -0.1)">
     <use xlink:href="#DejaVuSans-74"/>
     <use x="39.208984" xlink:href="#DejaVuSans-5f"/>
     <use x="89.208984" xlink:href="#DejaVuSans-73"/>
     <use x="141.308594" xlink:href="#DejaVuSans-70"/>
     <use x="204.785156" xlink:href="#DejaVuSans-72"/>
     <use x="245.898438" xlink:href="#DejaVuSans-61"/>
     <use x="307.177734" xlink:href="#DejaVuSans-79"/>
     <use x="366.248047" xlink:href="#DejaVuSans-3a"/>
     <use x="399.939453" xlink:href="#DejaVuSans-20"/>
     <use x="431.726562" xlink:href="#DejaVuSans-32"/>
     <use x="495.349609" xlink:href="#DejaVuSans-30"/>
     <use x="558.972656" xlink:href="#DejaVuSans-31"/>
     <use x="622.595703" xlink:href="#DejaVuSans-36"/>
     <use x="686.21875" xlink:href="#DejaVuSans-2d"/>
     <use x="722.302734" xlink:href="#DejaVuSans-30"/>
     <use x="785.925781" xlink:href="#DejaVuSans-36"/>
     <use x="849.548828" xlink:href="#DejaVuSans-2d"/>
     <use x="885.632812" xlink:href="#DejaVuSans-30"/>
     <use x="949.255859" xlink:href="#DejaVuSans-31"/>
    </g>
   </g>
   <g id="text_21">
    <!-- Disease Prevalence vs. Time (months) for All, without Integration -->
    <defs>
     <path d="M 19.671875 64.796875 
L 19.671875 8.109375 
L 31.59375 8.109375 
Q 46.6875 8.109375 53.6875 14.9375 
Q 60.6875 21.78125 60.6875 36.53125 
Q 60.6875 51.171875 53.6875 57.984375 
Q 46.6875 64.796875 31.59375 64.796875 
z
M 9.8125 72.90625 
L 30.078125 72.90625 
Q 51.265625 72.90625 61.171875 64.09375 
Q 71.09375 55.28125 71.09375 36.53125 
Q 71.09375 17.671875 61.125 8.828125 
Q 51.171875 0 30.078125 0 
L 9.8125 0 
z
" id="DejaVuSans-44"/>
     <path d="M 34.1875 63.1875 
L 20.796875 26.90625 
L 47.609375 26.90625 
z
M 28.609375 72.90625 
L 39.796875 72.90625 
L 67.578125 0 
L 57.328125 0 
L 50.6875 18.703125 
L 17.828125 18.703125 
L 11.1875 0 
L 0.78125 0 
z
" id="DejaVuSans-41"/>
     <path d="M 11.71875 12.40625 
L 22.015625 12.40625 
L 22.015625 4 
L 14.015625 -11.625 
L 7.71875 -11.625 
L 11.71875 4 
z
" id="DejaVuSans-2c"/>
     <path d="M 4.203125 54.6875 
L 13.1875 54.6875 
L 24.421875 12.015625 
L 35.59375 54.6875 
L 46.1875 54.6875 
L 57.421875 12.015625 
L 68.609375 54.6875 
L 77.59375 54.6875 
L 63.28125 0 
L 52.6875 0 
L 40.921875 44.828125 
L 29.109375 0 
L 18.5 0 
z
" id="DejaVuSans-77"/>
     <path d="M 9.8125 72.90625 
L 19.671875 72.90625 
L 19.671875 0 
L 9.8125 0 
z
" id="DejaVuSans-49"/>
     <path d="M 45.40625 27.984375 
Q 45.40625 37.75 41.375 43.109375 
Q 37.359375 48.484375 30.078125 48.484375 
Q 22.859375 48.484375 18.828125 43.109375 
Q 14.796875 37.75 14.796875 27.984375 
Q 14.796875 18.265625 18.828125 12.890625 
Q 22.859375 7.515625 30.078125 7.515625 
Q 37.359375 7.515625 41.375 12.890625 
Q 45.40625 18.265625 45.40625 27.984375 
M 54.390625 6.78125 
Q 54.390625 -7.171875 48.1875 -13.984375 
Q 42 -20.796875 29.203125 -20.796875 
Q 24.46875 -20.796875 20.265625 -20.09375 
Q 16.0625 -19.390625 12.109375 -17.921875 
L 12.109375 -9.1875 
Q 16.0625 -11.328125 19.921875 -12.34375 
Q 23.78125 -13.375 27.78125 -13.375 
Q 36.625 -13.375 41.015625 -8.765625 
Q 45.40625 -4.15625 45.40625 5.171875 
L 45.40625 9.625 
Q 42.625 4.78125 38.28125 2.390625 
Q 33.9375 0 27.875 0 
Q 17.828125 0 11.671875 7.65625 
Q 5.515625 15.328125 5.515625 27.984375 
Q 5.515625 40.671875 11.671875 48.328125 
Q 17.828125 56 27.875 56 
Q 33.9375 56 38.28125 53.609375 
Q 42.625 51.21875 45.40625 46.390625 
L 45.40625 54.6875 
L 54.390625 54.6875 
z
" id="DejaVuSans-67"/>
    </defs>
    <g transform="translate(25.452188 28.56)scale(0.12 -0.12)">
     <use xlink:href="#DejaVuSans-44"/>
     <use x="77.001953" xlink:href="#DejaVuSans-69"/>
     <use x="104.785156" xlink:href="#DejaVuSans-73"/>
     <use x="156.884766" xlink:href="#DejaVuSans-65"/>
     <use x="218.408203" xlink:href="#DejaVuSans-61"/>
     <use x="279.6875" xlink:href="#DejaVuSans-73"/>
     <use x="331.787109" xlink:href="#DejaVuSans-65"/>
     <use x="393.310547" xlink:href="#DejaVuSans-20"/>
     <use x="425.097656" xlink:href="#DejaVuSans-50"/>
     <use x="485.384766" xlink:href="#DejaVuSans-72"/>
     <use x="526.466797" xlink:href="#DejaVuSans-65"/>
     <use x="587.990234" xlink:href="#DejaVuSans-76"/>
     <use x="647.169922" xlink:href="#DejaVuSans-61"/>
     <use x="708.449219" xlink:href="#DejaVuSans-6c"/>
     <use x="736.232422" xlink:href="#DejaVuSans-65"/>
     <use x="797.755859" xlink:href="#DejaVuSans-6e"/>
     <use x="861.134766" xlink:href="#DejaVuSans-63"/>
     <use x="916.115234" xlink:href="#DejaVuSans-65"/>
     <use x="977.638672" xlink:href="#DejaVuSans-20"/>
     <use x="1009.425781" xlink:href="#DejaVuSans-76"/>
     <use x="1068.605469" xlink:href="#DejaVuSans-73"/>
     <use x="1120.705078" xlink:href="#DejaVuSans-2e"/>
     <use x="1152.492188" xlink:href="#DejaVuSans-20"/>
     <use x="1184.279297" xlink:href="#DejaVuSans-54"/>
     <use x="1245.316406" xlink:href="#DejaVuSans-69"/>
     <use x="1273.099609" xlink:href="#DejaVuSans-6d"/>
     <use x="1370.511719" xlink:href="#DejaVuSans-65"/>
     <use x="1432.035156" xlink:href="#DejaVuSans-20"/>
     <use x="1463.822266" xlink:href="#DejaVuSans-28"/>
     <use x="1502.835938" xlink:href="#DejaVuSans-6d"/>
     <use x="1600.248047" xlink:href="#DejaVuSans-6f"/>
     <use x="1661.429688" xlink:href="#DejaVuSans-6e"/>
     <use x="1724.808594" xlink:href="#DejaVuSans-74"/>
     <use x="1764.017578" xlink:href="#DejaVuSans-68"/>
     <use x="1827.396484" xlink:href="#DejaVuSans-73"/>
     <use x="1879.496094" xlink:href="#DejaVuSans-29"/>
     <use x="1918.509766" xlink:href="#DejaVuSans-20"/>
     <use x="1950.296875" xlink:href="#DejaVuSans-66"/>
     <use x="1985.501953" xlink:href="#DejaVuSans-6f"/>
     <use x="2046.683594" xlink:href="#DejaVuSans-72"/>
     <use x="2087.796875" xlink:href="#DejaVuSans-20"/>
     <use x="2119.583984" xlink:href="#DejaVuSans-41"/>
     <use x="2187.992188" xlink:href="#DejaVuSans-6c"/>
     <use x="2215.775391" xlink:href="#DejaVuSans-6c"/>
     <use x="2243.558594" xlink:href="#DejaVuSans-2c"/>
     <use x="2275.345703" xlink:href="#DejaVuSans-20"/>
     <use x="2307.132812" xlink:href="#DejaVuSans-77"/>
     <use x="2388.919922" xlink:href="#DejaVuSans-69"/>
     <use x="2416.703125" xlink:href="#DejaVuSans-74"/>
     <use x="2455.912109" xlink:href="#DejaVuSans-68"/>
     <use x="2519.291016" xlink:href="#DejaVuSans-6f"/>
     <use x="2580.472656" xlink:href="#DejaVuSans-75"/>
     <use x="2643.851562" xlink:href="#DejaVuSans-74"/>
     <use x="2683.060547" xlink:href="#DejaVuSans-20"/>
     <use x="2714.847656" xlink:href="#DejaVuSans-49"/>
     <use x="2744.339844" xlink:href="#DejaVuSans-6e"/>
     <use x="2807.71875" xlink:href="#DejaVuSans-74"/>
     <use x="2846.927734" xlink:href="#DejaVuSans-65"/>
     <use x="2908.451172" xlink:href="#DejaVuSans-67"/>
     <use x="2971.927734" xlink:href="#DejaVuSans-72"/>
     <use x="3013.041016" xlink:href="#DejaVuSans-61"/>
     <use x="3074.320312" xlink:href="#DejaVuSans-74"/>
     <use x="3113.529297" xlink:href="#DejaVuSans-69"/>
     <use x="3141.3125" xlink:href="#DejaVuSans-6f"/>
     <use x="3202.494141" xlink:href="#DejaVuSans-6e"/>
    </g>
   </g>
   <g id="legend_1">
    <g id="patch_7">
     <path d="M 270.417188 71.91625 
L 381.8 71.91625 
Q 383.8 71.91625 383.8 69.91625 
L 383.8 41.56 
Q 383.8 39.56 381.8 39.56 
L 270.417188 39.56 
Q 268.417188 39.56 268.417188 41.56 
L 268.417188 69.91625 
Q 268.417188 71.91625 270.417188 71.91625 
z
" style="fill:#ffffff;opacity:0.8;stroke:#cccccc;stroke-linejoin:miter;"/>
    </g>
    <g id="line2d_36">
     <path d="M 272.417188 47.658437 
L 292.417188 47.658437 
" style="fill:none;stroke:#1f77b4;stroke-linecap:square;stroke-width:1.5;"/>
    </g>
    <g id="line2d_37"/>
    <g id="text_22">
     <!-- Schistosomiasis -->
     <defs>
      <path d="M 53.515625 70.515625 
L 53.515625 60.890625 
Q 47.90625 63.578125 42.921875 64.890625 
Q 37.9375 66.21875 33.296875 66.21875 
Q 25.25 66.21875 20.875 63.09375 
Q 16.5 59.96875 16.5 54.203125 
Q 16.5 49.359375 19.40625 46.890625 
Q 22.3125 44.4375 30.421875 42.921875 
L 36.375 41.703125 
Q 47.40625 39.59375 52.65625 34.296875 
Q 57.90625 29 57.90625 20.125 
Q 57.90625 9.515625 50.796875 4.046875 
Q 43.703125 -1.421875 29.984375 -1.421875 
Q 24.8125 -1.421875 18.96875 -0.25 
Q 13.140625 0.921875 6.890625 3.21875 
L 6.890625 13.375 
Q 12.890625 10.015625 18.65625 8.296875 
Q 24.421875 6.59375 29.984375 6.59375 
Q 38.421875 6.59375 43.015625 9.90625 
Q 47.609375 13.234375 47.609375 19.390625 
Q 47.609375 24.75 44.3125 27.78125 
Q 41.015625 30.8125 33.5 32.328125 
L 27.484375 33.5 
Q 16.453125 35.6875 11.515625 40.375 
Q 6.59375 45.0625 6.59375 53.421875 
Q 6.59375 63.09375 13.40625 68.65625 
Q 20.21875 74.21875 32.171875 74.21875 
Q 37.3125 74.21875 42.625 73.28125 
Q 47.953125 72.359375 53.515625 70.515625 
" id="DejaVuSans-53"/>
     </defs>
     <g transform="translate(300.417188 51.158437)scale(0.1 -0.1)">
      <use xlink:href="#DejaVuSans-53"/>
      <use x="63.476562" xlink:href="#DejaVuSans-63"/>
      <use x="118.457031" xlink:href="#DejaVuSans-68"/>
      <use x="181.835938" xlink:href="#DejaVuSans-69"/>
      <use x="209.619141" xlink:href="#DejaVuSans-73"/>
      <use x="261.71875" xlink:href="#DejaVuSans-74"/>
      <use x="300.927734" xlink:href="#DejaVuSans-6f"/>
      <use x="362.109375" xlink:href="#DejaVuSans-73"/>
      <use x="414.208984" xlink:href="#DejaVuSans-6f"/>
      <use x="475.390625" xlink:href="#DejaVuSans-6d"/>
      <use x="572.802734" xlink:href="#DejaVuSans-69"/>
      <use x="600.585938" xlink:href="#DejaVuSans-61"/>
      <use x="661.865234" xlink:href="#DejaVuSans-73"/>
      <use x="713.964844" xlink:href="#DejaVuSans-69"/>
      <use x="741.748047" xlink:href="#DejaVuSans-73"/>
     </g>
    </g>
    <g id="line2d_38">
     <path d="M 272.417188 62.336562 
L 292.417188 62.336562 
" style="fill:none;stroke:#ff7f0e;stroke-linecap:square;stroke-width:1.5;"/>
    </g>
    <g id="line2d_39"/>
    <g id="text_23">
     <!-- Malaria -->
     <defs>
      <path d="M 9.8125 72.90625 
L 24.515625 72.90625 
L 43.109375 23.296875 
L 61.8125 72.90625 
L 76.515625 72.90625 
L 76.515625 0 
L 66.890625 0 
L 66.890625 64.015625 
L 48.09375 14.015625 
L 38.1875 14.015625 
L 19.390625 64.015625 
L 19.390625 0 
L 9.8125 0 
z
" id="DejaVuSans-4d"/>
     </defs>
     <g transform="translate(300.417188 65.836562)scale(0.1 -0.1)">
      <use xlink:href="#DejaVuSans-4d"/>
      <use x="86.279297" xlink:href="#DejaVuSans-61"/>
      <use x="147.558594" xlink:href="#DejaVuSans-6c"/>
      <use x="175.341797" xlink:href="#DejaVuSans-61"/>
      <use x="236.621094" xlink:href="#DejaVuSans-72"/>
      <use x="277.734375" xlink:href="#DejaVuSans-69"/>
      <use x="305.517578" xlink:href="#DejaVuSans-61"/>
     </g>
    </g>
   </g>
  </g>
 </g>
 <defs>
  <clipPath id="p3bd92bc417">
   <rect height="217.44" width="334.8" x="54" y="34.56"/>
  </clipPath>
 </defs>
</svg>
