<?xml version="1.0" encoding="utf-8" standalone="no"?>
<!DOCTYPE svg PUBLIC "-//W3C//DTD SVG 1.1//EN"
  "http://www.w3.org/Graphics/SVG/1.1/DTD/svg11.dtd">
<!-- Created with matplotlib (http://matplotlib.org/) -->
<svg height="288pt" version="1.1" viewBox="0 0 432 288" width="432pt" xmlns="http://www.w3.org/2000/svg" xmlns:xlink="http://www.w3.org/1999/xlink">
 <defs>
  <style type="text/css">
*{stroke-linecap:butt;stroke-linejoin:round;}
  </style>
 </defs>
 <g id="figure_1">
  <g id="patch_1">
   <path d="M 0 288 
L 432 288 
L 432 0 
L 0 0 
z
" style="fill:#ffffff;"/>
  </g>
  <g id="axes_1">
   <g id="patch_2">
    <path d="M 54 252 
L 388.8 252 
L 388.8 34.56 
L 54 34.56 
z
" style="fill:#ffffff;"/>
   </g>
   <g id="matplotlib.axis_1">
    <g id="xtick_1">
     <g id="line2d_1">
      <path clip-path="url(#p19489bf79a)" d="M 54 252 
L 54 34.56 
" style="fill:none;stroke:#b0b0b0;stroke-linecap:square;stroke-width:0.8;"/>
     </g>
     <g id="line2d_2">
      <defs>
       <path d="M 0 0 
L 0 3.5 
" id="mda212a31ae" style="stroke:#000000;stroke-width:0.8;"/>
      </defs>
      <g>
       <use style="stroke:#000000;stroke-width:0.8;" x="54" xlink:href="#mda212a31ae" y="252"/>
      </g>
     </g>
     <g id="text_1">
      <!-- −4 -->
      <defs>
       <path d="M 10.59375 35.5 
L 73.1875 35.5 
L 73.1875 27.203125 
L 10.59375 27.203125 
z
" id="DejaVuSans-2212"/>
       <path d="M 37.796875 64.3125 
L 12.890625 25.390625 
L 37.796875 25.390625 
z
M 35.203125 72.90625 
L 47.609375 72.90625 
L 47.609375 25.390625 
L 58.015625 25.390625 
L 58.015625 17.1875 
L 47.609375 17.1875 
L 47.609375 0 
L 37.796875 0 
L 37.796875 17.1875 
L 4.890625 17.1875 
L 4.890625 26.703125 
z
" id="DejaVuSans-34"/>
      </defs>
      <g transform="translate(46.628906 266.598437)scale(0.1 -0.1)">
       <use xlink:href="#DejaVuSans-2212"/>
       <use x="83.789062" xlink:href="#DejaVuSans-34"/>
      </g>
     </g>
    </g>
    <g id="xtick_2">
     <g id="line2d_3">
      <path clip-path="url(#p19489bf79a)" d="M 95.418557 252 
L 95.418557 34.56 
" style="fill:none;stroke:#b0b0b0;stroke-linecap:square;stroke-width:0.8;"/>
     </g>
     <g id="line2d_4">
      <g>
       <use style="stroke:#000000;stroke-width:0.8;" x="95.418557" xlink:href="#mda212a31ae" y="252"/>
      </g>
     </g>
     <g id="text_2">
      <!-- −2 -->
      <defs>
       <path d="M 19.1875 8.296875 
L 53.609375 8.296875 
L 53.609375 0 
L 7.328125 0 
L 7.328125 8.296875 
Q 12.9375 14.109375 22.625 23.890625 
Q 32.328125 33.6875 34.8125 36.53125 
Q 39.546875 41.84375 41.421875 45.53125 
Q 43.3125 49.21875 43.3125 52.78125 
Q 43.3125 58.59375 39.234375 62.25 
Q 35.15625 65.921875 28.609375 65.921875 
Q 23.96875 65.921875 18.8125 64.3125 
Q 13.671875 62.703125 7.8125 59.421875 
L 7.8125 69.390625 
Q 13.765625 71.78125 18.9375 73 
Q 24.125 74.21875 28.421875 74.21875 
Q 39.75 74.21875 46.484375 68.546875 
Q 53.21875 62.890625 53.21875 53.421875 
Q 53.21875 48.921875 51.53125 44.890625 
Q 49.859375 40.875 45.40625 35.40625 
Q 44.1875 33.984375 37.640625 27.21875 
Q 31.109375 20.453125 19.1875 8.296875 
" id="DejaVuSans-32"/>
      </defs>
      <g transform="translate(88.047463 266.598437)scale(0.1 -0.1)">
       <use xlink:href="#DejaVuSans-2212"/>
       <use x="83.789062" xlink:href="#DejaVuSans-32"/>
      </g>
     </g>
    </g>
    <g id="xtick_3">
     <g id="line2d_5">
      <path clip-path="url(#p19489bf79a)" d="M 136.837113 252 
L 136.837113 34.56 
" style="fill:none;stroke:#b0b0b0;stroke-linecap:square;stroke-width:0.8;"/>
     </g>
     <g id="line2d_6">
      <g>
       <use style="stroke:#000000;stroke-width:0.8;" x="136.837113" xlink:href="#mda212a31ae" y="252"/>
      </g>
     </g>
     <g id="text_3">
      <!-- 0 -->
      <defs>
       <path d="M 31.78125 66.40625 
Q 24.171875 66.40625 20.328125 58.90625 
Q 16.5 51.421875 16.5 36.375 
Q 16.5 21.390625 20.328125 13.890625 
Q 24.171875 6.390625 31.78125 6.390625 
Q 39.453125 6.390625 43.28125 13.890625 
Q 47.125 21.390625 47.125 36.375 
Q 47.125 51.421875 43.28125 58.90625 
Q 39.453125 66.40625 31.78125 66.40625 
M 31.78125 74.21875 
Q 44.046875 74.21875 50.515625 64.515625 
Q 56.984375 54.828125 56.984375 36.375 
Q 56.984375 17.96875 50.515625 8.265625 
Q 44.046875 -1.421875 31.78125 -1.421875 
Q 19.53125 -1.421875 13.0625 8.265625 
Q 6.59375 17.96875 6.59375 36.375 
Q 6.59375 54.828125 13.0625 64.515625 
Q 19.53125 74.21875 31.78125 74.21875 
" id="DejaVuSans-30"/>
      </defs>
      <g transform="translate(133.655863 266.598437)scale(0.1 -0.1)">
       <use xlink:href="#DejaVuSans-30"/>
      </g>
     </g>
    </g>
    <g id="xtick_4">
     <g id="line2d_7">
      <path clip-path="url(#p19489bf79a)" d="M 178.25567 252 
L 178.25567 34.56 
" style="fill:none;stroke:#b0b0b0;stroke-linecap:square;stroke-width:0.8;"/>
     </g>
     <g id="line2d_8">
      <g>
       <use style="stroke:#000000;stroke-width:0.8;" x="178.25567" xlink:href="#mda212a31ae" y="252"/>
      </g>
     </g>
     <g id="text_4">
      <!-- 2 -->
      <g transform="translate(175.07442 266.598437)scale(0.1 -0.1)">
       <use xlink:href="#DejaVuSans-32"/>
      </g>
     </g>
    </g>
    <g id="xtick_5">
     <g id="line2d_9">
      <path clip-path="url(#p19489bf79a)" d="M 219.674227 252 
L 219.674227 34.56 
" style="fill:none;stroke:#b0b0b0;stroke-linecap:square;stroke-width:0.8;"/>
     </g>
     <g id="line2d_10">
      <g>
       <use style="stroke:#000000;stroke-width:0.8;" x="219.674227" xlink:href="#mda212a31ae" y="252"/>
      </g>
     </g>
     <g id="text_5">
      <!-- 4 -->
      <g transform="translate(216.492977 266.598437)scale(0.1 -0.1)">
       <use xlink:href="#DejaVuSans-34"/>
      </g>
     </g>
    </g>
    <g id="xtick_6">
     <g id="line2d_11">
      <path clip-path="url(#p19489bf79a)" d="M 261.092784 252 
L 261.092784 34.56 
" style="fill:none;stroke:#b0b0b0;stroke-linecap:square;stroke-width:0.8;"/>
     </g>
     <g id="line2d_12">
      <g>
       <use style="stroke:#000000;stroke-width:0.8;" x="261.092784" xlink:href="#mda212a31ae" y="252"/>
      </g>
     </g>
     <g id="text_6">
      <!-- 6 -->
      <defs>
       <path d="M 33.015625 40.375 
Q 26.375 40.375 22.484375 35.828125 
Q 18.609375 31.296875 18.609375 23.390625 
Q 18.609375 15.53125 22.484375 10.953125 
Q 26.375 6.390625 33.015625 6.390625 
Q 39.65625 6.390625 43.53125 10.953125 
Q 47.40625 15.53125 47.40625 23.390625 
Q 47.40625 31.296875 43.53125 35.828125 
Q 39.65625 40.375 33.015625 40.375 
M 52.59375 71.296875 
L 52.59375 62.3125 
Q 48.875 64.0625 45.09375 64.984375 
Q 41.3125 65.921875 37.59375 65.921875 
Q 27.828125 65.921875 22.671875 59.328125 
Q 17.53125 52.734375 16.796875 39.40625 
Q 19.671875 43.65625 24.015625 45.921875 
Q 28.375 48.1875 33.59375 48.1875 
Q 44.578125 48.1875 50.953125 41.515625 
Q 57.328125 34.859375 57.328125 23.390625 
Q 57.328125 12.15625 50.6875 5.359375 
Q 44.046875 -1.421875 33.015625 -1.421875 
Q 20.359375 -1.421875 13.671875 8.265625 
Q 6.984375 17.96875 6.984375 36.375 
Q 6.984375 53.65625 15.1875 63.9375 
Q 23.390625 74.21875 37.203125 74.21875 
Q 40.921875 74.21875 44.703125 73.484375 
Q 48.484375 72.75 52.59375 71.296875 
" id="DejaVuSans-36"/>
      </defs>
      <g transform="translate(257.911534 266.598437)scale(0.1 -0.1)">
       <use xlink:href="#DejaVuSans-36"/>
      </g>
     </g>
    </g>
    <g id="xtick_7">
     <g id="line2d_13">
      <path clip-path="url(#p19489bf79a)" d="M 302.51134 252 
L 302.51134 34.56 
" style="fill:none;stroke:#b0b0b0;stroke-linecap:square;stroke-width:0.8;"/>
     </g>
     <g id="line2d_14">
      <g>
       <use style="stroke:#000000;stroke-width:0.8;" x="302.51134" xlink:href="#mda212a31ae" y="252"/>
      </g>
     </g>
     <g id="text_7">
      <!-- 8 -->
      <defs>
       <path d="M 31.78125 34.625 
Q 24.75 34.625 20.71875 30.859375 
Q 16.703125 27.09375 16.703125 20.515625 
Q 16.703125 13.921875 20.71875 10.15625 
Q 24.75 6.390625 31.78125 6.390625 
Q 38.8125 6.390625 42.859375 10.171875 
Q 46.921875 13.96875 46.921875 20.515625 
Q 46.921875 27.09375 42.890625 30.859375 
Q 38.875 34.625 31.78125 34.625 
M 21.921875 38.8125 
Q 15.578125 40.375 12.03125 44.71875 
Q 8.5 49.078125 8.5 55.328125 
Q 8.5 64.0625 14.71875 69.140625 
Q 20.953125 74.21875 31.78125 74.21875 
Q 42.671875 74.21875 48.875 69.140625 
Q 55.078125 64.0625 55.078125 55.328125 
Q 55.078125 49.078125 51.53125 44.71875 
Q 48 40.375 41.703125 38.8125 
Q 48.828125 37.15625 52.796875 32.3125 
Q 56.78125 27.484375 56.78125 20.515625 
Q 56.78125 9.90625 50.3125 4.234375 
Q 43.84375 -1.421875 31.78125 -1.421875 
Q 19.734375 -1.421875 13.25 4.234375 
Q 6.78125 9.90625 6.78125 20.515625 
Q 6.78125 27.484375 10.78125 32.3125 
Q 14.796875 37.15625 21.921875 38.8125 
M 18.3125 54.390625 
Q 18.3125 48.734375 21.84375 45.5625 
Q 25.390625 42.390625 31.78125 42.390625 
Q 38.140625 42.390625 41.71875 45.5625 
Q 45.3125 48.734375 45.3125 54.390625 
Q 45.3125 60.0625 41.71875 63.234375 
Q 38.140625 66.40625 31.78125 66.40625 
Q 25.390625 66.40625 21.84375 63.234375 
Q 18.3125 60.0625 18.3125 54.390625 
" id="DejaVuSans-38"/>
      </defs>
      <g transform="translate(299.33009 266.598437)scale(0.1 -0.1)">
       <use xlink:href="#DejaVuSans-38"/>
      </g>
     </g>
    </g>
    <g id="xtick_8">
     <g id="line2d_15">
      <path clip-path="url(#p19489bf79a)" d="M 343.929897 252 
L 343.929897 34.56 
" style="fill:none;stroke:#b0b0b0;stroke-linecap:square;stroke-width:0.8;"/>
     </g>
     <g id="line2d_16">
      <g>
       <use style="stroke:#000000;stroke-width:0.8;" x="343.929897" xlink:href="#mda212a31ae" y="252"/>
      </g>
     </g>
     <g id="text_8">
      <!-- 10 -->
      <defs>
       <path d="M 12.40625 8.296875 
L 28.515625 8.296875 
L 28.515625 63.921875 
L 10.984375 60.40625 
L 10.984375 69.390625 
L 28.421875 72.90625 
L 38.28125 72.90625 
L 38.28125 8.296875 
L 54.390625 8.296875 
L 54.390625 0 
L 12.40625 0 
z
" id="DejaVuSans-31"/>
      </defs>
      <g transform="translate(337.567397 266.598437)scale(0.1 -0.1)">
       <use xlink:href="#DejaVuSans-31"/>
       <use x="63.623047" xlink:href="#DejaVuSans-30"/>
      </g>
     </g>
    </g>
    <g id="xtick_9">
     <g id="line2d_17">
      <path clip-path="url(#p19489bf79a)" d="M 385.348454 252 
L 385.348454 34.56 
" style="fill:none;stroke:#b0b0b0;stroke-linecap:square;stroke-width:0.8;"/>
     </g>
     <g id="line2d_18">
      <g>
       <use style="stroke:#000000;stroke-width:0.8;" x="385.348454" xlink:href="#mda212a31ae" y="252"/>
      </g>
     </g>
     <g id="text_9">
      <!-- 12 -->
      <g transform="translate(378.985954 266.598437)scale(0.1 -0.1)">
       <use xlink:href="#DejaVuSans-31"/>
       <use x="63.623047" xlink:href="#DejaVuSans-32"/>
      </g>
     </g>
    </g>
    <g id="text_10">
     <!-- Time (months) -->
     <defs>
      <path d="M -0.296875 72.90625 
L 61.375 72.90625 
L 61.375 64.59375 
L 35.5 64.59375 
L 35.5 0 
L 25.59375 0 
L 25.59375 64.59375 
L -0.296875 64.59375 
z
" id="DejaVuSans-54"/>
      <path d="M 9.421875 54.6875 
L 18.40625 54.6875 
L 18.40625 0 
L 9.421875 0 
z
M 9.421875 75.984375 
L 18.40625 75.984375 
L 18.40625 64.59375 
L 9.421875 64.59375 
z
" id="DejaVuSans-69"/>
      <path d="M 52 44.1875 
Q 55.375 50.25 60.0625 53.125 
Q 64.75 56 71.09375 56 
Q 79.640625 56 84.28125 50.015625 
Q 88.921875 44.046875 88.921875 33.015625 
L 88.921875 0 
L 79.890625 0 
L 79.890625 32.71875 
Q 79.890625 40.578125 77.09375 44.375 
Q 74.3125 48.1875 68.609375 48.1875 
Q 61.625 48.1875 57.5625 43.546875 
Q 53.515625 38.921875 53.515625 30.90625 
L 53.515625 0 
L 44.484375 0 
L 44.484375 32.71875 
Q 44.484375 40.625 41.703125 44.40625 
Q 38.921875 48.1875 33.109375 48.1875 
Q 26.21875 48.1875 22.15625 43.53125 
Q 18.109375 38.875 18.109375 30.90625 
L 18.109375 0 
L 9.078125 0 
L 9.078125 54.6875 
L 18.109375 54.6875 
L 18.109375 46.1875 
Q 21.1875 51.21875 25.484375 53.609375 
Q 29.78125 56 35.6875 56 
Q 41.65625 56 45.828125 52.96875 
Q 50 49.953125 52 44.1875 
" id="DejaVuSans-6d"/>
      <path d="M 56.203125 29.59375 
L 56.203125 25.203125 
L 14.890625 25.203125 
Q 15.484375 15.921875 20.484375 11.0625 
Q 25.484375 6.203125 34.421875 6.203125 
Q 39.59375 6.203125 44.453125 7.46875 
Q 49.3125 8.734375 54.109375 11.28125 
L 54.109375 2.78125 
Q 49.265625 0.734375 44.1875 -0.34375 
Q 39.109375 -1.421875 33.890625 -1.421875 
Q 20.796875 -1.421875 13.15625 6.1875 
Q 5.515625 13.8125 5.515625 26.8125 
Q 5.515625 40.234375 12.765625 48.109375 
Q 20.015625 56 32.328125 56 
Q 43.359375 56 49.78125 48.890625 
Q 56.203125 41.796875 56.203125 29.59375 
M 47.21875 32.234375 
Q 47.125 39.59375 43.09375 43.984375 
Q 39.0625 48.390625 32.421875 48.390625 
Q 24.90625 48.390625 20.390625 44.140625 
Q 15.875 39.890625 15.1875 32.171875 
z
" id="DejaVuSans-65"/>
      <path id="DejaVuSans-20"/>
      <path d="M 31 75.875 
Q 24.46875 64.65625 21.28125 53.65625 
Q 18.109375 42.671875 18.109375 31.390625 
Q 18.109375 20.125 21.3125 9.0625 
Q 24.515625 -2 31 -13.1875 
L 23.1875 -13.1875 
Q 15.875 -1.703125 12.234375 9.375 
Q 8.59375 20.453125 8.59375 31.390625 
Q 8.59375 42.28125 12.203125 53.3125 
Q 15.828125 64.359375 23.1875 75.875 
z
" id="DejaVuSans-28"/>
      <path d="M 30.609375 48.390625 
Q 23.390625 48.390625 19.1875 42.75 
Q 14.984375 37.109375 14.984375 27.296875 
Q 14.984375 17.484375 19.15625 11.84375 
Q 23.34375 6.203125 30.609375 6.203125 
Q 37.796875 6.203125 41.984375 11.859375 
Q 46.1875 17.53125 46.1875 27.296875 
Q 46.1875 37.015625 41.984375 42.703125 
Q 37.796875 48.390625 30.609375 48.390625 
M 30.609375 56 
Q 42.328125 56 49.015625 48.375 
Q 55.71875 40.765625 55.71875 27.296875 
Q 55.71875 13.875 49.015625 6.21875 
Q 42.328125 -1.421875 30.609375 -1.421875 
Q 18.84375 -1.421875 12.171875 6.21875 
Q 5.515625 13.875 5.515625 27.296875 
Q 5.515625 40.765625 12.171875 48.375 
Q 18.84375 56 30.609375 56 
" id="DejaVuSans-6f"/>
      <path d="M 54.890625 33.015625 
L 54.890625 0 
L 45.90625 0 
L 45.90625 32.71875 
Q 45.90625 40.484375 42.875 44.328125 
Q 39.84375 48.1875 33.796875 48.1875 
Q 26.515625 48.1875 22.3125 43.546875 
Q 18.109375 38.921875 18.109375 30.90625 
L 18.109375 0 
L 9.078125 0 
L 9.078125 54.6875 
L 18.109375 54.6875 
L 18.109375 46.1875 
Q 21.34375 51.125 25.703125 53.5625 
Q 30.078125 56 35.796875 56 
Q 45.21875 56 50.046875 50.171875 
Q 54.890625 44.34375 54.890625 33.015625 
" id="DejaVuSans-6e"/>
      <path d="M 18.3125 70.21875 
L 18.3125 54.6875 
L 36.8125 54.6875 
L 36.8125 47.703125 
L 18.3125 47.703125 
L 18.3125 18.015625 
Q 18.3125 11.328125 20.140625 9.421875 
Q 21.96875 7.515625 27.59375 7.515625 
L 36.8125 7.515625 
L 36.8125 0 
L 27.59375 0 
Q 17.1875 0 13.234375 3.875 
Q 9.28125 7.765625 9.28125 18.015625 
L 9.28125 47.703125 
L 2.6875 47.703125 
L 2.6875 54.6875 
L 9.28125 54.6875 
L 9.28125 70.21875 
z
" id="DejaVuSans-74"/>
      <path d="M 54.890625 33.015625 
L 54.890625 0 
L 45.90625 0 
L 45.90625 32.71875 
Q 45.90625 40.484375 42.875 44.328125 
Q 39.84375 48.1875 33.796875 48.1875 
Q 26.515625 48.1875 22.3125 43.546875 
Q 18.109375 38.921875 18.109375 30.90625 
L 18.109375 0 
L 9.078125 0 
L 9.078125 75.984375 
L 18.109375 75.984375 
L 18.109375 46.1875 
Q 21.34375 51.125 25.703125 53.5625 
Q 30.078125 56 35.796875 56 
Q 45.21875 56 50.046875 50.171875 
Q 54.890625 44.34375 54.890625 33.015625 
" id="DejaVuSans-68"/>
      <path d="M 44.28125 53.078125 
L 44.28125 44.578125 
Q 40.484375 46.53125 36.375 47.5 
Q 32.28125 48.484375 27.875 48.484375 
Q 21.1875 48.484375 17.84375 46.4375 
Q 14.5 44.390625 14.5 40.28125 
Q 14.5 37.15625 16.890625 35.375 
Q 19.28125 33.59375 26.515625 31.984375 
L 29.59375 31.296875 
Q 39.15625 29.25 43.1875 25.515625 
Q 47.21875 21.78125 47.21875 15.09375 
Q 47.21875 7.46875 41.1875 3.015625 
Q 35.15625 -1.421875 24.609375 -1.421875 
Q 20.21875 -1.421875 15.453125 -0.5625 
Q 10.6875 0.296875 5.421875 2 
L 5.421875 11.28125 
Q 10.40625 8.6875 15.234375 7.390625 
Q 20.0625 6.109375 24.8125 6.109375 
Q 31.15625 6.109375 34.5625 8.28125 
Q 37.984375 10.453125 37.984375 14.40625 
Q 37.984375 18.0625 35.515625 20.015625 
Q 33.0625 21.96875 24.703125 23.78125 
L 21.578125 24.515625 
Q 13.234375 26.265625 9.515625 29.90625 
Q 5.8125 33.546875 5.8125 39.890625 
Q 5.8125 47.609375 11.28125 51.796875 
Q 16.75 56 26.8125 56 
Q 31.78125 56 36.171875 55.265625 
Q 40.578125 54.546875 44.28125 53.078125 
" id="DejaVuSans-73"/>
      <path d="M 8.015625 75.875 
L 15.828125 75.875 
Q 23.140625 64.359375 26.78125 53.3125 
Q 30.421875 42.28125 30.421875 31.390625 
Q 30.421875 20.453125 26.78125 9.375 
Q 23.140625 -1.703125 15.828125 -13.1875 
L 8.015625 -13.1875 
Q 14.5 -2 17.703125 9.0625 
Q 20.90625 20.125 20.90625 31.390625 
Q 20.90625 42.671875 17.703125 53.65625 
Q 14.5 64.65625 8.015625 75.875 
" id="DejaVuSans-29"/>
     </defs>
     <g transform="translate(184.689844 280.276563)scale(0.1 -0.1)">
      <use xlink:href="#DejaVuSans-54"/>
      <use x="61.037109" xlink:href="#DejaVuSans-69"/>
      <use x="88.820312" xlink:href="#DejaVuSans-6d"/>
      <use x="186.232422" xlink:href="#DejaVuSans-65"/>
      <use x="247.755859" xlink:href="#DejaVuSans-20"/>
      <use x="279.542969" xlink:href="#DejaVuSans-28"/>
      <use x="318.556641" xlink:href="#DejaVuSans-6d"/>
      <use x="415.96875" xlink:href="#DejaVuSans-6f"/>
      <use x="477.150391" xlink:href="#DejaVuSans-6e"/>
      <use x="540.529297" xlink:href="#DejaVuSans-74"/>
      <use x="579.738281" xlink:href="#DejaVuSans-68"/>
      <use x="643.117188" xlink:href="#DejaVuSans-73"/>
      <use x="695.216797" xlink:href="#DejaVuSans-29"/>
     </g>
    </g>
   </g>
   <g id="matplotlib.axis_2">
    <g id="ytick_1">
     <g id="line2d_19">
      <path clip-path="url(#p19489bf79a)" d="M 54 252 
L 388.8 252 
" style="fill:none;stroke:#b0b0b0;stroke-linecap:square;stroke-width:0.8;"/>
     </g>
     <g id="line2d_20">
      <defs>
       <path d="M 0 0 
L -3.5 0 
" id="mbb5fba8a88" style="stroke:#000000;stroke-width:0.8;"/>
      </defs>
      <g>
       <use style="stroke:#000000;stroke-width:0.8;" x="54" xlink:href="#mbb5fba8a88" y="252"/>
      </g>
     </g>
     <g id="text_11">
      <!-- 0.0 -->
      <defs>
       <path d="M 10.6875 12.40625 
L 21 12.40625 
L 21 0 
L 10.6875 0 
z
" id="DejaVuSans-2e"/>
      </defs>
      <g transform="translate(31.096875 255.799219)scale(0.1 -0.1)">
       <use xlink:href="#DejaVuSans-30"/>
       <use x="63.623047" xlink:href="#DejaVuSans-2e"/>
       <use x="95.410156" xlink:href="#DejaVuSans-30"/>
      </g>
     </g>
    </g>
    <g id="ytick_2">
     <g id="line2d_21">
      <path clip-path="url(#p19489bf79a)" d="M 54 208.512 
L 388.8 208.512 
" style="fill:none;stroke:#b0b0b0;stroke-linecap:square;stroke-width:0.8;"/>
     </g>
     <g id="line2d_22">
      <g>
       <use style="stroke:#000000;stroke-width:0.8;" x="54" xlink:href="#mbb5fba8a88" y="208.512"/>
      </g>
     </g>
     <g id="text_12">
      <!-- 0.2 -->
      <g transform="translate(31.096875 212.311219)scale(0.1 -0.1)">
       <use xlink:href="#DejaVuSans-30"/>
       <use x="63.623047" xlink:href="#DejaVuSans-2e"/>
       <use x="95.410156" xlink:href="#DejaVuSans-32"/>
      </g>
     </g>
    </g>
    <g id="ytick_3">
     <g id="line2d_23">
      <path clip-path="url(#p19489bf79a)" d="M 54 165.024 
L 388.8 165.024 
" style="fill:none;stroke:#b0b0b0;stroke-linecap:square;stroke-width:0.8;"/>
     </g>
     <g id="line2d_24">
      <g>
       <use style="stroke:#000000;stroke-width:0.8;" x="54" xlink:href="#mbb5fba8a88" y="165.024"/>
      </g>
     </g>
     <g id="text_13">
      <!-- 0.4 -->
      <g transform="translate(31.096875 168.823219)scale(0.1 -0.1)">
       <use xlink:href="#DejaVuSans-30"/>
       <use x="63.623047" xlink:href="#DejaVuSans-2e"/>
       <use x="95.410156" xlink:href="#DejaVuSans-34"/>
      </g>
     </g>
    </g>
    <g id="ytick_4">
     <g id="line2d_25">
      <path clip-path="url(#p19489bf79a)" d="M 54 121.536 
L 388.8 121.536 
" style="fill:none;stroke:#b0b0b0;stroke-linecap:square;stroke-width:0.8;"/>
     </g>
     <g id="line2d_26">
      <g>
       <use style="stroke:#000000;stroke-width:0.8;" x="54" xlink:href="#mbb5fba8a88" y="121.536"/>
      </g>
     </g>
     <g id="text_14">
      <!-- 0.6 -->
      <g transform="translate(31.096875 125.335219)scale(0.1 -0.1)">
       <use xlink:href="#DejaVuSans-30"/>
       <use x="63.623047" xlink:href="#DejaVuSans-2e"/>
       <use x="95.410156" xlink:href="#DejaVuSans-36"/>
      </g>
     </g>
    </g>
    <g id="ytick_5">
     <g id="line2d_27">
      <path clip-path="url(#p19489bf79a)" d="M 54 78.048 
L 388.8 78.048 
" style="fill:none;stroke:#b0b0b0;stroke-linecap:square;stroke-width:0.8;"/>
     </g>
     <g id="line2d_28">
      <g>
       <use style="stroke:#000000;stroke-width:0.8;" x="54" xlink:href="#mbb5fba8a88" y="78.048"/>
      </g>
     </g>
     <g id="text_15">
      <!-- 0.8 -->
      <g transform="translate(31.096875 81.847219)scale(0.1 -0.1)">
       <use xlink:href="#DejaVuSans-30"/>
       <use x="63.623047" xlink:href="#DejaVuSans-2e"/>
       <use x="95.410156" xlink:href="#DejaVuSans-38"/>
      </g>
     </g>
    </g>
    <g id="ytick_6">
     <g id="line2d_29">
      <path clip-path="url(#p19489bf79a)" d="M 54 34.56 
L 388.8 34.56 
" style="fill:none;stroke:#b0b0b0;stroke-linecap:square;stroke-width:0.8;"/>
     </g>
     <g id="line2d_30">
      <g>
       <use style="stroke:#000000;stroke-width:0.8;" x="54" xlink:href="#mbb5fba8a88" y="34.56"/>
      </g>
     </g>
     <g id="text_16">
      <!-- 1.0 -->
      <g transform="translate(31.096875 38.359219)scale(0.1 -0.1)">
       <use xlink:href="#DejaVuSans-31"/>
       <use x="63.623047" xlink:href="#DejaVuSans-2e"/>
       <use x="95.410156" xlink:href="#DejaVuSans-30"/>
      </g>
     </g>
    </g>
    <g id="text_17">
     <!-- Prevalence (fraction of population) -->
     <defs>
      <path d="M 19.671875 64.796875 
L 19.671875 37.40625 
L 32.078125 37.40625 
Q 38.96875 37.40625 42.71875 40.96875 
Q 46.484375 44.53125 46.484375 51.125 
Q 46.484375 57.671875 42.71875 61.234375 
Q 38.96875 64.796875 32.078125 64.796875 
z
M 9.8125 72.90625 
L 32.078125 72.90625 
Q 44.34375 72.90625 50.609375 67.359375 
Q 56.890625 61.8125 56.890625 51.125 
Q 56.890625 40.328125 50.609375 34.8125 
Q 44.34375 29.296875 32.078125 29.296875 
L 19.671875 29.296875 
L 19.671875 0 
L 9.8125 0 
z
" id="DejaVuSans-50"/>
      <path d="M 41.109375 46.296875 
Q 39.59375 47.171875 37.8125 47.578125 
Q 36.03125 48 33.890625 48 
Q 26.265625 48 22.1875 43.046875 
Q 18.109375 38.09375 18.109375 28.8125 
L 18.109375 0 
L 9.078125 0 
L 9.078125 54.6875 
L 18.109375 54.6875 
L 18.109375 46.1875 
Q 20.953125 51.171875 25.484375 53.578125 
Q 30.03125 56 36.53125 56 
Q 37.453125 56 38.578125 55.875 
Q 39.703125 55.765625 41.0625 55.515625 
z
" id="DejaVuSans-72"/>
      <path d="M 2.984375 54.6875 
L 12.5 54.6875 
L 29.59375 8.796875 
L 46.6875 54.6875 
L 56.203125 54.6875 
L 35.6875 0 
L 23.484375 0 
z
" id="DejaVuSans-76"/>
      <path d="M 34.28125 27.484375 
Q 23.390625 27.484375 19.1875 25 
Q 14.984375 22.515625 14.984375 16.5 
Q 14.984375 11.71875 18.140625 8.90625 
Q 21.296875 6.109375 26.703125 6.109375 
Q 34.1875 6.109375 38.703125 11.40625 
Q 43.21875 16.703125 43.21875 25.484375 
L 43.21875 27.484375 
z
M 52.203125 31.203125 
L 52.203125 0 
L 43.21875 0 
L 43.21875 8.296875 
Q 40.140625 3.328125 35.546875 0.953125 
Q 30.953125 -1.421875 24.3125 -1.421875 
Q 15.921875 -1.421875 10.953125 3.296875 
Q 6 8.015625 6 15.921875 
Q 6 25.140625 12.171875 29.828125 
Q 18.359375 34.515625 30.609375 34.515625 
L 43.21875 34.515625 
L 43.21875 35.40625 
Q 43.21875 41.609375 39.140625 45 
Q 35.0625 48.390625 27.6875 48.390625 
Q 23 48.390625 18.546875 47.265625 
Q 14.109375 46.140625 10.015625 43.890625 
L 10.015625 52.203125 
Q 14.9375 54.109375 19.578125 55.046875 
Q 24.21875 56 28.609375 56 
Q 40.484375 56 46.34375 49.84375 
Q 52.203125 43.703125 52.203125 31.203125 
" id="DejaVuSans-61"/>
      <path d="M 9.421875 75.984375 
L 18.40625 75.984375 
L 18.40625 0 
L 9.421875 0 
z
" id="DejaVuSans-6c"/>
      <path d="M 48.78125 52.59375 
L 48.78125 44.1875 
Q 44.96875 46.296875 41.140625 47.34375 
Q 37.3125 48.390625 33.40625 48.390625 
Q 24.65625 48.390625 19.8125 42.84375 
Q 14.984375 37.3125 14.984375 27.296875 
Q 14.984375 17.28125 19.8125 11.734375 
Q 24.65625 6.203125 33.40625 6.203125 
Q 37.3125 6.203125 41.140625 7.25 
Q 44.96875 8.296875 48.78125 10.40625 
L 48.78125 2.09375 
Q 45.015625 0.34375 40.984375 -0.53125 
Q 36.96875 -1.421875 32.421875 -1.421875 
Q 20.0625 -1.421875 12.78125 6.34375 
Q 5.515625 14.109375 5.515625 27.296875 
Q 5.515625 40.671875 12.859375 48.328125 
Q 20.21875 56 33.015625 56 
Q 37.15625 56 41.109375 55.140625 
Q 45.0625 54.296875 48.78125 52.59375 
" id="DejaVuSans-63"/>
      <path d="M 37.109375 75.984375 
L 37.109375 68.5 
L 28.515625 68.5 
Q 23.6875 68.5 21.796875 66.546875 
Q 19.921875 64.59375 19.921875 59.515625 
L 19.921875 54.6875 
L 34.71875 54.6875 
L 34.71875 47.703125 
L 19.921875 47.703125 
L 19.921875 0 
L 10.890625 0 
L 10.890625 47.703125 
L 2.296875 47.703125 
L 2.296875 54.6875 
L 10.890625 54.6875 
L 10.890625 58.5 
Q 10.890625 67.625 15.140625 71.796875 
Q 19.390625 75.984375 28.609375 75.984375 
z
" id="DejaVuSans-66"/>
      <path d="M 18.109375 8.203125 
L 18.109375 -20.796875 
L 9.078125 -20.796875 
L 9.078125 54.6875 
L 18.109375 54.6875 
L 18.109375 46.390625 
Q 20.953125 51.265625 25.265625 53.625 
Q 29.59375 56 35.59375 56 
Q 45.5625 56 51.78125 48.09375 
Q 58.015625 40.1875 58.015625 27.296875 
Q 58.015625 14.40625 51.78125 6.484375 
Q 45.5625 -1.421875 35.59375 -1.421875 
Q 29.59375 -1.421875 25.265625 0.953125 
Q 20.953125 3.328125 18.109375 8.203125 
M 48.6875 27.296875 
Q 48.6875 37.203125 44.609375 42.84375 
Q 40.53125 48.484375 33.40625 48.484375 
Q 26.265625 48.484375 22.1875 42.84375 
Q 18.109375 37.203125 18.109375 27.296875 
Q 18.109375 17.390625 22.1875 11.75 
Q 26.265625 6.109375 33.40625 6.109375 
Q 40.53125 6.109375 44.609375 11.75 
Q 48.6875 17.390625 48.6875 27.296875 
" id="DejaVuSans-70"/>
      <path d="M 8.5 21.578125 
L 8.5 54.6875 
L 17.484375 54.6875 
L 17.484375 21.921875 
Q 17.484375 14.15625 20.5 10.265625 
Q 23.53125 6.390625 29.59375 6.390625 
Q 36.859375 6.390625 41.078125 11.03125 
Q 45.3125 15.671875 45.3125 23.6875 
L 45.3125 54.6875 
L 54.296875 54.6875 
L 54.296875 0 
L 45.3125 0 
L 45.3125 8.40625 
Q 42.046875 3.421875 37.71875 1 
Q 33.40625 -1.421875 27.6875 -1.421875 
Q 18.265625 -1.421875 13.375 4.4375 
Q 8.5 10.296875 8.5 21.578125 
M 31.109375 56 
z
" id="DejaVuSans-75"/>
     </defs>
     <g transform="translate(25.017187 230.209688)rotate(-90)scale(0.1 -0.1)">
      <use xlink:href="#DejaVuSans-50"/>
      <use x="60.287109" xlink:href="#DejaVuSans-72"/>
      <use x="101.369141" xlink:href="#DejaVuSans-65"/>
      <use x="162.892578" xlink:href="#DejaVuSans-76"/>
      <use x="222.072266" xlink:href="#DejaVuSans-61"/>
      <use x="283.351562" xlink:href="#DejaVuSans-6c"/>
      <use x="311.134766" xlink:href="#DejaVuSans-65"/>
      <use x="372.658203" xlink:href="#DejaVuSans-6e"/>
      <use x="436.037109" xlink:href="#DejaVuSans-63"/>
      <use x="491.017578" xlink:href="#DejaVuSans-65"/>
      <use x="552.541016" xlink:href="#DejaVuSans-20"/>
      <use x="584.328125" xlink:href="#DejaVuSans-28"/>
      <use x="623.341797" xlink:href="#DejaVuSans-66"/>
      <use x="658.546875" xlink:href="#DejaVuSans-72"/>
      <use x="699.660156" xlink:href="#DejaVuSans-61"/>
      <use x="760.939453" xlink:href="#DejaVuSans-63"/>
      <use x="815.919922" xlink:href="#DejaVuSans-74"/>
      <use x="855.128906" xlink:href="#DejaVuSans-69"/>
      <use x="882.912109" xlink:href="#DejaVuSans-6f"/>
      <use x="944.09375" xlink:href="#DejaVuSans-6e"/>
      <use x="1007.472656" xlink:href="#DejaVuSans-20"/>
      <use x="1039.259766" xlink:href="#DejaVuSans-6f"/>
      <use x="1100.441406" xlink:href="#DejaVuSans-66"/>
      <use x="1135.646484" xlink:href="#DejaVuSans-20"/>
      <use x="1167.433594" xlink:href="#DejaVuSans-70"/>
      <use x="1230.910156" xlink:href="#DejaVuSans-6f"/>
      <use x="1292.091797" xlink:href="#DejaVuSans-70"/>
      <use x="1355.568359" xlink:href="#DejaVuSans-75"/>
      <use x="1418.947266" xlink:href="#DejaVuSans-6c"/>
      <use x="1446.730469" xlink:href="#DejaVuSans-61"/>
      <use x="1508.009766" xlink:href="#DejaVuSans-74"/>
      <use x="1547.21875" xlink:href="#DejaVuSans-69"/>
      <use x="1575.001953" xlink:href="#DejaVuSans-6f"/>
      <use x="1636.183594" xlink:href="#DejaVuSans-6e"/>
      <use x="1699.5625" xlink:href="#DejaVuSans-29"/>
     </g>
    </g>
   </g>
   <g id="line2d_31">
    <path clip-path="url(#p19489bf79a)" d="M -1 155.56536 
L 136.146804 155.56536 
L 136.837113 177.63552 
L 388.109691 177.63552 
L 388.109691 177.63552 
" style="fill:none;stroke:#1f77b4;stroke-linecap:square;stroke-width:1.5;"/>
   </g>
   <g id="line2d_32">
    <path clip-path="url(#p19489bf79a)" d="M -1 161.105014 
L -0.534433 161.54496 
L 0.155876 161.7624 
L 0.846186 162.63216 
L 1.536495 161.11008 
L 2.226804 161.87112 
L 2.917113 161.65368 
L 4.297732 164.80656 
L 5.678351 164.58912 
L 6.36866 163.71936 
L 7.058969 163.3932 
L 7.749278 164.58912 
L 8.439588 164.69784 
L 9.129897 163.61064 
L 9.820206 163.3932 
L 10.510515 163.71936 
L 11.200825 161.87112 
L 11.891134 163.28448 
L 12.581443 161.97984 
L 13.271753 162.41472 
L 13.962062 161.54496 
L 14.652371 161.11008 
L 15.34268 160.02288 
L 16.03299 161.32752 
L 16.723299 161.54496 
L 17.413608 161.43624 
L 18.794227 161.7624 
L 19.484536 162.08856 
L 20.174845 161.43624 
L 20.865155 162.41472 
L 21.555464 161.65368 
L 22.245773 161.54496 
L 22.936082 161.11008 
L 24.316701 162.95832 
L 25.00701 161.2188 
L 27.077938 164.58912 
L 27.768247 163.61064 
L 28.458557 164.91528 
L 29.148866 164.69784 
L 29.839175 165.5676 
L 30.529485 163.82808 
L 31.219794 165.13272 
L 31.910103 164.69784 
L 32.600412 164.80656 
L 33.290722 164.37168 
L 33.981031 163.61064 
L 34.67134 163.06704 
L 35.361649 161.43624 
L 36.051959 161.87112 
L 36.742268 162.8496 
L 37.432577 161.87112 
L 38.122887 162.08856 
L 38.813196 162.08856 
L 40.193814 160.89264 
L 40.884124 161.43624 
L 41.574433 161.2188 
L 42.955052 161.87112 
L 43.645361 161.97984 
L 44.33567 161.2188 
L 45.025979 161.32752 
L 45.716289 162.74088 
L 46.406598 164.58912 
L 47.096907 164.4804 
L 47.787216 165.5676 
L 48.477526 166.00248 
L 49.167835 167.08968 
L 49.858144 168.93792 
L 51.238763 166.98096 
L 51.929072 166.87224 
L 52.619381 166.54608 
L 53.309691 165.024 
L 54 165.67632 
L 54.690309 167.1984 
L 55.380619 166.00248 
L 56.070928 165.13272 
L 56.761237 164.91528 
L 57.451546 165.13272 
L 58.141856 163.17576 
L 58.832165 164.15424 
L 59.522474 163.71936 
L 60.212784 162.63216 
L 60.903093 163.71936 
L 61.593402 164.26296 
L 62.283711 164.37168 
L 63.66433 163.06704 
L 64.354639 163.3932 
L 65.044948 164.15424 
L 65.735258 163.9368 
L 66.425567 164.80656 
L 67.115876 166.54608 
L 67.806186 166.76352 
L 68.496495 167.1984 
L 69.877113 165.78504 
L 70.567423 164.58912 
L 71.257732 164.4804 
L 71.948041 162.95832 
L 73.32866 164.15424 
L 74.709278 162.74088 
L 75.399588 161.87112 
L 76.780206 160.6752 
L 77.470515 160.89264 
L 78.160825 161.87112 
L 78.851134 161.65368 
L 79.541443 160.78392 
L 80.231753 159.26184 
L 80.922062 160.02288 
L 81.612371 160.02288 
L 82.30268 159.588 
L 82.99299 159.80544 
L 83.683299 160.56648 
L 84.373608 160.56648 
L 85.063918 160.02288 
L 85.754227 159.80544 
L 86.444536 160.24032 
L 87.134845 161.11008 
L 87.825155 161.11008 
L 88.515464 161.32752 
L 89.205773 161.97984 
L 89.896082 163.06704 
L 90.586392 162.63216 
L 91.276701 162.41472 
L 91.96701 162.95832 
L 92.65732 162.8496 
L 93.347629 162.41472 
L 94.037938 161.65368 
L 94.728247 161.54496 
L 95.418557 160.24032 
L 96.108866 159.80544 
L 96.799175 160.02288 
L 97.489485 159.37056 
L 98.179794 158.06592 
L 98.870103 159.37056 
L 99.560412 158.06592 
L 100.250722 158.28336 
L 100.941031 160.02288 
L 101.63134 160.34904 
L 102.321649 161.32752 
L 103.011959 161.11008 
L 103.702268 161.11008 
L 104.392577 160.1316 
L 105.082887 160.56648 
L 105.773196 159.588 
L 106.463505 159.588 
L 107.153814 160.02288 
L 107.844124 160.1316 
L 109.224742 162.41472 
L 109.915052 163.82808 
L 110.605361 164.15424 
L 111.29567 163.61064 
L 111.985979 163.61064 
L 112.676289 162.95832 
L 113.366598 163.06704 
L 114.056907 163.71936 
L 114.747216 163.82808 
L 116.127835 164.80656 
L 116.818144 163.9368 
L 117.508454 164.15424 
L 118.198763 163.17576 
L 118.889072 162.74088 
L 119.579381 161.54496 
L 120.269691 162.41472 
L 120.96 162.52344 
L 121.650309 160.45776 
L 122.340619 160.78392 
L 123.030928 159.69672 
L 123.721237 159.26184 
L 124.411546 158.28336 
L 125.101856 158.17464 
L 125.792165 159.26184 
L 126.482474 159.47928 
L 127.863093 160.24032 
L 128.553402 161.11008 
L 129.934021 161.32752 
L 130.62433 162.08856 
L 131.314639 161.54496 
L 132.004948 162.95832 
L 132.695258 162.41472 
L 133.385567 161.54496 
L 134.075876 161.2188 
L 134.766186 161.97984 
L 136.146804 161.43624 
L 136.837113 164.80656 
L 137.527423 167.1984 
L 138.217732 170.78616 
L 139.598351 175.46112 
L 140.28866 175.78728 
L 140.978969 175.896 
L 141.669278 176.33088 
L 142.359588 176.22216 
L 143.049897 176.76576 
L 143.740206 176.00472 
L 145.120825 175.46112 
L 146.501443 174.91752 
L 147.191753 175.13496 
L 147.882062 174.8088 
L 148.572371 175.24368 
L 149.26268 174.8088 
L 149.95299 175.02624 
L 150.643299 174.37392 
L 151.333608 173.93904 
L 152.023918 172.6344 
L 152.714227 172.19952 
L 154.094845 170.89488 
L 154.785155 171.43848 
L 155.475464 171.5472 
L 156.165773 170.89488 
L 156.856082 169.80768 
L 157.546392 167.742 
L 158.236701 166.6548 
L 158.92701 164.37168 
L 159.61732 164.37168 
L 160.307629 164.15424 
L 161.688247 164.58912 
L 162.378557 165.024 
L 163.068866 165.13272 
L 163.759175 166.00248 
L 164.449485 166.54608 
L 165.139794 166.87224 
L 165.830103 166.54608 
L 166.520412 165.89376 
L 168.59134 166.32864 
L 169.281649 167.1984 
L 169.971959 168.93792 
L 172.733196 169.3728 
L 173.423505 168.93792 
L 174.804124 168.61176 
L 177.565361 168.50304 
L 178.25567 167.63328 
L 178.945979 167.41584 
L 179.636289 166.98096 
L 180.326598 166.87224 
L 181.016907 167.63328 
L 181.707216 167.30712 
L 182.397526 166.43736 
L 183.087835 165.89376 
L 184.468454 165.5676 
L 185.158763 166.54608 
L 185.849072 165.67632 
L 186.539381 166.00248 
L 188.610309 165.45888 
L 189.300619 167.1984 
L 189.990928 167.41584 
L 190.681237 167.08968 
L 191.371546 167.1984 
L 192.061856 167.08968 
L 193.442474 168.06816 
L 194.132784 168.17688 
L 194.823093 167.95944 
L 195.513402 167.1984 
L 196.203711 166.21992 
L 196.894021 164.80656 
L 197.58433 165.35016 
L 198.274639 166.21992 
L 199.655258 165.78504 
L 200.345567 166.1112 
L 201.035876 166.6548 
L 201.726186 164.91528 
L 202.416495 165.024 
L 203.106804 163.9368 
L 203.797113 163.61064 
L 204.487423 161.7624 
L 205.868041 162.52344 
L 206.558351 163.3932 
L 207.24866 163.61064 
L 207.938969 164.4804 
L 208.629278 164.37168 
L 209.319588 164.04552 
L 210.009897 164.69784 
L 210.700206 164.4804 
L 211.390515 163.3932 
L 213.461443 161.7624 
L 214.842062 161.00136 
L 215.532371 161.32752 
L 216.22268 161.97984 
L 216.91299 159.69672 
L 217.603299 159.26184 
L 218.293608 159.47928 
L 218.983918 158.82696 
L 219.674227 160.45776 
L 220.364536 160.45776 
L 221.054845 161.00136 
L 221.745155 161.11008 
L 222.435464 161.7624 
L 223.125773 161.65368 
L 223.816082 161.2188 
L 225.196701 162.95832 
L 225.88701 161.97984 
L 226.57732 161.97984 
L 227.267629 161.7624 
L 227.957938 160.56648 
L 228.648247 160.78392 
L 229.338557 161.43624 
L 230.028866 162.52344 
L 231.409485 162.74088 
L 232.099794 162.63216 
L 232.790103 163.17576 
L 233.480412 163.17576 
L 234.170722 162.306 
L 234.861031 162.306 
L 235.55134 163.28448 
L 236.241649 162.8496 
L 236.931959 162.74088 
L 237.622268 163.50192 
L 238.312577 162.52344 
L 239.002887 162.19728 
L 239.693196 162.52344 
L 240.383505 161.87112 
L 241.073814 160.56648 
L 241.764124 161.87112 
L 242.454433 161.43624 
L 243.144742 160.6752 
L 243.835052 160.6752 
L 244.525361 161.54496 
L 245.21567 161.7624 
L 245.905979 161.2188 
L 246.596289 160.89264 
L 247.976907 162.19728 
L 248.667216 161.54496 
L 249.357526 162.63216 
L 250.738144 163.50192 
L 251.428454 162.8496 
L 252.118763 163.17576 
L 252.809072 162.19728 
L 253.499381 161.54496 
L 254.189691 161.2188 
L 254.88 162.306 
L 256.260619 163.28448 
L 256.950928 165.024 
L 257.641237 165.13272 
L 259.021856 163.9368 
L 260.402474 163.82808 
L 261.092784 164.4804 
L 262.473402 164.91528 
L 263.163711 164.69784 
L 263.854021 163.9368 
L 264.54433 163.71936 
L 265.234639 164.15424 
L 265.924948 164.04552 
L 266.615258 164.91528 
L 267.305567 163.82808 
L 267.995876 163.17576 
L 268.686186 162.74088 
L 269.376495 163.17576 
L 270.066804 163.06704 
L 270.757113 163.61064 
L 271.447423 163.71936 
L 272.137732 162.52344 
L 272.828041 162.52344 
L 273.518351 161.54496 
L 274.20866 161.00136 
L 274.898969 160.02288 
L 275.589278 161.65368 
L 276.969897 162.52344 
L 277.660206 162.306 
L 278.350515 163.3932 
L 279.040825 163.3932 
L 279.731134 162.74088 
L 280.421443 163.06704 
L 281.111753 163.17576 
L 281.802062 162.74088 
L 282.492371 164.26296 
L 283.18268 165.35016 
L 283.87299 167.08968 
L 284.563299 167.95944 
L 285.253608 169.26408 
L 285.943918 169.69896 
L 286.634227 169.9164 
L 287.324536 169.15536 
L 288.014845 168.8292 
L 289.395464 168.93792 
L 290.085773 168.72048 
L 290.776082 169.04664 
L 291.466392 169.15536 
L 292.156701 169.04664 
L 292.84701 168.50304 
L 293.53732 167.742 
L 294.227629 167.30712 
L 294.917938 167.41584 
L 295.608247 166.98096 
L 296.298557 167.30712 
L 296.988866 167.85072 
L 297.679175 167.85072 
L 298.369485 166.98096 
L 299.059794 167.41584 
L 299.750103 166.6548 
L 300.440412 166.1112 
L 301.130722 164.91528 
L 301.821031 165.024 
L 302.51134 164.91528 
L 303.201649 165.35016 
L 303.891959 166.21992 
L 304.582268 166.87224 
L 305.962887 166.54608 
L 306.653196 165.78504 
L 307.343505 166.00248 
L 308.033814 165.24144 
L 308.724124 165.13272 
L 309.414433 164.69784 
L 310.104742 164.80656 
L 310.795052 165.13272 
L 311.485361 164.69784 
L 312.17567 165.024 
L 312.865979 165.78504 
L 314.246598 164.80656 
L 314.936907 165.13272 
L 315.627216 165.13272 
L 317.007835 164.80656 
L 317.698144 165.67632 
L 318.388454 165.5676 
L 319.078763 165.024 
L 320.459381 165.13272 
L 321.149691 164.69784 
L 321.84 165.13272 
L 323.220619 164.69784 
L 323.910928 164.26296 
L 324.601237 164.15424 
L 325.981856 162.95832 
L 326.672165 160.45776 
L 327.362474 158.39208 
L 328.052784 156.76128 
L 328.743093 156.3264 
L 329.433402 155.2392 
L 330.123711 156.00024 
L 330.814021 155.89152 
L 331.50433 156.76128 
L 332.194639 156.76128 
L 332.884948 158.06592 
L 333.575258 157.9572 
L 334.265567 158.82696 
L 334.955876 160.45776 
L 335.646186 160.6752 
L 336.336495 160.56648 
L 337.026804 161.7624 
L 337.717113 161.87112 
L 339.097732 161.32752 
L 340.478351 161.00136 
L 341.16866 160.56648 
L 341.858969 160.6752 
L 342.549278 160.56648 
L 343.239588 160.24032 
L 344.620206 159.91416 
L 345.310515 161.00136 
L 346.000825 161.00136 
L 347.381443 161.87112 
L 348.762062 161.11008 
L 349.452371 161.32752 
L 350.14268 161.2188 
L 350.83299 159.91416 
L 352.903918 158.5008 
L 353.594227 157.63104 
L 354.284536 158.06592 
L 354.974845 158.82696 
L 355.665155 158.82696 
L 356.355464 159.80544 
L 357.045773 161.43624 
L 357.736082 160.89264 
L 358.426392 159.69672 
L 359.116701 160.45776 
L 359.80701 158.60952 
L 360.49732 158.82696 
L 361.187629 159.47928 
L 361.877938 159.37056 
L 362.568247 158.60952 
L 364.639175 158.17464 
L 365.329485 159.15312 
L 366.019794 159.15312 
L 366.710103 159.91416 
L 367.400412 159.37056 
L 368.781031 163.17576 
L 369.47134 164.80656 
L 370.161649 165.45888 
L 370.851959 167.41584 
L 371.542268 166.76352 
L 372.922887 166.00248 
L 373.613196 166.1112 
L 374.303505 165.24144 
L 374.993814 165.024 
L 375.684124 163.9368 
L 376.374433 164.26296 
L 377.755052 163.9368 
L 378.445361 164.4804 
L 380.516289 164.80656 
L 381.206598 165.13272 
L 381.896907 164.58912 
L 382.587216 164.4804 
L 383.277526 164.91528 
L 384.658144 163.71936 
L 385.348454 164.15424 
L 386.038763 164.26296 
L 387.419381 163.9368 
L 388.109691 164.15424 
L 388.109691 164.15424 
" style="fill:none;stroke:#ff7f0e;stroke-linecap:square;stroke-width:1.5;"/>
   </g>
   <g id="line2d_33">
    <defs>
     <path d="M 0 1.5 
C 0.397805 1.5 0.77937 1.341951 1.06066 1.06066 
C 1.341951 0.77937 1.5 0.397805 1.5 0 
C 1.5 -0.397805 1.341951 -0.77937 1.06066 -1.06066 
C 0.77937 -1.341951 0.397805 -1.5 0 -1.5 
C -0.397805 -1.5 -0.77937 -1.341951 -1.06066 -1.06066 
C -1.341951 -0.77937 -1.5 -0.397805 -1.5 0 
C -1.5 0.397805 -1.341951 0.77937 -1.06066 1.06066 
C -0.77937 1.341951 -0.397805 1.5 0 1.5 
z
" id="m72fd7d94c3" style="stroke:#2ca02c;"/>
    </defs>
    <g clip-path="url(#p19489bf79a)">
     <use style="fill:#2ca02c;stroke:#2ca02c;" x="136.837113" xlink:href="#m72fd7d94c3" y="143.28"/>
    </g>
   </g>
   <g id="line2d_34">
    <defs>
     <path d="M 0 1.5 
C 0.397805 1.5 0.77937 1.341951 1.06066 1.06066 
C 1.341951 0.77937 1.5 0.397805 1.5 0 
C 1.5 -0.397805 1.341951 -0.77937 1.06066 -1.06066 
C 0.77937 -1.341951 0.397805 -1.5 0 -1.5 
C -0.397805 -1.5 -0.77937 -1.341951 -1.06066 -1.06066 
C -1.341951 -0.77937 -1.5 -0.397805 -1.5 0 
C -1.5 0.397805 -1.341951 0.77937 -1.06066 1.06066 
C -0.77937 1.341951 -0.397805 1.5 0 1.5 
z
" id="m9bfa0d140b" style="stroke:#d62728;"/>
    </defs>
    <g clip-path="url(#p19489bf79a)">
     <use style="fill:#d62728;stroke:#d62728;" x="136.837113" xlink:href="#m9bfa0d140b" y="121.536"/>
    </g>
   </g>
   <g id="line2d_35">
    <defs>
     <path d="M 0 1.5 
C 0.397805 1.5 0.77937 1.341951 1.06066 1.06066 
C 1.341951 0.77937 1.5 0.397805 1.5 0 
C 1.5 -0.397805 1.341951 -0.77937 1.06066 -1.06066 
C 0.77937 -1.341951 0.397805 -1.5 0 -1.5 
C -0.397805 -1.5 -0.77937 -1.341951 -1.06066 -1.06066 
C -1.341951 -0.77937 -1.5 -0.397805 -1.5 0 
C -1.5 0.397805 -1.341951 0.77937 -1.06066 1.06066 
C -0.77937 1.341951 -0.397805 1.5 0 1.5 
z
" id="m28d059a5a8" style="stroke:#9467bd;"/>
    </defs>
    <g clip-path="url(#p19489bf79a)">
     <use style="fill:#9467bd;stroke:#9467bd;" x="136.837113" xlink:href="#m28d059a5a8" y="99.792"/>
    </g>
   </g>
   <g id="line2d_36">
    <defs>
     <path d="M 0 1.5 
C 0.397805 1.5 0.77937 1.341951 1.06066 1.06066 
C 1.341951 0.77937 1.5 0.397805 1.5 0 
C 1.5 -0.397805 1.341951 -0.77937 1.06066 -1.06066 
C 0.77937 -1.341951 0.397805 -1.5 0 -1.5 
C -0.397805 -1.5 -0.77937 -1.341951 -1.06066 -1.06066 
C -1.341951 -0.77937 -1.5 -0.397805 -1.5 0 
C -1.5 0.397805 -1.341951 0.77937 -1.06066 1.06066 
C -0.77937 1.341951 -0.397805 1.5 0 1.5 
z
" id="m4a62438f0a" style="stroke:#8c564b;"/>
    </defs>
    <g clip-path="url(#p19489bf79a)">
     <use style="fill:#8c564b;stroke:#8c564b;" x="156.856082" xlink:href="#m4a62438f0a" y="78.048"/>
    </g>
   </g>
   <g id="line2d_37">
    <defs>
     <path d="M 0 1.5 
C 0.397805 1.5 0.77937 1.341951 1.06066 1.06066 
C 1.341951 0.77937 1.5 0.397805 1.5 0 
C 1.5 -0.397805 1.341951 -0.77937 1.06066 -1.06066 
C 0.77937 -1.341951 0.397805 -1.5 0 -1.5 
C -0.397805 -1.5 -0.77937 -1.341951 -1.06066 -1.06066 
C -1.341951 -0.77937 -1.5 -0.397805 -1.5 0 
C -1.5 0.397805 -1.341951 0.77937 -1.06066 1.06066 
C -0.77937 1.341951 -0.397805 1.5 0 1.5 
z
" id="m02000d72ce" style="stroke:#e377c2;"/>
    </defs>
    <g clip-path="url(#p19489bf79a)">
     <use style="fill:#e377c2;stroke:#e377c2;" x="283.87299" xlink:href="#m02000d72ce" y="78.048"/>
    </g>
   </g>
   <g id="line2d_38">
    <defs>
     <path d="M 0 1.5 
C 0.397805 1.5 0.77937 1.341951 1.06066 1.06066 
C 1.341951 0.77937 1.5 0.397805 1.5 0 
C 1.5 -0.397805 1.341951 -0.77937 1.06066 -1.06066 
C 0.77937 -1.341951 0.397805 -1.5 0 -1.5 
C -0.397805 -1.5 -0.77937 -1.341951 -1.06066 -1.06066 
C -1.341951 -0.77937 -1.5 -0.397805 -1.5 0 
C -1.5 0.397805 -1.341951 0.77937 -1.06066 1.06066 
C -0.77937 1.341951 -0.397805 1.5 0 1.5 
z
" id="me950e44726" style="stroke:#7f7f7f;"/>
    </defs>
    <g clip-path="url(#p19489bf79a)">
     <use style="fill:#7f7f7f;stroke:#7f7f7f;" x="325.981856" xlink:href="#me950e44726" y="78.048"/>
    </g>
   </g>
   <g id="line2d_39">
    <defs>
     <path d="M 0 1.5 
C 0.397805 1.5 0.77937 1.341951 1.06066 1.06066 
C 1.341951 0.77937 1.5 0.397805 1.5 0 
C 1.5 -0.397805 1.341951 -0.77937 1.06066 -1.06066 
C 0.77937 -1.341951 0.397805 -1.5 0 -1.5 
C -0.397805 -1.5 -0.77937 -1.341951 -1.06066 -1.06066 
C -1.341951 -0.77937 -1.5 -0.397805 -1.5 0 
C -1.5 0.397805 -1.341951 0.77937 -1.06066 1.06066 
C -0.77937 1.341951 -0.397805 1.5 0 1.5 
z
" id="m90a5436967" style="stroke:#bcbd22;"/>
    </defs>
    <g clip-path="url(#p19489bf79a)">
     <use style="fill:#bcbd22;stroke:#bcbd22;" x="368.090722" xlink:href="#m90a5436967" y="78.048"/>
    </g>
   </g>
   <g id="patch_3">
    <path d="M 54 252 
L 54 34.56 
" style="fill:none;stroke:#000000;stroke-linecap:square;stroke-linejoin:miter;stroke-width:0.8;"/>
   </g>
   <g id="patch_4">
    <path d="M 388.8 252 
L 388.8 34.56 
" style="fill:none;stroke:#000000;stroke-linecap:square;stroke-linejoin:miter;stroke-width:0.8;"/>
   </g>
   <g id="patch_5">
    <path d="M 54 252 
L 388.8 252 
" style="fill:none;stroke:#000000;stroke-linecap:square;stroke-linejoin:miter;stroke-width:0.8;"/>
   </g>
   <g id="patch_6">
    <path d="M 54 34.56 
L 388.8 34.56 
" style="fill:none;stroke:#000000;stroke-linecap:square;stroke-linejoin:miter;stroke-width:0.8;"/>
   </g>
   <g id="text_18">
    <!-- t_pzq: 2016-02-01 -->
    <defs>
     <path d="M 50.984375 -16.609375 
L 50.984375 -23.578125 
L -0.984375 -23.578125 
L -0.984375 -16.609375 
z
" id="DejaVuSans-5f"/>
     <path d="M 5.515625 54.6875 
L 48.1875 54.6875 
L 48.1875 46.484375 
L 14.40625 7.171875 
L 48.1875 7.171875 
L 48.1875 0 
L 4.296875 0 
L 4.296875 8.203125 
L 38.09375 47.515625 
L 5.515625 47.515625 
z
" id="DejaVuSans-7a"/>
     <path d="M 14.796875 27.296875 
Q 14.796875 17.390625 18.875 11.75 
Q 22.953125 6.109375 30.078125 6.109375 
Q 37.203125 6.109375 41.296875 11.75 
Q 45.40625 17.390625 45.40625 27.296875 
Q 45.40625 37.203125 41.296875 42.84375 
Q 37.203125 48.484375 30.078125 48.484375 
Q 22.953125 48.484375 18.875 42.84375 
Q 14.796875 37.203125 14.796875 27.296875 
M 45.40625 8.203125 
Q 42.578125 3.328125 38.25 0.953125 
Q 33.9375 -1.421875 27.875 -1.421875 
Q 17.96875 -1.421875 11.734375 6.484375 
Q 5.515625 14.40625 5.515625 27.296875 
Q 5.515625 40.1875 11.734375 48.09375 
Q 17.96875 56 27.875 56 
Q 33.9375 56 38.25 53.625 
Q 42.578125 51.265625 45.40625 46.390625 
L 45.40625 54.6875 
L 54.390625 54.6875 
L 54.390625 -20.796875 
L 45.40625 -20.796875 
z
" id="DejaVuSans-71"/>
     <path d="M 11.71875 12.40625 
L 22.015625 12.40625 
L 22.015625 0 
L 11.71875 0 
z
M 11.71875 51.703125 
L 22.015625 51.703125 
L 22.015625 39.3125 
L 11.71875 39.3125 
z
" id="DejaVuSans-3a"/>
     <path d="M 4.890625 31.390625 
L 31.203125 31.390625 
L 31.203125 23.390625 
L 4.890625 23.390625 
z
" id="DejaVuSans-2d"/>
    </defs>
    <g transform="translate(142.085172 205.826341)rotate(-45)scale(0.1 -0.1)">
     <use xlink:href="#DejaVuSans-74"/>
     <use x="39.208984" xlink:href="#DejaVuSans-5f"/>
     <use x="89.208984" xlink:href="#DejaVuSans-70"/>
     <use x="152.685547" xlink:href="#DejaVuSans-7a"/>
     <use x="205.175781" xlink:href="#DejaVuSans-71"/>
     <use x="268.652344" xlink:href="#DejaVuSans-3a"/>
     <use x="302.34375" xlink:href="#DejaVuSans-20"/>
     <use x="334.130859" xlink:href="#DejaVuSans-32"/>
     <use x="397.753906" xlink:href="#DejaVuSans-30"/>
     <use x="461.376953" xlink:href="#DejaVuSans-31"/>
     <use x="525" xlink:href="#DejaVuSans-36"/>
     <use x="588.623047" xlink:href="#DejaVuSans-2d"/>
     <use x="624.707031" xlink:href="#DejaVuSans-30"/>
     <use x="688.330078" xlink:href="#DejaVuSans-32"/>
     <use x="751.953125" xlink:href="#DejaVuSans-2d"/>
     <use x="788.037109" xlink:href="#DejaVuSans-30"/>
     <use x="851.660156" xlink:href="#DejaVuSans-31"/>
    </g>
   </g>
   <g id="text_19">
    <!-- t_net: 2016-02-01 -->
    <g transform="translate(142.085172 182.997374)rotate(-45)scale(0.1 -0.1)">
     <use xlink:href="#DejaVuSans-74"/>
     <use x="39.208984" xlink:href="#DejaVuSans-5f"/>
     <use x="89.208984" xlink:href="#DejaVuSans-6e"/>
     <use x="152.587891" xlink:href="#DejaVuSans-65"/>
     <use x="214.111328" xlink:href="#DejaVuSans-74"/>
     <use x="253.320312" xlink:href="#DejaVuSans-3a"/>
     <use x="287.011719" xlink:href="#DejaVuSans-20"/>
     <use x="318.798828" xlink:href="#DejaVuSans-32"/>
     <use x="382.421875" xlink:href="#DejaVuSans-30"/>
     <use x="446.044922" xlink:href="#DejaVuSans-31"/>
     <use x="509.667969" xlink:href="#DejaVuSans-36"/>
     <use x="573.291016" xlink:href="#DejaVuSans-2d"/>
     <use x="609.375" xlink:href="#DejaVuSans-30"/>
     <use x="672.998047" xlink:href="#DejaVuSans-32"/>
     <use x="736.621094" xlink:href="#DejaVuSans-2d"/>
     <use x="772.705078" xlink:href="#DejaVuSans-30"/>
     <use x="836.328125" xlink:href="#DejaVuSans-31"/>
    </g>
   </g>
   <g id="text_20">
    <!-- t_spray: 2016-02-01 -->
    <defs>
     <path d="M 32.171875 -5.078125 
Q 28.375 -14.84375 24.75 -17.8125 
Q 21.140625 -20.796875 15.09375 -20.796875 
L 7.90625 -20.796875 
L 7.90625 -13.28125 
L 13.1875 -13.28125 
Q 16.890625 -13.28125 18.9375 -11.515625 
Q 21 -9.765625 23.484375 -3.21875 
L 25.09375 0.875 
L 2.984375 54.6875 
L 12.5 54.6875 
L 29.59375 11.921875 
L 46.6875 54.6875 
L 56.203125 54.6875 
z
" id="DejaVuSans-79"/>
    </defs>
    <g transform="translate(142.085172 169.239261)rotate(-45)scale(0.1 -0.1)">
     <use xlink:href="#DejaVuSans-74"/>
     <use x="39.208984" xlink:href="#DejaVuSans-5f"/>
     <use x="89.208984" xlink:href="#DejaVuSans-73"/>
     <use x="141.308594" xlink:href="#DejaVuSans-70"/>
     <use x="204.785156" xlink:href="#DejaVuSans-72"/>
     <use x="245.898438" xlink:href="#DejaVuSans-61"/>
     <use x="307.177734" xlink:href="#DejaVuSans-79"/>
     <use x="366.248047" xlink:href="#DejaVuSans-3a"/>
     <use x="399.939453" xlink:href="#DejaVuSans-20"/>
     <use x="431.726562" xlink:href="#DejaVuSans-32"/>
     <use x="495.349609" xlink:href="#DejaVuSans-30"/>
     <use x="558.972656" xlink:href="#DejaVuSans-31"/>
     <use x="622.595703" xlink:href="#DejaVuSans-36"/>
     <use x="686.21875" xlink:href="#DejaVuSans-2d"/>
     <use x="722.302734" xlink:href="#DejaVuSans-30"/>
     <use x="785.925781" xlink:href="#DejaVuSans-32"/>
     <use x="849.548828" xlink:href="#DejaVuSans-2d"/>
     <use x="885.632812" xlink:href="#DejaVuSans-30"/>
     <use x="949.255859" xlink:href="#DejaVuSans-31"/>
    </g>
   </g>
   <g id="text_21">
    <!-- t_seas_start: 2016-03-01 -->
    <defs>
     <path d="M 40.578125 39.3125 
Q 47.65625 37.796875 51.625 33 
Q 55.609375 28.21875 55.609375 21.1875 
Q 55.609375 10.40625 48.1875 4.484375 
Q 40.765625 -1.421875 27.09375 -1.421875 
Q 22.515625 -1.421875 17.65625 -0.515625 
Q 12.796875 0.390625 7.625 2.203125 
L 7.625 11.71875 
Q 11.71875 9.328125 16.59375 8.109375 
Q 21.484375 6.890625 26.8125 6.890625 
Q 36.078125 6.890625 40.9375 10.546875 
Q 45.796875 14.203125 45.796875 21.1875 
Q 45.796875 27.640625 41.28125 31.265625 
Q 36.765625 34.90625 28.71875 34.90625 
L 20.21875 34.90625 
L 20.21875 43.015625 
L 29.109375 43.015625 
Q 36.375 43.015625 40.234375 45.921875 
Q 44.09375 48.828125 44.09375 54.296875 
Q 44.09375 59.90625 40.109375 62.90625 
Q 36.140625 65.921875 28.71875 65.921875 
Q 24.65625 65.921875 20.015625 65.03125 
Q 15.375 64.15625 9.8125 62.3125 
L 9.8125 71.09375 
Q 15.4375 72.65625 20.34375 73.4375 
Q 25.25 74.21875 29.59375 74.21875 
Q 40.828125 74.21875 47.359375 69.109375 
Q 53.90625 64.015625 53.90625 55.328125 
Q 53.90625 49.265625 50.4375 45.09375 
Q 46.96875 40.921875 40.578125 39.3125 
" id="DejaVuSans-33"/>
    </defs>
    <g transform="translate(162.104141 163.959801)rotate(-45)scale(0.1 -0.1)">
     <use xlink:href="#DejaVuSans-74"/>
     <use x="39.208984" xlink:href="#DejaVuSans-5f"/>
     <use x="89.208984" xlink:href="#DejaVuSans-73"/>
     <use x="141.308594" xlink:href="#DejaVuSans-65"/>
     <use x="202.832031" xlink:href="#DejaVuSans-61"/>
     <use x="264.111328" xlink:href="#DejaVuSans-73"/>
     <use x="316.210938" xlink:href="#DejaVuSans-5f"/>
     <use x="366.210938" xlink:href="#DejaVuSans-73"/>
     <use x="418.310547" xlink:href="#DejaVuSans-74"/>
     <use x="457.519531" xlink:href="#DejaVuSans-61"/>
     <use x="518.798828" xlink:href="#DejaVuSans-72"/>
     <use x="559.912109" xlink:href="#DejaVuSans-74"/>
     <use x="599.121094" xlink:href="#DejaVuSans-3a"/>
     <use x="632.8125" xlink:href="#DejaVuSans-20"/>
     <use x="664.599609" xlink:href="#DejaVuSans-32"/>
     <use x="728.222656" xlink:href="#DejaVuSans-30"/>
     <use x="791.845703" xlink:href="#DejaVuSans-31"/>
     <use x="855.46875" xlink:href="#DejaVuSans-36"/>
     <use x="919.091797" xlink:href="#DejaVuSans-2d"/>
     <use x="955.175781" xlink:href="#DejaVuSans-30"/>
     <use x="1018.798828" xlink:href="#DejaVuSans-33"/>
     <use x="1082.421875" xlink:href="#DejaVuSans-2d"/>
     <use x="1118.505859" xlink:href="#DejaVuSans-30"/>
     <use x="1182.128906" xlink:href="#DejaVuSans-31"/>
    </g>
   </g>
   <g id="text_22">
    <!-- t_seas_end: 2016-09-01 -->
    <defs>
     <path d="M 45.40625 46.390625 
L 45.40625 75.984375 
L 54.390625 75.984375 
L 54.390625 0 
L 45.40625 0 
L 45.40625 8.203125 
Q 42.578125 3.328125 38.25 0.953125 
Q 33.9375 -1.421875 27.875 -1.421875 
Q 17.96875 -1.421875 11.734375 6.484375 
Q 5.515625 14.40625 5.515625 27.296875 
Q 5.515625 40.1875 11.734375 48.09375 
Q 17.96875 56 27.875 56 
Q 33.9375 56 38.25 53.625 
Q 42.578125 51.265625 45.40625 46.390625 
M 14.796875 27.296875 
Q 14.796875 17.390625 18.875 11.75 
Q 22.953125 6.109375 30.078125 6.109375 
Q 37.203125 6.109375 41.296875 11.75 
Q 45.40625 17.390625 45.40625 27.296875 
Q 45.40625 37.203125 41.296875 42.84375 
Q 37.203125 48.484375 30.078125 48.484375 
Q 22.953125 48.484375 18.875 42.84375 
Q 14.796875 37.203125 14.796875 27.296875 
" id="DejaVuSans-64"/>
     <path d="M 10.984375 1.515625 
L 10.984375 10.5 
Q 14.703125 8.734375 18.5 7.8125 
Q 22.3125 6.890625 25.984375 6.890625 
Q 35.75 6.890625 40.890625 13.453125 
Q 46.046875 20.015625 46.78125 33.40625 
Q 43.953125 29.203125 39.59375 26.953125 
Q 35.25 24.703125 29.984375 24.703125 
Q 19.046875 24.703125 12.671875 31.3125 
Q 6.296875 37.9375 6.296875 49.421875 
Q 6.296875 60.640625 12.9375 67.421875 
Q 19.578125 74.21875 30.609375 74.21875 
Q 43.265625 74.21875 49.921875 64.515625 
Q 56.59375 54.828125 56.59375 36.375 
Q 56.59375 19.140625 48.40625 8.859375 
Q 40.234375 -1.421875 26.421875 -1.421875 
Q 22.703125 -1.421875 18.890625 -0.6875 
Q 15.09375 0.046875 10.984375 1.515625 
M 30.609375 32.421875 
Q 37.25 32.421875 41.125 36.953125 
Q 45.015625 41.5 45.015625 49.421875 
Q 45.015625 57.28125 41.125 61.84375 
Q 37.25 66.40625 30.609375 66.40625 
Q 23.96875 66.40625 20.09375 61.84375 
Q 16.21875 57.28125 16.21875 49.421875 
Q 16.21875 41.5 20.09375 36.953125 
Q 23.96875 32.421875 30.609375 32.421875 
" id="DejaVuSans-39"/>
    </defs>
    <g transform="translate(278.891257 160.761462)rotate(-45)scale(0.1 -0.1)">
     <use xlink:href="#DejaVuSans-74"/>
     <use x="39.208984" xlink:href="#DejaVuSans-5f"/>
     <use x="89.208984" xlink:href="#DejaVuSans-73"/>
     <use x="141.308594" xlink:href="#DejaVuSans-65"/>
     <use x="202.832031" xlink:href="#DejaVuSans-61"/>
     <use x="264.111328" xlink:href="#DejaVuSans-73"/>
     <use x="316.210938" xlink:href="#DejaVuSans-5f"/>
     <use x="366.210938" xlink:href="#DejaVuSans-65"/>
     <use x="427.734375" xlink:href="#DejaVuSans-6e"/>
     <use x="491.113281" xlink:href="#DejaVuSans-64"/>
     <use x="554.589844" xlink:href="#DejaVuSans-3a"/>
     <use x="588.28125" xlink:href="#DejaVuSans-20"/>
     <use x="620.068359" xlink:href="#DejaVuSans-32"/>
     <use x="683.691406" xlink:href="#DejaVuSans-30"/>
     <use x="747.314453" xlink:href="#DejaVuSans-31"/>
     <use x="810.9375" xlink:href="#DejaVuSans-36"/>
     <use x="874.560547" xlink:href="#DejaVuSans-2d"/>
     <use x="910.644531" xlink:href="#DejaVuSans-30"/>
     <use x="974.267578" xlink:href="#DejaVuSans-39"/>
     <use x="1037.890625" xlink:href="#DejaVuSans-2d"/>
     <use x="1073.974609" xlink:href="#DejaVuSans-30"/>
     <use x="1137.597656" xlink:href="#DejaVuSans-31"/>
    </g>
   </g>
   <g id="text_23">
    <!-- t_seas_start: 2016-11-01 -->
    <g transform="translate(331.229914 163.959801)rotate(-45)scale(0.1 -0.1)">
     <use xlink:href="#DejaVuSans-74"/>
     <use x="39.208984" xlink:href="#DejaVuSans-5f"/>
     <use x="89.208984" xlink:href="#DejaVuSans-73"/>
     <use x="141.308594" xlink:href="#DejaVuSans-65"/>
     <use x="202.832031" xlink:href="#DejaVuSans-61"/>
     <use x="264.111328" xlink:href="#DejaVuSans-73"/>
     <use x="316.210938" xlink:href="#DejaVuSans-5f"/>
     <use x="366.210938" xlink:href="#DejaVuSans-73"/>
     <use x="418.310547" xlink:href="#DejaVuSans-74"/>
     <use x="457.519531" xlink:href="#DejaVuSans-61"/>
     <use x="518.798828" xlink:href="#DejaVuSans-72"/>
     <use x="559.912109" xlink:href="#DejaVuSans-74"/>
     <use x="599.121094" xlink:href="#DejaVuSans-3a"/>
     <use x="632.8125" xlink:href="#DejaVuSans-20"/>
     <use x="664.599609" xlink:href="#DejaVuSans-32"/>
     <use x="728.222656" xlink:href="#DejaVuSans-30"/>
     <use x="791.845703" xlink:href="#DejaVuSans-31"/>
     <use x="855.46875" xlink:href="#DejaVuSans-36"/>
     <use x="919.091797" xlink:href="#DejaVuSans-2d"/>
     <use x="955.175781" xlink:href="#DejaVuSans-31"/>
     <use x="1018.798828" xlink:href="#DejaVuSans-31"/>
     <use x="1082.421875" xlink:href="#DejaVuSans-2d"/>
     <use x="1118.505859" xlink:href="#DejaVuSans-30"/>
     <use x="1182.128906" xlink:href="#DejaVuSans-31"/>
    </g>
   </g>
   <g id="text_24">
    <!-- t_seas_end: 2017-01-01 -->
    <defs>
     <path d="M 8.203125 72.90625 
L 55.078125 72.90625 
L 55.078125 68.703125 
L 28.609375 0 
L 18.3125 0 
L 43.21875 64.59375 
L 8.203125 64.59375 
z
" id="DejaVuSans-37"/>
    </defs>
    <g transform="translate(363.108989 160.761462)rotate(-45)scale(0.1 -0.1)">
     <use xlink:href="#DejaVuSans-74"/>
     <use x="39.208984" xlink:href="#DejaVuSans-5f"/>
     <use x="89.208984" xlink:href="#DejaVuSans-73"/>
     <use x="141.308594" xlink:href="#DejaVuSans-65"/>
     <use x="202.832031" xlink:href="#DejaVuSans-61"/>
     <use x="264.111328" xlink:href="#DejaVuSans-73"/>
     <use x="316.210938" xlink:href="#DejaVuSans-5f"/>
     <use x="366.210938" xlink:href="#DejaVuSans-65"/>
     <use x="427.734375" xlink:href="#DejaVuSans-6e"/>
     <use x="491.113281" xlink:href="#DejaVuSans-64"/>
     <use x="554.589844" xlink:href="#DejaVuSans-3a"/>
     <use x="588.28125" xlink:href="#DejaVuSans-20"/>
     <use x="620.068359" xlink:href="#DejaVuSans-32"/>
     <use x="683.691406" xlink:href="#DejaVuSans-30"/>
     <use x="747.314453" xlink:href="#DejaVuSans-31"/>
     <use x="810.9375" xlink:href="#DejaVuSans-37"/>
     <use x="874.560547" xlink:href="#DejaVuSans-2d"/>
     <use x="910.644531" xlink:href="#DejaVuSans-30"/>
     <use x="974.267578" xlink:href="#DejaVuSans-31"/>
     <use x="1037.890625" xlink:href="#DejaVuSans-2d"/>
     <use x="1073.974609" xlink:href="#DejaVuSans-30"/>
     <use x="1137.597656" xlink:href="#DejaVuSans-31"/>
    </g>
   </g>
   <g id="text_25">
    <!-- Disease Prevalence vs. Time (months) for All, with Integration -->
    <defs>
     <path d="M 19.671875 64.796875 
L 19.671875 8.109375 
L 31.59375 8.109375 
Q 46.6875 8.109375 53.6875 14.9375 
Q 60.6875 21.78125 60.6875 36.53125 
Q 60.6875 51.171875 53.6875 57.984375 
Q 46.6875 64.796875 31.59375 64.796875 
z
M 9.8125 72.90625 
L 30.078125 72.90625 
Q 51.265625 72.90625 61.171875 64.09375 
Q 71.09375 55.28125 71.09375 36.53125 
Q 71.09375 17.671875 61.125 8.828125 
Q 51.171875 0 30.078125 0 
L 9.8125 0 
z
" id="DejaVuSans-44"/>
     <path d="M 34.1875 63.1875 
L 20.796875 26.90625 
L 47.609375 26.90625 
z
M 28.609375 72.90625 
L 39.796875 72.90625 
L 67.578125 0 
L 57.328125 0 
L 50.6875 18.703125 
L 17.828125 18.703125 
L 11.1875 0 
L 0.78125 0 
z
" id="DejaVuSans-41"/>
     <path d="M 11.71875 12.40625 
L 22.015625 12.40625 
L 22.015625 4 
L 14.015625 -11.625 
L 7.71875 -11.625 
L 11.71875 4 
z
" id="DejaVuSans-2c"/>
     <path d="M 4.203125 54.6875 
L 13.1875 54.6875 
L 24.421875 12.015625 
L 35.59375 54.6875 
L 46.1875 54.6875 
L 57.421875 12.015625 
L 68.609375 54.6875 
L 77.59375 54.6875 
L 63.28125 0 
L 52.6875 0 
L 40.921875 44.828125 
L 29.109375 0 
L 18.5 0 
z
" id="DejaVuSans-77"/>
     <path d="M 9.8125 72.90625 
L 19.671875 72.90625 
L 19.671875 0 
L 9.8125 0 
z
" id="DejaVuSans-49"/>
     <path d="M 45.40625 27.984375 
Q 45.40625 37.75 41.375 43.109375 
Q 37.359375 48.484375 30.078125 48.484375 
Q 22.859375 48.484375 18.828125 43.109375 
Q 14.796875 37.75 14.796875 27.984375 
Q 14.796875 18.265625 18.828125 12.890625 
Q 22.859375 7.515625 30.078125 7.515625 
Q 37.359375 7.515625 41.375 12.890625 
Q 45.40625 18.265625 45.40625 27.984375 
M 54.390625 6.78125 
Q 54.390625 -7.171875 48.1875 -13.984375 
Q 42 -20.796875 29.203125 -20.796875 
Q 24.46875 -20.796875 20.265625 -20.09375 
Q 16.0625 -19.390625 12.109375 -17.921875 
L 12.109375 -9.1875 
Q 16.0625 -11.328125 19.921875 -12.34375 
Q 23.78125 -13.375 27.78125 -13.375 
Q 36.625 -13.375 41.015625 -8.765625 
Q 45.40625 -4.15625 45.40625 5.171875 
L 45.40625 9.625 
Q 42.625 4.78125 38.28125 2.390625 
Q 33.9375 0 27.875 0 
Q 17.828125 0 11.671875 7.65625 
Q 5.515625 15.328125 5.515625 27.984375 
Q 5.515625 40.671875 11.671875 48.328125 
Q 17.828125 56 27.875 56 
Q 33.9375 56 38.28125 53.609375 
Q 42.625 51.21875 45.40625 46.390625 
L 45.40625 54.6875 
L 54.390625 54.6875 
z
" id="DejaVuSans-67"/>
    </defs>
    <g transform="translate(35.278125 28.56)scale(0.12 -0.12)">
     <use xlink:href="#DejaVuSans-44"/>
     <use x="77.001953" xlink:href="#DejaVuSans-69"/>
     <use x="104.785156" xlink:href="#DejaVuSans-73"/>
     <use x="156.884766" xlink:href="#DejaVuSans-65"/>
     <use x="218.408203" xlink:href="#DejaVuSans-61"/>
     <use x="279.6875" xlink:href="#DejaVuSans-73"/>
     <use x="331.787109" xlink:href="#DejaVuSans-65"/>
     <use x="393.310547" xlink:href="#DejaVuSans-20"/>
     <use x="425.097656" xlink:href="#DejaVuSans-50"/>
     <use x="485.384766" xlink:href="#DejaVuSans-72"/>
     <use x="526.466797" xlink:href="#DejaVuSans-65"/>
     <use x="587.990234" xlink:href="#DejaVuSans-76"/>
     <use x="647.169922" xlink:href="#DejaVuSans-61"/>
     <use x="708.449219" xlink:href="#DejaVuSans-6c"/>
     <use x="736.232422" xlink:href="#DejaVuSans-65"/>
     <use x="797.755859" xlink:href="#DejaVuSans-6e"/>
     <use x="861.134766" xlink:href="#DejaVuSans-63"/>
     <use x="916.115234" xlink:href="#DejaVuSans-65"/>
     <use x="977.638672" xlink:href="#DejaVuSans-20"/>
     <use x="1009.425781" xlink:href="#DejaVuSans-76"/>
     <use x="1068.605469" xlink:href="#DejaVuSans-73"/>
     <use x="1120.705078" xlink:href="#DejaVuSans-2e"/>
     <use x="1152.492188" xlink:href="#DejaVuSans-20"/>
     <use x="1184.279297" xlink:href="#DejaVuSans-54"/>
     <use x="1245.316406" xlink:href="#DejaVuSans-69"/>
     <use x="1273.099609" xlink:href="#DejaVuSans-6d"/>
     <use x="1370.511719" xlink:href="#DejaVuSans-65"/>
     <use x="1432.035156" xlink:href="#DejaVuSans-20"/>
     <use x="1463.822266" xlink:href="#DejaVuSans-28"/>
     <use x="1502.835938" xlink:href="#DejaVuSans-6d"/>
     <use x="1600.248047" xlink:href="#DejaVuSans-6f"/>
     <use x="1661.429688" xlink:href="#DejaVuSans-6e"/>
     <use x="1724.808594" xlink:href="#DejaVuSans-74"/>
     <use x="1764.017578" xlink:href="#DejaVuSans-68"/>
     <use x="1827.396484" xlink:href="#DejaVuSans-73"/>
     <use x="1879.496094" xlink:href="#DejaVuSans-29"/>
     <use x="1918.509766" xlink:href="#DejaVuSans-20"/>
     <use x="1950.296875" xlink:href="#DejaVuSans-66"/>
     <use x="1985.501953" xlink:href="#DejaVuSans-6f"/>
     <use x="2046.683594" xlink:href="#DejaVuSans-72"/>
     <use x="2087.796875" xlink:href="#DejaVuSans-20"/>
     <use x="2119.583984" xlink:href="#DejaVuSans-41"/>
     <use x="2187.992188" xlink:href="#DejaVuSans-6c"/>
     <use x="2215.775391" xlink:href="#DejaVuSans-6c"/>
     <use x="2243.558594" xlink:href="#DejaVuSans-2c"/>
     <use x="2275.345703" xlink:href="#DejaVuSans-20"/>
     <use x="2307.132812" xlink:href="#DejaVuSans-77"/>
     <use x="2388.919922" xlink:href="#DejaVuSans-69"/>
     <use x="2416.703125" xlink:href="#DejaVuSans-74"/>
     <use x="2455.912109" xlink:href="#DejaVuSans-68"/>
     <use x="2519.291016" xlink:href="#DejaVuSans-20"/>
     <use x="2551.078125" xlink:href="#DejaVuSans-49"/>
     <use x="2580.570312" xlink:href="#DejaVuSans-6e"/>
     <use x="2643.949219" xlink:href="#DejaVuSans-74"/>
     <use x="2683.158203" xlink:href="#DejaVuSans-65"/>
     <use x="2744.681641" xlink:href="#DejaVuSans-67"/>
     <use x="2808.158203" xlink:href="#DejaVuSans-72"/>
     <use x="2849.271484" xlink:href="#DejaVuSans-61"/>
     <use x="2910.550781" xlink:href="#DejaVuSans-74"/>
     <use x="2949.759766" xlink:href="#DejaVuSans-69"/>
     <use x="2977.542969" xlink:href="#DejaVuSans-6f"/>
     <use x="3038.724609" xlink:href="#DejaVuSans-6e"/>
    </g>
   </g>
   <g id="legend_1">
    <g id="patch_7">
     <path d="M 270.417188 71.91625 
L 381.8 71.91625 
Q 383.8 71.91625 383.8 69.91625 
L 383.8 41.56 
Q 383.8 39.56 381.8 39.56 
L 270.417188 39.56 
Q 268.417188 39.56 268.417188 41.56 
L 268.417188 69.91625 
Q 268.417188 71.91625 270.417188 71.91625 
z
" style="fill:#ffffff;opacity:0.8;stroke:#cccccc;stroke-linejoin:miter;"/>
    </g>
    <g id="line2d_40">
     <path d="M 272.417188 47.658437 
L 292.417188 47.658437 
" style="fill:none;stroke:#1f77b4;stroke-linecap:square;stroke-width:1.5;"/>
    </g>
    <g id="line2d_41"/>
    <g id="text_26">
     <!-- Schistosomiasis -->
     <defs>
      <path d="M 53.515625 70.515625 
L 53.515625 60.890625 
Q 47.90625 63.578125 42.921875 64.890625 
Q 37.9375 66.21875 33.296875 66.21875 
Q 25.25 66.21875 20.875 63.09375 
Q 16.5 59.96875 16.5 54.203125 
Q 16.5 49.359375 19.40625 46.890625 
Q 22.3125 44.4375 30.421875 42.921875 
L 36.375 41.703125 
Q 47.40625 39.59375 52.65625 34.296875 
Q 57.90625 29 57.90625 20.125 
Q 57.90625 9.515625 50.796875 4.046875 
Q 43.703125 -1.421875 29.984375 -1.421875 
Q 24.8125 -1.421875 18.96875 -0.25 
Q 13.140625 0.921875 6.890625 3.21875 
L 6.890625 13.375 
Q 12.890625 10.015625 18.65625 8.296875 
Q 24.421875 6.59375 29.984375 6.59375 
Q 38.421875 6.59375 43.015625 9.90625 
Q 47.609375 13.234375 47.609375 19.390625 
Q 47.609375 24.75 44.3125 27.78125 
Q 41.015625 30.8125 33.5 32.328125 
L 27.484375 33.5 
Q 16.453125 35.6875 11.515625 40.375 
Q 6.59375 45.0625 6.59375 53.421875 
Q 6.59375 63.09375 13.40625 68.65625 
Q 20.21875 74.21875 32.171875 74.21875 
Q 37.3125 74.21875 42.625 73.28125 
Q 47.953125 72.359375 53.515625 70.515625 
" id="DejaVuSans-53"/>
     </defs>
     <g transform="translate(300.417188 51.158437)scale(0.1 -0.1)">
      <use xlink:href="#DejaVuSans-53"/>
      <use x="63.476562" xlink:href="#DejaVuSans-63"/>
      <use x="118.457031" xlink:href="#DejaVuSans-68"/>
      <use x="181.835938" xlink:href="#DejaVuSans-69"/>
      <use x="209.619141" xlink:href="#DejaVuSans-73"/>
      <use x="261.71875" xlink:href="#DejaVuSans-74"/>
      <use x="300.927734" xlink:href="#DejaVuSans-6f"/>
      <use x="362.109375" xlink:href="#DejaVuSans-73"/>
      <use x="414.208984" xlink:href="#DejaVuSans-6f"/>
      <use x="475.390625" xlink:href="#DejaVuSans-6d"/>
      <use x="572.802734" xlink:href="#DejaVuSans-69"/>
      <use x="600.585938" xlink:href="#DejaVuSans-61"/>
      <use x="661.865234" xlink:href="#DejaVuSans-73"/>
      <use x="713.964844" xlink:href="#DejaVuSans-69"/>
      <use x="741.748047" xlink:href="#DejaVuSans-73"/>
     </g>
    </g>
    <g id="line2d_42">
     <path d="M 272.417188 62.336562 
L 292.417188 62.336562 
" style="fill:none;stroke:#ff7f0e;stroke-linecap:square;stroke-width:1.5;"/>
    </g>
    <g id="line2d_43"/>
    <g id="text_27">
     <!-- Malaria -->
     <defs>
      <path d="M 9.8125 72.90625 
L 24.515625 72.90625 
L 43.109375 23.296875 
L 61.8125 72.90625 
L 76.515625 72.90625 
L 76.515625 0 
L 66.890625 0 
L 66.890625 64.015625 
L 48.09375 14.015625 
L 38.1875 14.015625 
L 19.390625 64.015625 
L 19.390625 0 
L 9.8125 0 
z
" id="DejaVuSans-4d"/>
     </defs>
     <g transform="translate(300.417188 65.836562)scale(0.1 -0.1)">
      <use xlink:href="#DejaVuSans-4d"/>
      <use x="86.279297" xlink:href="#DejaVuSans-61"/>
      <use x="147.558594" xlink:href="#DejaVuSans-6c"/>
      <use x="175.341797" xlink:href="#DejaVuSans-61"/>
      <use x="236.621094" xlink:href="#DejaVuSans-72"/>
      <use x="277.734375" xlink:href="#DejaVuSans-69"/>
      <use x="305.517578" xlink:href="#DejaVuSans-61"/>
     </g>
    </g>
   </g>
  </g>
 </g>
 <defs>
  <clipPath id="p19489bf79a">
   <rect height="217.44" width="334.8" x="54" y="34.56"/>
  </clipPath>
 </defs>
</svg>
