<?xml version="1.0" encoding="utf-8" standalone="no"?>
<!DOCTYPE svg PUBLIC "-//W3C//DTD SVG 1.1//EN"
  "http://www.w3.org/Graphics/SVG/1.1/DTD/svg11.dtd">
<!-- Created with matplotlib (http://matplotlib.org/) -->
<svg height="345pt" version="1.1" viewBox="0 0 460 345" width="460pt" xmlns="http://www.w3.org/2000/svg" xmlns:xlink="http://www.w3.org/1999/xlink">
 <defs>
  <style type="text/css">
*{stroke-linecap:butt;stroke-linejoin:round;}
  </style>
 </defs>
 <g id="figure_1">
  <g id="patch_1">
   <path d="M 0 345.6 
L 460.8 345.6 
L 460.8 0 
L 0 0 
z
" style="fill:#ffffff;"/>
  </g>
  <g id="axes_1">
   <g id="patch_2">
    <path d="M 57.6 307.584 
L 414.72 307.584 
L 414.72 41.472 
L 57.6 41.472 
z
" style="fill:#ffffff;"/>
   </g>
   <g id="matplotlib.axis_1">
    <g id="xtick_1">
     <g id="line2d_1">
      <path clip-path="url(#pb2934f1414)" d="M 57.6 307.584 
L 57.6 41.472 
" style="fill:none;stroke:#b0b0b0;stroke-linecap:square;stroke-width:0.8;"/>
     </g>
     <g id="line2d_2">
      <defs>
       <path d="M 0 0 
L 0 3.5 
" id="m14de097d0c" style="stroke:#000000;stroke-width:0.8;"/>
      </defs>
      <g>
       <use style="stroke:#000000;stroke-width:0.8;" x="57.6" xlink:href="#m14de097d0c" y="307.584"/>
      </g>
     </g>
     <g id="text_1">
      <!-- −4 -->
      <defs>
       <path d="M 10.59375 35.5 
L 73.1875 35.5 
L 73.1875 27.203125 
L 10.59375 27.203125 
z
" id="DejaVuSans-2212"/>
       <path d="M 37.796875 64.3125 
L 12.890625 25.390625 
L 37.796875 25.390625 
z
M 35.203125 72.90625 
L 47.609375 72.90625 
L 47.609375 25.390625 
L 58.015625 25.390625 
L 58.015625 17.1875 
L 47.609375 17.1875 
L 47.609375 0 
L 37.796875 0 
L 37.796875 17.1875 
L 4.890625 17.1875 
L 4.890625 26.703125 
z
" id="DejaVuSans-34"/>
      </defs>
      <g transform="translate(50.228906 322.182437)scale(0.1 -0.1)">
       <use xlink:href="#DejaVuSans-2212"/>
       <use x="83.789062" xlink:href="#DejaVuSans-34"/>
      </g>
     </g>
    </g>
    <g id="xtick_2">
     <g id="line2d_3">
      <path clip-path="url(#pb2934f1414)" d="M 101.779794 307.584 
L 101.779794 41.472 
" style="fill:none;stroke:#b0b0b0;stroke-linecap:square;stroke-width:0.8;"/>
     </g>
     <g id="line2d_4">
      <g>
       <use style="stroke:#000000;stroke-width:0.8;" x="101.779794" xlink:href="#m14de097d0c" y="307.584"/>
      </g>
     </g>
     <g id="text_2">
      <!-- −2 -->
      <defs>
       <path d="M 19.1875 8.296875 
L 53.609375 8.296875 
L 53.609375 0 
L 7.328125 0 
L 7.328125 8.296875 
Q 12.9375 14.109375 22.625 23.890625 
Q 32.328125 33.6875 34.8125 36.53125 
Q 39.546875 41.84375 41.421875 45.53125 
Q 43.3125 49.21875 43.3125 52.78125 
Q 43.3125 58.59375 39.234375 62.25 
Q 35.15625 65.921875 28.609375 65.921875 
Q 23.96875 65.921875 18.8125 64.3125 
Q 13.671875 62.703125 7.8125 59.421875 
L 7.8125 69.390625 
Q 13.765625 71.78125 18.9375 73 
Q 24.125 74.21875 28.421875 74.21875 
Q 39.75 74.21875 46.484375 68.546875 
Q 53.21875 62.890625 53.21875 53.421875 
Q 53.21875 48.921875 51.53125 44.890625 
Q 49.859375 40.875 45.40625 35.40625 
Q 44.1875 33.984375 37.640625 27.21875 
Q 31.109375 20.453125 19.1875 8.296875 
" id="DejaVuSans-32"/>
      </defs>
      <g transform="translate(94.4087 322.182437)scale(0.1 -0.1)">
       <use xlink:href="#DejaVuSans-2212"/>
       <use x="83.789062" xlink:href="#DejaVuSans-32"/>
      </g>
     </g>
    </g>
    <g id="xtick_3">
     <g id="line2d_5">
      <path clip-path="url(#pb2934f1414)" d="M 145.959588 307.584 
L 145.959588 41.472 
" style="fill:none;stroke:#b0b0b0;stroke-linecap:square;stroke-width:0.8;"/>
     </g>
     <g id="line2d_6">
      <g>
       <use style="stroke:#000000;stroke-width:0.8;" x="145.959588" xlink:href="#m14de097d0c" y="307.584"/>
      </g>
     </g>
     <g id="text_3">
      <!-- 0 -->
      <defs>
       <path d="M 31.78125 66.40625 
Q 24.171875 66.40625 20.328125 58.90625 
Q 16.5 51.421875 16.5 36.375 
Q 16.5 21.390625 20.328125 13.890625 
Q 24.171875 6.390625 31.78125 6.390625 
Q 39.453125 6.390625 43.28125 13.890625 
Q 47.125 21.390625 47.125 36.375 
Q 47.125 51.421875 43.28125 58.90625 
Q 39.453125 66.40625 31.78125 66.40625 
M 31.78125 74.21875 
Q 44.046875 74.21875 50.515625 64.515625 
Q 56.984375 54.828125 56.984375 36.375 
Q 56.984375 17.96875 50.515625 8.265625 
Q 44.046875 -1.421875 31.78125 -1.421875 
Q 19.53125 -1.421875 13.0625 8.265625 
Q 6.59375 17.96875 6.59375 36.375 
Q 6.59375 54.828125 13.0625 64.515625 
Q 19.53125 74.21875 31.78125 74.21875 
" id="DejaVuSans-30"/>
      </defs>
      <g transform="translate(142.778338 322.182437)scale(0.1 -0.1)">
       <use xlink:href="#DejaVuSans-30"/>
      </g>
     </g>
    </g>
    <g id="xtick_4">
     <g id="line2d_7">
      <path clip-path="url(#pb2934f1414)" d="M 190.139381 307.584 
L 190.139381 41.472 
" style="fill:none;stroke:#b0b0b0;stroke-linecap:square;stroke-width:0.8;"/>
     </g>
     <g id="line2d_8">
      <g>
       <use style="stroke:#000000;stroke-width:0.8;" x="190.139381" xlink:href="#m14de097d0c" y="307.584"/>
      </g>
     </g>
     <g id="text_4">
      <!-- 2 -->
      <g transform="translate(186.958131 322.182437)scale(0.1 -0.1)">
       <use xlink:href="#DejaVuSans-32"/>
      </g>
     </g>
    </g>
    <g id="xtick_5">
     <g id="line2d_9">
      <path clip-path="url(#pb2934f1414)" d="M 234.319175 307.584 
L 234.319175 41.472 
" style="fill:none;stroke:#b0b0b0;stroke-linecap:square;stroke-width:0.8;"/>
     </g>
     <g id="line2d_10">
      <g>
       <use style="stroke:#000000;stroke-width:0.8;" x="234.319175" xlink:href="#m14de097d0c" y="307.584"/>
      </g>
     </g>
     <g id="text_5">
      <!-- 4 -->
      <g transform="translate(231.137925 322.182437)scale(0.1 -0.1)">
       <use xlink:href="#DejaVuSans-34"/>
      </g>
     </g>
    </g>
    <g id="xtick_6">
     <g id="line2d_11">
      <path clip-path="url(#pb2934f1414)" d="M 278.498969 307.584 
L 278.498969 41.472 
" style="fill:none;stroke:#b0b0b0;stroke-linecap:square;stroke-width:0.8;"/>
     </g>
     <g id="line2d_12">
      <g>
       <use style="stroke:#000000;stroke-width:0.8;" x="278.498969" xlink:href="#m14de097d0c" y="307.584"/>
      </g>
     </g>
     <g id="text_6">
      <!-- 6 -->
      <defs>
       <path d="M 33.015625 40.375 
Q 26.375 40.375 22.484375 35.828125 
Q 18.609375 31.296875 18.609375 23.390625 
Q 18.609375 15.53125 22.484375 10.953125 
Q 26.375 6.390625 33.015625 6.390625 
Q 39.65625 6.390625 43.53125 10.953125 
Q 47.40625 15.53125 47.40625 23.390625 
Q 47.40625 31.296875 43.53125 35.828125 
Q 39.65625 40.375 33.015625 40.375 
M 52.59375 71.296875 
L 52.59375 62.3125 
Q 48.875 64.0625 45.09375 64.984375 
Q 41.3125 65.921875 37.59375 65.921875 
Q 27.828125 65.921875 22.671875 59.328125 
Q 17.53125 52.734375 16.796875 39.40625 
Q 19.671875 43.65625 24.015625 45.921875 
Q 28.375 48.1875 33.59375 48.1875 
Q 44.578125 48.1875 50.953125 41.515625 
Q 57.328125 34.859375 57.328125 23.390625 
Q 57.328125 12.15625 50.6875 5.359375 
Q 44.046875 -1.421875 33.015625 -1.421875 
Q 20.359375 -1.421875 13.671875 8.265625 
Q 6.984375 17.96875 6.984375 36.375 
Q 6.984375 53.65625 15.1875 63.9375 
Q 23.390625 74.21875 37.203125 74.21875 
Q 40.921875 74.21875 44.703125 73.484375 
Q 48.484375 72.75 52.59375 71.296875 
" id="DejaVuSans-36"/>
      </defs>
      <g transform="translate(275.317719 322.182437)scale(0.1 -0.1)">
       <use xlink:href="#DejaVuSans-36"/>
      </g>
     </g>
    </g>
    <g id="xtick_7">
     <g id="line2d_13">
      <path clip-path="url(#pb2934f1414)" d="M 322.678763 307.584 
L 322.678763 41.472 
" style="fill:none;stroke:#b0b0b0;stroke-linecap:square;stroke-width:0.8;"/>
     </g>
     <g id="line2d_14">
      <g>
       <use style="stroke:#000000;stroke-width:0.8;" x="322.678763" xlink:href="#m14de097d0c" y="307.584"/>
      </g>
     </g>
     <g id="text_7">
      <!-- 8 -->
      <defs>
       <path d="M 31.78125 34.625 
Q 24.75 34.625 20.71875 30.859375 
Q 16.703125 27.09375 16.703125 20.515625 
Q 16.703125 13.921875 20.71875 10.15625 
Q 24.75 6.390625 31.78125 6.390625 
Q 38.8125 6.390625 42.859375 10.171875 
Q 46.921875 13.96875 46.921875 20.515625 
Q 46.921875 27.09375 42.890625 30.859375 
Q 38.875 34.625 31.78125 34.625 
M 21.921875 38.8125 
Q 15.578125 40.375 12.03125 44.71875 
Q 8.5 49.078125 8.5 55.328125 
Q 8.5 64.0625 14.71875 69.140625 
Q 20.953125 74.21875 31.78125 74.21875 
Q 42.671875 74.21875 48.875 69.140625 
Q 55.078125 64.0625 55.078125 55.328125 
Q 55.078125 49.078125 51.53125 44.71875 
Q 48 40.375 41.703125 38.8125 
Q 48.828125 37.15625 52.796875 32.3125 
Q 56.78125 27.484375 56.78125 20.515625 
Q 56.78125 9.90625 50.3125 4.234375 
Q 43.84375 -1.421875 31.78125 -1.421875 
Q 19.734375 -1.421875 13.25 4.234375 
Q 6.78125 9.90625 6.78125 20.515625 
Q 6.78125 27.484375 10.78125 32.3125 
Q 14.796875 37.15625 21.921875 38.8125 
M 18.3125 54.390625 
Q 18.3125 48.734375 21.84375 45.5625 
Q 25.390625 42.390625 31.78125 42.390625 
Q 38.140625 42.390625 41.71875 45.5625 
Q 45.3125 48.734375 45.3125 54.390625 
Q 45.3125 60.0625 41.71875 63.234375 
Q 38.140625 66.40625 31.78125 66.40625 
Q 25.390625 66.40625 21.84375 63.234375 
Q 18.3125 60.0625 18.3125 54.390625 
" id="DejaVuSans-38"/>
      </defs>
      <g transform="translate(319.497513 322.182437)scale(0.1 -0.1)">
       <use xlink:href="#DejaVuSans-38"/>
      </g>
     </g>
    </g>
    <g id="xtick_8">
     <g id="line2d_15">
      <path clip-path="url(#pb2934f1414)" d="M 366.858557 307.584 
L 366.858557 41.472 
" style="fill:none;stroke:#b0b0b0;stroke-linecap:square;stroke-width:0.8;"/>
     </g>
     <g id="line2d_16">
      <g>
       <use style="stroke:#000000;stroke-width:0.8;" x="366.858557" xlink:href="#m14de097d0c" y="307.584"/>
      </g>
     </g>
     <g id="text_8">
      <!-- 10 -->
      <defs>
       <path d="M 12.40625 8.296875 
L 28.515625 8.296875 
L 28.515625 63.921875 
L 10.984375 60.40625 
L 10.984375 69.390625 
L 28.421875 72.90625 
L 38.28125 72.90625 
L 38.28125 8.296875 
L 54.390625 8.296875 
L 54.390625 0 
L 12.40625 0 
z
" id="DejaVuSans-31"/>
      </defs>
      <g transform="translate(360.496057 322.182437)scale(0.1 -0.1)">
       <use xlink:href="#DejaVuSans-31"/>
       <use x="63.623047" xlink:href="#DejaVuSans-30"/>
      </g>
     </g>
    </g>
    <g id="xtick_9">
     <g id="line2d_17">
      <path clip-path="url(#pb2934f1414)" d="M 411.038351 307.584 
L 411.038351 41.472 
" style="fill:none;stroke:#b0b0b0;stroke-linecap:square;stroke-width:0.8;"/>
     </g>
     <g id="line2d_18">
      <g>
       <use style="stroke:#000000;stroke-width:0.8;" x="411.038351" xlink:href="#m14de097d0c" y="307.584"/>
      </g>
     </g>
     <g id="text_9">
      <!-- 12 -->
      <g transform="translate(404.675851 322.182437)scale(0.1 -0.1)">
       <use xlink:href="#DejaVuSans-31"/>
       <use x="63.623047" xlink:href="#DejaVuSans-32"/>
      </g>
     </g>
    </g>
    <g id="text_10">
     <!-- Time (months) -->
     <defs>
      <path d="M -0.296875 72.90625 
L 61.375 72.90625 
L 61.375 64.59375 
L 35.5 64.59375 
L 35.5 0 
L 25.59375 0 
L 25.59375 64.59375 
L -0.296875 64.59375 
z
" id="DejaVuSans-54"/>
      <path d="M 9.421875 54.6875 
L 18.40625 54.6875 
L 18.40625 0 
L 9.421875 0 
z
M 9.421875 75.984375 
L 18.40625 75.984375 
L 18.40625 64.59375 
L 9.421875 64.59375 
z
" id="DejaVuSans-69"/>
      <path d="M 52 44.1875 
Q 55.375 50.25 60.0625 53.125 
Q 64.75 56 71.09375 56 
Q 79.640625 56 84.28125 50.015625 
Q 88.921875 44.046875 88.921875 33.015625 
L 88.921875 0 
L 79.890625 0 
L 79.890625 32.71875 
Q 79.890625 40.578125 77.09375 44.375 
Q 74.3125 48.1875 68.609375 48.1875 
Q 61.625 48.1875 57.5625 43.546875 
Q 53.515625 38.921875 53.515625 30.90625 
L 53.515625 0 
L 44.484375 0 
L 44.484375 32.71875 
Q 44.484375 40.625 41.703125 44.40625 
Q 38.921875 48.1875 33.109375 48.1875 
Q 26.21875 48.1875 22.15625 43.53125 
Q 18.109375 38.875 18.109375 30.90625 
L 18.109375 0 
L 9.078125 0 
L 9.078125 54.6875 
L 18.109375 54.6875 
L 18.109375 46.1875 
Q 21.1875 51.21875 25.484375 53.609375 
Q 29.78125 56 35.6875 56 
Q 41.65625 56 45.828125 52.96875 
Q 50 49.953125 52 44.1875 
" id="DejaVuSans-6d"/>
      <path d="M 56.203125 29.59375 
L 56.203125 25.203125 
L 14.890625 25.203125 
Q 15.484375 15.921875 20.484375 11.0625 
Q 25.484375 6.203125 34.421875 6.203125 
Q 39.59375 6.203125 44.453125 7.46875 
Q 49.3125 8.734375 54.109375 11.28125 
L 54.109375 2.78125 
Q 49.265625 0.734375 44.1875 -0.34375 
Q 39.109375 -1.421875 33.890625 -1.421875 
Q 20.796875 -1.421875 13.15625 6.1875 
Q 5.515625 13.8125 5.515625 26.8125 
Q 5.515625 40.234375 12.765625 48.109375 
Q 20.015625 56 32.328125 56 
Q 43.359375 56 49.78125 48.890625 
Q 56.203125 41.796875 56.203125 29.59375 
M 47.21875 32.234375 
Q 47.125 39.59375 43.09375 43.984375 
Q 39.0625 48.390625 32.421875 48.390625 
Q 24.90625 48.390625 20.390625 44.140625 
Q 15.875 39.890625 15.1875 32.171875 
z
" id="DejaVuSans-65"/>
      <path id="DejaVuSans-20"/>
      <path d="M 31 75.875 
Q 24.46875 64.65625 21.28125 53.65625 
Q 18.109375 42.671875 18.109375 31.390625 
Q 18.109375 20.125 21.3125 9.0625 
Q 24.515625 -2 31 -13.1875 
L 23.1875 -13.1875 
Q 15.875 -1.703125 12.234375 9.375 
Q 8.59375 20.453125 8.59375 31.390625 
Q 8.59375 42.28125 12.203125 53.3125 
Q 15.828125 64.359375 23.1875 75.875 
z
" id="DejaVuSans-28"/>
      <path d="M 30.609375 48.390625 
Q 23.390625 48.390625 19.1875 42.75 
Q 14.984375 37.109375 14.984375 27.296875 
Q 14.984375 17.484375 19.15625 11.84375 
Q 23.34375 6.203125 30.609375 6.203125 
Q 37.796875 6.203125 41.984375 11.859375 
Q 46.1875 17.53125 46.1875 27.296875 
Q 46.1875 37.015625 41.984375 42.703125 
Q 37.796875 48.390625 30.609375 48.390625 
M 30.609375 56 
Q 42.328125 56 49.015625 48.375 
Q 55.71875 40.765625 55.71875 27.296875 
Q 55.71875 13.875 49.015625 6.21875 
Q 42.328125 -1.421875 30.609375 -1.421875 
Q 18.84375 -1.421875 12.171875 6.21875 
Q 5.515625 13.875 5.515625 27.296875 
Q 5.515625 40.765625 12.171875 48.375 
Q 18.84375 56 30.609375 56 
" id="DejaVuSans-6f"/>
      <path d="M 54.890625 33.015625 
L 54.890625 0 
L 45.90625 0 
L 45.90625 32.71875 
Q 45.90625 40.484375 42.875 44.328125 
Q 39.84375 48.1875 33.796875 48.1875 
Q 26.515625 48.1875 22.3125 43.546875 
Q 18.109375 38.921875 18.109375 30.90625 
L 18.109375 0 
L 9.078125 0 
L 9.078125 54.6875 
L 18.109375 54.6875 
L 18.109375 46.1875 
Q 21.34375 51.125 25.703125 53.5625 
Q 30.078125 56 35.796875 56 
Q 45.21875 56 50.046875 50.171875 
Q 54.890625 44.34375 54.890625 33.015625 
" id="DejaVuSans-6e"/>
      <path d="M 18.3125 70.21875 
L 18.3125 54.6875 
L 36.8125 54.6875 
L 36.8125 47.703125 
L 18.3125 47.703125 
L 18.3125 18.015625 
Q 18.3125 11.328125 20.140625 9.421875 
Q 21.96875 7.515625 27.59375 7.515625 
L 36.8125 7.515625 
L 36.8125 0 
L 27.59375 0 
Q 17.1875 0 13.234375 3.875 
Q 9.28125 7.765625 9.28125 18.015625 
L 9.28125 47.703125 
L 2.6875 47.703125 
L 2.6875 54.6875 
L 9.28125 54.6875 
L 9.28125 70.21875 
z
" id="DejaVuSans-74"/>
      <path d="M 54.890625 33.015625 
L 54.890625 0 
L 45.90625 0 
L 45.90625 32.71875 
Q 45.90625 40.484375 42.875 44.328125 
Q 39.84375 48.1875 33.796875 48.1875 
Q 26.515625 48.1875 22.3125 43.546875 
Q 18.109375 38.921875 18.109375 30.90625 
L 18.109375 0 
L 9.078125 0 
L 9.078125 75.984375 
L 18.109375 75.984375 
L 18.109375 46.1875 
Q 21.34375 51.125 25.703125 53.5625 
Q 30.078125 56 35.796875 56 
Q 45.21875 56 50.046875 50.171875 
Q 54.890625 44.34375 54.890625 33.015625 
" id="DejaVuSans-68"/>
      <path d="M 44.28125 53.078125 
L 44.28125 44.578125 
Q 40.484375 46.53125 36.375 47.5 
Q 32.28125 48.484375 27.875 48.484375 
Q 21.1875 48.484375 17.84375 46.4375 
Q 14.5 44.390625 14.5 40.28125 
Q 14.5 37.15625 16.890625 35.375 
Q 19.28125 33.59375 26.515625 31.984375 
L 29.59375 31.296875 
Q 39.15625 29.25 43.1875 25.515625 
Q 47.21875 21.78125 47.21875 15.09375 
Q 47.21875 7.46875 41.1875 3.015625 
Q 35.15625 -1.421875 24.609375 -1.421875 
Q 20.21875 -1.421875 15.453125 -0.5625 
Q 10.6875 0.296875 5.421875 2 
L 5.421875 11.28125 
Q 10.40625 8.6875 15.234375 7.390625 
Q 20.0625 6.109375 24.8125 6.109375 
Q 31.15625 6.109375 34.5625 8.28125 
Q 37.984375 10.453125 37.984375 14.40625 
Q 37.984375 18.0625 35.515625 20.015625 
Q 33.0625 21.96875 24.703125 23.78125 
L 21.578125 24.515625 
Q 13.234375 26.265625 9.515625 29.90625 
Q 5.8125 33.546875 5.8125 39.890625 
Q 5.8125 47.609375 11.28125 51.796875 
Q 16.75 56 26.8125 56 
Q 31.78125 56 36.171875 55.265625 
Q 40.578125 54.546875 44.28125 53.078125 
" id="DejaVuSans-73"/>
      <path d="M 8.015625 75.875 
L 15.828125 75.875 
Q 23.140625 64.359375 26.78125 53.3125 
Q 30.421875 42.28125 30.421875 31.390625 
Q 30.421875 20.453125 26.78125 9.375 
Q 23.140625 -1.703125 15.828125 -13.1875 
L 8.015625 -13.1875 
Q 14.5 -2 17.703125 9.0625 
Q 20.90625 20.125 20.90625 31.390625 
Q 20.90625 42.671875 17.703125 53.65625 
Q 14.5 64.65625 8.015625 75.875 
" id="DejaVuSans-29"/>
     </defs>
     <g transform="translate(199.449844 335.860562)scale(0.1 -0.1)">
      <use xlink:href="#DejaVuSans-54"/>
      <use x="61.037109" xlink:href="#DejaVuSans-69"/>
      <use x="88.820312" xlink:href="#DejaVuSans-6d"/>
      <use x="186.232422" xlink:href="#DejaVuSans-65"/>
      <use x="247.755859" xlink:href="#DejaVuSans-20"/>
      <use x="279.542969" xlink:href="#DejaVuSans-28"/>
      <use x="318.556641" xlink:href="#DejaVuSans-6d"/>
      <use x="415.96875" xlink:href="#DejaVuSans-6f"/>
      <use x="477.150391" xlink:href="#DejaVuSans-6e"/>
      <use x="540.529297" xlink:href="#DejaVuSans-74"/>
      <use x="579.738281" xlink:href="#DejaVuSans-68"/>
      <use x="643.117188" xlink:href="#DejaVuSans-73"/>
      <use x="695.216797" xlink:href="#DejaVuSans-29"/>
     </g>
    </g>
   </g>
   <g id="matplotlib.axis_2">
    <g id="ytick_1">
     <g id="line2d_19">
      <path clip-path="url(#pb2934f1414)" d="M 57.6 307.584 
L 414.72 307.584 
" style="fill:none;stroke:#b0b0b0;stroke-linecap:square;stroke-width:0.8;"/>
     </g>
     <g id="line2d_20">
      <defs>
       <path d="M 0 0 
L -3.5 0 
" id="m93476d66ca" style="stroke:#000000;stroke-width:0.8;"/>
      </defs>
      <g>
       <use style="stroke:#000000;stroke-width:0.8;" x="57.6" xlink:href="#m93476d66ca" y="307.584"/>
      </g>
     </g>
     <g id="text_11">
      <!-- 0.0 -->
      <defs>
       <path d="M 10.6875 12.40625 
L 21 12.40625 
L 21 0 
L 10.6875 0 
z
" id="DejaVuSans-2e"/>
      </defs>
      <g transform="translate(34.696875 311.383219)scale(0.1 -0.1)">
       <use xlink:href="#DejaVuSans-30"/>
       <use x="63.623047" xlink:href="#DejaVuSans-2e"/>
       <use x="95.410156" xlink:href="#DejaVuSans-30"/>
      </g>
     </g>
    </g>
    <g id="ytick_2">
     <g id="line2d_21">
      <path clip-path="url(#pb2934f1414)" d="M 57.6 254.3616 
L 414.72 254.3616 
" style="fill:none;stroke:#b0b0b0;stroke-linecap:square;stroke-width:0.8;"/>
     </g>
     <g id="line2d_22">
      <g>
       <use style="stroke:#000000;stroke-width:0.8;" x="57.6" xlink:href="#m93476d66ca" y="254.3616"/>
      </g>
     </g>
     <g id="text_12">
      <!-- 0.2 -->
      <g transform="translate(34.696875 258.160819)scale(0.1 -0.1)">
       <use xlink:href="#DejaVuSans-30"/>
       <use x="63.623047" xlink:href="#DejaVuSans-2e"/>
       <use x="95.410156" xlink:href="#DejaVuSans-32"/>
      </g>
     </g>
    </g>
    <g id="ytick_3">
     <g id="line2d_23">
      <path clip-path="url(#pb2934f1414)" d="M 57.6 201.1392 
L 414.72 201.1392 
" style="fill:none;stroke:#b0b0b0;stroke-linecap:square;stroke-width:0.8;"/>
     </g>
     <g id="line2d_24">
      <g>
       <use style="stroke:#000000;stroke-width:0.8;" x="57.6" xlink:href="#m93476d66ca" y="201.1392"/>
      </g>
     </g>
     <g id="text_13">
      <!-- 0.4 -->
      <g transform="translate(34.696875 204.938419)scale(0.1 -0.1)">
       <use xlink:href="#DejaVuSans-30"/>
       <use x="63.623047" xlink:href="#DejaVuSans-2e"/>
       <use x="95.410156" xlink:href="#DejaVuSans-34"/>
      </g>
     </g>
    </g>
    <g id="ytick_4">
     <g id="line2d_25">
      <path clip-path="url(#pb2934f1414)" d="M 57.6 147.9168 
L 414.72 147.9168 
" style="fill:none;stroke:#b0b0b0;stroke-linecap:square;stroke-width:0.8;"/>
     </g>
     <g id="line2d_26">
      <g>
       <use style="stroke:#000000;stroke-width:0.8;" x="57.6" xlink:href="#m93476d66ca" y="147.9168"/>
      </g>
     </g>
     <g id="text_14">
      <!-- 0.6 -->
      <g transform="translate(34.696875 151.716019)scale(0.1 -0.1)">
       <use xlink:href="#DejaVuSans-30"/>
       <use x="63.623047" xlink:href="#DejaVuSans-2e"/>
       <use x="95.410156" xlink:href="#DejaVuSans-36"/>
      </g>
     </g>
    </g>
    <g id="ytick_5">
     <g id="line2d_27">
      <path clip-path="url(#pb2934f1414)" d="M 57.6 94.6944 
L 414.72 94.6944 
" style="fill:none;stroke:#b0b0b0;stroke-linecap:square;stroke-width:0.8;"/>
     </g>
     <g id="line2d_28">
      <g>
       <use style="stroke:#000000;stroke-width:0.8;" x="57.6" xlink:href="#m93476d66ca" y="94.6944"/>
      </g>
     </g>
     <g id="text_15">
      <!-- 0.8 -->
      <g transform="translate(34.696875 98.493619)scale(0.1 -0.1)">
       <use xlink:href="#DejaVuSans-30"/>
       <use x="63.623047" xlink:href="#DejaVuSans-2e"/>
       <use x="95.410156" xlink:href="#DejaVuSans-38"/>
      </g>
     </g>
    </g>
    <g id="ytick_6">
     <g id="line2d_29">
      <path clip-path="url(#pb2934f1414)" d="M 57.6 41.472 
L 414.72 41.472 
" style="fill:none;stroke:#b0b0b0;stroke-linecap:square;stroke-width:0.8;"/>
     </g>
     <g id="line2d_30">
      <g>
       <use style="stroke:#000000;stroke-width:0.8;" x="57.6" xlink:href="#m93476d66ca" y="41.472"/>
      </g>
     </g>
     <g id="text_16">
      <!-- 1.0 -->
      <g transform="translate(34.696875 45.271219)scale(0.1 -0.1)">
       <use xlink:href="#DejaVuSans-31"/>
       <use x="63.623047" xlink:href="#DejaVuSans-2e"/>
       <use x="95.410156" xlink:href="#DejaVuSans-30"/>
      </g>
     </g>
    </g>
    <g id="text_17">
     <!-- Prevalence (fraction of population) -->
     <defs>
      <path d="M 19.671875 64.796875 
L 19.671875 37.40625 
L 32.078125 37.40625 
Q 38.96875 37.40625 42.71875 40.96875 
Q 46.484375 44.53125 46.484375 51.125 
Q 46.484375 57.671875 42.71875 61.234375 
Q 38.96875 64.796875 32.078125 64.796875 
z
M 9.8125 72.90625 
L 32.078125 72.90625 
Q 44.34375 72.90625 50.609375 67.359375 
Q 56.890625 61.8125 56.890625 51.125 
Q 56.890625 40.328125 50.609375 34.8125 
Q 44.34375 29.296875 32.078125 29.296875 
L 19.671875 29.296875 
L 19.671875 0 
L 9.8125 0 
z
" id="DejaVuSans-50"/>
      <path d="M 41.109375 46.296875 
Q 39.59375 47.171875 37.8125 47.578125 
Q 36.03125 48 33.890625 48 
Q 26.265625 48 22.1875 43.046875 
Q 18.109375 38.09375 18.109375 28.8125 
L 18.109375 0 
L 9.078125 0 
L 9.078125 54.6875 
L 18.109375 54.6875 
L 18.109375 46.1875 
Q 20.953125 51.171875 25.484375 53.578125 
Q 30.03125 56 36.53125 56 
Q 37.453125 56 38.578125 55.875 
Q 39.703125 55.765625 41.0625 55.515625 
z
" id="DejaVuSans-72"/>
      <path d="M 2.984375 54.6875 
L 12.5 54.6875 
L 29.59375 8.796875 
L 46.6875 54.6875 
L 56.203125 54.6875 
L 35.6875 0 
L 23.484375 0 
z
" id="DejaVuSans-76"/>
      <path d="M 34.28125 27.484375 
Q 23.390625 27.484375 19.1875 25 
Q 14.984375 22.515625 14.984375 16.5 
Q 14.984375 11.71875 18.140625 8.90625 
Q 21.296875 6.109375 26.703125 6.109375 
Q 34.1875 6.109375 38.703125 11.40625 
Q 43.21875 16.703125 43.21875 25.484375 
L 43.21875 27.484375 
z
M 52.203125 31.203125 
L 52.203125 0 
L 43.21875 0 
L 43.21875 8.296875 
Q 40.140625 3.328125 35.546875 0.953125 
Q 30.953125 -1.421875 24.3125 -1.421875 
Q 15.921875 -1.421875 10.953125 3.296875 
Q 6 8.015625 6 15.921875 
Q 6 25.140625 12.171875 29.828125 
Q 18.359375 34.515625 30.609375 34.515625 
L 43.21875 34.515625 
L 43.21875 35.40625 
Q 43.21875 41.609375 39.140625 45 
Q 35.0625 48.390625 27.6875 48.390625 
Q 23 48.390625 18.546875 47.265625 
Q 14.109375 46.140625 10.015625 43.890625 
L 10.015625 52.203125 
Q 14.9375 54.109375 19.578125 55.046875 
Q 24.21875 56 28.609375 56 
Q 40.484375 56 46.34375 49.84375 
Q 52.203125 43.703125 52.203125 31.203125 
" id="DejaVuSans-61"/>
      <path d="M 9.421875 75.984375 
L 18.40625 75.984375 
L 18.40625 0 
L 9.421875 0 
z
" id="DejaVuSans-6c"/>
      <path d="M 48.78125 52.59375 
L 48.78125 44.1875 
Q 44.96875 46.296875 41.140625 47.34375 
Q 37.3125 48.390625 33.40625 48.390625 
Q 24.65625 48.390625 19.8125 42.84375 
Q 14.984375 37.3125 14.984375 27.296875 
Q 14.984375 17.28125 19.8125 11.734375 
Q 24.65625 6.203125 33.40625 6.203125 
Q 37.3125 6.203125 41.140625 7.25 
Q 44.96875 8.296875 48.78125 10.40625 
L 48.78125 2.09375 
Q 45.015625 0.34375 40.984375 -0.53125 
Q 36.96875 -1.421875 32.421875 -1.421875 
Q 20.0625 -1.421875 12.78125 6.34375 
Q 5.515625 14.109375 5.515625 27.296875 
Q 5.515625 40.671875 12.859375 48.328125 
Q 20.21875 56 33.015625 56 
Q 37.15625 56 41.109375 55.140625 
Q 45.0625 54.296875 48.78125 52.59375 
" id="DejaVuSans-63"/>
      <path d="M 37.109375 75.984375 
L 37.109375 68.5 
L 28.515625 68.5 
Q 23.6875 68.5 21.796875 66.546875 
Q 19.921875 64.59375 19.921875 59.515625 
L 19.921875 54.6875 
L 34.71875 54.6875 
L 34.71875 47.703125 
L 19.921875 47.703125 
L 19.921875 0 
L 10.890625 0 
L 10.890625 47.703125 
L 2.296875 47.703125 
L 2.296875 54.6875 
L 10.890625 54.6875 
L 10.890625 58.5 
Q 10.890625 67.625 15.140625 71.796875 
Q 19.390625 75.984375 28.609375 75.984375 
z
" id="DejaVuSans-66"/>
      <path d="M 18.109375 8.203125 
L 18.109375 -20.796875 
L 9.078125 -20.796875 
L 9.078125 54.6875 
L 18.109375 54.6875 
L 18.109375 46.390625 
Q 20.953125 51.265625 25.265625 53.625 
Q 29.59375 56 35.59375 56 
Q 45.5625 56 51.78125 48.09375 
Q 58.015625 40.1875 58.015625 27.296875 
Q 58.015625 14.40625 51.78125 6.484375 
Q 45.5625 -1.421875 35.59375 -1.421875 
Q 29.59375 -1.421875 25.265625 0.953125 
Q 20.953125 3.328125 18.109375 8.203125 
M 48.6875 27.296875 
Q 48.6875 37.203125 44.609375 42.84375 
Q 40.53125 48.484375 33.40625 48.484375 
Q 26.265625 48.484375 22.1875 42.84375 
Q 18.109375 37.203125 18.109375 27.296875 
Q 18.109375 17.390625 22.1875 11.75 
Q 26.265625 6.109375 33.40625 6.109375 
Q 40.53125 6.109375 44.609375 11.75 
Q 48.6875 17.390625 48.6875 27.296875 
" id="DejaVuSans-70"/>
      <path d="M 8.5 21.578125 
L 8.5 54.6875 
L 17.484375 54.6875 
L 17.484375 21.921875 
Q 17.484375 14.15625 20.5 10.265625 
Q 23.53125 6.390625 29.59375 6.390625 
Q 36.859375 6.390625 41.078125 11.03125 
Q 45.3125 15.671875 45.3125 23.6875 
L 45.3125 54.6875 
L 54.296875 54.6875 
L 54.296875 0 
L 45.3125 0 
L 45.3125 8.40625 
Q 42.046875 3.421875 37.71875 1 
Q 33.40625 -1.421875 27.6875 -1.421875 
Q 18.265625 -1.421875 13.375 4.4375 
Q 8.5 10.296875 8.5 21.578125 
M 31.109375 56 
z
" id="DejaVuSans-75"/>
     </defs>
     <g transform="translate(28.617187 261.457688)rotate(-90)scale(0.1 -0.1)">
      <use xlink:href="#DejaVuSans-50"/>
      <use x="60.287109" xlink:href="#DejaVuSans-72"/>
      <use x="101.369141" xlink:href="#DejaVuSans-65"/>
      <use x="162.892578" xlink:href="#DejaVuSans-76"/>
      <use x="222.072266" xlink:href="#DejaVuSans-61"/>
      <use x="283.351562" xlink:href="#DejaVuSans-6c"/>
      <use x="311.134766" xlink:href="#DejaVuSans-65"/>
      <use x="372.658203" xlink:href="#DejaVuSans-6e"/>
      <use x="436.037109" xlink:href="#DejaVuSans-63"/>
      <use x="491.017578" xlink:href="#DejaVuSans-65"/>
      <use x="552.541016" xlink:href="#DejaVuSans-20"/>
      <use x="584.328125" xlink:href="#DejaVuSans-28"/>
      <use x="623.341797" xlink:href="#DejaVuSans-66"/>
      <use x="658.546875" xlink:href="#DejaVuSans-72"/>
      <use x="699.660156" xlink:href="#DejaVuSans-61"/>
      <use x="760.939453" xlink:href="#DejaVuSans-63"/>
      <use x="815.919922" xlink:href="#DejaVuSans-74"/>
      <use x="855.128906" xlink:href="#DejaVuSans-69"/>
      <use x="882.912109" xlink:href="#DejaVuSans-6f"/>
      <use x="944.09375" xlink:href="#DejaVuSans-6e"/>
      <use x="1007.472656" xlink:href="#DejaVuSans-20"/>
      <use x="1039.259766" xlink:href="#DejaVuSans-6f"/>
      <use x="1100.441406" xlink:href="#DejaVuSans-66"/>
      <use x="1135.646484" xlink:href="#DejaVuSans-20"/>
      <use x="1167.433594" xlink:href="#DejaVuSans-70"/>
      <use x="1230.910156" xlink:href="#DejaVuSans-6f"/>
      <use x="1292.091797" xlink:href="#DejaVuSans-70"/>
      <use x="1355.568359" xlink:href="#DejaVuSans-75"/>
      <use x="1418.947266" xlink:href="#DejaVuSans-6c"/>
      <use x="1446.730469" xlink:href="#DejaVuSans-61"/>
      <use x="1508.009766" xlink:href="#DejaVuSans-74"/>
      <use x="1547.21875" xlink:href="#DejaVuSans-69"/>
      <use x="1575.001953" xlink:href="#DejaVuSans-6f"/>
      <use x="1636.183594" xlink:href="#DejaVuSans-6e"/>
      <use x="1699.5625" xlink:href="#DejaVuSans-29"/>
     </g>
    </g>
   </g>
   <g id="line2d_31">
    <path clip-path="url(#pb2934f1414)" d="M 56.86367 187.8336 
L 145.223258 187.8336 
L 145.959588 215.342928 
L 413.98367 215.342928 
L 413.98367 215.342928 
" style="fill:none;stroke:#1f77b4;stroke-linecap:square;stroke-width:1.5;"/>
   </g>
   <g id="line2d_32">
    <path clip-path="url(#pb2934f1414)" d="M 56.86367 214.478064 
L 57.6 214.211952 
L 59.07266 214.411536 
L 59.80899 214.644384 
L 60.54532 214.577856 
L 61.281649 214.877232 
L 62.017979 214.744176 
L 62.754309 214.810704 
L 63.490639 215.143344 
L 64.963299 214.77744 
L 65.699629 214.877232 
L 66.435959 214.245216 
L 67.908619 214.378272 
L 70.117608 213.879312 
L 71.590268 213.380352 
L 72.326598 213.11424 
L 73.062928 213.214032 
L 73.799258 213.646464 
L 74.535588 213.746256 
L 75.271918 213.679728 
L 76.744577 213.979104 
L 77.480907 213.480144 
L 78.217237 213.347088 
L 78.953567 213.912576 
L 79.689897 213.579936 
L 80.426227 213.44688 
L 81.162557 213.047712 
L 81.898887 213.214032 
L 82.635216 212.881392 
L 83.371546 212.7816 
L 84.107876 212.981184 
L 87.789526 213.180768 
L 88.525856 213.513408 
L 89.262186 212.981184 
L 89.998515 212.28264 
L 90.734845 212.482224 
L 91.471175 212.349168 
L 92.207505 212.349168 
L 92.943835 212.548752 
L 93.680165 212.315904 
L 96.625485 212.28264 
L 97.361814 212.315904 
L 98.098144 212.182848 
L 98.834474 212.349168 
L 99.570804 211.816944 
L 100.307134 211.983264 
L 101.043464 212.315904 
L 101.779794 212.28264 
L 102.516124 212.11632 
L 103.252454 212.515488 
L 104.725113 211.983264 
L 105.461443 211.983264 
L 106.197773 211.78368 
L 108.406763 211.916736 
L 110.615753 212.748336 
L 111.352082 212.515488 
L 112.088412 212.681808 
L 112.824742 213.080976 
L 113.561072 212.548752 
L 114.297402 212.349168 
L 115.033732 212.382432 
L 115.770062 212.28264 
L 116.506392 211.983264 
L 117.242722 211.883472 
L 117.979052 211.983264 
L 118.715381 211.78368 
L 119.451711 211.816944 
L 120.924371 212.515488 
L 121.660701 212.548752 
L 122.397031 212.216112 
L 123.869691 211.983264 
L 124.606021 211.584096 
L 126.07868 212.049792 
L 126.81501 211.983264 
L 127.55134 211.650624 
L 128.28767 211.916736 
L 129.76033 211.45104 
L 130.49666 211.550832 
L 131.23299 211.850208 
L 134.178309 211.61736 
L 135.650969 210.985344 
L 136.387299 211.085136 
L 137.123629 211.384512 
L 137.859959 211.251456 
L 139.332619 212.28264 
L 140.805278 212.349168 
L 141.541608 211.95 
L 142.277938 211.717152 
L 143.750598 211.61736 
L 144.486928 211.251456 
L 145.223258 211.28472 
L 146.695918 212.349168 
L 147.432247 212.814864 
L 148.904907 214.078896 
L 149.641237 213.912576 
L 151.850227 214.012368 
L 152.586557 214.345008 
L 153.322887 214.544592 
L 154.059216 214.544592 
L 154.795546 214.77744 
L 157.004536 214.877232 
L 158.477196 214.977024 
L 160.686186 214.977024 
L 161.422515 214.77744 
L 162.158845 214.94376 
L 162.895175 214.910496 
L 164.367835 215.342928 
L 167.313155 215.575776 
L 168.049485 215.509248 
L 168.785814 215.742096 
L 169.522144 215.708832 
L 171.731134 215.908416 
L 173.203794 215.77536 
L 173.940124 215.475984 
L 174.676454 215.409456 
L 176.149113 215.77536 
L 176.885443 215.94168 
L 177.621773 216.374112 
L 179.094433 216.340848 
L 180.567093 216.174528 
L 181.303423 216.307584 
L 182.039753 216.573696 
L 184.248742 217.072656 
L 184.985072 217.305504 
L 188.666722 217.305504 
L 190.139381 217.471824 
L 191.612041 217.43856 
L 192.348371 217.60488 
L 193.821031 217.571616 
L 195.293691 217.338768 
L 196.030021 217.205712 
L 196.766351 217.205712 
L 197.50268 217.405296 
L 198.23901 217.737936 
L 198.97534 217.837728 
L 199.71167 218.070576 
L 200.448 218.10384 
L 201.92066 217.804464 
L 203.39332 217.737936 
L 204.865979 218.037312 
L 205.602309 218.10384 
L 208.547629 217.870992 
L 210.020289 218.27016 
L 215.910928 219.001968 
L 217.383588 218.93544 
L 220.328907 219.301344 
L 221.065237 219.4344 
L 222.537897 219.93336 
L 224.010557 220.266 
L 224.746887 220.631904 
L 226.219546 220.731696 
L 226.955876 220.898016 
L 228.428536 220.798224 
L 229.164866 220.93128 
L 229.901196 220.93128 
L 231.373856 221.297184 
L 232.846515 222.028992 
L 234.319175 221.995728 
L 235.055505 222.195312 
L 235.791835 221.9292 
L 237.264495 221.995728 
L 238.000825 222.195312 
L 238.737155 222.26184 
L 240.209814 222.661008 
L 242.418804 222.860592 
L 243.891464 223.392816 
L 244.627794 223.326288 
L 245.364124 223.5924 
L 246.100454 223.725456 
L 246.836784 224.024832 
L 247.573113 223.858512 
L 249.045773 224.457264 
L 249.782103 224.490528 
L 250.518433 224.357472 
L 251.254763 224.557056 
L 252.727423 224.690112 
L 254.200082 225.2556 
L 255.672742 225.654768 
L 256.409072 225.954144 
L 257.145402 225.75456 
L 258.618062 226.020672 
L 260.090722 225.987408 
L 260.827052 226.386576 
L 263.772371 226.719216 
L 264.508701 227.018592 
L 265.981361 226.885536 
L 267.454021 226.58616 
L 268.190351 226.552896 
L 270.39934 227.25144 
L 271.13567 227.550816 
L 271.872 227.617344 
L 272.60833 227.91672 
L 274.81732 228.016512 
L 275.553649 228.315888 
L 276.289979 228.315888 
L 277.026309 228.515472 
L 277.762639 228.582 
L 278.498969 228.814848 
L 279.235299 228.715056 
L 279.971629 228.91464 
L 281.444289 228.947904 
L 282.916948 229.380336 
L 283.653278 229.446864 
L 285.125938 230.012352 
L 285.862268 230.178672 
L 286.598598 229.979088 
L 288.071258 230.211936 
L 288.807588 230.611104 
L 289.543918 230.810688 
L 291.016577 231.442704 
L 291.752907 231.642288 
L 293.961897 231.475968 
L 295.434557 231.808608 
L 296.907216 232.107984 
L 297.643546 232.374096 
L 299.116206 232.40736 
L 300.588866 232.74 
L 301.325196 233.105904 
L 302.797856 233.338752 
L 303.534186 233.638128 
L 304.270515 233.771184 
L 305.743175 233.804448 
L 307.215835 234.270144 
L 309.424825 234.170352 
L 310.897485 234.602784 
L 312.370144 235.40112 
L 313.842804 235.866816 
L 314.579134 235.833552 
L 315.315464 235.966608 
L 316.051794 235.767024 
L 317.524454 235.700496 
L 318.260784 236.033136 
L 321.942433 237.06432 
L 322.678763 237.430224 
L 323.415093 237.629808 
L 324.151423 237.663072 
L 324.887753 237.962448 
L 327.096742 238.428144 
L 327.833072 238.760784 
L 329.305732 238.960368 
L 330.778392 239.592384 
L 331.514722 239.492592 
L 332.987381 240.39072 
L 334.460041 240.523776 
L 335.932701 241.22232 
L 337.405361 241.754544 
L 338.141691 242.22024 
L 339.614351 242.619408 
L 340.35068 242.619408 
L 341.08701 242.985312 
L 341.82334 242.818992 
L 342.55967 242.985312 
L 344.03233 243.5508 
L 344.76866 243.71712 
L 345.50499 244.083024 
L 346.24132 244.315872 
L 346.977649 244.349136 
L 348.450309 244.781568 
L 349.186639 244.748304 
L 349.922969 244.947888 
L 350.659299 245.280528 
L 352.131959 245.480112 
L 352.868289 245.646432 
L 353.604619 245.613168 
L 354.340948 245.912544 
L 355.077278 245.846016 
L 355.813608 246.078864 
L 356.549938 246.478032 
L 357.286268 246.577824 
L 358.758928 247.143312 
L 359.495258 247.243104 
L 360.231588 247.20984 
L 360.967918 247.342896 
L 361.704247 247.642272 
L 363.176907 247.808592 
L 363.913237 248.241024 
L 366.122227 248.972832 
L 368.331216 249.671376 
L 369.067546 250.03728 
L 369.803876 250.2036 
L 371.276536 251.134992 
L 372.012866 251.0352 
L 373.485526 251.600688 
L 374.958186 252.132912 
L 376.430845 252.299232 
L 377.167175 252.598608 
L 377.903505 252.764928 
L 378.639835 253.064304 
L 379.376165 253.130832 
L 380.112495 253.69632 
L 382.321485 254.3616 
L 383.057814 254.328336 
L 383.794144 254.69424 
L 384.530474 254.69424 
L 385.266804 254.993616 
L 386.003134 255.02688 
L 386.739464 255.1932 
L 387.475794 255.226464 
L 388.212124 255.658896 
L 388.948454 255.658896 
L 389.684784 255.791952 
L 391.157443 256.590288 
L 391.893773 256.789872 
L 392.630103 257.322096 
L 393.366433 257.588208 
L 394.102763 257.654736 
L 394.839093 258.220224 
L 395.575423 258.552864 
L 396.311753 258.5196 
L 397.048082 258.985296 
L 402.202392 260.415648 
L 402.938722 260.947872 
L 404.411381 261.213984 
L 405.147711 261.746208 
L 406.620371 262.245168 
L 407.356701 262.744128 
L 408.829361 263.243088 
L 409.565691 263.475936 
L 410.302021 263.941632 
L 411.038351 264.041424 
L 411.77468 263.742048 
L 413.24734 263.941632 
L 413.98367 263.908368 
L 413.98367 263.908368 
" style="fill:none;stroke:#ff7f0e;stroke-linecap:square;stroke-width:1.5;"/>
   </g>
   <g id="line2d_33">
    <defs>
     <path d="M 0 1.5 
C 0.397805 1.5 0.77937 1.341951 1.06066 1.06066 
C 1.341951 0.77937 1.5 0.397805 1.5 0 
C 1.5 -0.397805 1.341951 -0.77937 1.06066 -1.06066 
C 0.77937 -1.341951 0.397805 -1.5 0 -1.5 
C -0.397805 -1.5 -0.77937 -1.341951 -1.06066 -1.06066 
C -1.341951 -0.77937 -1.5 -0.397805 -1.5 0 
C -1.5 0.397805 -1.341951 0.77937 -1.06066 1.06066 
C -0.77937 1.341951 -0.397805 1.5 0 1.5 
z
" id="m8c06dd0678" style="stroke:#2ca02c;"/>
    </defs>
    <g clip-path="url(#pb2934f1414)">
     <use style="fill:#2ca02c;stroke:#2ca02c;" x="145.959588" xlink:href="#m8c06dd0678" y="174.528"/>
    </g>
   </g>
   <g id="line2d_34">
    <defs>
     <path d="M 0 1.5 
C 0.397805 1.5 0.77937 1.341951 1.06066 1.06066 
C 1.341951 0.77937 1.5 0.397805 1.5 0 
C 1.5 -0.397805 1.341951 -0.77937 1.06066 -1.06066 
C 0.77937 -1.341951 0.397805 -1.5 0 -1.5 
C -0.397805 -1.5 -0.77937 -1.341951 -1.06066 -1.06066 
C -1.341951 -0.77937 -1.5 -0.397805 -1.5 0 
C -1.5 0.397805 -1.341951 0.77937 -1.06066 1.06066 
C -0.77937 1.341951 -0.397805 1.5 0 1.5 
z
" id="mfcda27ba80" style="stroke:#d62728;"/>
    </defs>
    <g clip-path="url(#pb2934f1414)">
     <use style="fill:#d62728;stroke:#d62728;" x="145.959588" xlink:href="#mfcda27ba80" y="147.9168"/>
    </g>
   </g>
   <g id="line2d_35">
    <defs>
     <path d="M 0 1.5 
C 0.397805 1.5 0.77937 1.341951 1.06066 1.06066 
C 1.341951 0.77937 1.5 0.397805 1.5 0 
C 1.5 -0.397805 1.341951 -0.77937 1.06066 -1.06066 
C 0.77937 -1.341951 0.397805 -1.5 0 -1.5 
C -0.397805 -1.5 -0.77937 -1.341951 -1.06066 -1.06066 
C -1.341951 -0.77937 -1.5 -0.397805 -1.5 0 
C -1.5 0.397805 -1.341951 0.77937 -1.06066 1.06066 
C -0.77937 1.341951 -0.397805 1.5 0 1.5 
z
" id="m4915999052" style="stroke:#9467bd;"/>
    </defs>
    <g clip-path="url(#pb2934f1414)">
     <use style="fill:#9467bd;stroke:#9467bd;" x="145.959588" xlink:href="#m4915999052" y="121.3056"/>
    </g>
   </g>
   <g id="patch_3">
    <path d="M 57.6 307.584 
L 57.6 41.472 
" style="fill:none;stroke:#000000;stroke-linecap:square;stroke-linejoin:miter;stroke-width:0.8;"/>
   </g>
   <g id="patch_4">
    <path d="M 414.72 307.584 
L 414.72 41.472 
" style="fill:none;stroke:#000000;stroke-linecap:square;stroke-linejoin:miter;stroke-width:0.8;"/>
   </g>
   <g id="patch_5">
    <path d="M 57.6 307.584 
L 414.72 307.584 
" style="fill:none;stroke:#000000;stroke-linecap:square;stroke-linejoin:miter;stroke-width:0.8;"/>
   </g>
   <g id="patch_6">
    <path d="M 57.6 41.472 
L 414.72 41.472 
" style="fill:none;stroke:#000000;stroke-linecap:square;stroke-linejoin:miter;stroke-width:0.8;"/>
   </g>
   <g id="text_18">
    <!-- t_pzq: 2016-06-01 -->
    <defs>
     <path d="M 50.984375 -16.609375 
L 50.984375 -23.578125 
L -0.984375 -23.578125 
L -0.984375 -16.609375 
z
" id="DejaVuSans-5f"/>
     <path d="M 5.515625 54.6875 
L 48.1875 54.6875 
L 48.1875 46.484375 
L 14.40625 7.171875 
L 48.1875 7.171875 
L 48.1875 0 
L 4.296875 0 
L 4.296875 8.203125 
L 38.09375 47.515625 
L 5.515625 47.515625 
z
" id="DejaVuSans-7a"/>
     <path d="M 14.796875 27.296875 
Q 14.796875 17.390625 18.875 11.75 
Q 22.953125 6.109375 30.078125 6.109375 
Q 37.203125 6.109375 41.296875 11.75 
Q 45.40625 17.390625 45.40625 27.296875 
Q 45.40625 37.203125 41.296875 42.84375 
Q 37.203125 48.484375 30.078125 48.484375 
Q 22.953125 48.484375 18.875 42.84375 
Q 14.796875 37.203125 14.796875 27.296875 
M 45.40625 8.203125 
Q 42.578125 3.328125 38.25 0.953125 
Q 33.9375 -1.421875 27.875 -1.421875 
Q 17.96875 -1.421875 11.734375 6.484375 
Q 5.515625 14.40625 5.515625 27.296875 
Q 5.515625 40.1875 11.734375 48.09375 
Q 17.96875 56 27.875 56 
Q 33.9375 56 38.25 53.625 
Q 42.578125 51.265625 45.40625 46.390625 
L 45.40625 54.6875 
L 54.390625 54.6875 
L 54.390625 -20.796875 
L 45.40625 -20.796875 
z
" id="DejaVuSans-71"/>
     <path d="M 11.71875 12.40625 
L 22.015625 12.40625 
L 22.015625 0 
L 11.71875 0 
z
M 11.71875 51.703125 
L 22.015625 51.703125 
L 22.015625 39.3125 
L 11.71875 39.3125 
z
" id="DejaVuSans-3a"/>
     <path d="M 4.890625 31.390625 
L 31.203125 31.390625 
L 31.203125 23.390625 
L 4.890625 23.390625 
z
" id="DejaVuSans-2d"/>
    </defs>
    <g transform="translate(151.207646 237.074341)rotate(-45)scale(0.1 -0.1)">
     <use xlink:href="#DejaVuSans-74"/>
     <use x="39.208984" xlink:href="#DejaVuSans-5f"/>
     <use x="89.208984" xlink:href="#DejaVuSans-70"/>
     <use x="152.685547" xlink:href="#DejaVuSans-7a"/>
     <use x="205.175781" xlink:href="#DejaVuSans-71"/>
     <use x="268.652344" xlink:href="#DejaVuSans-3a"/>
     <use x="302.34375" xlink:href="#DejaVuSans-20"/>
     <use x="334.130859" xlink:href="#DejaVuSans-32"/>
     <use x="397.753906" xlink:href="#DejaVuSans-30"/>
     <use x="461.376953" xlink:href="#DejaVuSans-31"/>
     <use x="525" xlink:href="#DejaVuSans-36"/>
     <use x="588.623047" xlink:href="#DejaVuSans-2d"/>
     <use x="624.707031" xlink:href="#DejaVuSans-30"/>
     <use x="688.330078" xlink:href="#DejaVuSans-36"/>
     <use x="751.953125" xlink:href="#DejaVuSans-2d"/>
     <use x="788.037109" xlink:href="#DejaVuSans-30"/>
     <use x="851.660156" xlink:href="#DejaVuSans-31"/>
    </g>
   </g>
   <g id="text_19">
    <!-- t_net: 2016-06-01 -->
    <g transform="translate(151.207646 209.378174)rotate(-45)scale(0.1 -0.1)">
     <use xlink:href="#DejaVuSans-74"/>
     <use x="39.208984" xlink:href="#DejaVuSans-5f"/>
     <use x="89.208984" xlink:href="#DejaVuSans-6e"/>
     <use x="152.587891" xlink:href="#DejaVuSans-65"/>
     <use x="214.111328" xlink:href="#DejaVuSans-74"/>
     <use x="253.320312" xlink:href="#DejaVuSans-3a"/>
     <use x="287.011719" xlink:href="#DejaVuSans-20"/>
     <use x="318.798828" xlink:href="#DejaVuSans-32"/>
     <use x="382.421875" xlink:href="#DejaVuSans-30"/>
     <use x="446.044922" xlink:href="#DejaVuSans-31"/>
     <use x="509.667969" xlink:href="#DejaVuSans-36"/>
     <use x="573.291016" xlink:href="#DejaVuSans-2d"/>
     <use x="609.375" xlink:href="#DejaVuSans-30"/>
     <use x="672.998047" xlink:href="#DejaVuSans-36"/>
     <use x="736.621094" xlink:href="#DejaVuSans-2d"/>
     <use x="772.705078" xlink:href="#DejaVuSans-30"/>
     <use x="836.328125" xlink:href="#DejaVuSans-31"/>
    </g>
   </g>
   <g id="text_20">
    <!-- t_spray: 2016-06-01 -->
    <defs>
     <path d="M 32.171875 -5.078125 
Q 28.375 -14.84375 24.75 -17.8125 
Q 21.140625 -20.796875 15.09375 -20.796875 
L 7.90625 -20.796875 
L 7.90625 -13.28125 
L 13.1875 -13.28125 
Q 16.890625 -13.28125 18.9375 -11.515625 
Q 21 -9.765625 23.484375 -3.21875 
L 25.09375 0.875 
L 2.984375 54.6875 
L 12.5 54.6875 
L 29.59375 11.921875 
L 46.6875 54.6875 
L 56.203125 54.6875 
z
" id="DejaVuSans-79"/>
    </defs>
    <g transform="translate(151.207646 190.752861)rotate(-45)scale(0.1 -0.1)">
     <use xlink:href="#DejaVuSans-74"/>
     <use x="39.208984" xlink:href="#DejaVuSans-5f"/>
     <use x="89.208984" xlink:href="#DejaVuSans-73"/>
     <use x="141.308594" xlink:href="#DejaVuSans-70"/>
     <use x="204.785156" xlink:href="#DejaVuSans-72"/>
     <use x="245.898438" xlink:href="#DejaVuSans-61"/>
     <use x="307.177734" xlink:href="#DejaVuSans-79"/>
     <use x="366.248047" xlink:href="#DejaVuSans-3a"/>
     <use x="399.939453" xlink:href="#DejaVuSans-20"/>
     <use x="431.726562" xlink:href="#DejaVuSans-32"/>
     <use x="495.349609" xlink:href="#DejaVuSans-30"/>
     <use x="558.972656" xlink:href="#DejaVuSans-31"/>
     <use x="622.595703" xlink:href="#DejaVuSans-36"/>
     <use x="686.21875" xlink:href="#DejaVuSans-2d"/>
     <use x="722.302734" xlink:href="#DejaVuSans-30"/>
     <use x="785.925781" xlink:href="#DejaVuSans-36"/>
     <use x="849.548828" xlink:href="#DejaVuSans-2d"/>
     <use x="885.632812" xlink:href="#DejaVuSans-30"/>
     <use x="949.255859" xlink:href="#DejaVuSans-31"/>
    </g>
   </g>
   <g id="text_21">
    <!-- Disease Prevalence vs. Time (months) for All, with Integration -->
    <defs>
     <path d="M 19.671875 64.796875 
L 19.671875 8.109375 
L 31.59375 8.109375 
Q 46.6875 8.109375 53.6875 14.9375 
Q 60.6875 21.78125 60.6875 36.53125 
Q 60.6875 51.171875 53.6875 57.984375 
Q 46.6875 64.796875 31.59375 64.796875 
z
M 9.8125 72.90625 
L 30.078125 72.90625 
Q 51.265625 72.90625 61.171875 64.09375 
Q 71.09375 55.28125 71.09375 36.53125 
Q 71.09375 17.671875 61.125 8.828125 
Q 51.171875 0 30.078125 0 
L 9.8125 0 
z
" id="DejaVuSans-44"/>
     <path d="M 34.1875 63.1875 
L 20.796875 26.90625 
L 47.609375 26.90625 
z
M 28.609375 72.90625 
L 39.796875 72.90625 
L 67.578125 0 
L 57.328125 0 
L 50.6875 18.703125 
L 17.828125 18.703125 
L 11.1875 0 
L 0.78125 0 
z
" id="DejaVuSans-41"/>
     <path d="M 11.71875 12.40625 
L 22.015625 12.40625 
L 22.015625 4 
L 14.015625 -11.625 
L 7.71875 -11.625 
L 11.71875 4 
z
" id="DejaVuSans-2c"/>
     <path d="M 4.203125 54.6875 
L 13.1875 54.6875 
L 24.421875 12.015625 
L 35.59375 54.6875 
L 46.1875 54.6875 
L 57.421875 12.015625 
L 68.609375 54.6875 
L 77.59375 54.6875 
L 63.28125 0 
L 52.6875 0 
L 40.921875 44.828125 
L 29.109375 0 
L 18.5 0 
z
" id="DejaVuSans-77"/>
     <path d="M 9.8125 72.90625 
L 19.671875 72.90625 
L 19.671875 0 
L 9.8125 0 
z
" id="DejaVuSans-49"/>
     <path d="M 45.40625 27.984375 
Q 45.40625 37.75 41.375 43.109375 
Q 37.359375 48.484375 30.078125 48.484375 
Q 22.859375 48.484375 18.828125 43.109375 
Q 14.796875 37.75 14.796875 27.984375 
Q 14.796875 18.265625 18.828125 12.890625 
Q 22.859375 7.515625 30.078125 7.515625 
Q 37.359375 7.515625 41.375 12.890625 
Q 45.40625 18.265625 45.40625 27.984375 
M 54.390625 6.78125 
Q 54.390625 -7.171875 48.1875 -13.984375 
Q 42 -20.796875 29.203125 -20.796875 
Q 24.46875 -20.796875 20.265625 -20.09375 
Q 16.0625 -19.390625 12.109375 -17.921875 
L 12.109375 -9.1875 
Q 16.0625 -11.328125 19.921875 -12.34375 
Q 23.78125 -13.375 27.78125 -13.375 
Q 36.625 -13.375 41.015625 -8.765625 
Q 45.40625 -4.15625 45.40625 5.171875 
L 45.40625 9.625 
Q 42.625 4.78125 38.28125 2.390625 
Q 33.9375 0 27.875 0 
Q 17.828125 0 11.671875 7.65625 
Q 5.515625 15.328125 5.515625 27.984375 
Q 5.515625 40.671875 11.671875 48.328125 
Q 17.828125 56 27.875 56 
Q 33.9375 56 38.28125 53.609375 
Q 42.625 51.21875 45.40625 46.390625 
L 45.40625 54.6875 
L 54.390625 54.6875 
z
" id="DejaVuSans-67"/>
    </defs>
    <g transform="translate(50.038125 35.472)scale(0.12 -0.12)">
     <use xlink:href="#DejaVuSans-44"/>
     <use x="77.001953" xlink:href="#DejaVuSans-69"/>
     <use x="104.785156" xlink:href="#DejaVuSans-73"/>
     <use x="156.884766" xlink:href="#DejaVuSans-65"/>
     <use x="218.408203" xlink:href="#DejaVuSans-61"/>
     <use x="279.6875" xlink:href="#DejaVuSans-73"/>
     <use x="331.787109" xlink:href="#DejaVuSans-65"/>
     <use x="393.310547" xlink:href="#DejaVuSans-20"/>
     <use x="425.097656" xlink:href="#DejaVuSans-50"/>
     <use x="485.384766" xlink:href="#DejaVuSans-72"/>
     <use x="526.466797" xlink:href="#DejaVuSans-65"/>
     <use x="587.990234" xlink:href="#DejaVuSans-76"/>
     <use x="647.169922" xlink:href="#DejaVuSans-61"/>
     <use x="708.449219" xlink:href="#DejaVuSans-6c"/>
     <use x="736.232422" xlink:href="#DejaVuSans-65"/>
     <use x="797.755859" xlink:href="#DejaVuSans-6e"/>
     <use x="861.134766" xlink:href="#DejaVuSans-63"/>
     <use x="916.115234" xlink:href="#DejaVuSans-65"/>
     <use x="977.638672" xlink:href="#DejaVuSans-20"/>
     <use x="1009.425781" xlink:href="#DejaVuSans-76"/>
     <use x="1068.605469" xlink:href="#DejaVuSans-73"/>
     <use x="1120.705078" xlink:href="#DejaVuSans-2e"/>
     <use x="1152.492188" xlink:href="#DejaVuSans-20"/>
     <use x="1184.279297" xlink:href="#DejaVuSans-54"/>
     <use x="1245.316406" xlink:href="#DejaVuSans-69"/>
     <use x="1273.099609" xlink:href="#DejaVuSans-6d"/>
     <use x="1370.511719" xlink:href="#DejaVuSans-65"/>
     <use x="1432.035156" xlink:href="#DejaVuSans-20"/>
     <use x="1463.822266" xlink:href="#DejaVuSans-28"/>
     <use x="1502.835938" xlink:href="#DejaVuSans-6d"/>
     <use x="1600.248047" xlink:href="#DejaVuSans-6f"/>
     <use x="1661.429688" xlink:href="#DejaVuSans-6e"/>
     <use x="1724.808594" xlink:href="#DejaVuSans-74"/>
     <use x="1764.017578" xlink:href="#DejaVuSans-68"/>
     <use x="1827.396484" xlink:href="#DejaVuSans-73"/>
     <use x="1879.496094" xlink:href="#DejaVuSans-29"/>
     <use x="1918.509766" xlink:href="#DejaVuSans-20"/>
     <use x="1950.296875" xlink:href="#DejaVuSans-66"/>
     <use x="1985.501953" xlink:href="#DejaVuSans-6f"/>
     <use x="2046.683594" xlink:href="#DejaVuSans-72"/>
     <use x="2087.796875" xlink:href="#DejaVuSans-20"/>
     <use x="2119.583984" xlink:href="#DejaVuSans-41"/>
     <use x="2187.992188" xlink:href="#DejaVuSans-6c"/>
     <use x="2215.775391" xlink:href="#DejaVuSans-6c"/>
     <use x="2243.558594" xlink:href="#DejaVuSans-2c"/>
     <use x="2275.345703" xlink:href="#DejaVuSans-20"/>
     <use x="2307.132812" xlink:href="#DejaVuSans-77"/>
     <use x="2388.919922" xlink:href="#DejaVuSans-69"/>
     <use x="2416.703125" xlink:href="#DejaVuSans-74"/>
     <use x="2455.912109" xlink:href="#DejaVuSans-68"/>
     <use x="2519.291016" xlink:href="#DejaVuSans-20"/>
     <use x="2551.078125" xlink:href="#DejaVuSans-49"/>
     <use x="2580.570312" xlink:href="#DejaVuSans-6e"/>
     <use x="2643.949219" xlink:href="#DejaVuSans-74"/>
     <use x="2683.158203" xlink:href="#DejaVuSans-65"/>
     <use x="2744.681641" xlink:href="#DejaVuSans-67"/>
     <use x="2808.158203" xlink:href="#DejaVuSans-72"/>
     <use x="2849.271484" xlink:href="#DejaVuSans-61"/>
     <use x="2910.550781" xlink:href="#DejaVuSans-74"/>
     <use x="2949.759766" xlink:href="#DejaVuSans-69"/>
     <use x="2977.542969" xlink:href="#DejaVuSans-6f"/>
     <use x="3038.724609" xlink:href="#DejaVuSans-6e"/>
    </g>
   </g>
   <g id="legend_1">
    <g id="patch_7">
     <path d="M 296.337188 78.82825 
L 407.72 78.82825 
Q 409.72 78.82825 409.72 76.82825 
L 409.72 48.472 
Q 409.72 46.472 407.72 46.472 
L 296.337188 46.472 
Q 294.337188 46.472 294.337188 48.472 
L 294.337188 76.82825 
Q 294.337188 78.82825 296.337188 78.82825 
z
" style="fill:#ffffff;opacity:0.8;stroke:#cccccc;stroke-linejoin:miter;"/>
    </g>
    <g id="line2d_36">
     <path d="M 298.337188 54.570437 
L 318.337188 54.570437 
" style="fill:none;stroke:#1f77b4;stroke-linecap:square;stroke-width:1.5;"/>
    </g>
    <g id="line2d_37"/>
    <g id="text_22">
     <!-- Schistosomiasis -->
     <defs>
      <path d="M 53.515625 70.515625 
L 53.515625 60.890625 
Q 47.90625 63.578125 42.921875 64.890625 
Q 37.9375 66.21875 33.296875 66.21875 
Q 25.25 66.21875 20.875 63.09375 
Q 16.5 59.96875 16.5 54.203125 
Q 16.5 49.359375 19.40625 46.890625 
Q 22.3125 44.4375 30.421875 42.921875 
L 36.375 41.703125 
Q 47.40625 39.59375 52.65625 34.296875 
Q 57.90625 29 57.90625 20.125 
Q 57.90625 9.515625 50.796875 4.046875 
Q 43.703125 -1.421875 29.984375 -1.421875 
Q 24.8125 -1.421875 18.96875 -0.25 
Q 13.140625 0.921875 6.890625 3.21875 
L 6.890625 13.375 
Q 12.890625 10.015625 18.65625 8.296875 
Q 24.421875 6.59375 29.984375 6.59375 
Q 38.421875 6.59375 43.015625 9.90625 
Q 47.609375 13.234375 47.609375 19.390625 
Q 47.609375 24.75 44.3125 27.78125 
Q 41.015625 30.8125 33.5 32.328125 
L 27.484375 33.5 
Q 16.453125 35.6875 11.515625 40.375 
Q 6.59375 45.0625 6.59375 53.421875 
Q 6.59375 63.09375 13.40625 68.65625 
Q 20.21875 74.21875 32.171875 74.21875 
Q 37.3125 74.21875 42.625 73.28125 
Q 47.953125 72.359375 53.515625 70.515625 
" id="DejaVuSans-53"/>
     </defs>
     <g transform="translate(326.337188 58.070437)scale(0.1 -0.1)">
      <use xlink:href="#DejaVuSans-53"/>
      <use x="63.476562" xlink:href="#DejaVuSans-63"/>
      <use x="118.457031" xlink:href="#DejaVuSans-68"/>
      <use x="181.835938" xlink:href="#DejaVuSans-69"/>
      <use x="209.619141" xlink:href="#DejaVuSans-73"/>
      <use x="261.71875" xlink:href="#DejaVuSans-74"/>
      <use x="300.927734" xlink:href="#DejaVuSans-6f"/>
      <use x="362.109375" xlink:href="#DejaVuSans-73"/>
      <use x="414.208984" xlink:href="#DejaVuSans-6f"/>
      <use x="475.390625" xlink:href="#DejaVuSans-6d"/>
      <use x="572.802734" xlink:href="#DejaVuSans-69"/>
      <use x="600.585938" xlink:href="#DejaVuSans-61"/>
      <use x="661.865234" xlink:href="#DejaVuSans-73"/>
      <use x="713.964844" xlink:href="#DejaVuSans-69"/>
      <use x="741.748047" xlink:href="#DejaVuSans-73"/>
     </g>
    </g>
    <g id="line2d_38">
     <path d="M 298.337188 69.248562 
L 318.337188 69.248562 
" style="fill:none;stroke:#ff7f0e;stroke-linecap:square;stroke-width:1.5;"/>
    </g>
    <g id="line2d_39"/>
    <g id="text_23">
     <!-- Malaria -->
     <defs>
      <path d="M 9.8125 72.90625 
L 24.515625 72.90625 
L 43.109375 23.296875 
L 61.8125 72.90625 
L 76.515625 72.90625 
L 76.515625 0 
L 66.890625 0 
L 66.890625 64.015625 
L 48.09375 14.015625 
L 38.1875 14.015625 
L 19.390625 64.015625 
L 19.390625 0 
L 9.8125 0 
z
" id="DejaVuSans-4d"/>
     </defs>
     <g transform="translate(326.337188 72.748562)scale(0.1 -0.1)">
      <use xlink:href="#DejaVuSans-4d"/>
      <use x="86.279297" xlink:href="#DejaVuSans-61"/>
      <use x="147.558594" xlink:href="#DejaVuSans-6c"/>
      <use x="175.341797" xlink:href="#DejaVuSans-61"/>
      <use x="236.621094" xlink:href="#DejaVuSans-72"/>
      <use x="277.734375" xlink:href="#DejaVuSans-69"/>
      <use x="305.517578" xlink:href="#DejaVuSans-61"/>
     </g>
    </g>
   </g>
  </g>
 </g>
 <defs>
  <clipPath id="pb2934f1414">
   <rect height="266.112" width="357.12" x="57.6" y="41.472"/>
  </clipPath>
 </defs>
</svg>
